<?xml version="1.0" encoding="utf-8"?>
<!-- Generator: Adobe Illustrator 25.2.3, SVG Export Plug-In . SVG Version: 6.00 Build 0)  -->
<svg version="1.1" id="elixir" xmlns="http://www.w3.org/2000/svg" xmlns:xlink="http://www.w3.org/1999/xlink" x="0px" y="0px"
	 viewBox="0 0 983.6 718.1" style="enable-background:new 0 0 983.6 718.1;" xml:space="preserve">
<style type="text/css">
	.st0{fill:#EE7601;}
	.st1{fill:#544F4C;}
	.st2{enable-background:new    ;}
	.st3{fill:#554D4A;}
</style>
<path class="st0" d="M756.4,33.2c-23.7,0-43,19.2-43,43c0,7.2,1.8,14.3,5.2,20.6c-4.3,2.1-14.2,7.1-28.2,14.4
	c-7.6-16-26.6-22.8-42.6-15.3s-22.8,26.6-15.3,42.6c0.5,1,1,1.9,1.5,2.8c-7.2,4-14.6,8.1-22.3,12.4c-7.6-11.6-23.2-14.9-34.8-7.3
	c-10.8,7-14.5,21.1-8.6,32.5c-7.9,4.7-15.9,9.6-23.9,14.5c-7.7-6.6-19.3-5.6-25.9,2.1c-3.9,4.6-5.3,10.8-3.7,16.7
	c-32.2,20.9-62.9,42.8-87.9,64.1c-29.1-65-71.9-136.3-131.6-194.4l-0.2-0.2c-7-6.9-12.8-3.8-4.7,4.7l0.3,0.3
	c50.6,54.5,90.4,133.3,117.5,205.2c-102.8,87.8-216.1,257.9-91.9,311.3c18.1,7.8,26.3-7.1,18.5-11.7c-1.4-0.8-56.7-30.7-21.5-122.6
	h88.5c4.7,0.2,8.7-3.6,8.9-8.3c0.2-4.7-3.6-8.7-8.3-8.9c-0.2,0-0.4,0-0.6,0h-81.2c5.3-11.1,11.1-22,17.5-32.5h63.7
	c4.7-0.2,8.5-4.1,8.3-8.9c-0.2-4.5-3.8-8.1-8.3-8.3h-52.7c6.6-9.8,14-20.1,22.2-30.9h30.5c4.7-0.2,8.5-4.1,8.3-8.9
	c-0.2-4.5-3.8-8.1-8.3-8.3H385c9.6-11.7,20.3-24,32-36.9l0.3-0.3c23.4,67.6,34.6,125.2,32.1,144.5c-1.4,10.5-8.1,14.8-10.8,16.1
	c-4.4,2.1-6.1,8.1,0.7,10.1c21.8,6.4,35.1-15.2,37.5-32.5c2.4-17.5-9.5-81.5-40.9-157.8c26.2-26.1,56.5-51.1,87.4-73.9
	c8.8,5.1,20,2.1,25.1-6.7c1.6-2.8,2.5-6,2.5-9.2c0-1.2-0.1-2.4-0.4-3.6c8.2-5.7,16.3-11.3,24.5-16.6c10.9,8.6,26.6,6.8,35.3-4
	c4.9-6.1,6.6-14.1,4.7-21.7c8.1-5,15.9-9.8,23.4-14.3c12.2,12.8,32.5,13.2,45.2,1c8.6-8.3,12-20.6,8.6-32.1
	c13.7-7.6,23.7-13,28.5-15.8c13.4,19.6,40.1,24.7,59.8,11.3c19.6-13.4,24.7-40.1,11.3-59.8C783.8,40.2,770.6,33.2,756.4,33.2
	L756.4,33.2z"/>
<path class="st1" d="M267,377.4c1.6-3.5,2.9-7.2,4.5-11.8c1.9-5.2,3.4-10.4,4.5-15.8l16.4-70.7c1.3-7.2,2.4-12.6,2.7-15.8
	c0.5-2.8,0.7-5.7,0.5-8.6v-3.2h37l-22.2,98.3c-1.6,7-2.7,12.3-3.2,16.1c-0.7,3.8-0.9,7.7-0.8,11.5L267,377.4z"/>
<path class="st1" d="M174.8,377.4H65.2c-11,0-18.5-2.4-22.5-7.5c-2.1-2.9-3.2-7-3.2-12c0.1-4.6,0.7-9.2,1.9-13.7L55,284.7
	c2.9-12,7.2-20.6,13.1-25.7c6.2-5.1,14.5-7.5,25.7-7.5h80.9c11.5,0,19,2.4,22.8,7.5c2.4,3,3.5,7,3.5,12.3c0,4.5-0.7,9-1.9,13.4
	l-8.9,39.4H80.2l-5.9,25.7c-0.4,2-0.7,4.1-0.8,6.2c0,1.3,0,2.4,0.6,2.9c0.8,1.6,3.2,2.4,7,2.4h80.4c7,0,14-0.7,20.9-2.1L174.8,377.4
	z M166.2,279.1c0.7-2.1,1.1-4.2,1.1-6.4c0-0.9-0.2-1.8-0.5-2.7c-1.1-1.6-3.7-2.4-7.5-2.4h-56.8c-3.7,0-6.4,0.8-8,2.4
	c-1.9,1.6-3.2,4.6-3.7,9.1L83.9,308h75.5L166.2,279.1z"/>
<path class="st1" d="M202.1,377.4c1.7-3.9,3.1-8.1,4.8-13.2c2-5.8,3.6-11.7,4.8-17.7l28.1-130.3c1.7-8.1,2.8-14.1,3.4-17.7
	c0.3-3.3,0.6-7.8,0.6-13.2H283l-35,161.3c-1.7,7.8-2.8,13.8-3.4,18c-0.7,4.3-1,8.6-0.8,12.9L202.1,377.4z"/>
<path class="st1" d="M480.7,377.4c1.6-3.5,2.9-7.2,4.5-11.8c1.9-5.1,3.4-10.4,4.6-15.8l16.4-70.7c1.3-7.2,2.4-12.6,2.7-15.8
	c0.5-2.8,0.7-5.7,0.5-8.6v-3.2h37l-22.3,98.3c-1.6,7-2.7,12.3-3.2,16.1c-0.7,3.8-0.9,7.7-0.8,11.5H480.7z"/>
<path class="st1" d="M654.1,272.7c-4-0.3-8-0.5-12.6-0.5h-18c-3.5,0-6.4,0.8-8,2.1c-2.2,1.6-3.5,4.3-4.6,8.3l-15,67.2
	c-2.7,10.5-3.8,18.5-3.8,24.6v2.9h-39.1c1.6-4,3.2-7.8,4.3-11.5c1.1-3.5,2.4-8.8,4.3-16.1l16.1-70.7c1.9-7,2.7-12.3,3.5-16.3
	c0.4-3.7,0.6-7.5,0.5-11.2h32.9l-1.3,12.9c1.8-3.9,4.7-7.3,8.3-9.6c3.5-2.1,8-3.2,14.2-3.2H668l7.8,13.9c-1.7,1.5-3.2,3.2-4.5,5.1
	c-1.9,2.4-3.2,3.5-4,3.5C662.4,273.5,658.1,273,654.1,272.7z"/>
<path class="st1" d="M338.8,207.5c0,10-8.1,18.1-18.1,18.1c-10,0-18.1-8.1-18.1-18.1c0-10,8.1-18.1,18.1-18.1c0,0,0,0,0,0
	C330.7,189.4,338.8,197.5,338.8,207.5C338.8,207.5,338.8,207.5,338.8,207.5z"/>
<g class="st2">
	<path class="st3" d="M428.1,548.3c-2.5-1-4.7-1.7-9.4-1.7h-17.5c-3.2,0-5,1-5.8,4.1l-8.6,34.6c-0.8,3.1,0.6,4.1,3.8,4.1h13.8
		c9.8,0,11.6-0.7,15.3-2.4l-5.3,13h-39.4c-10.4,0-15-5-11.5-18.8l6.6-26.4c3.4-13.8,10.5-18.8,20.9-18.8h38.4L428.1,548.3z"/>
	<path class="st3" d="M490.1,585.8c-2.4,9.8-6.5,14.2-17.1,14.2h-36.8c-10.6,0-12.5-4.4-10.1-14.2l4.6-18.6
		c2.4-9.8,6.5-14.2,17.1-14.2h36.8c10.6,0,12.5,4.4,10.1,14.2L490.1,585.8z M449.4,587c-0.7,2.7-0.1,3.8,2.5,3.8h9.8
		c2.8,0,3.9-1.1,4.5-3.8l5.2-21c0.7-2.7,0.1-3.8-2.7-3.8h-9.8c-2.6,0-3.7,1.1-4.3,3.8L449.4,587z"/>
	<path class="st3" d="M529.8,553l-1.1,7.6h0.2c3.7-5.6,6.7-7.6,14-7.6h11.5l-3.8,15.4c-2.5-1.7-3.3-2.3-10.3-2.3
		c-9.3,0-11.5,1.6-13.1,8l-3.8,15.1c-1.6,6.5-0.9,8.4-0.1,10.8h-28.8c2-2.4,3.7-4.3,5.3-10.8l6.3-25.4c1.6-6.5,0.9-8.4,0.1-10.8
		H529.8z"/>
	<path class="st3" d="M577,581.6l-1.1,4.4c-0.7,3.4,0.4,4.8,4.2,4.8h22.7c4.5,0,7-0.3,11.2-2l-4.6,11.2h-47
		c-10.6,0-12.5-4.4-10.1-14.2l4.6-18.6c2.4-9.8,6.5-14.2,17.1-14.2H610c10.6,0,12.5,4.4,10.1,14.2l-3.6,14.4H577z M595.8,572.4
		l1.6-6.4c0.7-2.7,0.1-3.8-2.5-3.8h-9.7c-2.6,0-3.7,1.1-4.3,3.8l-1.6,6.4H595.8z"/>
	<path class="st3" d="M677.5,547c1.5-6.1,1.3-8.5,0.7-11H728c13.6,0,17.1,5.2,13.9,18.2l-6.9,27.6c-3.2,13-9.3,18.2-22.9,18.2h-49.7
		c1.8-2.5,3.2-4.9,4.7-11L677.5,547z M691.4,589.4h12.7c4,0,4.8-0.9,5.9-5.2l8.1-32.4c1.1-4.3,0.7-5.2-3.3-5.2H702L691.4,589.4z"/>
	<path class="st3" d="M798.6,553c11.3,0,14.6,4.8,11.4,17.7l-5.1,20.5c-1.2,4.8-0.8,6.9,0.1,8.8h-23.6l0.1-5.2h-0.2
		c-2.2,4.2-4.5,5.2-10.9,5.2h-16.8c-10.6,0-12.5-4.4-10.1-14.2l0.8-3.4c2.4-9.8,6.5-14.2,17.1-14.2H783c3.3,0,4.2-0.8,4.7-3
		c0.5-2.1,0-3-3.3-3H761c-4.4,0-6.8,0.6-9.9,2l4.5-11.2H798.6z M774.2,577.4c-3.6,0.1-5.1,0.6-6,4l-1.3,5.4c-0.8,3.4,0.4,3.9,4,4
		h5.5c4.5,0,5.2-0.7,6.7-6.7l1.7-6.7H774.2z"/>
	<path class="st3" d="M832.8,543.4l23.8-0.6L854,553h18.8l-2.3,9.2h-18.8l-6.2,24.8c-0.7,3-0.4,3.8,3.8,3.8h8.3
		c4.6,0,7.7-1.3,8.9-1.8l-4.2,11h-29.6c-7.5,0-13.3-3-10.3-14.7l5.8-23.1H818l2.3-9.2h10.1L832.8,543.4z"/>
	<path class="st3" d="M928.6,553c11.3,0,14.6,4.8,11.4,17.7l-5.1,20.5c-1.2,4.8-0.8,6.9,0.1,8.8h-23.6l0.1-5.2h-0.2
		c-2.2,4.2-4.5,5.2-10.9,5.2h-16.8c-10.6,0-12.5-4.4-10.1-14.2l0.8-3.4c2.4-9.8,6.5-14.2,17.1-14.2H913c3.3,0,4.2-0.8,4.7-3
		c0.5-2.1,0-3-3.3-3H891c-4.4,0-6.8,0.6-9.9,2l4.5-11.2H928.6z M904.2,577.4c-3.6,0.1-5.1,0.6-6,4l-1.3,5.4c-0.8,3.4,0.4,3.9,4,4
		h5.5c4.5,0,5.2-0.7,6.7-6.7l1.7-6.7H904.2z"/>
</g>
<g class="st2">
	<path class="st3" d="M391,662.2l-4.2,16.8c-1.5,6.1-1.3,8.5-0.7,11h-28.4c1.8-2.5,3.2-4.9,4.7-11l10.5-42c1.5-6.1,1.3-8.5,0.1-11
		h52.6c11.2,0,15.8,3.4,13.1,14.1l-2.9,11.8c-2.3,9.4-7.1,9.9-12.4,10.3l4.2,18c1,4.1,1.4,7.4,2.9,9.8h-27.3l-4.7-27.8H391z
		 M393.7,651.6h13.8c3.1,0,4.1-0.5,4.9-3.6l1.9-7.8c0.8-3.1,0-3.6-3.1-3.6h-13.8L393.7,651.6z"/>
	<path class="st3" d="M465.5,671.6l-1.1,4.4c-0.7,3.4,0.4,4.8,4.2,4.8h22.7c4.5,0,7-0.3,11.2-2l-4.6,11.2h-47
		c-10.6,0-12.5-4.4-10.1-14.2l4.6-18.6c2.4-9.8,6.5-14.2,17.1-14.2h35.9c10.6,0,12.5,4.4,10.1,14.2l-3.6,14.4H465.5z M484.3,662.4
		l1.6-6.4c0.7-2.7,0.1-3.8-2.5-3.8h-9.7c-2.6,0-3.7,1.1-4.3,3.8l-1.6,6.4H484.3z"/>
	<path class="st3" d="M564.5,657c10.8,0,11.1,5.5,10,11.2l-2.3,9.4c-1.5,6-6.7,12.4-17.2,12.4h-43.8l1-11.3c3.8,2,5.7,2.7,14,2.7
		h19.9c2.4,0,3.2-0.6,3.7-2.5l0.2-1c0.5-1.9-0.1-2.5-2.5-2.5h-20.5c-10.8,0-11.1-5.5-10-11.3l2.3-9.1c1.8-7.2,8.9-12,17.9-12h40.6
		l-0.9,11.7c-1.3-2.3-7.7-3.1-13.2-3.1h-18.3c-2.3,0-3.3,0.6-3.6,1.7l-0.5,2c-0.3,1.1,0.5,1.7,2.8,1.7H564.5z"/>
	<path class="st3" d="M646,675.8c-2.4,9.8-6.5,14.2-17.1,14.2H592c-10.6,0-12.5-4.4-10.1-14.2l4.6-18.6c2.4-9.8,6.5-14.2,17.1-14.2
		h36.8c10.6,0,12.5,4.4,10.1,14.2L646,675.8z M605.3,677c-0.7,2.7-0.1,3.8,2.5,3.8h9.8c2.8,0,3.9-1.1,4.5-3.8l5.2-21
		c0.7-2.7,0.1-3.8-2.7-3.8h-9.8c-2.6,0-3.7,1.1-4.3,3.8L605.3,677z"/>
	<path class="st3" d="M693.7,690l0.5-4.9H694c-1.7,2.4-3.8,4.9-7.3,4.9h-19.1c-11.1,0-14.1-6.6-11.4-17.1l4.8-19.1
		c1.6-6.5,0.9-8.4,0.1-10.8h26.2l-8.4,33.9c-0.7,2.9,0,3.9,2.9,3.9h8.6c2.9,0,4.1-1,4.9-3.9l5.8-23.1c1.6-6.5,0.9-8.4,0.1-10.8h26.2
		l-9,36.2c-1.6,6.5-0.9,8.4-0.1,10.8H693.7z"/>
	<path class="st3" d="M759.9,643l-1.1,7.6h0.2c3.7-5.6,6.7-7.6,14-7.6h11.5l-3.8,15.4c-2.5-1.7-3.3-2.3-10.3-2.3
		c-9.3,0-11.5,1.6-13.1,8l-3.8,15.1c-1.6,6.5-0.9,8.4-0.1,10.8h-28.8c2-2.4,3.7-4.3,5.3-10.8l6.3-25.4c1.6-6.5,0.9-8.4,0.1-10.8
		H759.9z"/>
	<path class="st3" d="M806,676c-0.7,3.4,0.4,4.8,4.2,4.8h11.5c7.8,0,10-1,13.1-2.3l-4.6,11.5h-36.5c-10.8,0-13.3-6-11.2-14.6
		l4.4-17.8c2.1-8.6,7.6-14.6,18.4-14.6h36.7l-0.8,11.7c-1.4-1.7-4.8-2.5-10.5-2.5h-13.5c-3.8,0-5.6,1.4-6.6,4.8L806,676z"/>
	<path class="st3" d="M868.4,671.6l-1.1,4.4c-0.7,3.4,0.4,4.8,4.2,4.8h22.7c4.5,0,7-0.3,11.2-2l-4.6,11.2h-47
		c-10.6,0-12.5-4.4-10.1-14.2l4.6-18.6c2.4-9.8,6.5-14.2,17.1-14.2h35.9c10.6,0,12.5,4.4,10.1,14.2l-3.6,14.4H868.4z M887.2,662.4
		l1.6-6.4c0.7-2.7,0.1-3.8-2.5-3.8h-9.7c-2.6,0-3.7,1.1-4.3,3.8l-1.6,6.4H887.2z"/>
</g>
</svg>
