<?xml version="1.0" encoding="utf-8"?>
<!-- Generator: Adobe Illustrator 25.2.3, SVG Export Plug-In . SVG Version: 6.00 Build 0)  -->
<svg version="1.1" id="EMBL-EBI_logo" xmlns="http://www.w3.org/2000/svg" xmlns:xlink="http://www.w3.org/1999/xlink" x="0px"
	 y="0px" viewBox="0 0 587 181" style="enable-background:new 0 0 587 181;" xml:space="preserve">
<style type="text/css">
	.st0{fill:#6DAB49;}
	.st1{fill:#DA0F21;}
</style>
<g>
	<circle id="a" class="st0" cx="467" cy="28.1" r="7.5"/>
	<circle id="a_1_" class="st0" cx="467" cy="48.7" r="7.5"/>
	<circle id="a_2_" class="st0" cx="467" cy="69.2" r="7.5"/>
	<circle id="a_3_" class="st0" cx="467" cy="89.7" r="7.5"/>
	<circle id="a_4_" class="st0" cx="467" cy="130.9" r="7.5"/>
	<circle id="a_5_" class="st0" cx="467" cy="151.5" r="7.5"/>
	<circle id="a_6_" class="st0" cx="430" cy="48.6" r="7.5"/>
	<circle id="a_7_" class="st0" cx="430" cy="69.3" r="7.5"/>
	<circle id="a_8_" class="st0" cx="430" cy="89.7" r="7.5"/>
	<circle id="a_9_" class="st0" cx="430" cy="110.3" r="7.5"/>
	<circle id="a_10_" class="st0" cx="430" cy="130.8" r="7.5"/>
	<circle id="a_11_" class="st0" cx="449" cy="38.4" r="7.5"/>
	<circle id="a_12_" class="st0" cx="449" cy="59" r="7.5"/>
	<circle id="a_13_" class="st0" cx="449" cy="79.5" r="7.5"/>
	<circle id="a_14_" class="st0" cx="449" cy="100" r="7.5"/>
	<circle id="a_15_" class="st0" cx="449" cy="120.5" r="7.5"/>
	<circle id="a_16_" class="st0" cx="449" cy="141" r="7.5"/>
	<circle id="a_17_" class="st0" cx="576.7" cy="48.6" r="7.5"/>
	<circle id="a_18_" class="st0" cx="576.7" cy="69" r="7.5"/>
	<circle id="a_19_" class="st0" cx="576.7" cy="89.7" r="7.5"/>
	<circle id="a_20_" class="st0" cx="576.7" cy="110" r="7.5"/>
	<circle id="a_21_" class="st0" cx="576.7" cy="131" r="7.5"/>
	<circle id="a_22_" class="st0" cx="558" cy="38.4" r="7.5"/>
	<circle id="a_23_" class="st0" cx="558" cy="59" r="7.5"/>
	<circle id="a_24_" class="st0" cx="558" cy="79.5" r="7.5"/>
	<circle id="a_25_" class="st0" cx="558" cy="100" r="7.5"/>
	<circle id="a_26_" class="st0" cx="558" cy="120.5" r="7.5"/>
	<circle id="a_27_" class="st0" cx="558" cy="141" r="7.5"/>
	<circle id="a_28_" class="st0" cx="540" cy="28" r="7.5"/>
	<circle id="a_29_" class="st0" cx="540" cy="48.7" r="7.5"/>
	<circle id="a_30_" class="st0" cx="540" cy="69" r="7.5"/>
	<circle id="a_31_" class="st0" cx="540" cy="89.7" r="7.5"/>
	<circle id="a_32_" class="st0" cx="540" cy="110" r="7.5"/>
	<circle id="a_33_" class="st0" cx="540" cy="131" r="7.5"/>
	<circle id="a_34_" class="st0" cx="540" cy="151.5" r="7.5"/>
	<circle id="b" class="st1" cx="467" cy="110" r="7.5"/>
	<circle id="a_35_" class="st0" cx="522" cy="18" r="7.5"/>
	<circle id="a_36_" class="st0" cx="522" cy="38" r="7.5"/>
	<circle id="a_37_" class="st0" cx="522" cy="59" r="7.5"/>
	<circle id="a_38_" class="st0" cx="522" cy="79" r="7.5"/>
	<circle id="a_39_" class="st0" cx="522" cy="100" r="7.5"/>
	<circle id="a_40_" class="st0" cx="522" cy="120.5" r="7.5"/>
	<circle id="a_41_" class="st0" cx="522" cy="141" r="7.5"/>
	<circle id="a_42_" class="st0" cx="522" cy="161.6" r="7.5"/>
	<circle id="a_43_" class="st0" cx="503.5" cy="7.5" r="7.5"/>
	<circle id="a_44_" class="st0" cx="503.5" cy="28" r="7.5"/>
	<circle id="a_45_" class="st0" cx="503.5" cy="48.6" r="7.5"/>
	<circle id="a_46_" class="st0" cx="503.5" cy="69" r="7.5"/>
	<circle id="a_47_" class="st0" cx="503.5" cy="90" r="7.5"/>
	<circle id="a_48_" class="st0" cx="503.5" cy="110.3" r="7.5"/>
	<circle id="a_49_" class="st0" cx="503.5" cy="131" r="7.5"/>
	<circle id="a_50_" class="st0" cx="503.5" cy="151.4" r="7.5"/>
	<circle id="a_51_" class="st0" cx="485" cy="17.7" r="7.5"/>
	<circle id="a_52_" class="st0" cx="485" cy="38.3" r="7.5"/>
	<circle id="a_53_" class="st0" cx="485" cy="58.8" r="7.5"/>
	<circle id="a_54_" class="st0" cx="485" cy="79.4" r="7.5"/>
	<circle id="a_55_" class="st0" cx="485" cy="100" r="7.5"/>
	<circle id="a_56_" class="st0" cx="485" cy="120.5" r="7.5"/>
	<circle id="a_57_" class="st0" cx="485" cy="141" r="7.5"/>
	<circle id="a_58_" class="st0" cx="485" cy="161.6" r="7.5"/>
	<circle id="a_59_" class="st0" cx="503.5" cy="172" r="7.5"/>
</g>
<g>
	<path id="E" d="M3.4,58.6h44.8v7.7H11.5v18.8h34v7h-34v21H49v7.5H3.4V58.6z"/>
	<path d="M56.4,59h12l17.8,52.4L103.8,59h12v62h-8V68.7l-17.6,52H82l-17.8-52v52h-8L56.4,59z"/>
	<path id="B" d="M131,120.8h26.3c9.4,0,21.7-4.7,21.7-18c0-11.4-8-14-11.3-15.2c2.3-1,8.3-4.3,8.3-13.2C176,62,165,59,157.8,59H131
		v62V120.8z M139.3,85V66h15c3.8,0,13.4,0.2,13.4,9.4c0,9.6-9.4,9.8-13,9.8h-15.4V85z M157.5,113.7h-18.2V92H156
		c3.6,0,14.7,0.3,14.7,10.4C170.7,112.1,162.7,113.7,157.5,113.7L157.5,113.7z"/>
	<polygon points="197.2,113.9 197.2,59 188.8,59 188.8,121 189.3,121 189.3,121.2 228.9,121.2 228.9,113.9 	"/>
	<path id="I_2_" d="M258.4,83.6v6.3h-24.8v-6.3H258.4z"/>
	<path id="E_1_" d="M271.2,58.6H316v7.7h-36.7v18.8h34v7h-34v21h37.5v7.5h-45.6V58.6z"/>
	<path id="B_1_" d="M324.4,120.8h26.3c9.4,0,21.7-4.7,21.7-18c0-11.4-8-14-11.3-15.2c2.3-1,8.3-4.3,8.3-13.2
		c0-12.4-11-15.4-18.2-15.4h-26.8v62V120.8z M332.7,85V66h15c3.8,0,13.4,0.2,13.4,9.4c0,9.6-9.4,9.8-13,9.8h-15.4V85z M350.9,113.7
		h-18.2V92h16.7c3.6,0,14.7,0.3,14.7,10.4C364.1,112.1,356.1,113.7,350.9,113.7L350.9,113.7z"/>
	<path id="I_3_" d="M380.8,121h8.4V59h-8.4V121z"/>
</g>
</svg>
