<?xml version="1.0" encoding="utf-8"?>
<!-- Generator: Adobe Illustrator 23.1.1, SVG Export Plug-In . SVG Version: 6.00 Build 0)  -->
<svg version="1.1" id="blog" xmlns="http://www.w3.org/2000/svg" xmlns:xlink="http://www.w3.org/1999/xlink" x="0px" y="0px"
	 viewBox="0 0 32 32" style="enable-background:new 0 0 32 32;" xml:space="preserve">
<style type="text/css">
	.st0{fill:#1DA1F2;}
</style>
<path class="st0" d="M10.4,28.2c11.3,0,17.5-9.4,17.5-17.5c0-0.3,0-0.5,0-0.8c1.2-0.9,2.2-2,3.1-3.2c-1.1,0.5-2.3,0.8-3.5,1
	c1.3-0.8,2.2-2,2.7-3.4C29,5,27.6,5.5,26.3,5.8c-2.3-2.5-6.2-2.6-8.7-0.3C16,7,15.3,9.2,15.8,11.4c-4.9-0.2-9.6-2.6-12.7-6.4
	C1.5,7.7,2.3,11.3,5,13.2c-1,0-1.9-0.3-2.8-0.8c0,0,0,0.1,0,0.1c0,2.9,2.1,5.5,4.9,6c-0.9,0.2-1.9,0.3-2.8,0.1
	c0.8,2.5,3.1,4.2,5.8,4.3c-2.2,1.7-4.9,2.6-7.6,2.6c-0.5,0-1,0-1.5-0.1C3.8,27.2,7.1,28.2,10.4,28.2"/>
</svg>
