<?xml version="1.0" encoding="utf-8"?>
<!-- Generator: Adobe Illustrator 23.1.1, SVG Export Plug-In . SVG Version: 6.00 Build 0)  -->
<svg version="1.1" id="eye" xmlns="http://www.w3.org/2000/svg" xmlns:xlink="http://www.w3.org/1999/xlink" x="0px" y="0px"
	 viewBox="0 0 32 32" style="enable-background:new 0 0 32 32;" xml:space="preserve">
<g>
	<g>
		<path class="rightHalf" d="M16,23l-1.7,2.5c0.5,0,1.2,0,1.7,0c6.2,0,11.6-3.3,14.6-8.3c0.5-0.8,0.5-1.8,0-2.5c-1.3-2-3-3.8-5-5.3l-3,4.3
			C23,14.3,23,15.2,23,16C23,19.8,20,23,16,23z"/>
		<path class="st0" d="M17.3,21.2l4-5.8C21.6,18.2,19.8,20.7,17.3,21.2z"/>
	</g>
	<path class="leftHalf" d="M1.4,17.3c1.7,2.8,4.2,5,7,6.5l0,0l-2.2,3c-0.3,0.5-0.3,1.3,0.3,1.7L7.2,29c0.5,0.3,1.3,0.3,1.7-0.3l17-23.4
		c0.3-0.5,0.3-1.3-0.3-1.7L24.8,3c-0.5-0.3-1.3-0.3-1.7,0.3l-2.7,3.8c-1.3-0.3-2.8-0.5-4.3-0.5C10,6.7,4.5,10,1.5,15
		C0.9,15.5,0.9,16.5,1.4,17.3L1.4,17.3z M8.8,16c0-3.8,3.2-7,7-7c1,0,1.8,0.2,2.7,0.5l-0.8,1.3c-1.3-0.5-2.8-0.3-4.2,0.3l0,0
		c1.2,0,2.2,1,2.2,2.2s-1,2.2-2.2,2.2s-2.2-1-2.2-2.2l0,0c-1,1.8-0.8,4,0.5,5.8l0,0l-1,1.3C9.5,19.3,8.8,17.8,8.8,16z"/>
</g>
</svg>
