<?xml version="1.0" encoding="utf-8"?>
<!-- Generator: Adobe Illustrator 23.0.1, SVG Export Plug-In . SVG Version: 6.00 Build 0)  -->
<svg version="1.1" id="Layer_1" xmlns="http://www.w3.org/2000/svg" xmlns:xlink="http://www.w3.org/1999/xlink" x="0px" y="0px"
	 viewBox="0 0 20 20" style="enable-background:new 0 0 20 20;" xml:space="preserve">
<path class="st0" d="M18.8,9.2c-1.8-3-5-5-8.8-5c-3.7,0-7,2-8.8,5c-0.3,0.5-0.3,1.1,0,1.5c1.8,3,5,5,8.8,5c3.7,0,7-2,8.8-5
	C19.1,10.3,19.1,9.7,18.8,9.2L18.8,9.2z M10,14.2c-2.3,0-4.2-1.9-4.2-4.2c0-2.3,1.9-4.2,4.2-4.2c2.3,0,4.2,1.9,4.2,4.2
	C14.2,12.3,12.3,14.2,10,14.2z M13.2,10c0,1.8-1.5,3.2-3.2,3.2S6.8,11.8,6.8,10c0-0.6,0.1-1.1,0.4-1.5l0,0c0,0.7,0.6,1.3,1.3,1.3
	s1.3-0.6,1.3-1.3c0-0.7-0.6-1.3-1.3-1.3l0,0c0.5-0.2,1-0.4,1.5-0.4C11.8,6.8,13.2,8.2,13.2,10z"/>
</svg>
