<?xml version="1.0" encoding="utf-8"?>
<!-- Generator: Adobe Illustrator 27.6.1, SVG Export Plug-In . SVG Version: 6.00 Build 0)  -->
<svg version="1.1" id="zebrafish" xmlns="http://www.w3.org/2000/svg" xmlns:xlink="http://www.w3.org/1999/xlink" x="0px" y="0px"
	 viewBox="0 0 32 32" style="enable-background:new 0 0 32 32;" xml:space="preserve">
<path d="M20.032,11.569c-0.193,0-1.257,0.29-1.45,0.29c-0.097,0.097-1.837,0.677-2.031,0.774c-0.387,0.193-1.45,0.29-2.224,0.097
	c-1.837-0.193-4.835,0-6.479,0.29c-0.29,0.097-1.354,0.29-1.547,0.29c-0.483,0.097-1.547,0.387-1.934,0.483
	c-0.58,0.097-1.45,0.387-1.644,0.483c-0.097,0.097-1.064,0.58-1.064,0.677c-0.193,0.193-0.193,0.58-0.097,0.58
	c0,0,0.097,0.097,0.193,0.29c0.097,0.29,0.29,0.58,0.58,0.87s1.354,0.774,1.934,0.967c1.741,0.58,3.771,1.064,4.061,1.16
	c0.967,0.29,2.514,0.483,3.965,0.483h0.967c0,0,1.257,0.677,1.644,0.774s0.58-0.097,0.677-0.387c0-0.29,0.097-0.677,0-0.774v-0.097
	c0.097-0.097,0.774-0.193,0.87-0.193c0.193-0.097,0.193-0.097,0.29,0.097c0.097,0.097,1.257,1.354,1.354,1.45
	c0.677,0.677,1.16,0.387,1.257,0.387s0.193-0.097,0.387-0.193s0.483-0.29,0.58-0.29s1.741-1.45,1.837-1.45
	c0.193-0.097,0.483-0.483,0.483-0.677c0-0.097,0-0.097,0.097-0.193s0.097-0.29,0-0.387c0,0,0.193,0,0.387,0s0.967,0.097,1.934,0.483
	c0.097,0.097,0.58,0.29,1.064,0.58c0.193,0.097,0.58,0.29,0.967,0.58c0.387,0.193,0.774,0.483,0.87,0.483
	c0.677,0.387,0.967,0.58,1.547,0.387s0.87-1.354-0.097-2.127c-1.354-1.064-0.677-1.45-0.58-1.644c0.29-0.29,0.967-0.967,1.16-1.16
	c0.387-0.387,0.58-0.967,0.483-1.257c-0.097-0.387-0.87-0.967-2.707-0.29c-0.097,0-0.483,0.193-0.774,0.387
	c-0.29,0.193-0.774,0.387-0.967,0.387s-1.064,0.387-1.837,0.29c-1.16-0.193-2.321-0.29-3.578-0.483c-0.097,0-0.193-0.193-0.097-0.29
	c0,0,0.097-0.193,0.193-0.387c0.193-0.677,0-1.741-0.387-1.934C20.226,11.569,20.129,11.569,20.032,11.569z M11.91,13.697
	c0.58,0,1.064,0,1.45,0c0.387,0,1.16,0.097,1.741,0.097c1.064,0,1.741,0.097,1.934,0.193c0.097,0,0,0.097-0.193,0
	c-0.483-0.097-8.026,0-8.509,0c-0.193,0-0.58,0.097-0.87,0.097c-0.387,0.097-0.967,0.193-1.354,0.193
	C6.011,14.18,5.721,13.89,5.625,13.89c0-0.097,0.29,0,0.58,0c0.097,0,0.387,0,0.58-0.097c0.193,0,0.483-0.097,0.774-0.097
	c0.193,0,0.58,0,0.774-0.097C9.009,13.697,10.556,13.697,11.91,13.697z M12.297,14.664c0.87,0,1.741,0,2.417,0
	c2.031,0,2.901,0.097,4.255,0.193c0.193,0,0.483,0.097,0.58,0.097c0.29,0,1.45,0.097,2.031,0.193c0.29,0,0.677,0.097,0.774,0.097
	c0.193,0,0.483,0.097,0.677,0.097c0.193,0,0.483,0.097,0.58,0.097s0.29,0,0.29,0.097c0,0,0.193,0,0.29,0
	c0.193,0,0.483,0,0.677,0.097c0,0,0.097,0.097,0,0.097c-0.097,0.097-0.097,0.097-0.29,0c-0.097,0-0.483-0.097-0.87-0.097
	s-0.774-0.097-0.774-0.097s-0.387-0.097-0.774-0.097c-0.29,0-0.58-0.097-0.87-0.097c-0.193-0.097-1.45-0.193-2.417-0.193
	c-0.58,0-1.16,0-1.16-0.097c-0.097,0-0.483,0-0.967-0.097c-0.483,0-1.064-0.097-1.257-0.097c-0.29-0.097-0.483-0.097-0.774,0
	c-0.193,0-0.483,0-0.483,0s-0.967,0-2.127-0.097c-1.547,0-2.224,0-2.514,0c-0.387,0.29-2.031,0.387-2.224,0.387
	c-0.097,0-0.774,0-0.967,0c-0.097-0.097-0.097-0.29-0.097-0.387c-0.097-0.097,0.29,0,0.967,0.097c0.58,0,1.16,0,2.127-0.097
	C9.686,14.76,10.943,14.664,12.297,14.664z M27.188,15.05c0.097,0,0.097,0,0.193,0s0.29,0,0.483,0c0.097,0,0.193,0,0.193,0.097
	s-0.677,0.097-0.774,0C26.994,15.147,26.994,15.05,27.188,15.05z M27.091,15.824c0.58,0,0.774,0,0.87,0.097
	c0.097,0.097,0.097,0.097,0,0.097s-0.097,0-0.193,0C27.671,16.017,27.478,15.921,27.091,15.824
	C26.221,15.921,26.221,15.824,27.091,15.824z M8.429,16.017h0.483c1.16,0,3.094,0.097,3.674,0.193c0.193,0,1.064,0,2.031,0
	c5.028-0.097,5.608,0,6.575,0.193c0.193,0,0.677,0.097,1.064,0.097s0.87,0.097,0.967,0.097s0.483,0.097,0.774,0.097
	c0.483,0.097,0.677,0.097,0.483,0.193c-0.097,0.097-0.193,0.097-0.87,0c-0.29,0-0.774-0.097-1.16-0.097s-0.774-0.097-0.967-0.097
	c-0.29-0.097-0.483-0.097-0.967-0.193c-1.547-0.193-4.351-0.29-4.641-0.097c-0.097,0.097-2.901,0-3.771-0.097
	c-0.193,0-0.677-0.097-0.87-0.097c-0.387,0-0.677,0-1.064-0.097c-0.58,0-2.224,0-2.321,0s-0.193-0.097-0.193-0.193
	C7.849,16.017,7.945,16.017,8.429,16.017z M25.834,16.598c0.097,0,0.097,0,0.29,0c0.387,0,1.064,0.29,1.354,0.387l0.193,0.097
	h-0.193c-0.097,0-0.29,0-0.387-0.097c-0.193-0.097-0.387-0.097-0.677-0.097C25.737,16.791,25.737,16.791,25.834,16.598
	C25.737,16.598,25.737,16.598,25.834,16.598z M21.386,16.984c0.29,0,0.483,0,0.387,0.097c0,0-0.193,0.097-0.387,0.097l-1.16,0.097
	c-0.387,0-0.774,0.097-1.064,0.097c-0.193,0-0.677,0.097-1.064,0.097s-0.774,0.097-0.967,0.097c-0.29,0-0.58,0.097-0.774,0.097
	c-0.097,0-0.29,0.097-0.483,0.097s-1.16,0-2.127,0.097c-1.354,0-1.741,0-1.934-0.097c-0.097,0-0.29-0.097-0.387-0.097
	s-0.097,0-0.097-0.097l0.097-0.097c0.097-0.097,0.097-0.097,0.387,0c0.193,0,0.483,0.097,0.774,0.097c0.29,0,0.677,0,0.967,0
	c0.387,0,0.87,0,2.321-0.097c0.29,0,0.483-0.097,0.58-0.097c0.097-0.097,1.064-0.193,3.094-0.29c0.483,0,0.967-0.097,1.45-0.097
	C21.193,17.081,21.289,17.081,21.386,16.984L21.386,16.984L21.386,16.984z M26.027,17.661c0.097,0,0.193,0,0.483,0.097
	c0.29,0.097,0.29,0.097,0.29,0.193c-0.097,0.097-0.097,0.097-0.483,0c-0.29-0.097-0.387-0.097-0.387-0.193
	S25.931,17.661,26.027,17.661z M21.869,18.145C21.966,18.145,21.869,18.145,21.869,18.145c0,0.097-0.193,0.193-0.29,0.193
	c-0.193,0.097-0.387,0.097-0.58,0.193h-0.29l0.193-0.097c0.097,0,0.387-0.097,0.58-0.193C21.773,18.241,21.869,18.145,21.869,18.145
	z M20.612,18.628l-0.193,0.097c-0.097,0-1.45,0.29-1.644,0.29c-0.387,0-0.87-0.097-0.58-0.097c0.097,0,1.934-0.193,2.127-0.193
	L20.612,18.628z M14.134,19.305L14.134,19.305c0.097,0,0.677,0.387,0.677,0.387c0,0.097-0.29,0.097-0.58-0.097
	C14.037,19.498,14.037,19.305,14.134,19.305z M4.464,15.341c0,0.483-0.387,0.774-0.774,0.774c-0.483,0-0.774-0.387-0.774-0.774
	s0.29-0.774,0.774-0.774S4.464,14.954,4.464,15.341z M4.078,15.341c0,0.193-0.193,0.387-0.387,0.387s-0.387-0.193-0.387-0.387
	s0.097-0.387,0.387-0.387S4.078,15.147,4.078,15.341z"/>
</svg>
