<?xml version="1.0" encoding="utf-8"?>
<!-- Generator: Adobe Illustrator 27.6.1, SVG Export Plug-In . SVG Version: 6.00 Build 0)  -->
<svg version="1.1" id="human" xmlns="http://www.w3.org/2000/svg" xmlns:xlink="http://www.w3.org/1999/xlink" x="0px" y="0px"
	 viewBox="0 0 32 32" style="enable-background:new 0 0 32 32;" xml:space="preserve">
<g>
	<path d="M7.181,20.333c-0.347,0.694-1.475,0.347-2.17-0.521s-1.214-1.649-1.562-1.909c-0.434-0.26-0.347-1.475,0.694-1.475
		s2.343,0.608,2.776,1.041C7.181,17.903,7.875,19.205,7.181,20.333z"/>
	<path d="M15.858,11.656c0-1.041,0.521-1.909,0.694-2.43c0.086-0.521-0.261-1.822-0.348-2.864s0.173-3.471,1.041-3.557
		s1.214,0.781,1.214,1.302s-0.087,2.776,0,3.297c0.087,0.521-0.087,1.214-0.434,1.735c-0.347,0.434-0.173,0.868,0.087,1.214
		s0.521,1.475,0.173,2.17c-0.347,0.694-1.128,0.694-1.649,0.608C16.204,13.044,15.858,12.09,15.858,11.656z"/>
	<path d="M20.456,13.738c-0.173-0.434-0.26-0.868,0-1.389c0.26-0.434,1.735-1.909,1.909-2.776S22.191,6.45,23.059,5.93
		c0.781-0.521,1.909-0.868,1.995-0.26c0.087,0.694,0.087,1.995-0.608,3.037c-0.694,1.041-0.521,1.562-0.694,2.343
		s-0.521,2.516-1.041,2.95c-0.521,0.434-1.041,0.868-1.735,0.694C20.283,14.346,20.629,14.086,20.456,13.738z"/>
	<path d="M27.57,11.309c-0.608-0.087-0.868,0.434-1.128,0.868c-0.26,0.347-0.608,1.041-0.694,1.302
		c-0.087,0.26-0.434,0.694-0.608,1.214c-0.173,0.521-0.173,1.562,0.347,1.389c0.434-0.173,0.868-0.521,1.041-0.868
		c0.173-0.347,0.173-0.694,0.434-0.781c0.26-0.087,1.214-1.041,1.302-1.389C28.438,12.437,28.612,11.483,27.57,11.309z"/>
	<path d="M24.273,16.775c-0.173,0.26-0.694,1.041,0,0.694c0.694-0.347,0.608-0.608,0.781-1.041
		C25.315,15.908,24.534,16.255,24.273,16.775z"/>
	<path d="M9.871,22.328c-0.173,0.521-0.434,1.302-0.347,2.082c0.087,0.781,1.041,1.995,1.302,2.343
		c0.26,0.347,1.562,1.389,2.776,1.389s2.69-0.521,3.644,0c1.041,0.521,2.082,1.041,3.211,0.26c1.041-0.781,1.475-1.909,2.082-3.905
		c0.521-1.995,1.475-3.557,1.302-4.772c-0.173-1.214-0.954-1.822-1.475-2.43c-0.521-0.608-1.041-1.128-1.995-0.868
		c-0.954,0.26-1.649-1.214-2.776-1.475c-1.128-0.26-2.17,0.26-2.95-0.694c-0.694-1.041,0.173-1.475-0.434-2.256
		c-0.521-0.781-0.868-1.562-1.041-2.43c-0.173-0.868-0.434-1.562-0.521-2.343c-0.087-0.694,0.087-2.082-0.781-2.43
		c-0.868-0.26-1.562,0-1.909,0.434c-0.347,0.521-0.173,2.256,0,2.776c0.173,0.521,0.26,1.909,0.521,2.516
		c0.261,0.608,0.434,1.649,0.868,2.603c0.433,0.954,1.214,1.214,1.041,1.822c-0.173,0.521-0.434,1.475-0.087,2.516
		c0.347,1.041,0.26,1.995-0.173,2.43C11.78,20.246,10.131,21.2,9.871,22.328z"/>
</g>
</svg>
