<?xml version="1.0" encoding="utf-8"?>
<!-- Generator: Adobe Illustrator 25.4.1, SVG Export Plug-In . SVG Version: 6.00 Build 0)  -->
<svg version="1.1" id="browser" xmlns="http://www.w3.org/2000/svg" xmlns:xlink="http://www.w3.org/1999/xlink" x="0px" y="0px"
	 viewBox="0 0 32 32" style="enable-background:new 0 0 32 32;" xml:space="preserve">
<path class="st0" d="M3,30.1000004C3,30.7000008,3.3,31,3.9000001,31h1.9000001c0.5,0,0.9000001-0.2999992,0.9000001-0.7999992
	c0-0.2999992,0.1999998-0.6000004,0.1999998-0.8999996H25c0.2000008,0.5,0.2000008,0.7999992,0.2000008,0.8999996
	c0,0.5,0.5,0.7999992,0.8999996,0.7999992H28c0.6000004,0,0.8999996-0.5,0.8999996-0.8999996
	c-0.2999992-2.2999992-1.6000004-7.5-6.8999996-12.3000011C21,18.6000004,19.7000008,19,18.6000004,20
	c0.2999992,0.2999992,0.6000004,0.6000004,0.8999996,0.8999996h-7.1999998C13.4000006,20,15.1000004,18.6999989,17,17.8999996
	c9.7999992-5,11.7000008-12.8000002,12-15.8000002c0-0.6-0.2999992-0.9-0.8999996-0.9h-1.8999996
	c-0.5,0-0.8999996,0.3000001-0.8999996,0.8000001c0,0.2,0,0.5999999-0.2000008,0.9000001H6.9000001
	C6.6999998,2.4000001,6.6999998,2,6.5999999,1.8c0-0.4-0.5-0.8-1-0.8H3.8C3.0999999,0.9,3,1.2,3,1.8
	C3.3,4.5,4.9000001,10.9000006,12.1999998,16C4.6999998,20.8999996,3.0999999,27.3999996,3,30.1000004z M15.8000002,13.6999998
	C14.1999998,12.8999996,13,12,12.1999998,11H19.5C18.5,12.1000004,17.2000008,12.8999996,15.8000002,13.6999998
	L15.8000002,13.6999998z M23.2999992,6.5C23,7.0999999,22.5,7.5999999,22.1999989,8.3999996H9.5
	c-0.3999996-0.6999998-0.8999996-1.0999999-1-1.9000001C8.5,6.4999995,23.2999992,6.4999995,23.2999992,6.5z M8.3000002,25.2000008
	c0.3000002-0.6000004,0.8000002-1.1000004,1.1000004-1.8999996H22c0.5,0.6000004,0.8999996,1.1000004,1.1000004,1.8999996H8.3000002
	z"/>
</svg>
