<?xml version="1.0" encoding="utf-8"?>
<!-- Generator: Adobe Illustrator 25.4.1, SVG Export Plug-In . SVG Version: 6.00 Build 0)  -->
<svg version="1.1" id="entity_x5F_viewer" xmlns="http://www.w3.org/2000/svg" xmlns:xlink="http://www.w3.org/1999/xlink" x="0px"
	 y="0px" viewBox="0 0 32 32" style="enable-background:new 0 0 32 32;" xml:space="preserve">
<g>
	<path class="st0" d="M9.8255816,21.1627922c-1.0465117-1.2558136-1.7441864-2.7906971-1.8837214-4.4651165H5.1511621
		c0.139535,2.3720932,1.1162796,4.6046524,2.6511636,6.4186058L9.8255816,21.1627922z"/>
	<path class="st0" d="M16.6627922,5.1860471v2.7906976C20.5,8.3255825,23.6395359,11.3953495,23.9883728,15.3023272h2.790699
		C26.4302349,9.860466,22.1046524,5.534884,16.6627922,5.1860471z"/>
	<path class="st0" d="M15.9651165,24.0232582c-1.8837214,0-3.6976738-0.6976757-5.1627903-1.8837223l-1.9534893,1.9534874
		c1.9534893,1.7441864,4.4651175,2.720932,7.1162796,2.720932c5.720932,0,10.4651184-4.4651165,10.8139553-10.1162796h-2.790699
		C23.5697689,20.8139553,20.1511631,24.0232582,15.9651165,24.0232582z"/>
	<path class="st0" d="M15.2674427,7.9767447V1c-4.8139544,0.2093023-9.2790718,2.7906978-11.930234,6.9069772l6.069768,3.4883723
		C10.7325583,9.4418612,12.8953495,8.1860476,15.2674427,7.9767447z"/>
	<path class="st0" d="M15.9651165,28.2093048c-2.999999,0-5.860465-1.1162777-8.0930233-3.0697689l-1.9534888,1.9534874
		C8.7093019,29.6046505,12.2674427,31,16.0348835,31c8.0232563,0,14.6511631-6.3488388,15.0000019-14.3023262h-2.790699
		C27.8255825,23.1162815,22.4534893,28.2093048,15.9651165,28.2093048z"/>
	<path class="st0" d="M2.6395342,9.0930243c-0.9767443,1.8837214-1.5348839,4.0465126-1.6744187,6.2093029h6.9767447
		c0.069768-0.9069767,0.3488369-1.8139544,0.6976748-2.7209301L2.6395342,9.0930243z"/>
</g>
</svg>
