<?xml version="1.0" encoding="utf-8"?>
<!-- Generator: Adobe Illustrator 23.0.3, SVG Export Plug-In . SVG Version: 6.00 Build 0)  -->
<svg version="1.1" id="search" xmlns="http://www.w3.org/2000/svg" xmlns:xlink="http://www.w3.org/1999/xlink" x="0px" y="0px"
	 viewBox="0 0 32 32" style="enable-background:new 0 0 32 32;" xml:space="preserve">
<path d="M30.7,27.1l-5.8-5.8c-0.3-0.3-0.6-0.4-1-0.4H23c1.5-2.1,2.5-4.6,2.5-7.6c0-6.7-5.5-12.1-12.1-12.1S1,6.5,1,13.2
	s5.5,12.1,12.1,12.1c2.8,0,5.5-0.9,7.6-2.5v0.9c0,0.4,0.1,0.7,0.4,1l5.8,5.8c0.4,0.4,1.5,0.4,1.9,0l1.6-1.6
	C31.1,28.5,31.1,27.6,30.7,27.1z M13.1,20.9c-4.2,0-7.6-3.4-7.6-7.6s3.4-7.6,7.6-7.6s7.6,3.4,7.6,7.6C20.6,17.4,17.3,20.9,13.1,20.9
	z"/>
</svg>
