<?xml version="1.0" encoding="utf-8"?>
<!-- Generator: Adobe Illustrator 25.4.1, SVG Export Plug-In . SVG Version: 6.00 Build 0)  -->
<svg version="1.1" xmlns="http://www.w3.org/2000/svg" xmlns:xlink="http://www.w3.org/1999/xlink" viewBox="0 0 32 32" xml:space="preserve">
<g>
	<path d="M16.8,9"/>
	<path d="M16.8,9"/>
	<path d="M24.8,14.5c0-3-2.6-3-4.8-3c-2.3,0-3.8-0.1-3.8-2h7v-3h-15v3h7c0,3,2.7,3,4.8,3c2.5,0,3.8,0.1,3.8,2h-4v3h9v-3H24.8z"/>
	<path d="M16.2,22.5c0-3-1.7-3-3-3c-1.2,0-2,0-2-2h7v-3h-15v3h7c0,3,1.8,3,3,3s2,0,2,2h-7v3h15v-3H16.2z"/>
</g>
</svg>
