<?xml version="1.0" encoding="utf-8"?>
<!-- Generator: Adobe Illustrator 25.4.1, SVG Export Plug-In . SVG Version: 6.00 Build 0)  -->
<svg version="1.1" id="alignments" xmlns="http://www.w3.org/2000/svg" xmlns:xlink="http://www.w3.org/1999/xlink" x="0px" y="0px"
	 viewBox="0 0 36 36" style="enable-background:new 0 0 36 36;" xml:space="preserve">
<style type="text/css">
	.st0{fill:none;}
</style>
<path class="st0" d="M18.7999992,11"/>
<path class="st0" d="M18.7999992,11"/>
<path d="M0,0h36v36H0V0z M26.7999992,16.5c0-3-2.6000004-3-4.7999992-3c-2.2999992,0-3.7999992-0.1000004-3.7999992-2h7v-3h-15v3h7
	c0,3,2.7000008,3,4.7999992,3c2.5,0,3.7999992,0.1000004,3.7999992,2h-4v3h9v-3H26.7999992z M18.2000008,24.5c0-3-1.7000008-3-3-3
	c-1.1999998,0-2,0-2-2h7v-3h-15v3h7c0,3,1.8000002,3,3,3s2,0,2,2h-7v3h15v-3H18.2000008z"/>
</svg>
