<?xml version="1.0" encoding="utf-8"?>
<!-- Generator: Adobe Illustrator 25.4.1, SVG Export Plug-In . SVG Version: 6.00 Build 0)  -->
<svg version="1.1" xmlns="http://www.w3.org/2000/svg" xmlns:xlink="http://www.w3.org/1999/xlink" viewBox="0 0 32 32" xml:space="preserve">
<g>
	<path d="M26.4,7.8H10.7c-0.2-1-1.1-1.6-2.1-1.6S6.8,6.8,6.5,7.8h-1C5.2,7.8,5,8,5,8.4c0,0.2,0.2,0.4,0.6,0.4h0.9
		c0.2,1,1.1,1.8,2.2,1.8s2-0.8,2.2-1.8h15.6c0.3,0,0.6-0.2,0.6-0.4C27,8,26.8,7.8,26.4,7.8z"/>
	<path d="M26.5,15.4h-2.1c-0.2-1-1.1-1.6-2.1-1.6s-1.9,0.7-2.1,1.6H5.5C5.2,15.4,5,15.7,5,16s0.2,0.6,0.6,0.6h14.6
		c0.2,1,1.1,1.6,2.1,1.6s1.9-0.7,2.1-1.6h2.1c0.3,0,0.6-0.2,0.6-0.6S26.8,15.4,26.5,15.4z"/>
	<path d="M26.4,23.2h-6.3c-0.2-1-1.1-1.8-2.2-1.8s-2,0.8-2.2,1.8H5.6c-0.3,0-0.6,0.2-0.6,0.6s0.2,0.5,0.6,0.5h10.3
		c0.3,0.9,1.1,1.5,2.1,1.5s1.8-0.7,2.1-1.5h6.4c0.3,0,0.6-0.3,0.6-0.5C27,23.4,26.8,23.2,26.4,23.2z"/>
</g>
</svg>
