<?xml version="1.0" encoding="utf-8"?>
<!-- Generator: Adobe Illustrator 25.4.1, SVG Export Plug-In . SVG Version: 6.00 Build 0)  -->
<svg version="1.1" xmlns="http://www.w3.org/2000/svg" xmlns:xlink="http://www.w3.org/1999/xlink" viewBox="0 0 32 32" xml:space="preserve">
<g>
	<rect x="6.4" y="1.4" width="8.3" height="0.4"/>
	<rect x="6.4" y="30" width="8.3" height="0.4"/>
	<rect x="6.4" y="25.2" width="8.3" height="0.4"/>
	<path d="M27,25.7l-1.2,1.2c-0.3,0.3-1.1,0.3-1.5,0l-4.4-4.4c-0.2-0.2-0.3-0.4-0.3-0.8V21c-1.6,1.3-3.6,2-5.7,2
		c-2.2,0-4.3-0.8-5.9-2.2H6.4v-0.4h1.1c-1.7-1.6-2.7-3.9-2.7-6.5c0-3,1.5-5.6,3.8-7.3H6.4V6.2h2.8c1.4-0.9,3.1-1.4,4.8-1.4
		c4.9,0,9.1,4,9.1,9.1c0,2.2-0.8,4.2-1.9,5.7h0.7c0.3,0,0.6,0.1,0.8,0.3l4.4,4.4C27.3,24.7,27.3,25.4,27,25.7z M13.9,8.2
		c-2,0-3.8,1.1-4.8,2.7h7.1v1.2H8.5c-0.2,0.6-0.3,1.2-0.3,1.8s0.1,1.2,0.3,1.8h7.7v1.2H9c1,1.7,2.8,2.8,4.9,2.8
		c3.1,0,5.6-2.6,5.7-5.7C19.6,10.8,17,8.2,13.9,8.2z"/>
</g>
</svg>
