<?xml version="1.0" encoding="utf-8"?>
<!-- Generator: Adobe Illustrator 23.0.3, SVG Export Plug-In . SVG Version: 6.00 Build 0)  -->
<svg version="1.1" id="share" xmlns="http://www.w3.org/2000/svg" xmlns:xlink="http://www.w3.org/1999/xlink" x="0px" y="0px"
	 viewBox="0 0 32 32" style="enable-background:new 0 0 32 32;" xml:space="preserve">
<path d="M7,7c1.7,0,3.2,0.6,4.2,1.6L19,5.8C18.9,3.1,21,1,23.5,1S28,2.9,28,5.5S26,10,23.5,10c-1.4,0-2.5-0.6-3.3-1.5l-7.5,2.9
	c0.3,1.2,0.3,2.1-0.2,3.4l5.2,3.6c1.5-1.5,3.5-2.4,5.7-2.4c4.2,0,7.5,3.3,7.5,7.5S27.7,31,23.5,31c-5,0-8.8-4.9-7-10l-5.4-3.6
	C10,18.4,8.5,19,7,19c-3.3,0-6-2.7-6-6S3.7,7,7,7z"/>
</svg>
