<?xml version="1.0" encoding="utf-8"?>
<!-- Generator: Adobe Illustrator 23.1.1, SVG Export Plug-In . SVG Version: 6.00 Build 0)  -->
<svg version="1.1" xmlns="http://www.w3.org/2000/svg" xmlns:xlink="http://www.w3.org/1999/xlink" x="0px" y="0px"
	 viewBox="0 0 32 32" style="enable-background:new 0 0 32 32;" xml:space="preserve">
<style type="text/css">
	.st0{fill:#FF9933;}
</style>
<path class="st0" d="M29.1,31H2.9C1.9,31,1,30.1,1,29.1V2.9C1,1.9,1.9,1,2.9,1h26.2C30.2,1,31,1.9,31,2.9v26.2
	C31,30.1,30.2,31,29.1,31z M9,23c-1.3-1.3-3.5-1.3-4.8,0c-1.3,1.3-1.3,3.5,0,4.8s3.5,1.3,4.8,0C10.3,26.5,10.3,24.3,9,23z
	 M16.3,28.3h2.6c0.5,0,0.9-0.4,0.9-0.9c-0.4-8.1-7-14.6-15.1-15.1c-0.5,0-0.9,0.4-0.9,0.9v2.6c0,0.4,0.3,0.8,0.8,0.8
	c5.9,0.4,10.5,5.1,10.9,10.9C15.5,27.9,15.8,28.3,16.3,28.3z M27.3,28.2L27.3,28.2c0.5,0,0.9-0.4,0.9-0.9
	C27.8,14.5,17.5,4.2,4.7,3.8c-0.5,0-0.9,0.4-0.9,0.9l0,2.6c0,0.5,0.4,0.8,0.8,0.9c10.5,0.4,18.9,8.8,19.3,19.3
	c0,0.5,0.4,0.8,0.9,0.8L27.3,28.2z"/>
</svg>
