<?xml version="1.0" encoding="utf-8"?>
<!-- Generator: Adobe Illustrator 25.4.1, SVG Export Plug-In . SVG Version: 6.00 Build 0)  -->
<svg version="1.1" id="vep" xmlns="http://www.w3.org/2000/svg" xmlns:xlink="http://www.w3.org/1999/xlink" x="0px" y="0px"
	 viewBox="0 0 36 36" style="enable-background:new 0 0 36 36;" xml:space="preserve">
<path d="M33,10.3149977v0.5543613h-3.0941124V7.1177483h0.5801468v3.1972494C30.4860344,10.3149977,33,10.3149977,33,10.3149977z"/>
<path d="M27.4305954,7.1177483c0.4770088,0,0.8250961,0.0773525,1.0700474,0.2449503s0.360981,0.3996563,0.360981,0.7090673
	c0,0.1675978-0.0515671,0.3223038-0.1418152,0.4512253c-0.1031361,0.1289206-0.2449493,0.2320585-0.4383316,0.309411
	c0.1418152,0.0386763,0.2707367,0.103137,0.3867645,0.1804895c0.1160278,0.0773535,0.2191658,0.1804905,0.2836266,0.309411
	c0.0773544,0.1289215,0.1160278,0.2836275,0.1160278,0.4512253c0,0.2191658-0.0386753,0.3996563-0.1289196,0.5414696
	c-0.0902462,0.1418133-0.2062759,0.257843-0.3480873,0.3351955c-0.1418152,0.0773525-0.309412,0.1418133-0.4770088,0.1804895
	c-0.1804905,0.0386763-0.3480873,0.051569-0.5285797,0.051569h-2.1916618V7.1177483H27.4305954z M27.4821663,7.6850019h-1.5212727
	v0.9669099h1.5857334c0.1289215,0,0.2449493-0.0257835,0.3609791-0.0644598
	c0.1160297-0.0386772,0.1933823-0.0902452,0.2707367-0.1675978c0.0644608-0.0773535,0.1031361-0.1675978,0.1031361-0.2707357
	c0-0.1675973-0.0773525-0.2965188-0.2320576-0.3609796C27.8947144,7.7107863,27.7013321,7.6850019,27.4821663,7.6850019z
	 M27.5724106,9.206274h-1.611517v1.1087236h1.6373005c0.257843,0,0.4641171-0.051568,0.6317139-0.1418133
	c0.1675987-0.0902452,0.2449493-0.2320585,0.2449493-0.4254408c0-0.1418133-0.0515671-0.2578421-0.1418133-0.3351955
	c-0.0902443-0.0773525-0.2062759-0.1289215-0.3480873-0.1675978C27.8431454,9.2320585,27.7142239,9.206274,27.5724106,9.206274z"/>
<path d="M20.6622257,7.1177483l1.4825954,1.9982805l1.4825954-1.998281h0.5672531v3.764504h-0.5801468V9.2836266
	c0-0.2320576,0-0.4512243,0.0128937-0.6574984c0.0128918-0.206274,0.0257835-0.412549,0.0515671-0.6317148l-1.3536739,1.8048992
	h-0.3480873l-1.3665657-1.8048992c0.0257835,0.206274,0.0386772,0.4125481,0.051569,0.6317148
	c0.0128918,0.206274,0.0128918,0.4254398,0.0128918,0.6574984v1.5986252h-0.5801468V7.1177483H20.6622257z"/>
<path d="M15.9308119,7.1177483h3.1198969v0.5543618h-2.5397511v0.9926944h2.2432308v0.5543613h-2.2432308v1.0958319h2.5397511
	v0.5543613h-3.1198969V7.1177483z"/>
<path d="M11.8311129,9.7219591c0.206274,0.2191668,0.4383326,0.3867645,0.6703911,0.515686
	c0.2320585,0.1160288,0.5156851,0.1804895,0.8508806,0.1804895c0.1804895,0,0.36098-0.0257845,0.5414696-0.0644608
	c0.1675978-0.0386763,0.309411-0.1160288,0.4254408-0.206274c0.1160288-0.0902452,0.1675978-0.206274,0.1675978-0.3480883
	c0-0.1160288-0.051569-0.2191658-0.1418133-0.2707348c-0.103137-0.0644608-0.2449503-0.1160288-0.4254408-0.1418133
	c-0.1804905-0.0386763-0.4125481-0.0644608-0.6703911-0.103137c-0.3223028-0.0386763-0.6059294-0.103137-0.8379889-0.1933823
	C12.1792002,9,11.9987116,8.8839703,11.8697901,8.742157s-0.1933823-0.3351955-0.1933823-0.5543623
	c0-0.232058,0.0773525-0.4383321,0.2191658-0.6059299c0.1289215-0.1675978,0.3351955-0.2965193,0.5801458-0.386764
	c0.257843-0.0902448,0.5285778-0.1289215,0.8508816-0.1289215c0.3867636,0,0.7090673,0.0515685,0.9926939,0.1675978
	s0.5027933,0.283627,0.6574984,0.4899011l-0.3867645,0.4254403c-0.1418133-0.1675973-0.3223028-0.309411-0.5285769-0.4125481
	c-0.2191658-0.103137-0.4641171-0.1547055-0.7477436-0.1547055c-0.1933813,0-0.36098,0.0257845-0.5156851,0.0644608
	s-0.2707348,0.103137-0.36098,0.18049c-0.0902443,0.0773525-0.1289215,0.1675978-0.1289215,0.2836266
	c0,0.1289215,0.051569,0.2320585,0.1418133,0.309412c0.0902443,0.0773525,0.2320585,0.1418133,0.3996563,0.1804895
	s0.3738718,0.0773525,0.6059294,0.103137c0.2191658,0.0257845,0.4254408,0.051568,0.6188231,0.0902452
	c0.206274,0.0386763,0.3867645,0.0902443,0.5414696,0.1675978c0.154705,0.0644608,0.2836266,0.1675978,0.3738718,0.2836266
	c0.0902443,0.1160288,0.1418133,0.2707348,0.1418133,0.4641171c0,0.2449503-0.0773525,0.4512243-0.2191658,0.6446066
	c-0.1418133,0.1804895-0.3480873,0.3223038-0.6188231,0.4254408c-0.2707348,0.103137-0.5801458,0.154705-0.9282331,0.154705
	c-0.3867636,0-0.7348509-0.051568-1.0571547-0.1675978c-0.309411-0.1160288-0.5930376-0.2965183-0.8250971-0.5543613
	L11.8311129,9.7219591z"/>
<path d="M10.0648909,7.1177483h0.5801458v3.7645035h-0.5801458l-2.436614-2.9522991
	c0.025784,0.2320585,0.0386763,0.4641171,0.0644603,0.6961756c0.0257845,0.2320585,0.0386763,0.4641171,0.0386763,0.6961746
	v1.5599489H7.1512675V7.1177483h0.5672541l2.4366136,3.0296516c-0.0257845-0.1804895-0.0386763-0.36098-0.051568-0.5801458
	c-0.0128927-0.206275-0.0257845-0.412549-0.0257845-0.6317148c0-0.206274-0.0128918-0.4125481-0.0128918-0.5930386V7.1177483z"/>
<path d="M6.1070046,7.1177483v0.5543618H3.5672541v0.9926944h2.2432318v0.5543613H3.5672541l0.012892,0.5285778
	c0,0.1804905,0.090245,0.3351955,0.2449508,0.4254408c0.1675978,0.0902452,0.373872,0.1418133,0.6317146,0.1418133h1.6501932
	v0.5543613H4.4825954c-0.1804895,0-0.3480873-0.0128918-0.5285773-0.051568s-0.3351955-0.0902452-0.4770091-0.1804895
	c-0.1418135-0.0773535-0.2578428-0.1933823-0.3480878-0.3351955C3.0386765,10.1602917,3,9.9798021,3,9.7606363V9.5930386V7.1177483
	H6.1070046z"/>
<g>
	<path d="M4.1999998,15.7414036h1.5636816c0.1679058,0,0.3048568,0.0412722,0.4103842,0.12288
		s0.1847901,0.1871347,0.2377882,0.3165827l2.449173,6.3541546c0.0816078,0.2063656,0.1599331,0.4333668,0.2345057,0.6800652
		c0.0741034,0.2476387,0.1449242,0.5084076,0.2124615,0.7823105c0.110218-0.552494,0.2471685-1.040266,0.4103842-1.4623756
		l2.4421377-6.3541546c0.043149-0.110218,0.1200676-0.2110548,0.2307539-0.3025122
		c0.1102171-0.0909882,0.2471685-0.1369505,0.4103842-0.1369505h1.5632124L10.1578407,26.158596H8.4074936L4.1999998,15.7414036z"/>
	<path d="M22.0224018,15.7414036v1.5416374h-4.6174088v2.8891048h3.6381149v1.490984h-3.6381149v2.9467945h4.6174088v1.5486717
		h-6.5694313V15.7414036H22.0224018z"/>
	<path d="M25.7031956,22.4918728v3.6667233h-1.9379501V15.7414036h3.3937588c0.6960125,0,1.29916,0.0820761,1.8075676,0.2452917
		c0.509346,0.1632166,0.9295788,0.3911562,1.2607002,0.6842871c0.3320599,0.2931309,0.5768833,0.6434822,0.7354088,1.0515213
		c0.1585255,0.4085083,0.2373199,0.8550072,0.2373199,1.3399639c0,0.5046539-0.0834846,0.9666309-0.2523289,1.3868637
		c-0.1679058,0.4202328-0.4202328,0.7818413-0.7560444,1.0843525s-0.7560444,0.5379543-1.2607002,0.7058601
		c-0.5046558,0.168375-1.0946712,0.2523289-1.7719231,0.2523289H25.7031956z M25.7031956,20.9788437h1.4558086
		c0.3555107,0,0.6650581-0.0440865,0.9286423-0.1331978c0.2645206-0.088644,0.4830799-0.2162151,0.6556759-0.3817749
		c0.1735344-0.1655617,0.3029804-0.3672352,0.3892784-0.6050243c0.086298-0.2377872,0.1294479-0.5032482,0.1294479-0.7963791
		c0-0.2781239-0.0431499-0.5304508-0.1294479-0.7560463c-0.086298-0.2260628-0.215744-0.4178886-0.3892784-0.5764141
		c-0.172596-0.1585255-0.3911552-0.2799988-0.6556759-0.3639507c-0.2635841-0.0839539-0.5731316-0.1261654-0.9286423-0.1261654
		h-1.4558086V20.9788437z"/>
</g>
</svg>
