<?xml version="1.0" encoding="utf-8"?>
<!-- Generator: Adobe Illustrator 25.4.1, SVG Export Plug-In . SVG Version: 6.00 Build 0)  -->
<svg version="1.1" id="species_x5F_selector" xmlns="http://www.w3.org/2000/svg" xmlns:xlink="http://www.w3.org/1999/xlink"
	 x="0px" y="0px" viewBox="0 0 32 32" style="enable-background:new 0 0 32 32;" xml:space="preserve">
<style type="text/css">
	.st0{fill:#FFFFFF;}
</style>
<path id="_x3C_Compound_Path_pawprint_x3E_" class="st0" d="M4.1999998,11.8999996C2.5,11.8999996,1,9.8000002,1,8.1999998
	C1,7.0999999,1.6,6,2.8,6C4.5,6,6,8.1999998,6,9.8000002C6.0999999,10.8000002,5.5,11.8999996,4.1999998,11.8999996z M17.2999992,16
	c0,1.5-1.2000008,1.6000004-2.5,1.6000004c-1.6000004,0-2.6999998-1-4.3000002-1s-2.9000001,1-4.5999999,1
	c-1.0999999,0-2.2-0.3999996-2.2-1.6000004c0-2.6000004,3.8-6.5,6.6999998-6.5S17.2999992,13.3999996,17.2999992,16z
	 M7.9000001,7.1999998c-2,0-3-2.3000002-3-3.7c0-1.2,0.6999998-2.5999999,2.2000003-2.5999999c2,0,3,2.3,3,3.7
	C10,5.8000002,9.3000002,7.1999998,7.9000001,7.1999998z M11.3000002,4.5c0-1.5999999,1.1000004-3.7,3-3.7
	C15.8000002,0.8,16.5,2.3,16.5,3.3999999c0,1.6000001-1.1000004,3.7-3,3.7
	C11.8999996,7.1999998,11.3000002,5.8000002,11.3000002,4.5z M20.2999992,8.1999998
	c0,1.6000004-1.3999996,3.6999998-3.2000008,3.6999998c-1.3999996,0-1.8000002-1.1000004-1.8000002-2.1999998
	C15.2999983,8.0999994,16.6999989,6,18.4999981,6C19.7000008,6,20.2999992,7.1999998,20.2999992,8.1999998z"/>
<path id="_x3C_Path_twig_x3E_" class="st0" d="M3.9000001,21.2000008C6.5,22.8000011,9.2000008,23.8000011,11.8000002,24.3000011
	c0-0.7000008,0-1.7000008,0.5-2.5c1-1.5,3.1999998-1.6000004,3.1999998-1.6000004s0.5,2.1000004-0.5,3.5
	c-0.1999998,0.3999996-0.6000004,0.6000004-0.8999996,0.8999996c1.5,0.1000004,2.8999996,0,4.1999989-0.2000008
	C17.8999996,23.5,17.3999996,21.7999992,17.8999996,20.0999985c0.8999996-2.2999992,3.5-3.5,3.5-3.5
	s1.7000008,2.6000004,1,4.8999996C22.1999989,22.3999977,21.5,23.0999985,20.7999992,23.5999985
	c1.5-0.6000004,2.6000004-1.3999996,3.6000004-2.5C24.2999992,19.9999981,24.2999992,17.8999977,25.5,16.3999977
	c1.7000008-2.1000004,5.2000008-2,5.2000008-2s0.5,3.1000004-1.2000008,5.2000008c-1.2000008,1.5-3,2-4.1000004,2.2000008
	c-0.5,0.5-1.1000004,1-1.7000008,1.5c1-0.2000008,2.2000008-0.3999996,3.1000004,0.1000004c2.2999992,1,3.2000008,4,3.2000008,4
	s-2.6000004,1.3999996-4.8999996,0.3999996C23.3000011,27.0999985,22.2000008,25.1999989,21.8999996,24.5
	c-1.2000008,0.6000004-2.6000004,1-4,1.2000008c0.6000004,0.2000008,1.3999996,0.6000004,1.7999992,1.1000004
	c1.5,1.6000004,1,4.5,1,4.5s-2.6000004,0-4.1000004-1.7000008c-1.1000004-1.2000008-1.1999998-2.8999996-1.1999998-3.7000008
	c-1.6999998,0-3.5-0.2000008-5.3000002-0.7000008c-2.5-0.6000004-4.6999998-1.6000004-6.9000001-2.8999996l-0.4000001-0.3999996
	l0.5999999-1L3.9000001,21.2000008z"/>
</svg>
