<?xml version="1.0" encoding="utf-8"?>
<!-- Generator: Adobe Illustrator 25.4.1, SVG Export Plug-In . SVG Version: 6.00 Build 0)  -->
<svg version="1.1" xmlns="http://www.w3.org/2000/svg" xmlns:xlink="http://www.w3.org/1999/xlink"
  viewBox="0 0 100 100" xml:space="preserve">
  <g>
    <path d="M21.3,37h3.9c0.4,0,0.8,0.1,1,0.3c0.3,0.2,0.5,0.5,0.6,0.8L32.9,54c0.2,0.5,0.4,1.1,0.6,1.7c0.2,0.6,0.4,1.3,0.5,2
		c0.3-1.4,0.6-2.6,1-3.6l6.1-15.9c0.1-0.3,0.3-0.5,0.6-0.8c0.3-0.2,0.6-0.3,1-0.3h3.9L36.2,63h-4.4L21.3,37z" />
    <path d="M65.8,37v3.8H54.3V48h9.1v3.7h-9.1v7.4h11.5V63H49.4V37H65.8z" />
    <path d="M75,53.8V63h-4.8V37h8.5c1.7,0,3.2,0.2,4.5,0.6c1.3,0.4,2.3,1,3.1,1.7c0.8,0.7,1.4,1.6,1.8,2.6s0.6,2.1,0.6,3.3
		c0,1.3-0.2,2.4-0.6,3.5c-0.4,1-1,2-1.9,2.7c-0.8,0.8-1.9,1.3-3.1,1.8c-1.3,0.4-2.7,0.6-4.4,0.6C78.7,53.8,75,53.8,75,53.8z
			M75,50.1h3.6c0.9,0,1.7-0.1,2.3-0.3c0.7-0.2,1.2-0.5,1.6-1c0.4-0.4,0.8-0.9,1-1.5s0.3-1.3,0.3-2s-0.1-1.3-0.3-1.9
		c-0.2-0.6-0.5-1-1-1.4c-0.4-0.4-1-0.7-1.6-0.9c-0.7-0.2-1.4-0.3-2.3-0.3H75V50.1z" />
  </g>
  <g>
    <path d="M10.4,0h1.8v10.3H-0.3V8.4h10.7V0z" />
    <path d="M-0.3,18.6c0-1.6,0.3-2.8,0.8-3.6c0.6-0.8,1.3-1.2,2.4-1.2c0.6,0,1.1,0.2,1.5,0.5s0.8,0.8,1,1.5c0.1-0.5,0.3-0.9,0.6-1.3
		c0.3-0.4,0.6-0.7,1-0.9c0.4-0.3,0.9-0.4,1.5-0.4c0.7,0,1.3,0.1,1.8,0.4c0.5,0.3,0.9,0.7,1.1,1.2c0.3,0.5,0.5,1,0.6,1.6
		c0.1,0.6,0.2,1.2,0.2,1.8v7.3H-0.3V18.6z M1.6,18.4v5.1h3.2v-5.3c0-0.4-0.1-0.8-0.2-1.2c-0.1-0.4-0.3-0.6-0.6-0.9
		c-0.3-0.2-0.6-0.3-0.9-0.3c-0.6,0-1,0.3-1.2,0.8C1.7,17,1.6,17.7,1.6,18.4z M6.7,18.1v5.4h3.7V18c0-0.9-0.2-1.5-0.5-2.1
		c-0.3-0.6-0.8-0.8-1.4-0.8c-0.5,0-0.9,0.2-1.1,0.5c-0.3,0.3-0.4,0.7-0.6,1.2C6.8,17.2,6.7,17.6,6.7,18.1z" />
    <path d="M-0.3,41.1l6.7-4.9l-6.7-4.9v-1.9h12.5v1.9H6.9c-0.8,0-1.5,0-2.2,0s-1.4-0.1-2.1-0.2l6,4.5v1.2l-6,4.6
		c0.7-0.1,1.4-0.1,2.1-0.2c0.7,0,1.4,0,2.2,0h5.3V43H-0.3V41.1z" />
    <path d="M-0.3,56.9V46.5h1.8V55h3.3v-7.5h1.8V55h3.7v-8.5h1.8v10.4H-0.3z" />
    <path d="M8.4,70.6c0.7-0.7,1.3-1.5,1.7-2.2c0.4-0.8,0.6-1.7,0.6-2.8c0-0.6-0.1-1.2-0.2-1.8c-0.1-0.6-0.4-1-0.7-1.4
		s-0.7-0.6-1.2-0.6c-0.4,0-0.7,0.2-0.9,0.5c-0.2,0.3-0.4,0.8-0.5,1.4S7,65.1,6.9,65.9c-0.1,1.1-0.3,2-0.6,2.8
		C6,69.4,5.6,70,5.1,70.4S4,71,3.3,71c-0.8,0-1.5-0.3-2-0.7c-0.6-0.4-1-1.1-1.3-1.9c-0.3-0.9-0.4-1.8-0.4-2.8
		c0-1.3,0.2-2.4,0.6-3.3s0.9-1.7,1.6-2.2l1.4,1.3c-0.6,0.5-1,1.1-1.4,1.8c-0.3,0.7-0.5,1.5-0.5,2.5c0,0.6,0.1,1.2,0.2,1.7
		s0.3,0.9,0.6,1.2C2.3,68.8,2.6,69,3,69s0.8-0.2,1-0.5c0.3-0.3,0.5-0.8,0.6-1.3c0.1-0.6,0.3-1.2,0.3-2c0.1-0.7,0.2-1.4,0.3-2.1
		c0.1-0.7,0.3-1.3,0.6-1.8c0.2-0.5,0.6-0.9,0.9-1.2c0.4-0.3,0.9-0.5,1.5-0.5c0.8,0,1.5,0.3,2.1,0.7c0.6,0.5,1.1,1.2,1.4,2.1
		c0.3,0.9,0.5,1.9,0.5,3.1c0,1.3-0.2,2.4-0.6,3.5c-0.4,1-1,2-1.8,2.8L8.4,70.6z" />
    <path d="M-0.3,76.5v-1.9h12.5v1.9l-9.8,8.1c0.8-0.1,1.5-0.1,2.3-0.2s1.5-0.1,2.3-0.1h5.2v1.9H-0.3v-1.9l10.1-8.1
		c-0.6,0.1-1.2,0.1-1.9,0.2c-0.7,0-1.4,0.1-2.1,0.1s-1.4,0-2,0H-0.3z" />
    <path
      d="M-0.3,89.6h1.8v8.5h3.3v-7.5h1.8v7.5h1.8c0.6,0,1.1-0.3,1.4-0.8c0.3-0.6,0.5-1.2,0.5-2.1v-5.5h1.8v5.4
		c0,0.6,0,1.2-0.2,1.8c-0.1,0.6-0.3,1.1-0.6,1.6s-0.6,0.9-1.1,1.2c-0.5,0.3-1.1,0.4-1.8,0.4H8h-8.3C-0.3,100.1-0.3,89.6-0.3,89.6z" />
  </g>
</svg>
