<?xml version="1.0" encoding="utf-8"?>
<!-- Generator: Adobe Illustrator 25.4.1, SVG Export Plug-In . SVG Version: 6.00 Build 0)  -->
<svg version="1.1" xmlns="http://www.w3.org/2000/svg" xmlns:xlink="http://www.w3.org/1999/xlink" x="0px" y="0px"
	 viewBox="0 0 32 32" style="enable-background:new 0 0 32 32;" xml:space="preserve">
<path d="M3.5999999,2.7C3.5999999,2.8,3.5,2.9000001,3.5,3s0,0.2,0.0999999,0.3L15.5,19.5999985
	c0.1999998,0.2999992,0.6000004,0.2999992,0.7999992,0.2000008c0.1000004,0,0.1000004-0.1000004,0.2000008-0.2000008L28.3999996,3.3
	C28.6000004,3,28.5,2.6999998,28.1999989,2.5c-0.1000004-0.0999999-0.2000008-0.0999999-0.2999992-0.0999999H4.0999999
	C3.9000001,2.4000001,3.7,2.5,3.5999999,2.7z"/>
<path d="M29.3353596,29.6499996c1,0,1.666666-0.833334,1.666666-1.6666679v-1.7666645c0-1-0.833334-1.666666-1.666666-1.666666
	H2.6686926c-0.8333333,0-1.6666666,0.666666-1.6666666,1.666666v1.7666645c0,0.833334,0.6666669,1.6666679,1.6666666,1.6666679
	H29.3353596z"/>
</svg>
