<?xml version="1.0" encoding="utf-8"?>
<!-- Generator: Adobe Illustrator 25.4.1, SVG Export Plug-In . SVG Version: 6.00 Build 0)  -->
<svg version="1.1" xmlns="http://www.w3.org/2000/svg" xmlns:xlink="http://www.w3.org/1999/xlink" x="0px" y="0px"
	 viewBox="0 0 32 32" style="enable-background:new 0 0 32 32;" xml:space="preserve">
<path d="M4.8000002,28.2000008C4.8000002,29.7000008,6,31,7.5999999,31l0,0H24.5
	c1.6000004,0,2.7999992-1.2999992,2.7999992-2.7999992l0,0V8.5h-22.5V28.2000008z M20.7000008,13.1999998
	c0-0.5,0.3999996-0.8999996,0.8999996-0.8999996S22.5,12.6999998,22.5,13.1999998v13.0999994
	c0,0.5-0.3999996,0.8999996-0.8999996,0.8999996s-0.8999996-0.3999996-0.8999996-0.8999996V13.1999998z M15.1000004,13.1999998
	c0-0.5,0.3999996-0.8999996,0.8999996-0.8999996s0.8999996,0.3999996,0.8999996,0.8999996v13.0999994
	c0,0.5-0.3999996,0.8999996-0.8999996,0.8999996s-0.8999996-0.3999996-0.8999996-0.8999996V13.1999998z M9.3999996,13.1999998
	c0-0.5,0.3999996-0.8999996,0.8999996-0.8999996s0.8999996,0.3999996,0.8999996,0.8999996v13.0999994
	c0,0.5-0.3999996,0.8999996-0.8999996,0.8999996s-0.8999996-0.3999996-0.8999996-0.8999996V13.1999998z M28.2000008,2.9000001h-7
	l-0.6000004-1.1C20.3999996,1.3,19.8999996,1,19.2999992,1h-6.6999998c-0.5,0-1,0.3-1.3000002,0.8l-0.6000004,1.1000001h-7
	c-0.5,0-0.9000001,0.4000001-0.9000001,0.9000001v1.9000001c0,0.5,0.4000001,0.9000001,0.9000001,0.9000001h24.3999996
	c0.5,0,0.8999996-0.4000001,0.8999996-0.9000001V3.8C29.1000004,3.3,28.7000008,2.9000001,28.2000008,2.9000001z"/>
</svg>
