<?xml version="1.0" encoding="utf-8"?>
<!-- Generator: Adobe Illustrator 23.1.1, SVG Export Plug-In . SVG Version: 6.00 Build 0)  -->
<svg version="1.1" xmlns="http://www.w3.org/2000/svg" xmlns:xlink="http://www.w3.org/1999/xlink" x="0px" y="0px"
	 viewBox="0 0 32 32" style="enable-background:new 0 0 32 32;" xml:space="preserve">
<path d="M19.6,6.4c0.6,0.4,1,0.6,1.1,0.7c0.1,0.1,1.5,0.7,1.7,0.7c0.2,0.1,1.1,0.5,1.3,0.6c0.2,0.1,0.4,0.2,0.5,0.2
	c0.1,0.1,0.1,0.2,0.1,0.3c0,0.1-0.1,0.2-0.1,0.3c-0.1,0.1-0.8,0.4-1,0.5c-0.2,0.1-1.2,0.5-1.5,0.6c-0.1,0-0.4,0.2-0.9,0.4
	c-0.3-0.1-0.6-0.2-0.7-0.3c-0.2-0.1-1.1-0.5-1.3-0.8c-0.3-0.2-0.6-0.5-0.7-0.7c-0.2-0.3-0.3-1.1-0.3-1.5c0-0.2,0.1-2.9,0.1-2.9
	S18.6,5.8,19.6,6.4z M17.5,3.9c0,0-0.9-1.7-2.2-1.8c-1.3-0.1-2.2,0.4-2.7,1.6c-0.2,0.5-0.3,1-0.4,1.7h2.1v16.8h2.5l-4.4,4.4
	c0.1,0.9,0.2,1.6,0.2,2.1c0.1,0.3-0.1,0.6-0.4,0.6c0,0-0.1,0-0.1,0c-0.3,0-0.5-0.2-0.5-0.5c-0.1-0.5-0.2-1.3-0.2-2.3l-4.3-4.4h2.5
	V5.4h1.5c0.1-0.9,0.3-1.6,0.5-2.1c0.7-1.6,2.1-2.4,3.8-2.2c1.9,0.2,3,2.3,3,2.4c0.1,0.3,0,0.6-0.3,0.7C18,4.2,17.7,4.1,17.5,3.9z
	 M23.2,30.8C22.8,30.9,22.4,31,22,31c-0.6,0-1.4-0.2-2.3-0.8c-1.6-1-1.6-3.4-1.6-3.5c0-0.3,0.2-0.5,0.5-0.5c0,0,0,0,0,0
	c0.3,0,0.5,0.3,0.5,0.6c0,0,0,1.9,1.1,2.6c1.1,0.7,1.8,0.6,2.6,0.5c0.3-0.1,0.6,0.1,0.7,0.4C23.7,30.4,23.5,30.7,23.2,30.8
	C23.2,30.8,23.2,30.8,23.2,30.8z M24.9,20.5c0,0.3,0,1.1-0.1,1.3c-0.1,0.2-0.2,0.5-0.3,0.7c-0.2,0.2-0.7,0.5-1.1,0.7
	c-0.2,0.1-0.6,0.2-0.9,0.4c-0.3,0.1-0.5,0.2-0.8,0.3c-1.2,0.5-2.4,1-2.6,1c-0.3,0.2-0.9,0.5-1.1,0.7c-0.1,0.1-0.2,0.2-0.2,0.4
	c-0.1-0.3-0.1-0.7-0.1-1c0-0.3,0-1.3,0.1-1.7c0.1-0.3,0.2-0.8,0.5-1.1c0.1-0.1,0.4-0.3,0.8-0.6c0.8-0.4,2.5-1.2,2.6-1.3
	c0.3-0.1,1.3-0.5,1.5-0.6c0.2-0.1,0.8-0.3,1.1-0.5c0.1-0.1,0.2-0.3,0.2-0.4c0.1,0.1,0.2,0.3,0.2,0.4C24.9,19.5,24.9,20.2,24.9,20.5z
	 M18.2,17.9c0,0,0-0.1,0-0.2c0-0.2,0.1-0.3,0.2-0.5c0.1-0.1,0.7-0.5,0.9-0.6c0.1,0,0.6-0.2,1.2-0.5c0,0,0.1,0,0.1,0
	c0.1,0.1,1.5,0.7,1.7,0.7c0.2,0.1,1.1,0.5,1.3,0.6c0.2,0.1,0.4,0.2,0.5,0.2c0.1,0.1,0.1,0.2,0.1,0.3c0,0.1-0.1,0.2-0.1,0.3
	c-0.1,0.1-0.8,0.4-1,0.5c-0.2,0.1-1.2,0.5-1.5,0.6c-0.1,0-0.4,0.2-0.9,0.4c-0.3-0.1-0.6-0.2-0.7-0.3c-0.2-0.1-1.1-0.5-1.3-0.8
	c-0.1-0.1-0.2-0.2-0.3-0.3c-0.1-0.1-0.2-0.3-0.2-0.4C18.2,18,18.2,18,18.2,17.9z M24.9,11.4c0,0.3,0,1.1-0.1,1.3
	c-0.1,0.2-0.2,0.5-0.3,0.7c-0.1,0.1-0.4,0.3-0.7,0.5c-1.2,0.5-4.4,1.8-4.7,1.9c-0.3,0.2-0.9,0.5-1.1,0.7c-0.1,0.1-0.2,0.2-0.2,0.4
	c-0.1-0.3-0.1-0.6-0.1-1c0-0.4,0-1.3,0.1-1.7c0.1-0.3,0.2-0.8,0.5-1.1c0.2-0.2,0.4-0.3,0.5-0.4c0.5-0.3,2.7-1.3,2.9-1.4
	c0.3-0.1,1.3-0.5,1.5-0.6c0.2-0.1,0.8-0.3,1.1-0.5c0.1-0.1,0.2-0.2,0.2-0.4c0.1,0.1,0.1,0.2,0.2,0.3C24.9,10.4,24.9,11.1,24.9,11.4z
	"/>
</svg>
