<?xml version="1.0" encoding="utf-8"?>
<!-- Generator: Adobe Illustrator 25.4.0, SVG Export Plug-In . SVG Version: 6.00 Build 0)  -->
<svg version="1.1" xmlns="http://www.w3.org/2000/svg" xmlns:xlink="http://www.w3.org/1999/xlink" x="0px"
	 y="0px" viewBox="0 0 32 32" style="enable-background:new 0 0 32 32;" xml:space="preserve">
<path d="M16,31C7.7,31,1,24.3,1,16S7.7,1,16,1s15,6.7,15,15S24.3,31,16,31z M18.2,13.7v-1.9V7.3c0-0.5-0.4-0.8-0.8-0.8h-2.9
	c-0.5,0-0.8,0.4-0.8,0.8v4.5v1.9v3.2c0,0.5,0.4,0.8,0.8,0.8h2.9c0.5,0,0.8-0.4,0.8-0.8V13.7z M16,20.3c-1.4,0-2.6,1.2-2.6,2.6
	s1.2,2.6,2.6,2.6s2.6-1.1,2.6-2.6S17.4,20.3,16,20.3z"/>
</svg>
