<?xml version="1.0" encoding="utf-8"?>
<!-- Generator: Adobe Illustrator 25.4.1, SVG Export Plug-In . SVG Version: 6.00 Build 0)  -->
<svg version="1.1" id="eye" xmlns="http://www.w3.org/2000/svg" xmlns:xlink="http://www.w3.org/1999/xlink" x="0px" y="0px"
	 viewBox="0 0 32 32" style="enable-background:new 0 0 32 32;" xml:space="preserve">
<path d="M30.7007885,14.7530966c-2.8927593-4.9875622-8.3790588-8.2792683-14.6633663-8.2792683
	c-6.1845169,0-11.6708193,3.29176-14.6633673,8.2792683c-0.4987401,0.7980051-0.4987401,1.7954855,0,2.4938078
	c2.8927569,4.9875069,8.3791122,8.2792664,14.6633673,8.2792664c6.1845703,0,11.6708183-3.2918129,14.6633663-8.2792664
	C31.0997372,16.5485821,31.0997372,15.5511017,30.7007885,14.7530966L30.7007885,14.7530966z M16.0374241,23.1322079
	c-3.8902922,0-7.0822601-3.1920223-7.0822601-7.0823135s3.191968-7.082366,7.0822601-7.082366
	s7.0823116,3.1920233,7.0823116,7.0823145S19.9277134,23.1322079,16.0374241,23.1322079z M21.423933,16.0498428
	c0,2.9925461-2.3940163,5.3865108-5.3865108,5.3865108s-5.3865108-2.3939648-5.3865108-5.3865108
	c0-0.8977432,0.1995277-1.7954865,0.5984774-2.593545l0,0c0,1.1970081,0.9975328,2.1945419,2.1945419,2.1945419
	s2.1945419-0.9975338,2.1945419-2.1945419c0-1.1969557-0.9975338-2.1944895-2.1945419-2.1944895l0,0
	c0.7980051-0.3990021,1.5960112-0.5985308,2.5934916-0.5985308C19.0299702,10.6632776,21.423933,13.0573473,21.423933,16.0498428z"
	/>
</svg>
