<?xml version="1.0" encoding="utf-8"?>
<!-- Generator: Adobe Illustrator 25.4.1, SVG Export Plug-In . SVG Version: 6.00 Build 0)  -->
<svg version="1.1" id="move_x5F_tracks" xmlns="http://www.w3.org/2000/svg" xmlns:xlink="http://www.w3.org/1999/xlink" x="0px"
	 y="0px" viewBox="0 0 32 32" style="enable-background:new 0 0 32 32;" xml:space="preserve">
<g>
	<path id="_x3C_Path_arrow_down_x3E_" d="M16.5499992,30.7000008C16.4500008,30.8999996,16.25,31,16.0499992,31
		c-0.1999989,0-0.3999987-0.1000004-0.499999-0.2999992l-5-6.7000008c-0.1000004-0.1000004-0.1000004-0.2000008-0.1000004-0.3999996
		C10.4499998,23.3000011,10.75,23,11.0500002,23h9.9000006c0.2999992,0,0.5999985,0.2999992,0.5999985,0.6000004
		c0,0.1000004,0,0.2999992-0.0999985,0.3999996L16.5499992,30.7000008z"/>
	<path id="_x3C_Path_arrow_up_x3E__1_" d="M16.5,1.3C16.3999996,1.1,16.2000008,1,16,1c-0.1999998,0-0.3999996,0.1-0.5,0.3L10.5,8
		c-0.1000004,0.1000004-0.1000004,0.1999998-0.1000004,0.3999996C10.3999996,8.6999998,10.6999998,9,11,9h10
		c0.2999992,0,0.6000004-0.3000002,0.6000004-0.6000004c0-0.1000004,0-0.3000002-0.1000004-0.4000001L16.5,1.3z"/>
	<path d="M23.2888889,17.7766666c0.5466671,0,0.9111118-0.455555,0.9111118-0.9111118v-1.7311106
		c0-0.5466671-0.4555569-0.9111109-0.9111118-0.9111109H8.7111111c-0.4555559,0-0.9111109,0.3644438-0.9111109,0.9111109v1.7311106
		c0,0.4555569,0.3644447,0.9111118,0.9111109,0.9111118H23.2888889z"/>
</g>
</svg>
