<?xml version="1.0" encoding="utf-8"?>
<!-- Generator: Adobe Illustrator 25.4.1, SVG Export Plug-In . SVG Version: 6.00 Build 0)  -->
<svg version="1.1" id="blast" xmlns="http://www.w3.org/2000/svg" xmlns:xlink="http://www.w3.org/1999/xlink" x="0px" y="0px"
	 viewBox="0 0 36 36" style="enable-background:new 0 0 36 36;" xml:space="preserve">
<g>
	<path d="M4.2,15.8l1.6,0c0.2,0,0.3,0,0.4,0.1c0.1,0.1,0.2,0.2,0.2,0.3l2.4,6.4C8.9,22.8,9,23,9.1,23.3c0.1,0.2,0.1,0.5,0.2,0.8
		c0.1-0.6,0.2-1,0.4-1.5l2.4-6.4c0-0.1,0.1-0.2,0.2-0.3c0.1-0.1,0.2-0.1,0.4-0.1h1.6l-4.2,10.4H8.4L4.2,15.8z"/>
	<path d="M22,15.8v1.5l-4.6,0v2.9l3.6,0l0,1.5l-3.6,0v2.9l4.6,0v1.5l-6.6,0l0-10.4L22,15.8z"/>
	<path d="M25.7,22.5v3.7l-1.9,0l0-10.4l3.4,0c0.7,0,1.3,0.1,1.8,0.2c0.5,0.2,0.9,0.4,1.3,0.7c0.3,0.3,0.6,0.6,0.7,1.1
		c0.2,0.4,0.2,0.9,0.2,1.3c0,0.5-0.1,1-0.3,1.4s-0.4,0.8-0.8,1.1c-0.3,0.3-0.8,0.5-1.3,0.7c-0.5,0.2-1.1,0.3-1.8,0.3H25.7z M25.7,21
		l1.5,0c0.4,0,0.7,0,0.9-0.1c0.3-0.1,0.5-0.2,0.7-0.4c0.2-0.2,0.3-0.4,0.4-0.6c0.1-0.2,0.1-0.5,0.1-0.8c0-0.3,0-0.5-0.1-0.8
		c-0.1-0.2-0.2-0.4-0.4-0.6c-0.2-0.2-0.4-0.3-0.7-0.4c-0.3-0.1-0.6-0.1-0.9-0.1h-1.5L25.7,21z"/>
</g>
<g>
	<path d="M33,10.3v0.6h-3.1V7.1h0.6v3.2C30.5,10.3,33,10.3,33,10.3z"/>
	<path d="M27.4,7.1c0.5,0,0.8,0.1,1.1,0.2s0.4,0.4,0.4,0.7c0,0.2-0.1,0.3-0.1,0.5c-0.1,0.1-0.2,0.2-0.4,0.3c0.1,0,0.3,0.1,0.4,0.2
		c0.1,0.1,0.2,0.2,0.3,0.3c0.1,0.1,0.1,0.3,0.1,0.5c0,0.2,0,0.4-0.1,0.5c-0.1,0.1-0.2,0.3-0.3,0.3c-0.1,0.1-0.3,0.1-0.5,0.2
		c-0.2,0-0.3,0.1-0.5,0.1h-2.2V7.1H27.4z M27.5,7.7H26v1h1.6c0.1,0,0.2,0,0.4-0.1s0.2-0.1,0.3-0.2c0.1-0.1,0.1-0.2,0.1-0.3
		c0-0.2-0.1-0.3-0.2-0.4C27.9,7.7,27.7,7.7,27.5,7.7z M27.6,9.2H26v1.1h1.6c0.3,0,0.5-0.1,0.6-0.1c0.2-0.1,0.2-0.2,0.2-0.4
		c0-0.1-0.1-0.3-0.1-0.3c-0.1-0.1-0.2-0.1-0.3-0.2C27.8,9.2,27.7,9.2,27.6,9.2z"/>
	<path d="M20.7,7.1l1.5,2l1.5-2h0.6v3.8h-0.6V9.3c0-0.2,0-0.5,0-0.7c0-0.2,0-0.4,0.1-0.6l-1.4,1.8H22L20.6,8c0,0.2,0,0.4,0.1,0.6
		c0,0.2,0,0.4,0,0.7v1.6h-0.6V7.1H20.7z"/>
	<path d="M15.9,7.1h3.1v0.6h-2.5v1h2.2v0.6h-2.2v1.1h2.5v0.6h-3.1V7.1z"/>
	<path d="M11.8,9.7c0.2,0.2,0.4,0.4,0.7,0.5c0.2,0.1,0.5,0.2,0.9,0.2c0.2,0,0.4,0,0.5-0.1c0.2,0,0.3-0.1,0.4-0.2
		c0.1-0.1,0.2-0.2,0.2-0.3c0-0.1-0.1-0.2-0.1-0.3c-0.1-0.1-0.2-0.1-0.4-0.1c-0.2,0-0.4-0.1-0.7-0.1c-0.3,0-0.6-0.1-0.8-0.2
		C12.2,9,12,8.9,11.9,8.7s-0.2-0.3-0.2-0.6c0-0.2,0.1-0.4,0.2-0.6c0.1-0.2,0.3-0.3,0.6-0.4c0.3-0.1,0.5-0.1,0.9-0.1
		c0.4,0,0.7,0.1,1,0.2s0.5,0.3,0.7,0.5l-0.4,0.4c-0.1-0.2-0.3-0.3-0.5-0.4c-0.2-0.1-0.5-0.2-0.7-0.2c-0.2,0-0.4,0-0.5,0.1
		c-0.2,0-0.3,0.1-0.4,0.2c-0.1,0.1-0.1,0.2-0.1,0.3c0,0.1,0.1,0.2,0.1,0.3s0.2,0.1,0.4,0.2s0.4,0.1,0.6,0.1c0.2,0,0.4,0.1,0.6,0.1
		c0.2,0,0.4,0.1,0.5,0.2C14.8,9,14.9,9.1,15,9.2c0.1,0.1,0.1,0.3,0.1,0.5c0,0.2-0.1,0.5-0.2,0.6c-0.1,0.2-0.3,0.3-0.6,0.4
		c-0.3,0.1-0.6,0.2-0.9,0.2c-0.4,0-0.7-0.1-1.1-0.2c-0.3-0.1-0.6-0.3-0.8-0.6L11.8,9.7z"/>
	<path d="M10.1,7.1h0.6v3.8h-0.6l-2.4-3c0,0.2,0,0.5,0.1,0.7c0,0.2,0,0.5,0,0.7v1.6H7.2V7.1h0.6l2.4,3c0-0.2,0-0.4-0.1-0.6
		c0-0.2,0-0.4,0-0.6c0-0.2,0-0.4,0-0.6V7.1z"/>
	<path d="M6.1,7.1v0.6H3.6v1h2.2v0.6H3.6l0,0.5c0,0.2,0.1,0.3,0.2,0.4c0.2,0.1,0.4,0.1,0.6,0.1h1.7v0.6H4.5c-0.2,0-0.3,0-0.5-0.1
		s-0.3-0.1-0.5-0.2c-0.1-0.1-0.3-0.2-0.3-0.3C3,10.2,3,10,3,9.8V9.6V7.1H6.1z"/>
</g>
<g>
	<rect id="Rectangle_6273" x="38.1" width="36" height="36"/>
	<g id="blast_00000111186303476465958360000004677406035573786812_" transform="translate(0 1.437)">
		<g id="VEP_00000016773204787925253270000010995157070707013802_" transform="translate(0 1)">
			<g id="Group_18098">
				<path id="Path_3727" d="M43.1,14h1.5c0.1,0,0.3,0,0.4,0.1c0.1,0.1,0.2,0.2,0.2,0.3l2.4,6.1c0.1,0.2,0.2,0.4,0.2,0.7
					c0.1,0.2,0.1,0.5,0.2,0.8c0.1-0.5,0.2-1,0.4-1.4l2.4-6.1c0-0.1,0.1-0.2,0.2-0.3c0.1-0.1,0.3-0.1,0.4-0.1h1.5l-4.1,10h-1.7
					L43.1,14z"/>
				<path id="Path_3728" d="M60.3,14v1.5h-4.4v2.8h3.5v1.4h-3.5v2.8h4.4V24h-6.3V14H60.3z"/>
				<path id="Path_3729" d="M63.8,20.5V24h-1.9V14h3.3c0.6,0,1.2,0.1,1.7,0.2c0.4,0.1,0.9,0.4,1.2,0.7
					c0.3,0.3,0.6,0.6,0.7,1c0.2,0.4,0.2,0.8,0.2,1.3c0,0.5-0.1,0.9-0.2,1.3c-0.2,0.4-0.4,0.8-0.7,1c-0.4,0.3-0.8,0.5-1.2,0.7
					c-0.6,0.2-1.1,0.3-1.7,0.2H63.8z M63.8,19h1.4c0.3,0,0.6,0,0.9-0.1c0.2-0.1,0.5-0.2,0.6-0.4c0.2-0.2,0.3-0.4,0.4-0.6
					c0.1-0.2,0.1-0.5,0.1-0.8c0-0.2,0-0.5-0.1-0.7c-0.1-0.2-0.2-0.4-0.4-0.6c-0.2-0.2-0.4-0.3-0.6-0.4c-0.3-0.1-0.6-0.1-0.9-0.1
					h-1.4L63.8,19z"/>
			</g>
		</g>
		<g id="Group_18099">
			<path id="Path_3730" d="M71.1,8.8v0.6H68V5.6h0.6v3.2L71.1,8.8z"/>
			<path id="Path_3731" d="M65.5,5.6c0.4,0,0.7,0.1,1.1,0.2C66.8,6,67,6.3,67,6.6c0,0.2,0,0.3-0.1,0.5
				c-0.1,0.1-0.3,0.2-0.4,0.3c0.1,0,0.3,0.1,0.4,0.2C66.9,7.6,67,7.7,67,7.8c0.1,0.1,0.1,0.3,0.1,0.5c0,0.2,0,0.4-0.1,0.5
				c-0.1,0.1-0.2,0.3-0.3,0.3c-0.2,0.1-0.3,0.1-0.5,0.2c-0.2,0-0.4,0.1-0.5,0.1h-2.2V5.6H65.5z M65.6,6.2h-1.5v1h1.6
				c0.1,0,0.2,0,0.4-0.1c0.1,0,0.2-0.1,0.3-0.2c0.1-0.1,0.1-0.2,0.1-0.3c0-0.2-0.1-0.3-0.2-0.4C66,6.2,65.8,6.2,65.6,6.2z M65.7,7.7
				h-1.6v1.1h1.6c0.2,0,0.4,0,0.6-0.1c0.2-0.1,0.3-0.2,0.2-0.4c0-0.1,0-0.3-0.1-0.3c-0.1-0.1-0.2-0.1-0.3-0.2
				C65.9,7.7,65.8,7.7,65.7,7.7L65.7,7.7z"/>
			<path id="Path_3732" d="M58.8,5.6l1.5,2l1.5-2h0.6v3.8h-0.6V7.8c0-0.2,0-0.5,0-0.7c0-0.2,0-0.4,0.1-0.6l-1.4,1.8
				h-0.3l-1.4-1.8c0,0.2,0,0.4,0.1,0.6s0,0.4,0,0.7v1.6h-0.6V5.6H58.8z"/>
			<path id="Path_3733" d="M54,5.6h3.1v0.6h-2.5v1h2.2v0.6h-2.2v1.1h2.5v0.6H54V5.6z"/>
			<path id="Path_3734" d="M49.9,8.2c0.2,0.2,0.4,0.4,0.7,0.5c0.3,0.1,0.6,0.2,0.8,0.2c0.2,0,0.4,0,0.5-0.1
				c0.2,0,0.3-0.1,0.4-0.2c0.1-0.1,0.2-0.2,0.2-0.3c0-0.1,0-0.2-0.1-0.3c-0.1-0.1-0.3-0.1-0.4-0.1c-0.2,0-0.4-0.1-0.7-0.1
				c-0.3,0-0.6-0.1-0.8-0.2c-0.2-0.1-0.4-0.2-0.5-0.3c-0.1-0.2-0.2-0.4-0.2-0.6c0-0.2,0.1-0.4,0.2-0.6c0.2-0.2,0.4-0.3,0.6-0.4
				c0.3-0.1,0.6-0.1,0.9-0.1c0.3,0,0.7,0,1,0.2c0.3,0.1,0.5,0.3,0.7,0.5l-0.4,0.4c-0.1-0.2-0.3-0.3-0.5-0.4
				c-0.2-0.1-0.5-0.2-0.7-0.2c-0.2,0-0.3,0-0.5,0.1c-0.1,0-0.3,0.1-0.4,0.2c-0.1,0.1-0.1,0.2-0.1,0.3c0,0.1,0.1,0.2,0.1,0.3
				c0.1,0.1,0.3,0.2,0.4,0.2c0.2,0,0.4,0.1,0.6,0.1c0.2,0,0.4,0.1,0.6,0.1c0.2,0,0.4,0.1,0.5,0.2c0.1,0.1,0.3,0.2,0.4,0.3
				c0.1,0.1,0.1,0.3,0.1,0.5c0,0.2-0.1,0.5-0.2,0.6c-0.2,0.2-0.4,0.3-0.6,0.4c-0.3,0.1-0.6,0.2-0.9,0.2c-0.4,0-0.7-0.1-1.1-0.2
				c-0.3-0.1-0.6-0.3-0.8-0.6L49.9,8.2z"/>
			<path id="Path_3735" d="M48.2,5.6h0.6v3.8h-0.6l-2.4-3c0,0.2,0,0.5,0.1,0.7c0,0.2,0,0.5,0,0.7v1.6h-0.6V5.6h0.6
				l2.4,3c0-0.2,0-0.4-0.1-0.6s0-0.4,0-0.6s0-0.4,0-0.6L48.2,5.6z"/>
			<path id="Path_3736" d="M44.2,5.6v0.6h-2.5v1h2.2v0.6h-2.2l0,0.5c0,0.2,0.1,0.3,0.2,0.4c0.2,0.1,0.4,0.1,0.6,0.1h1.7
				v0.6h-1.6c-0.2,0-0.4,0-0.5-0.1c-0.2,0-0.3-0.1-0.5-0.2c-0.1-0.1-0.3-0.2-0.3-0.3c-0.1-0.2-0.1-0.4-0.1-0.5V5.6H44.2z"/>
		</g>
	</g>
</g>
</svg>
