<?xml version="1.0" encoding="utf-8"?>
<!-- Generator: Adobe Illustrator 25.4.1, SVG Export Plug-In . SVG Version: 6.00 Build 0)  -->
<svg version="1.1" xmlns="http://www.w3.org/2000/svg" xmlns:xlink="http://www.w3.org/1999/xlink" x="0px" y="0px"
	 viewBox="0 0 32 32" style="enable-background:new 0 0 32 32;" xml:space="preserve">
<path d="M26.3430176,14.7758179c0.0182495-0.2121582,0.0324097-0.4254761,0.0324097-0.642395
	c0-4.0842285-3.3109741-7.3952026-7.3952637-7.3952026c-2.7963867,0-5.2289429,1.5529175-6.4858398,3.8425903
	c-0.5494385-0.1952515-1.1384888-0.3070068-1.7549438-0.3070068c-2.8987427,0-5.2486572,2.3498535-5.2486572,5.2485962
	c0,0.2602539,0.0252075,0.5140381,0.0617676,0.7640991c-0.0210571-0.0003052-0.0406494-0.0062256-0.0617676-0.0062256
	C3.0105591,16.2802734,1,18.2908325,1,20.7710571c0,2.2004395,1.7875736,4.2795029,3.7764692,4.4907227h9.5838823v-4.4289551
	H11.871582c-0.2822876,0-0.5645752-0.2036133-0.5645752-0.4072266c0-0.1272583,0-0.2036133,0.105835-0.2799683l4.7283936-4.5562134
	c0.0706177-0.1272583,0.2822876-0.2036133,0.4587402-0.2036133s0.3529053,0.076355,0.4587402,0.2036133l4.7283936,4.5562134
	c0.105896,0.076355,0.105896,0.2036133,0.105896,0.2799683c0,0.2036133-0.2823486,0.4072266-0.5646362,0.4072266H18.717041
	v4.4289551h7.6583862C28.9802856,24.9467773,31,22.6900024,31,20.0001831
	C31,17.2990723,28.9637451,15.0761719,26.3430176,14.7758179z"/>
</svg>
