<?xml version="1.0" encoding="utf-8"?>
<!-- Generator: Adobe Illustrator 25.4.1, SVG Export Plug-In . SVG Version: 6.00 Build 0)  -->
<svg version="1.1" xmlns="http://www.w3.org/2000/svg" xmlns:xlink="http://www.w3.org/1999/xlink" x="0px" y="0px"
	 viewBox="0 0 32 32" style="enable-background:new 0 0 32 32;" xml:space="preserve">
<path d="M26.4299088,18.9942322v7.4855804c0,0.6986561-0.4990387,1.2975006-1.2974987,1.2975006h-5.9884644
	c-0.2994232,0-0.6986561-0.2994232-0.6986561-0.6986542v-5.7888489c0-0.2994232-0.2994213-0.6986561-0.6986542-0.6986561h-3.4932718
	c-0.2994232,0-0.6986532,0.2994232-0.6986532,0.6986561v5.7888489c0,0.2994213-0.2994242,0.6986542-0.6986542,0.6986542H6.8675914
	c-0.6986537,0-1.2975006-0.4990387-1.2975006-1.2975006v-7.4855804c0-0.1996155,0.0624285-0.3679199,0.1996155-0.4990387
	l9.7811584-7.9846191c0.1996145-0.1996155,0.4990387-0.1996155,0.7984619,0l9.7811604,7.9846191
	C26.3276825,18.6263123,26.3749332,18.7605743,26.4299088,18.9942322L26.4299088,18.9942322z"/>
<path d="M15.6065302,8.5148048c0.1996155-0.1996155,0.4990396-0.1996155,0.798461,0l12.0700836,9.9158611
	c0.4120693,0.3384781,0.9688454,0.2207394,1.2509117-0.1226521l1.0718441-1.304884
	c0.3384781-0.4120693,0.2207394-0.9688473-0.1226501-1.2509108L17.6026859,5.0215335
	c-0.9980774-0.7984619-2.295579-0.7984619-3.1938486,0L1.3248215,15.7522116
	c-0.343391,0.2820635-0.4611307,0.8388414-0.1226532,1.2509108l1.0718439,1.3048859
	c0.2820647,0.3433914,0.8388419,0.4611301,1.2509112,0.122654L15.6065302,8.5148048z"/>
</svg>
