<?xml version="1.0" encoding="utf-8"?>
<!-- Generator: Adobe Illustrator 25.4.1, SVG Export Plug-In . SVG Version: 6.00 Build 0)  -->
<svg version="1.1" id="regulation" xmlns="http://www.w3.org/2000/svg" xmlns:xlink="http://www.w3.org/1999/xlink" x="0px" y="0px"
	 viewBox="0 0 36 36" style="enable-background:new 0 0 36 36;" xml:space="preserve">
<path d="M0,0h36v36H0V0z M28.4,9.8H12.7c-0.2-1-1.1-1.6-2.1-1.6S8.8,8.8,8.5,9.8h-1C7.2,9.8,7,10,7,10.4c0,0.2,0.2,0.4,0.6,0.4h0.9
	c0.2,1,1.1,1.8,2.2,1.8s2-0.8,2.2-1.8h15.6c0.3,0,0.6-0.2,0.6-0.4C29,10,28.8,9.8,28.4,9.8z M28.5,17.4h-2.1c-0.2-1-1.1-1.6-2.1-1.6
	c-1,0-1.9,0.7-2.1,1.6H7.5C7.2,17.4,7,17.7,7,18s0.2,0.6,0.6,0.6h14.6c0.2,1,1.1,1.6,2.1,1.6c1,0,1.9-0.7,2.1-1.6h2.1
	c0.3,0,0.6-0.2,0.6-0.6S28.8,17.4,28.5,17.4z M28.4,25.2h-6.3c-0.2-1-1.1-1.8-2.2-1.8s-2,0.8-2.2,1.8H7.6c-0.3,0-0.6,0.2-0.6,0.6
	s0.2,0.5,0.6,0.5h10.3c0.3,0.9,1.1,1.5,2.1,1.5s1.8-0.7,2.1-1.5h6.4c0.3,0,0.6-0.3,0.6-0.5C29,25.4,28.8,25.2,28.4,25.2z"/>
</svg>
