<?xml version="1.0" encoding="utf-8"?>
<!-- Generator: Adobe Illustrator 25.4.1, SVG Export Plug-In . SVG Version: 6.00 Build 0)  -->
<svg version="1.1" id="Layer_1" xmlns="http://www.w3.org/2000/svg" xmlns:xlink="http://www.w3.org/1999/xlink" x="0px" y="0px"
	 viewBox="0 0 55 55" style="enable-background:new 0 0 55 55;" xml:space="preserve">
<path d="M27.5,0.5c-14.9116821,0-27,12.0883179-27,27s12.0883179,27,27,27s27-12.0883179,27-27S42.4116821,0.5,27.5,0.5
	z M42.0999756,20.923645L24.7999878,38.2236328C24,38.8236694,23.2000122,38.8236694,22.7000122,38.0236816l-9.7999878-9.8000488
	c-0.5-0.5-0.5-1.5999756,0-2.0999756L15,24.0236816c0.5-0.5,1.5-0.5,1.9000244,0l7,6.6999512l14-14
	c0.5-0.5,1.5999756-0.5,2.0999756,0l2.0999756,2.1000366C42.5999756,19.3236694,42.5999756,20.423645,42.0999756,20.923645z"/>
</svg>
