<?xml version="1.0" encoding="utf-8"?>
<!-- Generator: Adobe Illustrator 25.4.1, SVG Export Plug-In . SVG Version: 6.00 Build 0)  -->
<svg version="1.1" xmlns="http://www.w3.org/2000/svg" xmlns:xlink="http://www.w3.org/1999/xlink" x="0px"
	 y="0px" viewBox="0 0 32 32" style="enable-background:new 0 0 32 32;" xml:space="preserve">
<path d="M16,31C7.6999998,31,1,24.2999992,1,16S7.6999998,1,16,1s15,6.6999998,15,15S24.2999992,31,16,31z M24.7000008,12.8999996
	L23.3000011,11.5c-0.3999996-0.3999996-1-0.3999996-1.2999992,0l-6,6L10,11.6000004c-0.3999996-0.3999996-1-0.3999996-1.3000002,0
	L7.3000002,13c-0.4000001,0.3999996-0.4000001,1,0,1.3000002l6.5,6.5999994C13.9000006,21,13.9000006,21,13.9000006,21
	l1.3999996,1.3999996c0.1999998,0.2000008,0.3999996,0.2999992,0.6000004,0.2999992
	c0.3000002,0,0.4000006-0.1000004,0.5999994-0.2999992L17.8999996,21C18,21,18,21,18,21l6.5-6.6000004
	C25.1000004,13.8999996,25.1000004,13.3000002,24.7000008,12.8999996z"/>
</svg>
