<?xml version="1.0" encoding="utf-8"?>
<!-- Generator: Adobe Illustrator 25.2.3, SVG Export Plug-In . SVG Version: 6.00 Build 0)  -->
<svg version="1.1" xmlns="http://www.w3.org/2000/svg" xmlns:xlink="http://www.w3.org/1999/xlink" x="0px" y="0px"
	 viewBox="0 0 32 32" style="enable-background:new 0 0 32 32;" xml:space="preserve">
<path d="M31,25.5c0,0.5-0.4,0.9-0.9,0.9H20c-0.5,0-0.9-0.4-0.9-0.9l0,0v-4.9c0-0.5,0.4-0.9,0.9-0.9c0,0,0,0,0,0h4.4l-7.5-7.5h-1.5
	l-7.5,7.5H12c0.5,0,0.9,0.4,0.9,0.9c0,0,0,0,0,0v4.9c0,0.5-0.4,0.9-0.9,0.9h0H1.9C1.4,26.4,1,26,1,25.5l0,0v-4.9
	c0-0.5,0.4-0.9,0.9-0.9c0,0,0,0,0,0h4l7.5-7.5h-2.3c-0.5,0-0.9-0.4-0.9-0.9V6.5c0-0.5,0.4-0.9,0.9-0.9h10.1c0.5,0,0.9,0.4,0.9,0.9
	v4.9c0,0.5-0.4,0.9-0.9,0.9h-2.3l7.5,7.5h3.8c0.5,0,0.9,0.4,0.9,0.9C31,20.7,31,25.5,31,25.5z"/>
</svg>
