<?xml version="1.0" encoding="utf-8"?>
<!-- Generator: Adobe Illustrator 25.4.1, SVG Export Plug-In . SVG Version: 6.00 Build 0)  -->
<svg version="1.1" xmlns="http://www.w3.org/2000/svg" xmlns:xlink="http://www.w3.org/1999/xlink" x="0px" y="0px"
	 viewBox="0 0 32 32" style="enable-background:new 0 0 32 32;" xml:space="preserve">
<path d="M20.9843273,16l9.5924759-9.5924759c0.5642624-0.5642638,0.5642624-1.6927896,0-2.2570529
	l-2.6332283-2.6332278c-0.5642605-0.5642636-1.6927891-0.5642636-2.2570534,0l-9.5924759,9.5924749L6.5015688,1.517242
	c-0.5642638-0.5642636-1.6927891-0.5642636-2.2570529,0L1.4231995,4.1504717c-0.5642636,0.5642633-0.5642636,1.6927891,0,2.2570529
	L11.0156736,16l-9.5924759,9.5924778c-0.5642636,0.5642605-0.5642636,1.6927891,0,2.2570534l2.6332278,2.6332283
	c0.5642638,0.5642624,1.6927891,0.5642624,2.2570529,0l9.592474-9.5924759l9.5924759,9.5924759
	c0.5642624,0.5642624,1.6927891,0.5642624,2.2570553,0l2.6332283-2.6332283c0.5642624-0.5642624,0.5642624-1.6927891,0-2.2570534
	L20.9843273,16z"/>
</svg>
