<?xml version="1.0" encoding="utf-8"?>
<!-- Generator: Adobe Illustrator 25.4.1, SVG Export Plug-In . SVG Version: 6.00 Build 0)  -->
<svg version="1.1" xmlns="http://www.w3.org/2000/svg" xmlns:xlink="http://www.w3.org/1999/xlink" x="0px" y="0px"
	 viewBox="0 0 32 32" style="enable-background:new 0 0 32 32;" xml:space="preserve">
<path d="M19.6348,26.8946991C19.6348,29.2632008,17.7399998,31,15.5295,31s-4.1052999-1.8946991-4.1052999-4.1053009
	s1.8947001-4.1053009,4.1052999-4.1053009S19.6348,24.5263004,19.6348,26.8946991z M25.9505997,9.6842003
	c0,6.6315994-7.1053009,6.6315994-7.1053009,9.1578999v0.6315994c0,0.6315994-0.4736996,1.2632008-1.2632008,1.2632008h-4.5788994
	c-0.6316004,0-1.2631998-0.4736996-1.2631998-1.2632008v-0.7894993c0-3.4736996,2.6842003-4.8947001,4.7368002-6
	c1.7367992-0.9474001,2.8421001-1.5789003,2.8421001-2.8421001C19.3190002,8.1052999,17.1084995,7,15.3716002,7
	C13.0032005,7,12.0558004,8.1052999,10.6348,9.8421001C10.1611004,10.3157997,9.5295,10.4736996,9.0558004,10L6.5295,7.9474001
	c-0.4737-0.4737-0.6315999-1.1052999-0.3158002-1.579C8.5820999,2.8947001,11.5820999,1,16.1611004,1
	C20.8978996,1,25.9505997,4.7895002,25.9505997,9.6842003z"/>
</svg>
