<?xml version="1.0" encoding="utf-8"?>
<!-- Generator: Adobe Illustrator 25.4.1, SVG Export Plug-In . SVG Version: 6.00 Build 0)  -->
<svg version="1.1" xmlns="http://www.w3.org/2000/svg" xmlns:xlink="http://www.w3.org/1999/xlink" x="0px"
	 y="0px" viewBox="0 0 32 32" style="enable-background:new 0 0 32 32;" xml:space="preserve">
<path d="M16,31C7.6999998,31,1,24.2999992,1,16S7.6999998,1,16,1s15,6.6999998,15,15S24.2999992,31,16,31z M24,14.1000004
	h-6.1000004V8c0-0.5-0.3999996-1-1-1H15c-0.5,0-1,0.4000001-1,1v6.1000004H8c-0.5,0-1,0.3999996-1,1V17c0,0.5,0.4000001,1,1,1
	h6.1000004v6c0,0.6000004,0.5,1,1,1H17c0.6000004,0,1-0.5,1-1v-6.1000004h6c0.6000004,0,1-0.5,1-1V15
	C25,14.5,24.5,14.1000004,24,14.1000004z"/>
</svg>
