<?xml version="1.0" encoding="utf-8"?>
<!-- Generator: Adobe Illustrator 25.4.1, SVG Export Plug-In . SVG Version: 6.00 Build 0)  -->
<svg version="1.1" xmlns="http://www.w3.org/2000/svg" xmlns:xlink="http://www.w3.org/1999/xlink" viewBox="0 0 32 32" xml:space="preserve">
<g>
	<g class="st0">
		<g>
			<path d="M0,6.0395107C0.0648696,6.0333805,0.1294993,6.030334,0.1976003,6.030334
				c0.24816,0,0.4623129,0.0376835,0.6415396,0.1148891c0.1792267,0.0772052,0.3391519,0.1810646,0.4788569,0.3124976
				L1.1700199,6.6672783C1.1589905,6.6829028,1.1461229,6.6957707,1.1323363,6.7068
				C1.1176305,6.7169099,1.0974101,6.7215056,1.0707558,6.7215056c-0.0202204,0-0.0422791-0.0073528-0.0643377-0.0220585
				C0.9834403,6.684741,0.9567861,6.6663589,0.9246172,6.6443005C0.8933674,6.6222415,0.856603,6.5983448,0.8143238,6.5735288
				S0.7214936,6.524816,0.6635897,6.5027571c-0.057904-0.0220585-0.1249992-0.0404406-0.2022045-0.0551467
				c-0.0772053-0.0147057-0.16544-0.0220585-0.2656231-0.0220585C0.1282088,6.4255519,0.063369,6.4298167,0,6.4384441V6.0395107z
				 M0,9.0759211c0.0466068,0.0051413,0.0902514,0.0077,0.1387772,0.0077c0.1011022,0,0.1911751-0.0055141,0.2711378-0.0174627
				s0.1534916-0.0303307,0.2224249-0.0551472c0.0680143-0.0248156,0.1314329-0.0569849,0.190256-0.0955877
				c0.0588231-0.0376835,0.1176462-0.0836382,0.1773885-0.1369467C1.0266385,8.7545795,1.0523736,8.742631,1.0781088,8.742631
				c0.0248159,0,0.0477937,0.0101099,0.0680141,0.03125l0.1792266,0.1948509
				C1.1865638,9.1286573,1.0192857,9.2536564,0.8225958,9.3428106c-0.1966898,0.0891533-0.4338204,0.1341906-0.711392,0.1341906
				c-0.037676,0-0.0746275-0.0010118-0.1112038-0.0030317V9.0759211z"/>
		</g>
		<path d="M4.7701778,9.1075182c0.0900731,0,0.1737123-0.0045958,0.2499986-0.0128679s0.1479769-0.0211391,0.2150717-0.0386028
			c0.0680146-0.0174627,0.131433-0.0386019,0.1911755-0.062499c0.059742-0.0248165,0.1185651-0.0523891,0.1783075-0.0836391
			V8.1663485H5.0826759c-0.0294118,0-0.0533085-0.0082722-0.0716906-0.0257349
			C4.9926028,8.1231499,4.9834118,8.1020107,4.9834118,8.0771942V7.8180051h1.0358381V9.112114
			C5.9346919,9.1736937,5.846457,9.2270021,5.7545462,9.2720394C5.6626348,9.3179941,5.56429,9.3556776,5.4604306,9.3860083
			c-0.1047788,0.03125-0.215991,0.0533085-0.3354754,0.0689335C5.0054708,9.4696474,4.8767948,9.4770012,4.7370901,9.4770012
			c-0.2454028,0-0.469666-0.0422792-0.6727896-0.1259184C3.8602581,9.2674437,3.6837888,9.1497974,3.536731,8.9981441
			S3.2747843,8.6654253,3.1920643,8.4531107c-0.08272-0.2113953-0.1231608-0.4439306-0.1231608-0.698524
			c0-0.2573514,0.0404408-0.4917245,0.1204035-0.7031202c0.0808818-0.2123146,0.1966898-0.3933797,0.3465049-0.545033
			s0.3308799-0.2683802,0.5431948-0.3520193C4.2913213,6.0716939,4.5293708,6.030334,4.7931557,6.030334
			c0.1332712,0,0.2573514,0.009191,0.3722401,0.0294118c0.1139698,0.0193009,0.2205868,0.0477934,0.3180127,0.084558
			C5.5817533,6.1810684,5.6727452,6.2251854,5.755465,6.2784939c0.0836391,0.0523896,0.1608448,0.1112127,0.2334542,0.1773887
			l-0.1295943,0.2068C5.8326707,6.7049618,5.7977443,6.7261014,5.755465,6.7261014
			c-0.024816,0-0.0523891-0.0082722-0.0818009-0.0257354C5.6341424,6.6783075,5.5900249,6.6516533,5.5413122,6.6204033
			C5.4925995,6.5891538,5.4337764,6.5588231,5.363924,6.5303307C5.2940712,6.5009189,5.2113514,6.4761028,5.116683,6.4558825
			S4.9089637,6.4255519,4.7793694,6.4255519c-0.1902561,0-0.3621302,0.0303307-0.5156217,0.0928302
			C4.1102562,6.5799627,3.9788234,6.6691165,3.8712873,6.7840052C3.7628324,6.8988938,3.6791933,7.038599,3.6212893,7.2031198
			c-0.057904,0.1636019-0.0863965,0.347424-0.0863965,0.5514669c0,0.2132335,0.0294116,0.4034896,0.0900729,0.5707679
			s0.1452196,0.3088217,0.255513,0.4246292c0.109374,0.1158085,0.239888,0.2049618,0.3906219,0.2656231
			C4.4218349,9.0771875,4.5881939,9.1075182,4.7701778,9.1075182z"/>
		<path d="M10.835392,9.4393167h-0.3529387c-0.0404406,0-0.0735283-0.0101099-0.0992641-0.0303307
			c-0.0248156-0.0202198-0.0431976-0.046874-0.0560656-0.078124L10.0118685,8.51653H8.499012L8.1837568,9.330862
			C8.1727276,9.359355,8.1534262,9.3841705,8.1267719,9.406229S8.06703,9.4393167,8.0284271,9.4393167H7.6754885
			l1.3483362-3.3712993h0.463232L10.835392,9.4393167z M8.6258488,8.1874876h1.2591829L9.3556232,6.816174
			C9.3206968,6.7306967,9.2866898,6.624999,9.2545214,6.4981618C9.2370577,6.5624995,9.219595,6.6213226,9.20397,6.67555
			C9.1874256,6.7297778,9.1708822,6.7775712,9.1552572,6.8180122L8.6258488,8.1874876z"/>
		<path d="M14.0072451,9.1075182c0.090992,0,0.1746311-0.0045958,0.2509174-0.0128679
			c0.075367-0.0082722,0.1479769-0.0211391,0.2150717-0.0386028c0.0670948-0.0174627,0.1305141-0.0386019,0.1902561-0.062499
			c0.059742-0.0248165,0.1194839-0.0523891,0.1792269-0.0836391V8.1663485h-0.5220556
			c-0.0303307,0-0.0542278-0.0082722-0.0726099-0.0257349c-0.0174627-0.0174637-0.0266542-0.0386028-0.0266542-0.0634193V7.8180051
			h1.0349197V9.112114c-0.0845585,0.0615797-0.1727934,0.1148882-0.2647047,0.1599255
			c-0.090992,0.0459547-0.1893368,0.0836382-0.2941151,0.1139688c-0.1038599,0.03125-0.215991,0.0533085-0.3345566,0.0689335
			c-0.1194849,0.0147057-0.2490788,0.0220594-0.3887844,0.0220594c-0.244483,0-0.4687462-0.0422792-0.6727886-0.1259184
			c-0.2040434-0.0836391-0.3795929-0.2012854-0.5266514-0.3529387c-0.1479769-0.1516533-0.2628651-0.3327188-0.3446665-0.5450335
			c-0.0827198-0.2113953-0.1240797-0.4439306-0.1240797-0.698524c0-0.2573514,0.0404406-0.4917245,0.1213226-0.7031202
			c0.0808821-0.2123146,0.1957703-0.3933797,0.3455858-0.545033c0.1498146-0.1516533,0.3308802-0.2683802,0.5441141-0.3520193
			c0.2123146-0.0827203,0.4503641-0.1240802,0.7141485-0.1240802c0.1332712,0,0.2573519,0.009191,0.3713217,0.0294118
			c0.1148882,0.0193009,0.2205858,0.0477934,0.3189316,0.084558c0.0983448,0.0367646,0.1884174,0.0808816,0.2720566,0.1341901
			c0.0827198,0.0523896,0.1608438,0.1112127,0.2325354,0.1773887l-0.1295948,0.2068
			c-0.0266542,0.0422792-0.0606613,0.0634189-0.1029406,0.0634189c-0.0257349,0-0.0533085-0.0082722-0.0827198-0.0257354
			c-0.0395222-0.0220585-0.0827208-0.0487127-0.1314335-0.0799627c-0.0487127-0.0312495-0.1084547-0.0615802-0.1783075-0.0900726
			c-0.0698519-0.0294118-0.1516533-0.0542278-0.2463217-0.0744481c-0.0955877-0.0202203-0.2077188-0.0303307-0.338233-0.0303307
			c-0.1893368,0-0.3612108,0.0303307-0.5147018,0.0928302c-0.1544104,0.0615807-0.2849245,0.1507344-0.3933802,0.2656231
			c-0.1084547,0.1148887-0.1911745,0.2545938-0.2490788,0.4191146c-0.0579042,0.1636019-0.0873156,0.347424-0.0873156,0.5514669
			c0,0.2132335,0.0303307,0.4034896,0.090992,0.5707679c0.059742,0.1672783,0.1452198,0.3088217,0.2545938,0.4246292
			c0.1102934,0.1158085,0.2398882,0.2049618,0.3906221,0.2656231C13.6589012,9.0771875,13.8252611,9.1075182,14.0072451,9.1075182z"
			/>
		<path d="M19.5954399,6.0680175v0.3832693h-1.090065v2.98803h-0.4558792v-2.98803H16.954834V6.0680175H19.5954399z"/>
		<path d="M23.8794174,9.4393167h-0.3529396c-0.0404396,0-0.0735283-0.0101099-0.0983448-0.0303307
			c-0.0248146-0.0202198-0.044117-0.046874-0.0569839-0.078124L23.0558929,8.51653h-1.5128555l-0.3152561,0.814332
			C21.216753,9.359355,21.19837,9.3841705,21.1717167,9.406229c-0.0266552,0.0220585-0.0597439,0.0330877-0.0992641,0.0330877
			h-0.3529396l1.3483372-3.3712993h0.4641495L23.8794174,9.4393167z M21.6707935,8.1874876h1.2582626L22.3996487,6.816174
			c-0.034008-0.0854774-0.0680141-0.191175-0.1011028-0.3180122c-0.0174637,0.0643377-0.0340061,0.1231608-0.0505505,0.1773882
			C22.231451,6.7297778,22.215826,6.7775712,22.200201,6.8180122L21.6707935,8.1874876z"/>
		<path d="M27.0521889,9.1075182c0.0900726,0,0.1737118-0.0045958,0.2499981-0.0128679s0.1479778-0.0211391,0.2150726-0.0386028
			c0.0680141-0.0174627,0.1314316-0.0386019,0.1911736-0.062499c0.0597439-0.0248165,0.1185665-0.0523891,0.1783085-0.0836391
			V8.1663485H27.364687c-0.0294113,0-0.0533085-0.0082722-0.0716915-0.0257349
			c-0.0183811-0.0174637-0.0275726-0.0386028-0.0275726-0.0634193V7.8180051H28.30126V9.112114
			c-0.0845566,0.0615797-0.1727924,0.1148882-0.2647038,0.1599255c-0.0919113,0.0459547-0.1902561,0.0836382-0.2941151,0.1139688
			c-0.1047783,0.03125-0.215992,0.0533085-0.3354759,0.0689335c-0.1194839,0.0147057-0.2481594,0.0220594-0.3878651,0.0220594
			c-0.2454014,0-0.4696655-0.0422792-0.6727886-0.1259184c-0.2040424-0.0836391-0.3805122-0.2012854-0.5275707-0.3529387
			c-0.1470566-0.1516533-0.2619457-0.3327188-0.3446655-0.5450335c-0.0827198-0.2113953-0.1231613-0.4439306-0.1231613-0.698524
			c0-0.2573514,0.0404415-0.4917245,0.1204033-0.7031202c0.080883-0.2123146,0.1966896-0.3933797,0.3465061-0.545033
			c0.1498146-0.1516533,0.3308792-0.2683802,0.5431938-0.3520193c0.2123146-0.0827203,0.4503651-0.1240802,0.7141495-0.1240802
			c0.1332703,0,0.2573509,0.009191,0.3722401,0.0294118c0.1139698,0.0193009,0.2205868,0.0477934,0.3180122,0.084558
			c0.0983448,0.0367646,0.1893368,0.0808816,0.2720566,0.1341901c0.0836391,0.0523896,0.1608448,0.1112127,0.2334538,0.1773887
			l-0.1295948,0.2068c-0.0266533,0.0422792-0.0615788,0.0634189-0.1038589,0.0634189
			c-0.0248165,0-0.0523891-0.0082722-0.0818005-0.0257354c-0.0395222-0.0220585-0.0836391-0.0487127-0.1323528-0.0799627
			c-0.0487118-0.0312495-0.1075344-0.0615802-0.1773872-0.0900726c-0.0698528-0.0294118-0.1525726-0.0542278-0.247242-0.0744481
			c-0.0946674-0.0202203-0.2077179-0.0303307-0.3373127-0.0303307c-0.1902561,0-0.3621311,0.0303307-0.5156212,0.0928302
			c-0.153492,0.0615807-0.2849255,0.1507344-0.3924618,0.2656231c-0.1084538,0.1148887-0.1920929,0.2545938-0.2499981,0.4191146
			c-0.0579033,0.1636019-0.0863953,0.347424-0.0863953,0.5514669c0,0.2132335,0.0294113,0.4034896,0.0900726,0.5707679
			s0.1452198,0.3088217,0.2555122,0.4246292c0.109375,0.1158085,0.2398891,0.2049618,0.3906231,0.2656231
			C26.703846,9.0771875,26.8702049,9.1075182,27.0521889,9.1075182z"/>
		<path d="M32,9.4639177c-0.0786457,0.0087128-0.1610107,0.0130835-0.2474766,0.0130835
			c-0.2426453,0-0.463232-0.0422792-0.660841-0.1259184s-0.3667259-0.2012854-0.5064297-0.3529387
			c-0.1397057-0.1516533-0.247242-0.3327188-0.3244476-0.5450335c-0.0772057-0.2113953-0.1148891-0.4439306-0.1148891-0.698524
			c0-0.253675,0.0404415-0.4871292,0.1231613-0.6985245c0.0827198-0.2123146,0.1976089-0.394299,0.3474236-0.5459523
			c0.1488972-0.1525722,0.3272038-0.2702184,0.5349236-0.3538575c0.2077198-0.0845585,0.4374962-0.1259184,0.6884136-0.1259184
			c0.0546875,0,0.1087322,0.0018439,0.160162,0.0055509v0.3970656c-0.0504436-0.0049324-0.1048985-0.0073986-0.1629181-0.0073986
			c-0.1801472,0-0.3455868,0.0303307-0.4954014,0.0928302c-0.1498146,0.0615807-0.2784901,0.1498151-0.3869457,0.2647042
			c-0.1075363,0.1139693-0.1920948,0.2536745-0.2527561,0.4181952c-0.0606613,0.1654401-0.0900726,0.3492622-0.0900726,0.5533051
			c0,0.2104764,0.0294113,0.3979745,0.0900726,0.5624957s0.1424618,0.3042259,0.247242,0.4172764
			c0.1038589,0.1139698,0.2279396,0.200366,0.3704014,0.2601089c0.1424618,0.059742,0.2968731,0.0891533,0.4613934,0.0891533
			c0.0790596,0,0.1525173-0.0034342,0.2189846-0.0107546V9.4639177z"/>
	</g>
	<g class="st0">
		<g>
			<path d="M0,14.4000921c0.2097058-0.0800724,0.4443733-0.1201077,0.7039017-0.1201077
				c0.1332712,0,0.2573511,0.0091906,0.3713209,0.0294113c0.1148889,0.0193014,0.2205867,0.0477934,0.3189316,0.0845575
				c0.0983449,0.0367651,0.1884178,0.0808821,0.2720568,0.1341906c0.08272,0.0523891,0.1608444,0.1112127,0.2325351,0.1773882
				l-0.1295947,0.2068005c-0.0266541,0.0422792-0.0606613,0.0634184-0.1029404,0.0634184
				c-0.025735,0-0.0533084-0.0082722-0.0827199-0.0257349c-0.0395218-0.0220585-0.08272-0.0487127-0.1314329-0.0799627
				c-0.048713-0.03125-0.1084552-0.0615807-0.1783075-0.0900726c-0.0698525-0.0294113-0.1516534-0.0542278-0.2463218-0.0744486
				c-0.0955876-0.0202198-0.2077191-0.0303307-0.3382329-0.0303307c-0.1893369,0-0.3612106,0.0303307-0.5147022,0.0928307
				c-0.0619636,0.0247116-0.120079,0.0538635-0.1744649,0.0873365L0,14.4000921z M0,17.1699944
				c0.0577552,0.0370522,0.1153125,0.0688572,0.1809275,0.0952625c0.1507342,0.0615807,0.3170933,0.0919113,0.4990773,0.0919113
				c0.090992,0,0.1746311-0.0045948,0.2509173-0.012867c0.0753671-0.0082722,0.1479769-0.0211411,0.215072-0.0386028
				c0.067095-0.0174637,0.1305138-0.0386028,0.190256-0.0625c0.0597422-0.0248165,0.1194844-0.0523891,0.1792266-0.0836391
				v-0.7435608H0.9934217c-0.0303307,0-0.0542276-0.0082722-0.0726098-0.0257359
				c-0.0174631-0.0174618-0.0266542-0.0386028-0.0266542-0.0634174v-0.2591896h1.034919v1.2941074
				c-0.0845581,0.0615807-0.1727928,0.1148891-0.264704,0.1599255c-0.090992,0.0459557-0.1893369,0.0836391-0.2941155,0.1139698
				c-0.1038595,0.03125-0.2159911,0.0533085-0.3345565,0.0689335c-0.1194844,0.0147057-0.249079,0.0220585-0.3887839,0.0220585
				c-0.2350528,0-0.4492452-0.0390797-0.6469169-0.1164227V17.1699944z"/>
		</g>
		<path d="M6.2682004,14.317668v0.3832693h-1.090066v2.9880295H4.7222557v-2.9880295H3.6275942V14.317668H6.2682004z"/>
		<path d="M10.5530968,17.6889668h-0.3529387c-0.0404415,0-0.0735292-0.0101089-0.0992641-0.0303307
			c-0.0248165-0.0202198-0.0431986-0.046875-0.0560656-0.078125L9.7295732,16.76618H8.2167158l-0.3152552,0.8143311
			C7.8904314,17.609005,7.87113,17.6338196,7.8444757,17.65588c-0.0266542,0.0220585-0.059742,0.0330868-0.0983448,0.0330868
			H7.3931923l1.3483362-3.3712988h0.463232L10.5530968,17.6889668z M8.3435535,16.4371376h1.259182l-0.5294085-1.371314
			c-0.0349255-0.0854769-0.0689325-0.1911745-0.1011019-0.3180122c-0.0174627,0.0643377-0.0349264,0.1231613-0.0505514,0.1773891
			c-0.0165434,0.0542269-0.0330877,0.1020212-0.0487127,0.1424618L8.3435535,16.4371376z"/>
		<path d="M15.0935049,17.6889668h-0.3529387c-0.0404406,0-0.0735283-0.0101089-0.0983448-0.0303307
			c-0.0248156-0.0202198-0.044117-0.046875-0.0569849-0.078125L14.2699814,16.76618h-1.5128565l-0.3152552,0.8143311
			c-0.0110292,0.0284939-0.0294113,0.0533085-0.0560656,0.0753689c-0.0266542,0.0220585-0.059742,0.0330868-0.0992641,0.0330868
			h-0.3529387l1.3483362-3.3712988h0.4641504L15.0935049,17.6889668z M12.884881,16.4371376h1.2582636l-0.5294085-1.371314
			c-0.0340071-0.0854769-0.0680141-0.1911745-0.1011019-0.3180122c-0.0174637,0.0643377-0.0340071,0.1231613-0.0505514,0.1773891
			c-0.0165434,0.0542269-0.0321684,0.1020212-0.0477934,0.1424618L12.884881,16.4371376z"/>
		<path d="M19.1385136,16.992281c0.0257339,0,0.0477943,0.0101109,0.0689335,0.03125l0.1783066,0.1948509
			c-0.137867,0.1599255-0.3051453,0.2849255-0.5018349,0.3740788c-0.1976089,0.0891533-0.4347382,0.1341896-0.7123108,0.1341896
			c-0.2426453,0-0.463232-0.0422783-0.660841-0.1259174s-0.366724-0.2012863-0.5064297-0.3529396
			s-0.2472401-0.3327179-0.3244457-0.5450325c-0.0772057-0.2113953-0.1148891-0.4439297-0.1148891-0.6985245
			c0-0.2536745,0.0404415-0.4871283,0.1231613-0.6985245c0.0827198-0.2123146,0.1976089-0.3942986,0.3474236-0.5459518
			c0.1488953-0.1525726,0.3272038-0.2702188,0.5349216-0.353858c0.2077198-0.0845575,0.4374981-0.1259174,0.6884155-0.1259174
			c0.2472401,0,0.4613934,0.0376835,0.6406193,0.1148882c0.1801472,0.0772057,0.3391533,0.1810656,0.478857,0.3124981
			l-0.1479759,0.2095575c-0.0110302,0.015625-0.0229778,0.028492-0.0376835,0.0395212
			c-0.0137863,0.0101109-0.034008,0.0147057-0.0606613,0.0147057c-0.0211411,0-0.0422802-0.0073528-0.065258-0.0220585
			s-0.0496311-0.0330877-0.0808811-0.0551462s-0.0680141-0.0459557-0.1102943-0.0707722
			c-0.0431976-0.0248156-0.0928288-0.0487127-0.1507339-0.0707712c-0.0579033-0.0220585-0.1259174-0.0404406-0.2022038-0.0551462
			c-0.0772057-0.0147066-0.1663589-0.0220594-0.2665424-0.0220594c-0.1801453,0-0.3455849,0.0303307-0.4954014,0.0928307
			c-0.1498146,0.0615807-0.2784901,0.1498146-0.3869457,0.2647038c-0.1075363,0.1139698-0.1920929,0.2536745-0.2527542,0.4181957
			c-0.0606613,0.1654396-0.0900745,0.3492622-0.0900745,0.5533047c0,0.2104759,0.0294132,0.3979759,0.0900745,0.5624962
			s0.1424618,0.3042259,0.2472401,0.4172764c0.1038589,0.1139698,0.2279396,0.200367,0.3704014,0.2601089
			s0.2968731,0.0891533,0.4613934,0.0891533c0.1001835,0,0.1902561-0.0055141,0.2702198-0.0174637
			c0.0799618-0.0119476,0.1544113-0.0303307,0.2224255-0.0551453c0.0680141-0.0248165,0.1323509-0.0569859,0.1911736-0.0955887
			c0.0588245-0.0376835,0.1176472-0.0836391,0.1773891-0.1369476C19.0879631,17.0042286,19.1136971,16.992281,19.1385136,16.992281z
			"/>
		<path d="M22.8305817,17.3571682c0.0909939,0,0.1746311-0.0045948,0.2509174-0.012867
			c0.0753689-0.0082722,0.1479778-0.0211411,0.2150726-0.0386028c0.0670948-0.0174637,0.1305141-0.0386028,0.1902561-0.0625
			c0.059742-0.0248165,0.1194839-0.0523891,0.1792259-0.0836391v-0.7435608h-0.5220547
			c-0.0303307,0-0.0542278-0.0082722-0.0726089-0.0257359c-0.0174637-0.0174618-0.0266552-0.0386028-0.0266552-0.0634174v-0.2591896
			h1.0349197v1.2941074c-0.0845585,0.0615807-0.1727924,0.1148891-0.2647038,0.1599255
			c-0.090992,0.0459557-0.1893368,0.0836391-0.2941151,0.1139698c-0.1038609,0.03125-0.215992,0.0533085-0.3345566,0.0689335
			c-0.1194859,0.0147057-0.2490807,0.0220585-0.3887844,0.0220585c-0.2444839,0-0.4687462-0.0422783-0.6727905-0.1259174
			c-0.2040424-0.0836391-0.3795929-0.2012863-0.5266495-0.3529396c-0.1479778-0.1516533-0.262867-0.3327179-0.3446674-0.5450325
			c-0.0827198-0.2113953-0.1240788-0.4439297-0.1240788-0.6985245c0-0.2573509,0.0404396-0.491724,0.1213226-0.7031202
			c0.0808811-0.2123146,0.1957703-0.3933792,0.3455849-0.5450325s0.3308811-0.2683802,0.5441132-0.3520193
			c0.2123146-0.0827198,0.4503651-0.1240797,0.7141495-0.1240797c0.1332722,0,0.2573509,0.0091906,0.3713207,0.0294113
			c0.1148891,0.0193014,0.2205868,0.0477934,0.3189316,0.0845575c0.0983448,0.0367651,0.1884193,0.0808821,0.2720585,0.1341906
			c0.0827198,0.0523891,0.1608429,0.1112127,0.2325344,0.1773882l-0.1295948,0.2068005
			c-0.0266533,0.0422792-0.0606613,0.0634184-0.1029396,0.0634184c-0.0257359,0-0.0533085-0.0082722-0.0827217-0.0257349
			c-0.0395203-0.0220585-0.0827198-0.0487127-0.1314316-0.0799627c-0.0487137-0.03125-0.1084557-0.0615807-0.1783085-0.0900726
			c-0.0698528-0.0294113-0.1516533-0.0542278-0.2463207-0.0744486c-0.0955887-0.0202198-0.2077198-0.0303307-0.3382339-0.0303307
			c-0.1893368,0-0.3612099,0.0303307-0.5147018,0.0928307c-0.1544113,0.0615807-0.2849236,0.1507339-0.3933792,0.2656231
			s-0.1911755,0.2545938-0.2490788,0.4191151c-0.0579052,0.1636009-0.0873165,0.3474236-0.0873165,0.551466
			c0,0.2132339,0.0303307,0.4034901,0.090992,0.5707684c0.059742,0.1672783,0.1452198,0.3088207,0.2545948,0.4246292
			c0.1102924,0.1158085,0.2398872,0.2049618,0.3906212,0.2656231
			C22.4822388,17.3268375,22.6485977,17.3571682,22.8305817,17.3571682z"/>
		<path d="M28.4187775,14.317668v0.3832693h-1.090065v2.9880295h-0.4558792v-2.9880295h-1.0946617V14.317668H28.4187775z"/>
		<path d="M32,17.0899258L31.8792324,16.76618H30.366375l-0.3152561,0.8143311
			c-0.0110283,0.0284939-0.0294113,0.0533085-0.0560646,0.0753689c-0.0266552,0.0220585-0.059742,0.0330868-0.0992641,0.0330868
			h-0.3529396l1.3483372-3.3712988h0.4641514L32,15.9369726V17.0899258z M30.4941311,16.4371376h1.2582626l-0.5294075-1.371314
			c-0.034008-0.0854769-0.0680141-0.1911745-0.1011028-0.3180122c-0.0174618,0.0643377-0.0340061,0.1231613-0.0505505,0.1773891
			c-0.0165443,0.0542269-0.0321693,0.1020212-0.0477943,0.1424618L30.4941311,16.4371376z"/>
	</g>
	<g class="st0">
		<g>
			<path d="M0,22.6735344c0.0255876-0.0114937,0.0501042-0.0224667,0.0766451-0.0329208
				c0.2123147-0.0827217,0.4503644-0.1240807,0.7141493-0.1240807c0.1332712,0,0.2573511,0.0091915,0.3713209,0.0294113
				c0.1148889,0.0193005,0.2205867,0.0477943,0.3189316,0.0845585s0.1884178,0.0808811,0.2720569,0.1341896
				c0.083639,0.0523891,0.1608444,0.1112137,0.232535,0.1773891l-0.1286755,0.2068005
				c-0.0275733,0.0422783-0.0615805,0.0634174-0.1038595,0.0634174c-0.024816,0-0.0523894-0.0082722-0.0818009-0.0257339
				c-0.0404409-0.0220585-0.0836391-0.0487137-0.132352-0.0799637s-0.1084552-0.0615807-0.1783075-0.0900726
				c-0.0698525-0.0294113-0.1516534-0.0542278-0.2463218-0.0744476c-0.0955876-0.0202217-0.2077191-0.0303307-0.3382329-0.0303307
				c-0.1893368,0-0.3612106,0.0303307-0.5147022,0.0928307C0.1655089,23.0428181,0.0778908,23.0916862,0,23.1507435V22.6735344z
				 M0,25.3482189c0.0807855,0.0628586,0.170924,0.1142216,0.2687393,0.1535873
				c0.1507342,0.0615807,0.3161742,0.0919113,0.4981582,0.0919113c0.090992,0,0.1746311-0.0045967,0.2509173-0.0128689
				s0.1479769-0.0211391,0.215072-0.0386028c0.0670952-0.0174618,0.1314329-0.0386028,0.190256-0.0624981
				c0.0606613-0.0248165,0.1194844-0.0523911,0.1792266-0.0836391v-0.7435608h-0.522055
				c-0.0303308,0-0.0542276-0.0082722-0.0726098-0.0257359c-0.0174631-0.0174637-0.0266543-0.0386028-0.0266543-0.0634193V24.304203
				h1.0358381v1.2941093c-0.0845581,0.0615807-0.1727928,0.1148891-0.264704,0.1599255
				c-0.0919111,0.0459557-0.190256,0.0836391-0.2941155,0.1139698c-0.1047786,0.03125-0.2169101,0.0533085-0.3354756,0.0689335
				c-0.1194844,0.0147057-0.249079,0.0220585-0.3887839,0.0220585c-0.2444836,0-0.4687467-0.0422802-0.6727893-0.1259193
				C0.0391016,25.8282967,0.0212611,25.8189201,0,25.8091507V25.3482189z"/>
		</g>
		<path d="M6.8330307,25.9255161H6.480092c-0.0404406,0-0.0735288-0.0101109-0.0992637-0.0303307
			c-0.024816-0.0202217-0.0441175-0.046875-0.0569849-0.078125l-0.3143363-0.814333H4.4966507l-0.3161745,0.814333
			c-0.0110292,0.028492-0.0294113,0.0533085-0.0560656,0.075367s-0.0597425,0.0330887-0.0983453,0.0330887H3.6731269
			l1.3474166-3.3712997H5.484695L6.8330307,25.9255161z M4.6234879,24.673687h1.259182l-0.529408-1.371315
			c-0.0349259-0.0854759-0.0689335-0.1911736-0.1011024-0.3180122c-0.0183821,0.0643387-0.0349259,0.1231613-0.0514698,0.1773891
			c-0.0165443,0.0542278-0.0321693,0.1020203-0.0477939,0.1424618L4.6234879,24.673687z"/>
		<path d="M10.87712,25.2288303c0.0257349,0,0.0477934,0.0101089,0.0689335,0.0312481l0.1792259,0.1948528
			c-0.1387854,0.1599255-0.3060637,0.2849236-0.5027533,0.3740788c-0.1976089,0.0891533-0.4347401,0.1341896-0.7123108,0.1341896
			c-0.2426462,0-0.463232-0.0422802-0.660841-0.1259193s-0.3667259-0.2012844-0.5064306-0.3529377
			s-0.247241-0.3327179-0.3235273-0.5450325c-0.0772047-0.2113953-0.1158075-0.4439316-0.1158075-0.6985245
			c0-0.2536755,0.0404406-0.4871292,0.1231604-0.6985245c0.0827208-0.2123146,0.1985283-0.3942986,0.3474245-0.5459518
			c0.1488962-0.1525726,0.3272038-0.2702198,0.5349226-0.3538589c0.2077188-0.0845585,0.4374971-0.1259174,0.6884146-0.1259174
			c0.2472401,0,0.4623127,0.0376835,0.6406202,0.1148891c0.1801453,0.0772057,0.3400707,0.1810646,0.4797754,0.3124981
			l-0.1488953,0.2095566c-0.0110302,0.015625-0.0229778,0.028492-0.0367651,0.0395222
			c-0.0147057,0.0101089-0.0349264,0.0147057-0.0615807,0.0147057c-0.0211391,0-0.0422783-0.0073528-0.0652561-0.0220585
			c-0.0220594-0.0147057-0.0496321-0.0330887-0.0808821-0.0551472s-0.0680141-0.0459557-0.1102934-0.0707722
			c-0.0422792-0.0248146-0.0928307-0.0487118-0.1507339-0.0707703c-0.0579042-0.0220585-0.124999-0.0404415-0.2022047-0.0551472
			s-0.1654396-0.0220585-0.2665424-0.0220585c-0.1801453,0-0.3455858,0.0303307-0.4944811,0.0928307
			c-0.1507349,0.0615788-0.2794104,0.1498146-0.3878651,0.2647038C9.0048904,23.383255,8.920332,23.5229588,8.86059,23.6874809
			c-0.0606613,0.1654396-0.090992,0.3492622-0.090992,0.5533047c0,0.2104759,0.0303307,0.397974,0.090992,0.5624962
			c0.059742,0.1645203,0.1415434,0.3042259,0.2463217,0.4172764c0.1047792,0.1139698,0.2279396,0.2003651,0.3713207,0.260107
			c0.1415434,0.0597439,0.2959538,0.0891552,0.460475,0.0891552c0.1001835,0,0.1902561-0.0055161,0.2711382-0.0174637
			c0.0790434-0.0119476,0.153491-0.0303307,0.2224245-0.0551472c0.0680141-0.0248146,0.1314325-0.0569839,0.1902561-0.0955868
			c0.0588226-0.0376835,0.1176462-0.0836391,0.1773882-0.1369476C10.8265686,25.240778,10.8523035,25.2288303,10.87712,25.2288303z"
			/>
		<path d="M15.3623819,22.5542164v0.3832684h-1.090066v2.9880314h-0.4558792v-2.9880314h-1.0937414v-0.3832684H15.3623819z"/>
		<path d="M19.4799995,22.5542164v0.3832684h-1.090065v2.9880314h-0.4558792v-2.9880314H16.840313v-0.3832684H19.4799995z"/>
		<path d="M23.7648964,25.9255161h-0.3529396c-0.0404396,0-0.0735283-0.0101109-0.0992641-0.0303307
			c-0.0248146-0.0202217-0.044117-0.046875-0.0569839-0.078125l-0.3143368-0.814333h-1.5128574l-0.3161736,0.814333
			c-0.0110283,0.028492-0.0294113,0.0533085-0.0560665,0.075367c-0.0266533,0.0220585-0.059742,0.0330887-0.0983448,0.0330887
			h-0.3529377l1.3474159-3.3712997h0.4641514L23.7648964,25.9255161z M21.5553532,24.673687h1.259182l-0.5294075-1.371315
			c-0.0349274-0.0854759-0.0689335-0.1911736-0.1011028-0.3180122c-0.018383,0.0643387-0.0349255,0.1231613-0.0514698,0.1773891
			s-0.0321693,0.1020203-0.0477943,0.1424618L21.5553532,24.673687z"/>
		<path d="M28.3053055,25.9255161h-0.3529396c-0.0404415,0-0.0735283-0.0101109-0.0992641-0.0303307
			c-0.0238972-0.0202217-0.0431976-0.046875-0.0560646-0.078125l-0.3152561-0.814333h-1.5128574l-0.3152542,0.814333
			c-0.0110302,0.028492-0.0303307,0.0533085-0.0560665,0.075367c-0.0275726,0.0220585-0.0606613,0.0330887-0.0992641,0.0330887
			H25.145401l1.3483353-3.3712997h0.4641514L28.3053055,25.9255161z M26.0957623,24.673687h1.259182l-0.5294075-1.371315
			c-0.0349274-0.0854759-0.0680161-0.1911736-0.1011028-0.3180122c-0.0174637,0.0643387-0.0349274,0.1231613-0.0505524,0.1773891
			c-0.0165424,0.0542278-0.0321674,0.1020203-0.0487118,0.1424618L26.0957623,24.673687z"/>
		<path d="M32,25.867466c-0.1772346,0.0636368-0.3822689,0.0957336-0.6165924,0.0957336
			c-0.2435646,0-0.4641514-0.0422802-0.660841-0.1259193c-0.1985283-0.0836391-0.3667259-0.2012844-0.5064297-0.3529377
			c-0.1397057-0.1516533-0.247242-0.3327179-0.3244457-0.5450325c-0.0772057-0.2113953-0.1158085-0.4439316-0.1158085-0.6985245
			c0-0.2536755,0.0413589-0.4871292,0.1240807-0.6985245c0.0818005-0.2123146,0.197607-0.3942986,0.3465042-0.5459518
			c0.1488953-0.1525726,0.3272038-0.2702198,0.535841-0.3538589c0.2077198-0.0845585,0.4365788-0.1259174,0.6884155-0.1259174
			c0.1966114,0,0.3754368,0.0238304,0.5292759,0.0724163v0.4251232c-0.0192909-0.0085926-0.0425072-0.0169792-0.0642071-0.025116
			c-0.0569839-0.0220585-0.1249981-0.0404415-0.2022038-0.0551472s-0.1654396-0.0220585-0.2656231-0.0220585
			c-0.1801453,0-0.3455868,0.0303307-0.4954014,0.0928307c-0.1498146,0.0615788-0.2784901,0.1498146-0.3869457,0.2647038
			c-0.1075363,0.1139698-0.1920929,0.2536736-0.2527561,0.4181957c-0.0606613,0.1654396-0.0900726,0.3492622-0.0900726,0.5533047
			c0,0.2104759,0.0294113,0.397974,0.0900726,0.5624962c0.0606632,0.1645203,0.1424637,0.3042259,0.2463226,0.4172764
			c0.1047783,0.1139698,0.2279396,0.2003651,0.3713207,0.260107c0.1424618,0.0597439,0.2959538,0.0891552,0.4613934,0.0891552
			c0.1001835,0,0.1902561-0.0055161,0.2702198-0.0174637c0.0799618-0.0119476,0.1544094-0.0303307,0.2224236-0.0551472
			C31.9370728,25.485342,31.9693546,25.4717903,32,25.4566593V25.867466z"/>
	</g>
</g>
</svg>
