<?xml version="1.0" encoding="utf-8"?>
<!-- Generator: Adobe Illustrator 23.0.3, SVG Export Plug-In . SVG Version: 6.00 Build 0)  -->
<svg version="1.1" id="settings" xmlns="http://www.w3.org/2000/svg" xmlns:xlink="http://www.w3.org/1999/xlink" x="0px" y="0px"
	 viewBox="0 0 32 32" style="enable-background:new 0 0 32 32;" xml:space="preserve">
<path d="M30,19.6l-2.6-1.5c0.3-1.4,0.3-2.8,0-4.2l2.6-1.5c0.3-0.2,0.4-0.5,0.3-0.8c-0.7-2.2-1.8-4.1-3.3-5.7
	c-0.2-0.2-0.6-0.3-0.9-0.1l-2.6,1.5c-1.1-0.9-2.3-1.7-3.7-2.1v-3c0-0.3-0.2-0.6-0.6-0.7c-2.2-0.5-4.5-0.5-6.6,0
	c-0.3,0.1-0.6,0.4-0.6,0.7v3c-1.3,0.5-2.6,1.2-3.7,2.1L5.9,5.7C5.6,5.5,5.2,5.6,5,5.8c-1.5,1.6-2.6,3.6-3.3,5.7
	c-0.1,0.3,0,0.7,0.3,0.8l2.6,1.5c-0.3,1.4-0.3,2.8,0,4.2L2,19.6c-0.3,0.2-0.4,0.5-0.3,0.8c0.7,2.2,1.8,4.1,3.3,5.7
	c0.2,0.2,0.6,0.3,0.9,0.1l2.6-1.5c1.1,0.9,2.3,1.7,3.7,2.1v3c0,0.3,0.2,0.6,0.6,0.7c2.2,0.5,4.5,0.5,6.6,0c0.3-0.1,0.6-0.4,0.6-0.7
	v-3c1.3-0.5,2.6-1.2,3.7-2.1l2.6,1.5c0.3,0.2,0.7,0.1,0.9-0.1c1.5-1.6,2.6-3.6,3.3-5.7C30.4,20.1,30.3,19.8,30,19.6z M16,20.8
	c-2.7,0-4.8-2.2-4.8-4.8s2.2-4.8,4.8-4.8s4.8,2.2,4.8,4.8S18.7,20.8,16,20.8z"/>
</svg>
