<?xml version="1.0" encoding="utf-8"?>
<!-- Generator: Adobe Illustrator 25.4.1, SVG Export Plug-In . SVG Version: 6.00 Build 0)  -->
<svg version="1.1" xmlns="http://www.w3.org/2000/svg" xmlns:xlink="http://www.w3.org/1999/xlink" viewBox="0 0 32 32" xml:space="preserve">
<g>
	<path d="M13.3999996,21.5c1.8999996,0.7999992,4,0.5,5.6999989-0.5l1.3999996,1.8999996
		c-2.2999992,1.5-5.3000002,1.8999996-8,0.7999992C8.3000002,22,6.1999998,17.2999992,7.5,13l2.1999998,0.8999996
		C8.8999996,16.8999996,10.3999996,20.2000008,13.3999996,21.5z"/>
	<path d="M20.2999992,20.1000004c0.8999996-0.8999996,1.5-1.8999996,1.7999992-3l2.2999992,0.2999992
		C24.0999985,19.1000004,23.1999969,20.7999992,21.7999973,22L20.2999992,20.1000004z"/>
	<path d="M23.6000004,11.6000004L21.5,12.5c-0.6000004-1-1.3999996-1.8999996-2.5-2.5l0.8999996-2.1999998
		C21.5,8.6999998,22.7999992,10.1000004,23.6000004,11.6000004z"/>
	<path d="M19.2999992,5.0999999L17.5999985,9.5C15.8999996,9,14,9.3000002,12.5,10.1999998L9.6999998,6.4000001
		C12.3999996,4.5,16,3.9000001,19.2999992,5.0999999z"/>
	<path d="M7.5,5.6999998l4,5.1999998c-0.3999996,0.5-0.8000002,1-1.1999998,1.6000004L4.1999998,9.8999996
		C5,8.1999998,6.0999999,6.9000001,7.5,5.6999998z"/>
	<path d="M13,27.2000008C10.3000002,26.5,8,25,6.4000001,23l1.9999995-1.3999996
		c1.3000002,1.6000004,3,2.7000008,5.1000004,3.2999992L13,27.2000008z"/>
	<path d="M27.6000004,17.6000004c-1.1000004,6.3000011-6.8999996,10.5-13.1999998,9.8000011l0.3999996-2.2999992
		c4.999999,0.5,9.6000013-2.8999996,10.499999-7.8999996C25.5,16.1000023,25.5,15.1000023,25.3999996,14.1000023l2.2999992-0.5
		C27.7999992,14.8999996,27.7999992,16.2999992,27.6000004,17.6000004z"/>
</g>
</svg>
