<?xml version="1.0" encoding="utf-8"?>
<!-- Generator: Adobe Illustrator 23.0.1, SVG Export Plug-In . SVG Version: 6.00 Build 0)  -->
<svg version="1.1" id="Layer_1" xmlns="http://www.w3.org/2000/svg" xmlns:xlink="http://www.w3.org/1999/xlink" x="0px" y="0px"
	 viewBox="0 0 36 36" xml:space="preserve">
<path d="M15.6,21.2c0.4,0,0.8-0.4,0.8-0.8s-0.3-0.7-0.7-0.7s-0.8,0.3-0.8,0.7C14.8,20.9,15.2,21.2,15.6,21.2z M15.9,20.4
	c0,0.2-0.1,0.3-0.2,0.3c-0.2,0-0.3-0.2-0.3-0.3s0.1-0.3,0.3-0.3C15.9,20.1,15.9,20.2,15.9,20.4z M15.6,19.9h-0.1H15.6z M13.7,31.6
	c0.1,0,0.2,0.1,0.3,0.1c0.4,0,0.8-0.4,0.8-0.8c0-0.4-0.3-0.7-0.8-0.7c-0.2,0-0.4,0.1-0.5,0.2c-0.1,0.1-0.1,0.2-0.2,0.2
	c-0.1-0.1-0.2-0.1-0.3-0.1c-0.4,0-0.7,0.3-0.7,0.7c0,0.4,0.3,0.7,0.7,0.7C13.3,32.1,13.5,31.9,13.7,31.6L13.7,31.6z M13,31.9h0.1H13
	z M13.7,31c0-0.2,0.2-0.3,0.3-0.3c0.2,0,0.3,0.1,0.3,0.3s-0.2,0.3-0.3,0.3C13.9,31.3,13.7,31.2,13.7,31z M13.5,31.3
	C13.5,31.3,13.5,31.3,13.5,31.3C13.5,31.3,13.5,31.3,13.5,31.3C13.5,31.4,13.5,31.3,13.5,31.3C13.5,31.3,13.5,31.3,13.5,31.3z
	 M13.3,31.3c0,0.2-0.2,0.4-0.3,0.4c-0.2,0-0.3-0.2-0.3-0.3c0-0.2,0.2-0.4,0.3-0.4C13.2,31.1,13.3,31.2,13.3,31.3z M13,30.9L13,30.9
	L13,30.9z M26.6,10.8c0-0.3-0.3-0.7-0.6-0.8c0.1-0.1,0.1-0.2,0.1-0.4c0-0.2-0.2-0.5-0.4-0.6c0-0.2-0.1-0.3-0.2-0.4V8.4
	c0-0.1,0-0.2-0.1-0.2c0.2-0.2,0.3-0.3,0.3-0.6c0-0.2-0.1-0.3-0.2-0.5c0.1-0.1,0.1-0.2,0.1-0.3c0-0.2-0.1-0.4-0.2-0.6
	c-0.1-0.1-0.2-0.2-0.3-0.2C24.9,6,24.9,6,24.8,5.9c0.1-0.1,0.1-0.2,0.1-0.3c0-0.4-0.3-0.8-0.7-0.8c-0.2,0-0.4,0.1-0.5,0.2
	c-0.1-0.2-0.3-0.3-0.6-0.3c-0.2,0-0.3,0.1-0.5,0.2c-0.1-0.1-0.2-0.1-0.3-0.1c-0.2,0-0.3,0.1-0.5,0.1c-0.1-0.1-0.2-0.1-0.3-0.1
	c-0.1,0-0.1-0.1-0.1-0.1c0-0.1-0.1-0.2-0.1-0.2c0.1,0,0.1-0.1,0.1-0.1c0.2-0.2,0.2-0.3,0.2-0.5c0-0.4-0.3-0.8-0.7-0.8
	c0.1-0.3-0.3-0.6-0.7-0.6c-0.3,0-0.6,0.2-0.7,0.5c-0.1-0.2-0.3-0.3-0.6-0.3c-0.2,0-0.3,0.1-0.5,0.2c-0.1-0.1-0.3-0.2-0.5-0.2
	c-0.3,0-0.6,0.2-0.7,0.5C17.1,3,17,3,16.9,3c-0.3,0-0.7,0.3-0.8,0.6c-0.1-0.1-0.3-0.3-0.6-0.3c-0.4,0-0.7,0.3-0.7,0.7
	c0,0.2,0.1,0.3,0.1,0.4c-0.2,0.1-0.3,0.4-0.3,0.6c0,0.1,0,0.2,0.1,0.3c-0.1,0.1-0.1,0.2-0.2,0.2c-0.3,0.1-0.6,0.4-0.6,0.7v0.1
	l-0.1,0.1c-0.1-0.2-0.4-0.3-0.6-0.3c-0.4,0-0.7,0.3-0.7,0.7c0,0.2,0.1,0.5,0.3,0.6v0.2c0,0.1,0.1,0.2,0.1,0.3h-0.3
	c-0.2,0.1-0.4,0.2-0.5,0.3c-0.1,0.1-0.1,0.2-0.1,0.3c-0.1,0-0.2,0.1-0.3,0.2c-0.1,0.1-0.2,0.2-0.2,0.3c-0.1,0-0.2,0.1-0.3,0.2
	c-0.2,0.2-0.3,0.3-0.3,0.6c0,0.2,0.1,0.4,0.2,0.5c-0.4,0.1-0.6,0.4-0.6,0.7c0,0.4,0.3,0.7,0.7,0.7c0,0.1-0.1,0.1-0.1,0.2
	c0,0.4,0.3,0.7,0.7,0.7h0.1c-0.2,0.1-0.4,0.4-0.4,0.7c0,0.4,0.3,0.7,0.8,0.7c-0.1,0.1-0.1,0.2-0.1,0.3c0,0.5,0.3,0.8,0.7,0.8
	c0.2,0,0.4-0.1,0.6-0.3c0.2,0,0.8,0.1,1.1,0.2h0.1c0.2,0,0.4-0.1,0.6-0.3c0.1-0.1,0.1-0.1,0.2-0.1c0.2-0.1,0.3-0.1,0.5-0.2
	c0.1,0,0.1,0,0.2-0.1c0.3-0.1,0.6-0.2,0.7-0.4c0.1,0.2,0.2,0.4,0.4,0.5c-0.3,0.1-0.6,0.5-0.6,0.8c0,0.3,0.2,0.6,0.6,0.7
	c0,0.1-0.1,0.2-0.1,0.2c0,0.2,0.1,0.4,0.2,0.5c-0.2,0.2-0.2,0.4-0.2,0.6c0.1,0.4,0.3,0.7,0.8,0.7c0,0.8-0.1,1.4-0.1,1.6
	c-0.2,0.7-0.5,3.4-0.3,5.6c0.1,0.8,0,1.4-0.1,2c0,0.1,0,0.2-0.1,0.3c-0.4,0-0.8,0.3-0.8,0.8c0,0,0,0,0,0c0,0.2,0.1,0.3,0.2,0.5
	c-0.2,0.2-0.3,0.4-0.3,0.7c0,0.4,0.3,0.7,0.7,0.7c0.1,0,0.2,0,0.3-0.1c0,0.5-0.1,1-0.1,1.2v0.1c-0.5,0.1-1.7,0.4-2.4,0.4h-0.4
	c-0.8,0-2.1,0.3-2.2,0.4c-0.5,0.1-2,0.4-2.2,0.4c-0.3,0-0.8,0.3-0.9,0.7c-0.1,0.3,0,0.6,0.3,0.8c0.1,0.1,0.3,0.1,0.5,0.1
	s0.5-0.1,0.7-0.1c0.2-0.1,0.4-0.1,0.6-0.1c0.2,0,0.7-0.1,1.4-0.1h0.1c0.7-0.1,1.7-0.2,2.2-0.2h0.2c0.3,0,0.7,0.1,1.1,0.1h1.7
	c0.2,0,0.5,0.1,0.8,0.1c0.5,0,1-0.1,1.2-0.3c0.1-0.1,0.2-0.3,0.2-0.5c0.1-0.5-0.1-0.8-0.2-1.1c-0.1-0.1-0.1-0.2-0.1-0.3
	C20,31.5,19.9,28.4,20,28c0.1-0.2,0-0.5,0-0.9c0-0.3-0.1-0.7-0.1-1.1c0-0.9,0-1.9,0.1-2.3c0.1-0.2,0.1-0.6,0.1-1
	c0.1,0.3,0.5,0.5,0.7,0.5c0.4,0,0.8-0.3,0.8-0.7s-0.5-0.7-0.8-0.7c-0.3,0-0.5,0.1-0.7,0.3v-0.3c0.1-1.1,0.2-2.4,0.3-3.2
	c0.1-0.9,0.1-2,0-2.6c0.1,0.3,0.3,0.6,0.7,0.6c0.3,0,0.6-0.2,0.7-0.6c0.4,0,0.8-0.4,0.8-0.8c0-0.5-0.4-0.7-0.8-0.7
	c-0.3,0-0.6,0.2-0.8,0.6c-0.3,0.1-0.6,0.3-0.7,0.7c0-0.2-0.1-0.4-0.1-0.5v-0.1c0-0.1,0-0.3,0.1-0.4c0.1-0.1,0.1-0.1,0.1-0.1
	c0.2-0.1,0.3-0.3,0.5-0.6c0,0,0.1,0,0.1,0.1c0.1,0.1,0.7,0.1,0.9,0.2c0.1,0.1,0.6,0.2,1,0.2h0.2c0.1,0,0.1,0,0.2-0.1
	c0.1,0,0.2,0.1,0.3,0.1c0.1,0,0.3,0,0.4-0.1c0.1,0.2,0.4,0.4,0.7,0.4c0.2,0.2,0.4,0.3,0.6,0.3c0.4,0,0.8-0.3,0.8-0.8
	c0-0.4-0.4-0.8-0.8-0.8h-0.1l-0.1-0.1c0.1-0.1,0.2-0.3,0.2-0.5c0-0.1,0-0.2-0.1-0.3c0.4-0.1,0.6-0.4,0.6-0.7c0-0.1,0-0.3-0.1-0.4
	C26.3,11.5,26.6,11.1,26.6,10.8L26.6,10.8z M20.4,22.3c0-0.2,0.2-0.3,0.3-0.3s0.3,0.2,0.3,0.3s-0.2,0.4-0.3,0.4
	C20.5,22.7,20.4,22.6,20.4,22.3z M20.6,22.8C20.7,22.8,20.7,22.8,20.6,22.8z M24,13.7c0,0.2-0.2,0.3-0.3,0.3c-0.1,0-0.2-0.1-0.2-0.1
	l-0.1-0.1c-0.1,0-0.1,0-0.1,0.1c-0.1,0.1-0.1,0.1-0.2,0.1c-0.3,0.1-0.8-0.3-1.1-0.3c-0.3,0-0.5-0.1-0.7-0.2
	c-0.1-0.2-0.1-0.4-0.1-0.6c0.1-0.2,0-0.6-0.1-0.8C21,12.1,21,12,21,12c0-0.1,0-0.2-0.1-0.3c-0.2-0.5-1-0.8-1.4-1
	c-0.5-0.2-1-0.1-1.4,0.2c-0.1,0.1-0.2,0.1-0.2,0.1h-0.1c0,0-0.1,0.1-0.1,0.1c-0.2,0.1-0.3,0.2-0.5,0.2l-0.2,0.2
	c-0.1,0.1-0.1,0-0.1,0.1c-0.1,0.2-0.2,0.3-0.3,0.4c-0.1,0.1-0.1,0.3-0.1,0.4v0.1c0,0.2,0.1,0.2,0.1,0.4c0,0.1-0.1,0.2-0.1,0.3
	c0,0.1,0.1,0.1,0.1,0.1c0,0.2,0.1,0.4,0.1,0.6c-0.1,0.2-0.4,0.4-0.6,0.5c-0.3,0.1-0.6,0.2-0.8,0.3c-0.2,0.1-0.5,0.2-0.6,0.2
	c-0.3-0.1-0.5-0.1-0.8-0.1H14c0.1,0,0.2,0,0.3-0.1c0.1,0,0.2,0.1,0.2,0.1h0.1l1-0.2h0.1c0.1-0.1,0.2-0.1,0.3-0.1
	c0.2,0,0.3-0.1,0.5-0.2c0.2-0.2,0.3-0.3,0.3-0.4c0.1-0.2-0.1-0.3-0.1-0.4l-0.1-0.1c0.1-0.3,0.1-0.3,0.1-0.6v-0.1
	c0.2-0.2,0.1-0.3,0.1-0.5l-0.1-0.1c0.2-0.1,0.2-0.2,0.3-0.4c0.1,0,0.1,0,0.1-0.1c0.2-0.1,0.2-0.3,0.2-0.3v-0.1
	c0.2-0.1,0.3-0.1,0.4-0.2h0.1c0.2,0.1,0.3-0.2,0.3-0.3v-0.1c0.3,0.1,0.3,0,0.6-0.2l0.1-0.1h0.1c0.2,0.1,0.3,0,0.5-0.1l0.1-0.1
	c0.2,0.1,0.3,0.2,0.5,0.1c0,0,0.1,0.1,0.1,0.1c0.1,0.2,0.2,0.2,0.3,0.1c0.1,0.1,0.2,0.1,0.2,0.1c0.1,0.1,0.2,0.2,0.3,0.2
	c0.1,0.1,0.2,0.1,0.3,0.2h0.1c0,0.2,0.2,0.3,0.3,0.3h0.1c0,0.2,0,0.3,0.1,0.5C21.3,12,21.3,12,21.3,12c-0.1,0.2,0.1,0.3,0.1,0.5
	l0.1,0.1c-0.2,0.2-0.1,0.3-0.1,0.6v0.1c0.1,0.2,0.3,0.4,0.9,0.3c0.3-0.1,1-0.1,1-0.1s0.7-0.1,1-0.2c0.1,0,0.2-0.1,0.2-0.1
	c0.1,0,0.2,0,0.3-0.1c0.1-0.1,0.2-0.2,0.2-0.3c0-0.5-0.2-0.6-0.2-0.6h-0.1c0.2-0.1,0.3-0.2,0.3-0.4c0-0.2-0.2-0.5-0.3-0.5
	s-0.5-0.1-0.6,0.1c-0.2-0.1-0.5,0.1-0.6,0.1h-0.1c0.2-0.1,0.5-0.4,0.7-0.5l0.1-0.1c0.1,0.1,0.3,0,0.4-0.1c0.2-0.1,0.5-0.5,0.4-0.8
	c0-0.2-0.2-0.3-0.4-0.5c-0.2-0.1-0.5,0-0.7,0.1C23.9,9.4,24,9.3,24,9.1C24,8.9,24,8.8,24,8.8c-0.2-0.2-0.4-0.2-0.5-0.2
	c-0.4,0.1-0.6,0.2-0.7,0.5c-0.2,0.1-0.4,0.3-0.4,0.3l-0.3,0.2c0-0.1,0.1-0.1,0.1-0.1s0.3-0.6,0.5-0.8c0.1-0.2,0.1-0.3,0-0.3
	c0.1-0.1,0.1-0.1,0.1-0.1C22.8,8.2,23,8,23,7.7c0-0.2-0.1-0.3-0.2-0.3c-0.2-0.1-0.5-0.1-0.6-0.1h-0.1c-0.1-0.1-0.2-0.2-0.5-0.1
	c-0.2,0.1-0.3,0.2-0.4,0.3c-0.1-0.3-0.2-0.6-0.3-0.6c-0.1-0.1-0.2-0.1-0.3,0c-0.1,0-0.1,0.1-0.1,0.1c-0.1,0.1-0.3,0.1-0.3,0.4v0.5
	C20,7.9,20,8.2,20,8.2v0.1c-0.1-0.2-0.1-0.6-0.1-0.8c0.2-0.4,0.2-0.9,0-1.1c-0.1-0.2-0.4-0.2-0.6-0.2c-0.2,0-0.3,0.1-0.4,0.2
	c0,0.1-0.1,0.1-0.1,0.1c-0.1,0.1-0.2,0.2-0.2,0.5v0.1c-0.2-0.3-0.3-0.5-0.5-0.6c-0.1,0-0.2,0-0.3,0.1c-0.3,0.2-0.4,0.5-0.3,0.8
	c0.1,0.3,0.2,0.5,0.3,0.5C17.9,8,18,8.1,18,8.1l0.1,0.4c0-0.1,0-0.1-0.1-0.1c0,0-0.4-0.6-0.5-0.8c-0.1-0.1-0.1-0.2-0.2-0.2
	c0-0.1,0-0.1-0.1-0.2c-0.1-0.2-0.3-0.5-1-0.3c-0.2,0.1-0.3,0.2-0.3,0.4C15.9,7.6,16,7.8,16.1,8C16.2,8,16.2,8,16.3,8.1
	c-0.2-0.1-0.4,0-0.5,0.1l-0.3,0.3c0,0.1-0.1,0.1-0.1,0.1c-0.3-0.6-0.7-0.5-0.8-0.4c-0.3,0.1-0.4,0.5-0.4,0.5
	c-0.1,0.2-0.1,0.5,0.2,0.6l0.1,0.1c0.1,0.1,0.2,0.1,0.2,0.1v0.2h-0.1c-0.1-0.1-0.2-0.2-0.3-0.2c-0.3-0.1-1.1-0.1-1.2,0.2
	c-0.1,0.1-0.1,0.3,0.1,0.5c0.1,0.1,0.2,0.2,0.5,0.2l0.1,0.1c0.1,0.1,0.2,0.3,0.5,0.3c0.1,0,0.2-0.1,0.3-0.1c0.1,0.1,0.3,0.2,0.3,0.2
	l0.1,0.1c-0.2-0.1-0.6-0.1-0.8-0.2h-0.2c-0.3-0.2-0.7-0.3-1.1-0.2c-0.2,0-0.3,0.2-0.3,0.4c0,0.2,0.1,0.4,0.3,0.5
	c0,0,0.1,0.1,0.1,0.1c0.2,0.1,0.5,0.3,0.7,0.3v0.1c-0.1-0.1-0.2-0.1-0.2-0.1c-0.2,0-1,0-1,0.5c0,0.2,0.1,0.4,0.2,0.6
	c0.2,0.2,0.5,0.2,0.8,0.2c0.1,0,0.3,0,0.5-0.1c0.2,0.1,0.4,0.1,0.5,0.1l0.4,0.1h-0.1l-0.9,0.2c-0.2,0.1-0.2,0.1-0.3,0.2
	C13.3,13,13.2,13,13.1,13c-0.2,0-0.3,0.1-0.3,0.3c-0.2,0.1-0.2,0.2-0.2,0.3c0,0-0.1,0-0.1,0.1c-0.1,0.1-0.2,0.1-0.3,0.1
	c-0.2,0-0.3-0.2-0.3-0.3s0.1-0.3,0.3-0.3c0,0,0.1,0,0.1-0.1v-0.2c0-0.1,0.1-0.2,0.1-0.2l0.1-0.1c0-0.1,0-0.1-0.1-0.1
	c-0.1-0.1-0.2-0.2-0.2-0.3c0-0.1,0-0.1-0.1-0.1c-0.1,0-0.1,0-0.1,0.1c-0.1,0.1-0.2,0.2-0.3,0.2c-0.2,0-0.3-0.2-0.3-0.3
	c0-0.2,0.1-0.3,0.3-0.3c0.1,0,0.1-0.1,0.1-0.1c0-0.1,0-0.1-0.1-0.1c-0.1-0.1-0.1-0.2-0.1-0.3c0-0.2,0.1-0.3,0.3-0.3h0.2l0.1-0.1
	c0-0.1,0-0.1-0.1-0.1h-0.2c-0.2,0-0.3-0.2-0.3-0.3c0-0.1,0.1-0.2,0.2-0.3c0.1,0,0.1-0.1,0.1-0.1c0-0.1-0.1-0.1-0.1-0.1
	c-0.1,0-0.1,0-0.1,0.1c-0.1,0.1-0.2,0.1-0.2,0.1c-0.1,0-0.2-0.1-0.3-0.2V10c0-0.1-0.1-0.1-0.1-0.2c0-0.2,0.2-0.4,0.5-0.3h0.1
	c0,0,0.1-0.1,0-0.1V9.3c0-0.2,0.2-0.4,0.5-0.3h0.1c0-0.1,0.1-0.1,0-0.1c0-0.1-0.1-0.1-0.1-0.1c0-0.1,0-0.2,0.1-0.2
	c0.1-0.1,0.1-0.1,0.2-0.1c0.1-0.1,0.3,0.1,0.3,0.2c0,0.1,0.1,0.1,0.1,0.1C13,8.7,13,8.6,13,8.6c0-0.2,0.2-0.3,0.3-0.3h0.1
	c0.1,0,0.1,0,0.1-0.1V8.2c0-0.1-0.1-0.1-0.1-0.1C13.4,8,13.3,8,13.3,8c-0.2-0.1-0.2-0.2-0.2-0.3s0.1-0.2,0.2-0.3l0.1-0.1
	c0,0,0.1,0.1,0.1,0.1c0.1,0,0.3,0.1,0.3,0.2c0,0.1,0.1,0.1,0.1,0.1c0.1,0,0.1,0,0.1-0.1c0.1-0.1,0.1-0.2,0.2-0.2l0.1-0.1V7.3
	c-0.1-0.1-0.1-0.1-0.1-0.2c0-0.2,0.1-0.3,0.3-0.3c0.1,0,0.1,0,0.1-0.1V6.7c-0.1-0.1-0.1-0.1-0.1-0.2c0-0.2,0.2-0.3,0.3-0.3h0.1
	l0.1-0.1c0-0.2,0.2-0.3,0.3-0.3c0.1,0,0.2,0.1,0.2,0.1h0.1c0.1,0,0.1-0.1,0.1-0.1V5.6c0,0-0.1-0.1-0.1,0h-0.1
	c-0.2,0-0.3-0.2-0.3-0.3s0.2-0.3,0.3-0.3s0.3,0.2,0.3,0.3v0.2c0,0,0.1,0.1,0.1,0c0.1,0,0.2,0,0.2,0.1c0.1,0,0.1,0,0.1-0.1V5.4
	l-0.1-0.1C16,5.2,15.9,5,15.9,4.9c0-0.2,0.2-0.3,0.3-0.3s0.3,0.2,0.3,0.3V5c-0.1,0,0,0.1,0,0.1h0.2c0.1,0,0.1,0,0.1-0.1V4.8
	c0-0.2,0.2-0.3,0.3-0.3c0.1,0,0.2,0.1,0.2,0.1h0.1c0.1,0,0.1-0.1,0.1-0.1c0.1-0.2,0.2-0.2,0.3-0.2c0.1,0,0.1,0,0.1-0.1
	c0,0,0.1-0.1,0-0.1c0-0.1,0-0.1,0.1-0.2V3.9c0-0.1-0.1-0.1-0.1-0.1c-0.1-0.1-0.2-0.2-0.2-0.4s0.2-0.3,0.3-0.3s0.3,0.2,0.3,0.4v0.1
	c0,0.1,0,0.1,0.1,0.1h0.1c0.1-0.1,0.1-0.1,0.2-0.1c0,0,0.1,0,0.1-0.1V3.5c0-0.2,0.2-0.3,0.3-0.3c0.2,0,0.3,0.1,0.3,0.2
	c0,0.1,0.1,0.1,0.1,0.1c0.1,0,0.1,0.1,0.2,0.1l0.1,0.1c0.1,0,0.2,0.1,0.3,0.3C20,4,20,4,20,4h0.1c0.1-0.1,0.1-0.1,0.2-0.1
	c0.1,0,0.2,0.1,0.3,0.2c0,0,0,0.1,0.1,0.1v0.3l0.1,0.1c0.1,0,0.1,0.1,0.2,0.2L21,4.6c0.2,0,0.3,0.2,0.3,0.3v0.2l0.1,0.1
	c0.1,0,0.2,0.1,0.3,0.2c0,0.1,0.1,0.1,0.1,0.1h0.1c0.1,0,0.2,0.1,0.3,0.2c0,0.1,0.1,0.1,0.1,0.1s0.1,0,0.1-0.1
	c0.1-0.1,0.2-0.2,0.3-0.2s0.2,0.1,0.3,0.1l0.1,0.1c0.1,0,0.1,0,0.1-0.1c0.1-0.1,0.2-0.2,0.3-0.2c0.2,0,0.3,0.2,0.3,0.3
	c0,0.1,0,0.1-0.1,0.2v0.1C23.5,6,23.6,6,23.6,6s0.1,0.1,0.2,0.1l0.1,0.1c0.1,0,0.1,0,0.1-0.1L24,6C24,6,24,5.9,24,5.9V5.8
	c0-0.2,0.2-0.3,0.3-0.3s0.3,0.2,0.3,0.3c0,0.1-0.1,0.2-0.2,0.3c-0.1,0-0.1,0.1-0.1,0.1c0,0.1,0.1,0.1,0.1,0.1
	c0.2,0.1,0.2,0.2,0.2,0.3v0.2c0,0,0.1,0.1,0.1,0H25c0.2,0,0.3,0.2,0.3,0.3c0,0.1-0.1,0.2-0.2,0.3C25,7.2,25,7.2,25,7.3
	S25,7.3,25,7.3c0.1,0.1,0.2,0.2,0.2,0.3c0,0.2-0.1,0.3-0.3,0.3C24.9,8,24.9,8,24.9,8c0,0.1,0,0.1,0.1,0.1c0.1,0.1,0.2,0.2,0.2,0.3
	S25.1,8.6,25,8.6c0,0-0.1,0.1-0.1,0.1C25,8.8,25,8.8,25,8.8c0.2,0,0.3,0.2,0.3,0.3v0.1l0.1,0.1c0.2,0,0.3,0.2,0.3,0.3
	c0,0.1-0.1,0.2-0.2,0.3c-0.1,0-0.1,0.1-0.1,0.1v0.1c0,0.1-0.1,0.2-0.2,0.3l-0.1,0.1v0.1c0,0,0.1,0.1,0.1,0.2c0,0.1,0,0.2-0.1,0.2
	v0.1c0,0.1,0.1,0.1,0.1,0.1c0.2,0,0.3,0.2,0.3,0.3v0.2l0.1,0.1c0.1,0.1,0.2,0.2,0.2,0.3c0,0.2-0.2,0.3-0.3,0.3c-0.1,0-0.1,0-0.2-0.1
	h-0.1c-0.1,0-0.1,0.1-0.1,0.1v0.1c0,0.1-0.1,0.2-0.1,0.2c0,0-0.1,0.1,0,0.1c0,0,0,0.1,0.1,0.1c0.1,0.1,0.2,0.2,0.2,0.3
	c0,0.2-0.2,0.3-0.3,0.3c-0.1,0-0.1,0-0.1,0.1v0.3l0.1,0.1c0.2,0,0.3,0.1,0.3,0.3c0,0.1,0,0.1,0.1,0.1h0.1c0.1-0.1,0.1-0.1,0.2-0.1
	c0.2,0,0.3,0.2,0.3,0.3c0,0.2-0.2,0.3-0.3,0.3c-0.2,0-0.3-0.1-0.3-0.3c0-0.1,0-0.1-0.1-0.1H25c-0.1,0.1-0.1,0.1-0.2,0.1
	c-0.2,0-0.3-0.2-0.3-0.3v-0.2l-0.1-0.1c-0.1,0-0.2-0.1-0.2-0.1c0,0-0.1-0.1-0.1,0C24,13.7,24,13.7,24,13.7L24,13.7z M21.7,14.7
	C21.7,14.7,21.7,14.7,21.7,14.7C21.7,14.7,21.7,14.7,21.7,14.7z M22.2,15.2c0,0.2-0.2,0.3-0.3,0.3c-0.2,0-0.3-0.2-0.3-0.3
	c0-0.2,0.2-0.3,0.3-0.3C22.1,14.8,22.2,15,22.2,15.2z M12.6,33.8c-0.6,0.1-1,0.1-1.2,0.1S11,33.9,10.7,34c-0.3,0.1-0.5,0.2-0.6,0.1
	C10,34,9.9,34,10,33.9c0.1-0.2,0.2-0.3,0.3-0.3c0.3,0,1.7-0.4,2.1-0.5c0.5-0.2,1.6-0.3,2.3-0.3h0.2c0.6,0.1,2.8-0.3,3-0.6
	c0.1-0.1,0.1-0.1,0.1-0.1v-0.2c0.1-0.6,0.1-1.7,0-2.4c-0.1-0.1-0.1-0.3-0.1-0.5c0-0.1-0.1-0.1-0.1-0.1c-0.1,0-0.1,0-0.2,0.1
	c-0.1,0.1-0.2,0.2-0.3,0.2c-0.2,0-0.3-0.2-0.3-0.3s0.2-0.3,0.3-0.3s0.2,0.1,0.2,0.2c0,0.1,0.1,0.1,0.1,0.1c0.1,0,0.1-0.1,0.1-0.1
	c0-0.2,0.1-0.3,0.1-0.5c0.1-0.6,0.1-1.4,0.1-2.5c-0.1-2,0-4.5,0.2-5.1c0.1-0.3,0.2-1.3,0.3-2.5c0-0.1-0.1-0.1-0.1-0.1
	s-0.1,0-0.2,0.1c-0.1,0.1-0.2,0.2-0.3,0.2c-0.2,0-0.3-0.2-0.3-0.3s0.2-0.3,0.3-0.3c0.1,0,0.2,0.1,0.2,0.1c0.1,0.1,0.1,0.1,0.2,0.1
	c0.1,0,0.1-0.1,0.1-0.1v-0.6c0-0.1-0.1-0.1-0.1-0.1c-0.1,0-0.1,0-0.2,0.1c-0.1,0.1-0.2,0.2-0.3,0.2c-0.2,0-0.3-0.2-0.3-0.3
	s0.2-0.3,0.3-0.3s0.2,0.1,0.2,0.1s0.1,0.1,0.2,0.1c0.1,0,0.1-0.1,0.1-0.1V16c0-0.6-0.2-1-0.5-1.2c-0.2-0.2-0.6-0.5-0.6-0.7
	c-0.1-0.6-0.3-1.5,0.2-2.1c0.5-0.6,1.2-0.6,1.4-0.6c1.2-0.1,1.5,0.7,1.7,1.6c0.1,0.6-0.3,0.9-0.6,1.2l-0.2,0.2
	c-0.3,0.3-0.2,0.6-0.2,0.7c0,0.2,0.3,2.1,0.2,3.4c-0.1,0.8-0.2,2-0.3,3.2c-0.1,0.8-0.3,1.6-0.3,2c-0.1,0.5,0.1,1.5,0.1,2.4
	c0,0.8,0.1,1.7,0,2c-0.1,0.6,0,3.7,0.1,3.9c0,0.2,0.2,0.4,0.2,0.6c0.1,0.3,0.2,0.6,0.2,0.9c0,0,0,0.1-0.1,0.1
	c-0.3,0.2-1.2,0.2-1.7,0.1c-0.6-0.1-2.1,0-2.9-0.1C14.6,33.4,13.5,33.7,12.6,33.8L12.6,33.8z M10.3,33.3
	C10.3,33.3,10.3,33.3,10.3,33.3z M15.3,12.5c-0.1,0-0.4-0.2-0.5-0.2l-0.7-0.1h-0.1c-0.1,0-0.3,0-0.4-0.1c0,0-0.1-0.1-0.1,0
	c-0.1,0-0.1,0-0.1,0.1c-0.1,0.1-0.2,0.1-0.3,0.1h-0.1c-0.3,0.1-0.5,0-0.6-0.1V12c0-0.1,0.1-0.2,0.8-0.2c0.2,0,0.2,0.1,0.2,0.1
	c0,0.1,0.1,0.1,0.1,0.1c0.1,0,0.1,0,0.1-0.1c0.1-0.1,0.2-0.1,0.3-0.1c0.1,0,0.1-0.1,0.1-0.1s-0.1-0.1-0.1-0.1
	c-0.1,0-0.2-0.1-0.2-0.1c0-0.1-0.1-0.1-0.1-0.1c0-0.1-0.1-0.1-0.2-0.1c-0.2,0.1-0.5-0.2-0.6-0.3c-0.1-0.1-0.2-0.1-0.2-0.1
	c-0.1-0.1-0.1-0.2-0.1-0.2c0-0.1,0.1-0.1,0.1-0.1c0.3,0,0.6,0,1,0.2c0.1,0,0.1,0.1,0.1,0h0.1c0.3,0.1,0.5,0.3,0.5,0.3s0.7,0,1,0.1
	c0.1,0,0.1,0,0.2-0.1c0-0.1,0-0.1-0.1-0.2l-0.5-0.4c0,0-0.2-0.1-0.2-0.1c-0.1,0-0.2-0.1-0.3-0.2c-0.1-0.1-0.1-0.1-0.2-0.1
	c-0.1,0.1-0.2,0.1-0.3,0.1s-0.2-0.1-0.2-0.2C14,10.1,13.9,10,13.8,10s-0.2,0-0.3-0.1c-0.1-0.1-0.1-0.2,0-0.2
	c0.1-0.1,0.6-0.1,0.9-0.1c0.1,0.1,0.2,0.1,0.2,0.2c0.1,0.1,0.1,0.1,0.2,0.1c0.1-0.1,0.2,0,0.3,0s0.1,0,0.2-0.1s0-0.1-0.1-0.2
	c-0.1-0.1-0.1-0.1-0.2-0.2V9.3c0-0.1-0.1-0.1-0.1-0.1c-0.1,0-0.2-0.1-0.3-0.1L14.6,9c-0.2-0.1-0.1-0.3-0.1-0.3s0.1-0.2,0.3-0.3
	c0.1-0.1,0.3-0.1,0.5,0.3c0.1,0.1,0.1,0.1,0.1,0.2s0,0.1,0.1,0.1c0,0,0.1,0,0.1,0.1c0.1,0.1,0.3,0.3,0.5,0.4c0.1,0.1,0.1,0.1,0.2,0
	c0.1-0.1,0.1-0.1,0.1-0.1V9.1C16.2,9,16.1,9,16.1,9S16,8.9,15.9,8.8l-0.1-0.1l-0.1-0.1l0.1-0.1c0.1,0,0.2-0.1,0.3,0
	c0.1,0.1,0.1,0.2,0.1,0.2V9c0,0,0.1,0.1,0.1,0.1h0.3C16.7,9,16.8,9,16.8,9c0-0.1,0-0.1-0.1-0.2c-0.1-0.1-0.2-0.2-0.2-0.4
	c0-0.1,0-0.1-0.1-0.2c-0.1,0-0.1-0.1-0.2-0.1C16.1,8.1,16.1,8,16,8c-0.1-0.1-0.1-0.2-0.1-0.3c0-0.1,0.1-0.2,0.1-0.2
	c0.3-0.1,0.6-0.1,0.7,0.2v0.2c0,0.1,0,0.1,0.1,0.1C16.8,8,16.8,8,16.9,8c0.1,0,0.1,0,0.1,0.1c0.2,0.2,0.3,0.8,0.4,0.8
	c0,0,0.4,0.5,0.6,0.7c0.1,0.1,0.1,0.1,0.2,0.1s0.1-0.1,0.1-0.1c0-0.1,0.1-0.5,0-0.6l-0.2-0.6V8.4c0,0-0.1-0.2-0.1-0.3
	C18,8,18,8,17.9,8c-0.1-0.1-0.2-0.2-0.3-0.5c-0.1-0.2,0-0.4,0.2-0.6h0.1c0.1,0,0.2,0.2,0.3,0.5l0.1,0.1c0.1,0.1,0.1,0.2,0.1,0.2
	s0,0.1,0.1,0.1c0.1,0,0.1,0.2,0.2,0.2c0,0.1,0.1,0.1,0.2,0.1c0.1,0,0.1-0.1,0.1-0.2s0-0.2,0.1-0.2c0.1-0.1,0.1-0.1,0-0.2
	c-0.1-0.1-0.1-0.2-0.1-0.4s0.1-0.2,0.1-0.3C19,6.8,19,6.8,19,6.7c0.1-0.1,0.1-0.1,0.2-0.1c0.2,0,0.3,0.1,0.4,0.1
	c0.1,0.1,0.1,0.5-0.1,0.9v0.1c0.1,0.3,0,1,0,1s0.2,0.3,0.2,0.6c0,0.1,0.1,0.1,0.1,0.1s0.2-0.1,0.2-0.1l0.1-0.7V8.5
	c0-0.1,0-0.3,0.1-0.4C20.4,8,20.4,8,20.4,7.9V7.4c0-0.1,0.1-0.1,0.2-0.2c0.1,0,0.1-0.1,0.2-0.1h0.1c0.1,0,0.2,0.2,0.2,0.5
	c0,0.1-0.1,0.2-0.2,0.3c-0.1,0-0.1,0.1-0.1,0.1v0.1c0.1,0.1,0.1,0.2,0.1,0.3c0,0.1,0,0.1,0.1,0.1h0.1l0.1-0.1C21,8.3,21,8.3,21,8.3
	c0.1,0,0.1-0.1,0.1-0.1c0.1,0,0.1-0.1,0.1-0.2c-0.1-0.3,0.3-0.5,0.3-0.5c0.1-0.1,0.2,0,0.3,0.1c0.1,0.1,0.1,0.1,0.2,0.1
	c0.1,0,0.3-0.1,0.4,0.1c0.1,0.1,0.1,0.1,0.1,0.2c0,0.2-0.1,0.3-0.2,0.4c-0.1,0.1-0.2,0.2-0.2,0.3v0.1c0.1,0.1,0.1,0.1,0,0.2
	c-0.1,0.2-0.7,0.8-0.7,0.8s0,0.3-0.2,0.7c-0.1,0.1,0,0.1,0,0.2c0.1,0.1,0.1,0.1,0.2,0c0.1-0.1,0.2-0.1,0.3-0.2l0.6-0.6l0.1-0.1
	c0.1-0.1,0.2-0.2,0.3-0.2c0.1,0,0.1-0.1,0.1-0.1c0.1-0.2,0.2-0.3,0.5-0.3c0.1,0,0.2,0,0.2,0.1c0,0,0.1,0.1,0,0.1
	c0,0.3-0.3,0.4-0.5,0.5C23,9.7,23,9.8,23,9.8c0,0.1-0.1,0.2-0.1,0.2c-0.1,0.1-0.1,0.1,0,0.2c0.1,0.1,0.1,0.1,0.2,0
	c0.1-0.1,0.2-0.1,0.2-0.1c0.1,0,0.1,0,0.1,0.1c0.1,0,0.1,0,0.2-0.1c0,0,0-0.1,0.1-0.1c0.2-0.1,0.4-0.2,0.6-0.2
	c0.1,0.1,0.2,0.1,0.2,0.2c0,0.2-0.2,0.5-0.3,0.5c-0.1,0.1-0.2,0.1-0.3,0c-0.1,0-0.1,0-0.2,0.1c0,0,0,0.1-0.1,0.1
	c-0.2,0.2-0.7,0.4-0.7,0.4s-0.3,0.3-0.6,0.5c-0.1,0.1-0.1,0.1-0.1,0.2c0,0.1,0.1,0.1,0.2,0.1l0.7-0.2h0.1c0.1-0.1,0.3-0.1,0.5-0.1
	c0.1,0.1,0.1,0,0.2,0c0.1-0.1,0.3-0.1,0.5-0.1c0.1,0,0.1,0.1,0.1,0.2S24.3,12,24.3,12C24.1,12,24,12,23.9,12c-0.1-0.1-0.1,0-0.2,0.1
	c-0.1,0.1-0.1,0.1-0.2,0.2c-0.1,0-0.1,0.1-0.1,0.2c0,0.1,0.1,0.1,0.2,0.1c0.1,0,0.2,0,0.2,0.1c0.1,0.1,0.1,0.1,0.1,0.1
	c0.1,0.1,0.1,0.1,0.2,0c0.1-0.1,0.1-0.1,0.2-0.1c0.1,0.1,0.1,0.2,0.1,0.3c0,0.1,0,0.1-0.1,0.1H24C24,13,24,13.1,24,13.1
	s0,0.1-0.1,0.1c-0.3,0.1-0.5,0-0.9,0.1c-0.3,0-0.7,0.1-1,0.2s-0.7,0.2-0.7,0.1v-0.1c-0.1-0.2-0.1-0.2,0.1-0.4
	c0.1-0.2-0.1-0.3-0.1-0.4c-0.1-0.1-0.1-0.1-0.1-0.1v-0.1c0,0,0.2-0.1,0.2-0.1c0.1-0.1,0.1-0.1,0-0.2c-0.1-0.1-0.3-0.1-0.3-0.3
	c0-0.2-0.2-0.3-0.3-0.3c0.2-0.3,0.2-0.3,0.2-0.4v-0.1C21,11,21,11,21,11c0,0-0.1-0.1-0.1-0.1h-0.1c-0.2-0.1-0.2-0.1-0.2-0.1
	l-0.1-0.1c-0.1,0-0.1-0.1-0.2-0.2c0-0.1-0.1-0.1-0.1-0.1H20c-0.1-0.1-0.1-0.1-0.2-0.1c-0.1,0.1-0.1,0.1-0.1,0c0,0,0-0.1-0.1-0.1
	c0,0-0.1-0.1-0.1-0.1c0-0.1-0.1-0.1-0.2-0.1c-0.1,0-0.1-0.1-0.3-0.2c-0.2-0.1-0.3,0-0.4,0.1c-0.1,0.1-0.1,0.2-0.1,0.2h-0.2
	c-0.1,0-0.1,0.1-0.1,0.1s0,0.1-0.1,0.1l-0.1,0.1c-0.2,0.1-0.2,0.1-0.3,0.1c-0.2,0-0.3,0.2-0.3,0.2c-0.1,0.1-0.1,0.1-0.1,0.1h-0.2
	c-0.1,0-0.1,0-0.1,0.1c-0.1,0.1-0.1,0.1-0.3,0.2c-0.2,0.1-0.2,0.2-0.2,0.3c0,0.1,0,0.1-0.1,0.1h-0.3c-0.1,0-0.1,0.1-0.1,0.1
	c0,0.2,0.1,0.2-0.1,0.3s-0.1,0.3-0.1,0.4c0.1,0.1,0.1,0.1,0,0.1c0,0-0.1,0-0.1,0.1L16,12.6c-0.1,0-0.1,0.1-0.1,0.1s0,0.1,0.1,0.1
	c0,0,0,0.1,0.1,0.1V13c0.1,0.2,0.1,0.2,0,0.4c-0.1,0.2,0.1,0.3,0.1,0.3c0.1,0.1,0.1,0.1,0.1,0.1v0.1c0,0,0,0.1-0.2,0.2
	c-0.1,0.1-0.3-0.1-0.5,0c-0.1,0-0.5,0.1-0.6,0.1l-0.6,0.3c-0.1,0-0.2,0-0.2-0.1c-0.1,0-0.1,0-0.2,0.1c0,0-0.1,0.1-0.2,0.1
	s-0.2-0.1-0.2-0.1s0-0.1,0.1-0.1c0-0.1,0.1-0.1,0.1-0.1c0.1,0,0.1,0,0.2,0.1h0.1c0.1,0,0.1-0.1,0.1-0.1c0.1-0.2,0.2-0.3,0.2-0.3
	c0-0.1,0-0.1-0.1-0.2c-0.1-0.1-0.1-0.1-0.2,0c-0.1,0.1-0.3,0.2-0.5,0.1c-0.1,0-0.2-0.1-0.2-0.2c0-0.2-0.1-0.2-0.1-0.2
	s-0.1,0.1-0.1,0.1c0,0.1-0.1,0.1-0.1,0.2c0,0.1-0.1,0.2-0.2,0.2c-0.1,0-0.1-0.1-0.1-0.1c-0.1-0.1-0.1-0.3-0.1-0.5
	c0-0.1,0.1-0.1,0.2-0.1c0.1,0,0.2,0,0.2,0.1c0.1,0.1,0.1,0.1,0.1,0.1c0.1,0,0.1-0.1,0.1-0.1v-0.1c0-0.1,0-0.1,0.1-0.1
	c0.3-0.1,0.7-0.1,0.7-0.1l1-0.3c0.1,0,0.1-0.1,0.1-0.1C15.5,12.5,15.4,12.5,15.3,12.5L15.3,12.5z M23.5,9.8
	C23.5,9.8,23.5,9.8,23.5,9.8L23.5,9.8C23.5,9.8,23.5,9.8,23.5,9.8z M24.3,12.1c-0.1,0-0.1,0-0.1,0.1c0,0-0.1,0-0.1-0.1H24.3z
	 M12.9,14.2c0.2,0.1,0.5-0.2,0.5-0.3c0.1,0.1,0.1,0.1,0.2,0.1c0.1,0-0.1,0.1-0.1,0.1c0,0.1,0,0.1-0.1,0.1c-0.1,0.1-0.1,0.2,0,0.3
	c0.1,0.1,0.1,0.2,0.3,0.2h0.1c-0.1,0-0.2-0.1-0.3-0.1l-0.1-0.1c0-0.1-0.1-0.1-0.1-0.1h-0.1c-0.1,0-0.1,0-0.1,0.1
	c-0.1,0.1-0.2,0.2-0.3,0.2c-0.2,0-0.3-0.2-0.3-0.3c0-0.1,0.1-0.2,0.1-0.2c0.1-0.1,0.1-0.1,0-0.1c0-0.1-0.1-0.1-0.1-0.1
	C12.8,14.1,12.9,14.2,12.9,14.2L12.9,14.2z M11.1,11.5c-0.2,0-0.3-0.2-0.3-0.3c0-0.2,0.1-0.3,0.3-0.3c0.2,0,0.3,0.2,0.3,0.3
	S11.3,11.5,11.1,11.5z M12.5,14.4C12.5,14.3,12.5,14.4,12.5,14.4z M12.5,13.9C12.5,13.9,12.4,13.9,12.5,13.9
	C12.4,13.9,12.5,13.9,12.5,13.9z M11.5,11.7C11.5,11.7,11.5,11.7,11.5,11.7C11.5,11.7,11.5,11.7,11.5,11.7z M11.5,9.4L11.5,9.4
	L11.5,9.4z M11,11.6C11,11.6,11,11.6,11,11.6C11,11.6,11,11.6,11,11.6z M13.4,14.8C13.4,14.8,13.4,14.8,13.4,14.8
	C13.4,14.8,13.4,14.8,13.4,14.8z M17.1,14L17.1,14C17,14,17,13.8,17,13.7v-0.3L16.9,13c0,0-0.2-0.7,0.2-1.2c0.1-0.1,0.6-0.5,0.9-0.7
	c0.1-0.1,1-0.3,1.2-0.3c0.3,0,0.8,0.3,1.1,0.5c0.2,0.2,0.5,0.6,0.6,0.8c0.1,0.3,0.1,0.6,0.1,0.8v-0.1c-0.2-0.7-0.5-2-2-2
	c-0.1,0-1.1,0.1-1.6,0.8C16.8,12.5,17,13.4,17.1,14L17.1,14z M17.9,21.7C17.9,21.7,17.9,21.7,17.9,21.7z M17.8,25.6
	c0,0.1,0,0.2,0.1,0.3C17.8,25.8,17.8,25.7,17.8,25.6z M17.8,22.7C17.8,22.7,17.8,22.7,17.8,22.7C17.8,22.7,17.8,22.7,17.8,22.7z
	 M17.3,15.6c0-0.2,0.2-0.3,0.3-0.3c0.2,0,0.3,0.2,0.3,0.3c0,0.2-0.2,0.3-0.3,0.3C17.4,15.9,17.3,15.8,17.3,15.6z M18,16
	C18.1,16,18.1,16,18,16C18.1,16,18.1,16,18,16z M21,13.5C21,13.5,21,13.5,21,13.5z M17.8,27.6v-0.1V27.6
	C17.8,27.6,17.8,27.6,17.8,27.6C17.8,27.6,17.8,27.6,17.8,27.6z M17.6,28.2L17.6,28.2L17.6,28.2z M17.3,30.2c-0.2,0-0.4-0.2-0.4-0.3
	s0.2-0.4,0.4-0.4s0.3,0.2,0.3,0.4S17.5,30.2,17.3,30.2z M17.5,29.3C17.5,29.3,17.5,29.3,17.5,29.3z M17.2,28.2
	c0.1-0.1,0.1-0.1,0.2-0.1C17.3,28.2,17.3,28.2,17.2,28.2z M21.5,15.7c0,0.2-0.2,0.3-0.3,0.3s-0.2-0.1-0.2-0.3c0-0.2,0.1-0.3,0.2-0.3
	c0.1,0,0.2,0.1,0.2,0.1l0.1,0.1C21.5,15.6,21.5,15.6,21.5,15.7L21.5,15.7z M21,13.7C21,13.8,21,13.8,21,13.7z M22.4,14.1
	C22.4,14.1,22.4,14.1,22.4,14.1C22.4,14.1,22.4,14.1,22.4,14.1C22.4,14.1,22.4,14.1,22.4,14.1L22.4,14.1
	C22.4,14.1,22.3,14.1,22.4,14.1C22.4,14,22.4,14.1,22.4,14.1L22.4,14.1z M17.8,3C17.8,3,17.7,3,17.8,3C17.7,3,17.7,3,17.8,3z
	 M14.2,6.6C14.2,6.5,14.2,6.6,14.2,6.6z M17.5,4.1C17.5,4.1,17.5,4.1,17.5,4.1z M16.4,4.4C16.4,4.4,16.4,4.4,16.4,4.4z M13.8,7.3
	C13.8,7.3,13.8,7.3,13.8,7.3z M15.9,4.5C16,4.5,16,4.5,15.9,4.5z M17.7,3.9C17.7,3.9,17.7,3.9,17.7,3.9C17.7,3.9,17.7,3.9,17.7,3.9z
	 M17.3,3.9c0,0.2-0.2,0.4-0.3,0.4c-0.1,0-0.1,0-0.2-0.1c-0.1-0.1-0.2-0.2-0.2-0.3c0-0.2,0.2-0.5,0.4-0.5S17.3,3.7,17.3,3.9L17.3,3.9
	z M15.9,4.1c0,0.2-0.2,0.3-0.3,0.3c-0.2,0-0.3-0.2-0.3-0.3c0-0.2,0.1-0.3,0.3-0.3C15.7,3.9,15.9,3.9,15.9,4.1z M13.5,6.9
	c0,0.1-0.1,0.2-0.2,0.3l-0.1,0.1l-0.1-0.1c-0.2,0-0.3-0.1-0.3-0.3s0.1-0.3,0.2-0.3C13.3,6.6,13.5,6.7,13.5,6.9z M13,7.5
	C13,7.4,13,7.4,13,7.5C13,7.4,13,7.4,13,7.5z M18.5,3.3C18.5,3.4,18.5,3.4,18.5,3.3z M19.8,3.3C19.8,3.3,19.8,3.4,19.8,3.3z M20.7,4
	c0-0.2,0.2-0.4,0.3-0.4s0.4,0.2,0.4,0.4c0,0.2-0.2,0.3-0.4,0.3c-0.1,0-0.2-0.1-0.3-0.2C20.8,4.1,20.8,4,20.7,4L20.7,4
	C20.7,4,20.7,4,20.7,4L20.7,4z M21.2,4.5C21.2,4.5,21.2,4.4,21.2,4.5z M21.1,4.5C21.1,4.6,21.1,4.6,21.1,4.5z M20.7,3.3
	c0,0.2-0.2,0.3-0.3,0.3S20,3.5,20,3.3S20.1,3,20.3,3C20.5,2.9,20.7,3.1,20.7,3.3z M19.7,3.5L19.7,3.5L19.7,3.5z M19.5,3.3
	C19.5,3.3,19.5,3.3,19.5,3.3C19.5,3.3,19.5,3.3,19.5,3.3z M23.7,5.4C23.7,5.4,23.7,5.4,23.7,5.4z M22.2,5.1h0.1
	C22.3,5.1,22.3,5.1,22.2,5.1z M25.8,11.1c-0.2,0-0.3-0.2-0.3-0.3c0-0.2,0.2-0.3,0.3-0.3s0.3,0.2,0.3,0.3
	C26.1,11,25.9,11.1,25.8,11.1z M25.2,7.3C25.2,7.2,25.2,7.2,25.2,7.3z M25,13.4C25,13.4,25,13.4,25,13.4z M25.3,13.8
	C25.4,13.8,25.4,13.8,25.3,13.8z M24.9,6.4L24.9,6.4L24.9,6.4z M21.7,5.1L21.7,5.1L21.7,5.1z M20.3,2.8h-0.1
	C20.2,2.8,20.3,2.8,20.3,2.8z M19,3h-0.1H19z M18,3L18,3L18,3z M15.6,3.6h-0.1H15.6C15.5,3.6,15.6,3.6,15.6,3.6z M13.1,6.4H13H13.1z
	 M12.6,8.2h-0.1H12.6L12.6,8.2z M14.7,15C14.7,15,14.7,15,14.7,15C14.7,15,14.7,15,14.7,15z M17.1,30.3h0.1H17.1z M17.5,32.1
	l0.1-0.1c-0.3,0.1-1.1,0.3-1.8,0.4C16.5,32.3,17.3,32.2,17.5,32.1z M12.5,32.9c0.1-0.1,1.1-0.3,1.9-0.3
	C13.6,32.5,12.6,32.8,12.5,32.9c-0.4,0.1-1.7,0.4-2.1,0.4C10.8,33.2,12.1,33,12.5,32.9z M11.3,34.1h0.5H11.3z M17.9,33.8h-3
	c-0.2,0-0.5,0-0.7,0.1c0.4-0.1,0.7-0.1,1-0.1C16,33.9,17.8,33.8,17.9,33.8c0.2,0,0.7,0.1,1.3,0.1h-0.5
	C18.4,33.9,18.2,33.8,17.9,33.8L17.9,33.8z M14.1,33.9h0.2C14.2,33.8,14.1,33.9,14.1,33.9z M21.9,15.7
	C21.8,15.7,21.8,15.7,21.9,15.7z M23.1,14.2C23.1,14.2,23.1,14.2,23.1,14.2C23.1,14.2,23.1,14.2,23.1,14.2
	C23.1,14.2,23.1,14.2,23.1,14.2z M23.6,14.2h0.1H23.6z M24,14C24.1,14,24.1,14,24,14C24.1,14,24.1,14,24,14z M25.4,14.8
	C25.4,14.8,25.4,14.8,25.4,14.8C25.4,14.8,25.4,14.8,25.4,14.8z"/>
</svg>
