<?xml version="1.0" encoding="utf-8"?>
<!-- Generator: Adobe Illustrator 23.0.1, SVG Export Plug-In . SVG Version: 6.00 Build 0)  -->
<svg version="1.1" id="Layer_1" xmlns="http://www.w3.org/2000/svg" xmlns:xlink="http://www.w3.org/1999/xlink" x="0px" y="0px"
	 viewBox="0 0 36 36" style="enable-background:new 0 0 36 36;" xml:space="preserve">
<style type="text/css">
	.st0{fill:#FFFFFF;}
</style>
<g>
	<path d="M28.2,19L28.2,19L27,24.9c-0.1,0.5-0.2,0.9-0.4,1.4l-2.1,4.9c0,0.1-0.9,0.9-0.9,0.9l-0.9,0.4c-0.5,0.2-1,0.4-1.7,0.3
		c-4.2-0.5-2.4,1-5.9-0.6c0,0-0.7-0.6-1.3-1.3l-3.8-5.6l-4.7-6.4c-0.2-0.3-0.2-0.6-0.1-1s0.3-0.6,0.6-0.8l0.4-0.2
		c0.7-0.1,0.8,0,1.3,0.2c0.2,0.1,0.3,0.1,0.5,0.3c0.3,0.3,0.7,0.8,1.1,1.3l2.9,3.3c0.2,0.2,0.4,0.2,0.6,0.1c0.4-0.2,1-1.2,0.2-4.6
		L10,8c-0.3-0.7,0.1-1.5,0.8-1.7l0.3-0.1c0.3-0.1,0.7-0.1,1,0c0.3,0.2,0.6,0.4,0.7,0.8l3,8.4l0,0c0,0,0,0,0,0.1c0,0,0,0.1,0.1,0.1
		c0,0,0,0,0.1,0s0,0,0.1,0s0.1,0,0.1,0s0,0,0.1,0l0,0c0,0,0,0,0.1,0c0,0,0,0,0.1,0l0,0h0.1c0,0,0,0,0.1,0c0,0,0,0,0-0.1
		c0,0,0,0,0-0.1c0,0,0,0,0-0.1v-0.1l0,0L16.5,4.3c0-0.3,0.1-0.7,0.4-1S17.6,3,18,3h0.4l0,0c0.3,0,0.7,0.2,0.9,0.4
		c0.3,0.3,0.4,0.6,0.4,0.9l0.6,11.4l0,0v0.1v0.1c0,0,0,0,0,0.1c0,0,0,0,0.1,0.1c0,0,0,0,0.1,0h0.1l0,0l0,0l0,0l0,0l0,0h0.1
		c0,0,0,0,0.1,0s0,0,0.1,0c0,0,0,0,0.1-0.1c0,0,0,0,0-0.1v-0.1l0,0l2.3-10.3c0.1-0.3,0.2-0.6,0.5-0.8c0.3-0.2,0.6-0.3,0.9-0.2
		l0.3,0.1c0.7,0.1,1.2,0.8,1,1.5L24,17.3c0,0.3,0.1,0.5,0.4,0.6h0.1c0,0,0,0,0.1,0c0.2,0,0.3-0.1,0.3-0.2l3.8-7l0,0
		c0.3-0.7,0.8-0.9,1.3-0.7l0.3,0.1c0.5,0.2,0.7,0.7,0.5,1.2L28.2,19z"/>
</g>
<g>
	<path class="st0" d="M16.9,20.9c0.3,0,0.5,0,0.8,0.1c0.2,0.1,0.4,0.2,0.6,0.3c0.3,0.3,0.5,0.7,0.5,1.1c0,0.2,0,0.4-0.1,0.5
		c0,0.1-0.1,0.3-0.2,0.4c-0.1,0.1-0.2,0.2-0.3,0.3c-0.1,0.1-0.3,0.1-0.4,0.2c0.3,0.1,0.6,0.3,0.8,0.5c0.2,0.3,0.3,0.6,0.3,0.9
		c0,0.5-0.2,1.1-0.6,1.4c-0.2,0.2-0.4,0.3-0.7,0.4c-0.3,0.1-0.5,0.2-0.8,0.2c-0.3,0-0.5,0-0.8-0.1c-0.2-0.1-0.4-0.2-0.6-0.3
		c-0.2-0.1-0.3-0.3-0.4-0.5c-0.1-0.2-0.2-0.5-0.3-0.7l0.5-0.2c0.1,0,0.2-0.1,0.2,0c0.1,0,0.1,0,0.2,0c0.1,0,0.1,0.1,0.1,0.1
		c0.1,0.1,0.1,0.2,0.2,0.3c0.1,0.1,0.1,0.2,0.2,0.3c0.1,0.1,0.2,0.1,0.3,0.2c0.1,0.1,0.3,0.1,0.4,0.1c0.2,0,0.3,0,0.5-0.1
		c0.1-0.1,0.2-0.1,0.3-0.2c0.2-0.2,0.3-0.4,0.3-0.7c0-0.1,0-0.3-0.1-0.4c0-0.1-0.1-0.2-0.2-0.3c-0.1-0.1-0.3-0.2-0.4-0.2
		c-0.2-0.1-0.5-0.1-0.8-0.1v-0.8c0.2,0,0.4,0,0.6-0.1c0.1,0,0.3-0.1,0.4-0.2c0.1-0.1,0.2-0.2,0.2-0.3c0-0.1,0.1-0.3,0.1-0.4
		c0-0.2-0.1-0.5-0.2-0.7c-0.2-0.2-0.4-0.2-0.6-0.2c-0.2,0-0.4,0.1-0.6,0.2c-0.2,0.1-0.3,0.3-0.3,0.5c0,0.1-0.1,0.2-0.1,0.2
		c-0.1,0-0.2,0.1-0.2,0.1h-0.1l-0.6-0.1c0-0.3,0.1-0.5,0.2-0.8c0.1-0.2,0.3-0.4,0.5-0.6c0.2-0.1,0.4-0.3,0.6-0.3
		C16.4,21,16.6,20.9,16.9,20.9z"/>
	<path class="st0" d="M21.6,27.2c-0.3,0-0.6,0-0.9-0.1c-0.2-0.1-0.5-0.2-0.7-0.4c-0.2-0.2-0.3-0.3-0.4-0.6c-0.1-0.2-0.2-0.5-0.1-0.7
		c0-0.3,0.1-0.6,0.3-0.9c0.2-0.3,0.5-0.5,0.8-0.5c-0.3-0.1-0.5-0.3-0.7-0.5c-0.2-0.2-0.2-0.5-0.2-0.8c0-0.2,0-0.5,0.1-0.7
		c0.1-0.2,0.2-0.4,0.4-0.5c0.2-0.2,0.4-0.3,0.6-0.4c0.5-0.2,1.1-0.2,1.6,0c0.2,0.1,0.4,0.2,0.6,0.4c0.2,0.1,0.3,0.3,0.4,0.5
		c0.1,0.2,0.1,0.4,0.1,0.7c0,0.6-0.3,1.1-0.9,1.4c0.3,0.1,0.6,0.3,0.8,0.5c0.2,0.3,0.3,0.6,0.3,0.9c0,0.5-0.2,1-0.6,1.3
		c-0.2,0.2-0.4,0.3-0.7,0.4C22.2,27.2,21.9,27.2,21.6,27.2z M21.6,26.4c0.2,0,0.3,0,0.5-0.1c0.1,0,0.2-0.1,0.3-0.2
		c0.1-0.1,0.2-0.2,0.2-0.3c0-0.1,0.1-0.3,0.1-0.4c0-0.3-0.1-0.6-0.3-0.8c-0.5-0.3-1.1-0.3-1.5,0c-0.2,0.2-0.3,0.5-0.3,0.8
		c0,0.1,0,0.3,0.1,0.4c0,0.1,0.1,0.2,0.2,0.3c0.1,0.1,0.2,0.2,0.3,0.2C21.3,26.4,21.5,26.4,21.6,26.4L21.6,26.4z M21.6,23.6
		c0.1,0,0.3,0,0.4-0.1c0.1-0.1,0.2-0.2,0.3-0.3c0.1-0.1,0.1-0.2,0.1-0.3c0-0.1,0-0.2,0-0.4c0-0.1,0-0.2,0-0.3c0-0.1-0.1-0.2-0.2-0.3
		c-0.1-0.1-0.2-0.1-0.3-0.2c-0.3-0.1-0.5-0.1-0.8,0c-0.1,0-0.2,0.1-0.3,0.2c-0.1,0.1-0.1,0.2-0.2,0.3c0,0.1-0.1,0.2-0.1,0.3
		c0,0.1,0,0.2,0,0.4c0,0.1,0.1,0.2,0.1,0.3c0.1,0.1,0.2,0.2,0.3,0.2C21.3,23.5,21.5,23.5,21.6,23.6L21.6,23.6z"/>
</g>
</svg>
