<?xml version="1.0" encoding="utf-8"?>
<!-- Generator: Adobe Illustrator 23.0.1, SVG Export Plug-In . SVG Version: 6.00 Build 0)  -->
<svg version="1.1" id="Layer_1" xmlns="http://www.w3.org/2000/svg" xmlns:xlink="http://www.w3.org/1999/xlink" x="0px" y="0px"
	 viewBox="0 0 36 36" style="enable-background:new 0 0 36 36;" xml:space="preserve">
<g>
	<path d="M7.1,23.7c-0.5,0.8-1.8,0.4-2.8-0.7c-1-1.1-1.5-2.1-2-2.4c-0.5-0.3-0.5-1.8,0.8-1.9c1.3-0.1,3,0.8,3.5,1.3
		C7.1,20.6,8,22.3,7.1,23.7z"/>
	<path d="M10.5,26.2c-0.2,0.7-0.5,1.7-0.4,2.7c0.1,1,1.4,2.5,1.7,2.9c0.3,0.4,2,1.8,3.5,1.8s3.4-0.7,4.6,0c1.3,0.7,2.7,1.4,4,0.4
		s1.9-2.4,2.6-4.9c0.7-2.6,1.8-4.5,1.6-6c-0.2-1.5-1.2-2.3-1.9-3.1s-1.4-1.4-2.6-1.1c-1.2,0.3-2.1-1.5-3.5-1.8
		c-1.4-0.3-2.8,0.4-3.7-0.9c-0.9-1.3,0.2-1.9-0.5-2.9c-0.7-1-1.1-2-1.4-3.1c-0.2-1.1-0.6-2-0.7-2.9c-0.1-0.9,0.1-2.6-1-3
		c-1-0.4-1.9-0.2-2.3,0.5c-0.4,0.7-0.2,2.8,0,3.5c0.2,0.7,0.3,2.4,0.7,3.2c0.4,0.8,0.5,2.1,1.1,3.3c0.6,1.2,1.5,1.5,1.3,2.3
		c-0.2,0.7-0.5,1.9-0.1,3.2c0.5,1.3,0.3,2.5-0.2,3C12.9,23.6,10.9,24.8,10.5,26.2z"/>
	<path d="M18.1,12.8c0-1.3,0.7-2.4,0.8-3.1S18.6,7.3,18.5,6c-0.1-1.3,0.2-4.4,1.4-4.5s1.5,1,1.5,1.7s-0.1,3.5,0,4.2
		c0.1,0.7-0.1,1.5-0.5,2.1c-0.5,0.5-0.2,1.1,0.1,1.5c0.3,0.5,0.7,1.8,0.2,2.7c-0.4,0.9-1.4,1-2,0.8C18.6,14.5,18.1,13.3,18.1,12.8z"
		/>
	<path d="M23.9,15.3c-0.2-0.5-0.3-1.1,0-1.7c0.3-0.6,2.2-2.4,2.4-3.6s-0.2-3.9,0.8-4.6s2.4-1.1,2.5-0.3c0.1,0.8,0.1,2.6-0.8,3.8
		c-0.9,1.3-0.7,2-0.9,2.9c-0.2,1-0.7,3.2-1.3,3.8c-0.6,0.6-1.3,1.1-2.2,0.8C23.7,16.2,24.1,15.8,23.9,15.3z"/>
	<path d="M33,12.3c-0.8-0.1-1.1,0.6-1.4,1.1c-0.4,0.5-0.8,1.3-0.8,1.6c-0.1,0.4-0.6,0.8-0.8,1.5c-0.2,0.7-0.2,2,0.4,1.7
		s1.1-0.7,1.4-1.1c0.2-0.4,0.2-0.8,0.6-1c0.4-0.1,1.5-1.3,1.6-1.8C34,13.8,34.2,12.5,33,12.3z"/>
	<path d="M28.8,19.2c-0.2,0.3-0.8,1.4,0,0.9c0.8-0.4,0.8-0.7,1-1.4S29.1,18.6,28.8,19.2z"/>
</g>
<g>
	<path class="text" d="M16.9,24.2c0.3,0,0.5,0,0.8,0.1c0.2,0.1,0.4,0.2,0.6,0.3c0.3,0.3,0.5,0.7,0.5,1.1c0,0.2,0,0.4-0.1,0.5
		c0,0.1-0.1,0.3-0.2,0.4s-0.2,0.2-0.3,0.3c-0.1,0.1-0.3,0.1-0.4,0.2c0.3,0.1,0.6,0.3,0.8,0.5c0.2,0.3,0.3,0.6,0.3,0.9
		c0,0.5-0.2,1.1-0.6,1.4c-0.2,0.2-0.4,0.3-0.7,0.4c-0.3,0.1-0.5,0.2-0.8,0.2s-0.5,0-0.8-0.1c-0.2-0.1-0.4-0.2-0.6-0.3
		c-0.2-0.1-0.3-0.3-0.4-0.5c-0.1-0.2-0.2-0.5-0.3-0.7l0.5-0.2c0.1,0,0.2-0.1,0.2,0c0.1,0,0.1,0,0.2,0c0.1,0,0.1,0.1,0.1,0.1
		c0.1,0.1,0.1,0.2,0.2,0.3c0.1,0.1,0.1,0.2,0.2,0.3c0.1,0.1,0.2,0.1,0.3,0.2c0.1,0.1,0.3,0.1,0.4,0.1c0.2,0,0.3,0,0.5-0.1
		c0.1-0.1,0.2-0.1,0.3-0.2c0.2-0.2,0.3-0.4,0.3-0.7c0-0.1,0-0.3-0.1-0.4c0-0.1-0.1-0.2-0.2-0.3c-0.1-0.1-0.3-0.2-0.4-0.2
		c-0.2-0.1-0.5-0.1-0.8-0.1v-0.8c0.2,0,0.4,0,0.6-0.1c0.1,0,0.3-0.1,0.4-0.2s0.2-0.2,0.2-0.3c0-0.1,0.1-0.3,0.1-0.4
		c0-0.2-0.1-0.5-0.2-0.7C17.3,25,17.1,25,16.9,25s-0.4,0.1-0.6,0.2S16,25.5,16,25.7c0,0.1-0.1,0.2-0.1,0.2c-0.1,0-0.2,0.1-0.2,0.1
		h-0.1L15,25.9c0-0.3,0.1-0.5,0.2-0.8c0.1-0.2,0.3-0.4,0.5-0.6c0.2-0.1,0.4-0.3,0.6-0.3C16.4,24.3,16.6,24.2,16.9,24.2z"/>
	<path class="text" d="M21.6,30.5c-0.3,0-0.6,0-0.9-0.1c-0.2-0.1-0.5-0.2-0.7-0.4c-0.2-0.2-0.3-0.3-0.4-0.6c-0.1-0.2-0.2-0.5-0.1-0.7
		c0-0.3,0.1-0.6,0.3-0.9c0.2-0.3,0.5-0.5,0.8-0.5c-0.3-0.1-0.5-0.3-0.7-0.5s-0.2-0.5-0.2-0.8c0-0.2,0-0.5,0.1-0.7s0.2-0.4,0.4-0.5
		c0.2-0.2,0.4-0.3,0.6-0.4c0.5-0.2,1.1-0.2,1.6,0c0.2,0.1,0.4,0.2,0.6,0.4c0.2,0.1,0.3,0.3,0.4,0.5s0.1,0.4,0.1,0.7
		c0,0.6-0.3,1.1-0.9,1.4c0.3,0.1,0.6,0.3,0.8,0.5c0.2,0.3,0.3,0.6,0.3,0.9c0,0.5-0.2,1-0.6,1.3c-0.2,0.2-0.4,0.3-0.7,0.4
		C22.2,30.5,21.9,30.5,21.6,30.5z M21.6,29.7c0.2,0,0.3,0,0.5-0.1c0.1,0,0.2-0.1,0.3-0.2c0.1-0.1,0.2-0.2,0.2-0.3
		c0-0.1,0.1-0.3,0.1-0.4c0-0.3-0.1-0.6-0.3-0.8c-0.5-0.3-1.1-0.3-1.5,0c-0.2,0.2-0.3,0.5-0.3,0.8c0,0.1,0,0.3,0.1,0.4
		c0,0.1,0.1,0.2,0.2,0.3c0.1,0.1,0.2,0.2,0.3,0.2C21.3,29.7,21.5,29.7,21.6,29.7L21.6,29.7z M21.6,26.9c0.1,0,0.3,0,0.4-0.1
		s0.2-0.2,0.3-0.3c0.1-0.1,0.1-0.2,0.1-0.3c0-0.1,0-0.2,0-0.4c0-0.1,0-0.2,0-0.3c0-0.1-0.1-0.2-0.2-0.3c-0.1-0.1-0.2-0.1-0.3-0.2
		c-0.3-0.1-0.5-0.1-0.8,0c-0.1,0-0.2,0.1-0.3,0.2c-0.1,0.1-0.1,0.2-0.2,0.3c0,0.1-0.1,0.2-0.1,0.3c0,0.1,0,0.2,0,0.4
		c0,0.1,0.1,0.2,0.1,0.3c0.1,0.1,0.2,0.2,0.3,0.2C21.3,26.8,21.5,26.8,21.6,26.9L21.6,26.9z"/>
</g>
</svg>
