<?xml version="1.0" encoding="utf-8"?>
<!-- Generator: Adobe Illustrator 23.0.1, SVG Export Plug-In . SVG Version: 6.00 Build 0)  -->
<svg version="1.1" id="Layer_1" xmlns="http://www.w3.org/2000/svg" xmlns:xlink="http://www.w3.org/1999/xlink" x="0px" y="0px"
	 viewBox="0 0 36 36" style="enable-background:new 0 0 36 36;" xml:space="preserve">
<path d="M31,30.3c0,0-0.1-0.6-0.4-0.7s-1-0.3-1-0.3s0.2-0.6,0.1-1.4s-0.3-2.1-0.2-2.3c0-0.2-0.3-1.7-0.7-2.6s-1.8-2.2-1.8-2.2
	s-0.9-3.1-1.8-4.4c-0.9-1.4-2.6-2.4-3.5-2.7s-3.4-0.5-4.4-0.5s-4,1-4.5,1.5s-2.5-1.7-2.7-1.9c-0.2-0.2-2.9-3.3-3.7-4.4
	C5.8,7.4,4.6,5.8,4.7,3.5c0.1-1.7-0.2-1.7-0.3-1.4S4.2,4.4,4.2,5c0,1.4,1.3,3.9,1.8,4.5c0.4,0.7,1.9,2.4,2.9,3.7
	c0.4,0.5,2.5,2.6,2.4,2.9s-1.6,2-2,2.4c-0.4,0.4-1.2,0.9-1.6,1.1c-0.4,0.2-1.1,0.5-1.3,1.3c-0.2,0.7-0.6,1.5-0.6,1.6
	c0,0.1-0.2,0.9-0.4,1.2c-0.2,0.2-0.9,1.3-0.7,1.5c0.3,0.2,0.6-0.3,0.7-0.3c0,0,0.2,0.4,0.2,0.7S5.7,26.1,6,26
	c0.3-0.1,0.4-0.9,0.4-0.9s0.4,0.7,0.7,0.8c0.3,0.1,0.4-0.4,0.4-0.4s-0.6-1.3,2.7-0.5c0.4,0.1,2,0.4,2.2,0.5s1,1.9,1.2,2
	c0.2,0.1,0.8,0.6,0.9,0.9s-0.1,0.9,0,1.2c0,0.3,0,0.9,0,1.5s-0.1,1.1,0.4,1.4c0,0,1.4,0.7,2.2,0.6c0.8-0.2,1.2-0.7,1.7-0.7
	c0.5,0,2.3-0.1,3-0.3c0.7-0.2,1.6-0.4,2.2-0.8c0.5-0.4,1.5-0.3,1.9-0.4c0.4-0.1,0.8-0.3,1.4-0.8s1.2-1.1,1.2-1.1s0.1,1.2-0.1,1.5
	c-0.2,0.3,0,0.2,0.3,0.2s0.4,0.1,0.4,0.4s0.1,0.6,0.4,0.4c0.3-0.2,0.2-0.6,0.2-0.6s0.8,0.1,0.9,0.3c0.1,0.2,0.4,0.4,0.4,0.2
	s0.3,0.1,0.4-0.3C31.3,30.6,31,30.3,31,30.3z M16.2,26.9c0,0.4-0.8,0.8-0.8,0.8c-0.5,0-0.2-0.9,0.1-1.3c0.2-0.4,0.5-0.7,0.9-0.6
	C16.6,25.9,16.2,26.6,16.2,26.9z M16.8,23.9c0,0-0.7-0.6-1-1.1c-0.3-0.5-0.1-1.1,0.2-1.8c0.3-0.7-0.3-1.3-0.2-2.3
	c0-1.1,0.9-1.2,1-0.6c0.1,0.6,1.7,2.4,1.8,2.7c0.2,0.2,0.4,1.2,0.2,1.3C17.6,22.3,16.9,23.9,16.8,23.9z M20.6,29.1
	c-0.2,0.4-1.2,0.7-1.6,0.5s-1.2-0.3-1.1-1c0,0,0.9-1.3,1.8-1.1S20.8,28.7,20.6,29.1z M27.8,26.1c-0.6,0.7-1.3,1.3-2.2,1.2
	c-0.9-0.1-1.5-0.4-1.7-0.6c-0.1-0.3,0-0.2,0.5-0.6c0.4-0.4,0.5-0.8,0.4-1c0-0.2-0.9,0.4-0.9,0.4s-0.5,0.3-0.8,0.3
	c-0.3,0-0.9-0.9-0.2-2.1c0.1-0.2,0.4-0.7,1.2-0.9c0.8-0.1,1.8-0.5,2.2-0.6c0.4-0.1,1.1-0.4,1.3-0.4c0.2,0,0.5,1.5,0.5,2.2
	C28.2,24.6,28.3,25.4,27.8,26.1z"/>
</svg>
