<?xml version="1.0" encoding="utf-8"?>
<!-- Generator: Adobe Illustrator 23.0.1, SVG Export Plug-In . SVG Version: 6.00 Build 0)  -->
<svg version="1.1" id="Layer_1" xmlns="http://www.w3.org/2000/svg" xmlns:xlink="http://www.w3.org/1999/xlink" x="0px" y="0px"
	 viewBox="0 0 36 36" style="enable-background:new 0 0 36 36;" xml:space="preserve">
<g>
	<path d="M8.3,15.2c-1.5,0-2.7-1.8-2.7-3.1c0-0.9,0.5-1.8,1.5-1.8c1.5,0,2.7,1.8,2.7,3.1C9.8,14.3,9.3,15.2,8.3,15.2z M19.1,18.6
		c0,1.2-1,1.3-2,1.3c-1.3,0-2.3-0.8-3.6-0.8s-2.4,0.8-3.8,0.8c-0.9,0-1.8-0.3-1.8-1.3c0-2.2,3.2-5.4,5.5-5.4S19.1,16.4,19.1,18.6z
		 M11.3,11.3c-1.6,0-2.5-1.9-2.5-3.1c0-1,0.6-2.2,1.8-2.2c1.6,0,2.5,1.9,2.5,3.1C13.1,10.1,12.5,11.3,11.3,11.3z M14.1,9
		c0-1.3,0.9-3.1,2.5-3.1c1.2,0,1.8,1.2,1.8,2.2c0,1.3-0.9,3.1-2.5,3.1C14.6,11.3,14.1,10.1,14.1,9z M21.6,12.1
		c0,1.3-1.1,3.1-2.7,3.1c-1.1,0-1.5-0.9-1.5-1.8c0-1.3,1.1-3.1,2.7-3.1C21.1,10.3,21.6,11.3,21.6,12.1z"/>
	<path d="M8,22.8c2.2,1.3,4.4,2.2,6.6,2.6c0-0.6,0-1.4,0.4-2c0.8-1.2,2.7-1.3,2.7-1.3s0.4,1.7-0.4,2.9c-0.2,0.3-0.5,0.5-0.7,0.7
		c1.2,0.1,2.4,0,3.5-0.2c-0.3-0.7-0.7-2.2-0.3-3.6c0.7-1.9,2.9-2.9,2.9-2.9s1.4,2.2,0.8,4.1c-0.2,0.7-0.7,1.3-1.3,1.7
		c1.2-0.5,2.2-1.1,3-2c-0.1-0.9-0.1-2.7,0.9-3.9c1.4-1.7,4.3-1.6,4.3-1.6s0.4,2.6-1,4.3c-1,1.2-2.5,1.6-3.4,1.8
		c-0.4,0.4-0.9,0.8-1.4,1.2c0.8-0.2,1.8-0.3,2.6,0.1c1.9,0.8,2.7,3.3,2.7,3.3s-2.2,1.1-4.1,0.3c-1.5-0.6-2.4-2.2-2.7-2.8
		c-1,0.5-2.1,0.8-3.3,1c0.5,0.2,1.1,0.5,1.5,0.9c1.2,1.3,0.8,3.7,0.8,3.7s-2.2,0-3.4-1.4c-0.9-1-1-2.4-1-3.1c-1.4,0-2.9-0.2-4.4-0.6
		c-2-0.5-3.9-1.3-5.7-2.4l-0.3-0.2l0.5-0.8L8,22.8z"/>
</g>
</svg>
