<?xml version="1.0" encoding="utf-8"?>
<!-- Generator: Adobe Illustrator 23.0.1, SVG Export Plug-In . SVG Version: 6.00 Build 0)  -->
<svg version="1.1" id="Layer_1" xmlns="http://www.w3.org/2000/svg" xmlns:xlink="http://www.w3.org/1999/xlink" x="0px" y="0px"
	 viewBox="0 0 20 20" style="enable-background:new 0 0 20 20;" xml:space="preserve">
<style type="text/css">
	.st0{fill:#B7C0C8;}
</style>
<path class="st0" d="M10,1c-5,0-9,4-9,9c0,5,4,9,9,9s9-4,9-9C19,5,15,1,10,1z M10,17.3c-4,0-7.3-3.2-7.3-7.3C2.7,6,6,2.7,10,2.7
	c4,0,7.3,3.2,7.3,7.3C17.3,14,14,17.3,10,17.3z M13.9,8c0,2.4-2.6,2.5-2.6,3.4v0.2c0,0.2-0.2,0.4-0.4,0.4H9.2
	c-0.2,0-0.4-0.2-0.4-0.4v-0.3c0-1.3,1-1.8,1.7-2.2c0.6-0.4,1-0.6,1-1.1c0-0.6-0.8-1-1.4-1C9.2,6.9,8.8,7.3,8.3,8
	C8.1,8.2,7.9,8.2,7.7,8.1l-1-0.8C6.5,7.2,6.4,6.9,6.6,6.7c0.9-1.3,1.9-2,3.6-2C12,4.8,13.9,6.2,13.9,8z M11.5,14.1
	c0,0.8-0.7,1.5-1.5,1.5s-1.5-0.7-1.5-1.5s0.7-1.5,1.5-1.5S11.5,13.2,11.5,14.1z"/>
</svg>
