<?xml version="1.0" encoding="utf-8"?>
<!-- Generator: Adobe Illustrator 23.1.1, SVG Export Plug-In . SVG Version: 6.00 Build 0)  -->
<svg version="1.1" xmlns="http://www.w3.org/2000/svg" xmlns:xlink="http://www.w3.org/1999/xlink"
	 x="0px" y="0px" viewBox="0 0 32 32" style="enable-background:new 0 0 32 32;" xml:space="preserve">
<path d="M18.3,22.9c0,1.5-1.2,2.6-2.6,2.6s-2.6-1.2-2.6-2.6s1.2-2.6,2.6-2.6S18.3,21.4,18.3,22.9z M22.3,12c0,4.2-4.5,4.2-4.5,5.8
	v0.4c0,0.4-0.3,0.8-0.8,0.8h-2.9c-0.4,0-0.8-0.3-0.8-0.8v-0.5c0-2.2,1.7-3.1,3-3.8c1.1-0.6,1.8-1,1.8-1.8c0-1.1-1.4-1.8-2.5-1.8
	c-1.5,0-2.1,0.7-3,1.8c-0.3,0.3-0.7,0.4-1,0.1L10,10.9c-0.3-0.3-0.4-0.7-0.2-1c1.5-2.2,3.4-3.4,6.3-3.4C19.1,6.5,22.3,8.9,22.3,12z"
	/>
<path d="M16,31C7.7,31,1,24.3,1,16C1,7.7,7.7,1,16,1c8.3,0,15,6.7,15,15C31,24.3,24.3,31,16,31z M16,3.7C9.2,3.7,3.7,9.2,3.7,16
	c0,6.8,5.5,12.3,12.3,12.3c6.8,0,12.3-5.5,12.3-12.3C28.3,9.2,22.8,3.7,16,3.7z"/>
</svg>
