<?xml version="1.0" encoding="utf-8"?>
<!-- Generator: Adobe Illustrator 23.0.1, SVG Export Plug-In . SVG Version: 6.00 Build 0)  -->
<svg version="1.1" id="Layer_1" xmlns="http://www.w3.org/2000/svg" xmlns:xlink="http://www.w3.org/1999/xlink" x="0px" y="0px"
	 viewBox="0 0 20 20" style="enable-background:new 0 0 20 20;" xml:space="preserve">
<g>
	<path class="st0" d="M15.6,5.8h-0.5V4.4c0-0.4-0.3-0.7-0.7-0.7S13.7,4,13.7,4.4v1.4h-0.5c-0.2,0-0.4,0.2-0.4,0.4v2.5
		c0,0.2,0.2,0.4,0.4,0.4h0.5v6.4c0,0.4,0.3,0.7,0.7,0.7s0.7-0.3,0.7-0.7V9.1h0.5c0.2,0,0.4-0.2,0.4-0.4V6.2C16,6,15.8,5.8,15.6,5.8z
		"/>
	<path class="st0" d="M11.2,14.2h-0.5v1.4c0,0.4-0.3,0.7-0.7,0.7S9.3,16,9.3,15.6v-1.4H8.8c-0.2,0-0.4-0.2-0.4-0.4v-2.5
		c0-0.2,0.2-0.4,0.4-0.4h0.5V4.4C9.3,4,9.6,3.7,10,3.7s0.7,0.3,0.7,0.7v6.4h0.5c0.2,0,0.4,0.2,0.4,0.4v2.5
		C11.7,14,11.5,14.2,11.2,14.2z"/>
	<path class="st0" d="M6.9,5.8H6.4V4.5c0-0.4-0.3-0.7-0.7-0.7C5.3,3.8,5,4.1,5,4.5v1.4H4.4C4.2,5.8,4,6,4,6.3v2.5
		C4,9,4.2,9.2,4.4,9.2h0.5v6.4c0,0.4,0.3,0.7,0.7,0.7c0.4,0,0.7-0.3,0.7-0.7V9.2h0.5C7,9.2,7.2,9,7.2,8.8V6.3C7.3,6,7.1,5.8,6.9,5.8
		z"/>
</g>
</svg>
