<?xml version="1.0" encoding="utf-8"?>
<!-- Generator: Adobe Illustrator 23.1.1, SVG Export Plug-In . SVG Version: 6.00 Build 0)  -->
<svg version="1.1" id="home" xmlns="http://www.w3.org/2000/svg" xmlns:xlink="http://www.w3.org/1999/xlink" x="0px" y="0px"
	 viewBox="0 0 32 32" style="enable-background:new 0 0 32 32;" xml:space="preserve">
<path d="M26.3,18v7.5c0,0.7-0.5,1.3-1.3,1.3h-6c-0.3,0-0.7-0.3-0.7-0.7v-5.8c0-0.3-0.3-0.7-0.7-0.7h-3.5c-0.3,0-0.7,0.3-0.7,0.7v5.8
	c0,0.3-0.3,0.7-0.7,0.7h-6c-0.7,0-1.3-0.5-1.3-1.3V18c0-0.2,0.2-0.3,0.2-0.5l9.8-8c0.2-0.2,0.5-0.2,0.8,0l9.8,8
	C26.3,17.5,26.3,17.8,26.3,18L26.3,18z M17.6,3.8c-1-0.8-2.3-0.8-3.2,0L1,14.8c0,0.2,0,0.5,0.1,0.8l1.3,1.7c0.2,0.3,0.7,0.3,0.8,0.2
	L15.6,7.3c0.2-0.2,0.5-0.2,0.8,0l12.4,10.2c0.3,0.2,0.7,0.2,0.8-0.2l1.3-1.7c0-0.3,0-0.7-0.2-0.8"/>
</svg>
