<?xml version="1.0" encoding="utf-8"?>
<!-- Generator: Adobe Illustrator 23.1.1, SVG Export Plug-In . SVG Version: 6.00 Build 0)  -->
<svg version="1.1" xmlns="http://www.w3.org/2000/svg" xmlns:xlink="http://www.w3.org/1999/xlink" x="0px" y="0px"
	 viewBox="0 0 32 32" style="enable-background:new 0 0 32 32;" xml:space="preserve">
<path d="M30.4,8.2c-0.6-0.3-1.3-0.1-1.6,0.4l-2.9,4.9l-4.8,0l-3.4-3.7l1.7-5.3c0.2-0.6-0.1-1.3-0.8-1.5c-0.6-0.2-1.3,0.1-1.5,0.8
	L15.4,9l-4.8,1L6.9,5.9C6.5,5.4,5.7,5.4,5.2,5.8C4.7,6.3,4.7,7,5.2,7.5l0,0l3.7,4.1l-1.5,4.6l-5.5,1.2c-0.6,0.1-1.1,0.8-0.9,1.4
	c0,0,0,0,0,0c0.1,0.6,0.8,1.1,1.4,0.9l5.4-1.2l3.3,3.6l-1.7,5.3c-0.2,0.6,0.1,1.3,0.8,1.5c0,0,0,0,0,0c0.6,0.2,1.3-0.1,1.5-0.8
	l1.7-5.3l5-1.1l4.8,2.7c0.2,0.1,0.4,0.2,0.6,0.2c0.2,0,0.4-0.1,0.6-0.2l4.7-3c0.5-0.3,0.7-0.8,0.5-1.4L28,14.7l2.9-4.9
	C31.2,9.2,31,8.5,30.4,8.2C30.4,8.2,30.4,8.2,30.4,8.2z M17.7,19.6l-4.8,1L9.7,17l1.5-4.7l4.8-1l3.3,3.6
	C19.2,15,17.7,19.6,17.7,19.6z M23.8,22.2l-3.7-2.1l1.4-4.2l4.4,0l1.3,4.2L23.8,22.2z"/>
</svg>
