<?xml version="1.0" encoding="utf-8"?>
<!-- Generator: Adobe Illustrator 23.0.1, SVG Export Plug-In . SVG Version: 6.00 Build 0)  -->
<svg version="1.1" id="Layer_1" xmlns="http://www.w3.org/2000/svg" xmlns:xlink="http://www.w3.org/1999/xlink" x="0px" y="0px"
	 viewBox="0 0 20 20" style="enable-background:new 0 0 20 20;" xml:space="preserve">
<path d="M14.1,2c-2.6,0-4.7,2.2-4.7,4.8V9h-7C1.7,9,1,9.7,1,10.5v6C1,17.3,1.7,18,2.5,18h10.9c0.8,0,1.5-0.7,1.5-1.5v-6
	c0-0.8-0.7-1.5-1.5-1.5h-1.5V6.8c0-1.2,1-2.3,2.2-2.3s2.3,1,2.3,2.2v2.5c0,0.4,0.3,0.8,0.8,0.7h1c0.4,0,0.8-0.3,0.8-0.8V6.6
	C18.9,4.1,16.8,2,14.1,2z"/>
</svg>
