<?xml version="1.0" encoding="utf-8"?>
<!-- Generator: Adobe Illustrator 23.0.1, SVG Export Plug-In . SVG Version: 6.00 Build 0)  -->
<svg version="1.1" id="Layer_1" xmlns="http://www.w3.org/2000/svg" xmlns:xlink="http://www.w3.org/1999/xlink" x="0px" y="0px"
	 viewBox="0 0 20 20" style="enable-background:new 0 0 20 20;" xml:space="preserve">
<style type="text/css">
	.st0{fill:#0099FF;}
	.st1{fill:#B7C0C8;}
</style>
<g>
	<g>
		<path class="st0" d="M10,14.2l-1,1.5c0.3,0,0.7,0,1,0c3.7,0,7-2,8.8-5c0.3-0.5,0.3-1.1,0-1.5C18,8,17,6.9,15.8,6L14,8.6
			c0.2,0.4,0.2,0.9,0.2,1.4C14.2,12.3,12.4,14.2,10,14.2z"/>
		<path class="st0" d="M10.8,13.1l2.4-3.5C13.4,11.3,12.3,12.8,10.8,13.1z"/>
	</g>
	<path class="st1" d="M1.2,10.8c1,1.7,2.5,3,4.2,3.9l0,0l-1.3,1.8c-0.2,0.3-0.2,0.8,0.2,1l0.4,0.3c0.3,0.2,0.8,0.2,1-0.2L15.9,3.5
		c0.2-0.3,0.2-0.8-0.2-1l-0.4-0.3c-0.3-0.2-0.8-0.2-1,0.2l-1.6,2.3c-0.8-0.2-1.7-0.3-2.6-0.3c-3.7,0-7,2-8.8,5
		C0.9,9.7,0.9,10.3,1.2,10.8L1.2,10.8z M5.7,10c0-2.3,1.9-4.2,4.2-4.2c0.6,0,1.1,0.1,1.6,0.3L11,6.9c-0.8-0.3-1.7-0.2-2.5,0.2h0
		c0.7,0,1.3,0.6,1.3,1.3c0,0.7-0.6,1.3-1.3,1.3c-0.7,0-1.3-0.6-1.3-1.3v0c-0.6,1.1-0.5,2.4,0.3,3.5v0l-0.6,0.8
		C6.1,12,5.7,11.1,5.7,10z"/>
</g>
</svg>
