<?xml version="1.0" encoding="utf-8"?>
<!-- Generator: Adobe Illustrator 23.0.1, SVG Export Plug-In . SVG Version: 6.00 Build 0)  -->
<svg version="1.1" id="Layer_1" xmlns="http://www.w3.org/2000/svg" xmlns:xlink="http://www.w3.org/1999/xlink" x="0px" y="0px"
	 viewBox="0 0 20 20" style="enable-background:new 0 0 20 20;" xml:space="preserve">
<style type="text/css">
	.st0{fill:#33ADFF;}
</style>
<path class="st0" d="M5.3,1.4c0.3,0,0.6,0.3,0.6,0.6v3.4c0,0.3-0.3,0.6-0.6,0.6H1.9c-0.3,0-0.6-0.3-0.6-0.6V2c0-0.3,0.3-0.6,0.6-0.6
	H5.3"/>
<path class="st0" d="M11.7,1.4c0.3,0,0.6,0.3,0.6,0.6v3.4c0,0.3-0.3,0.6-0.6,0.6H8.3C8,5.9,7.8,5.7,7.8,5.4V2c0-0.3,0.3-0.6,0.6-0.6
	H11.7"/>
<path class="st0" d="M18.1,1.4c0.3,0,0.6,0.3,0.6,0.6v3.4c0,0.3-0.3,0.6-0.6,0.6h-3.4c-0.3,0-0.6-0.3-0.6-0.6V2
	c0-0.3,0.3-0.6,0.6-0.6H18.1"/>
<path class="st0" d="M5.3,7.8c0.3,0,0.6,0.3,0.6,0.6v3.4c0,0.3-0.3,0.6-0.6,0.6H1.9c-0.3,0-0.6-0.3-0.6-0.6V8.3
	c0-0.3,0.3-0.6,0.6-0.6H5.3"/>
<path class="st0" d="M11.7,7.8c0.3,0,0.6,0.3,0.6,0.6v3.4c0,0.3-0.3,0.6-0.6,0.6H8.3c-0.3,0-0.6-0.3-0.6-0.6V8.3
	C7.8,8,8,7.8,8.3,7.8H11.7"/>
<path class="st0" d="M18.1,7.8c0.3,0,0.6,0.3,0.6,0.6v3.4c0,0.3-0.3,0.6-0.6,0.6h-3.4c-0.3,0-0.6-0.3-0.6-0.6V8.3
	c0-0.3,0.3-0.6,0.6-0.6H18.1"/>
<path class="st0" d="M5.3,14.1c0.3,0,0.6,0.3,0.6,0.6V18c0,0.3-0.3,0.6-0.6,0.6H1.9c-0.3,0-0.6-0.3-0.6-0.6v-3.4
	c0-0.3,0.3-0.6,0.6-0.6H5.3"/>
<path class="st0" d="M11.7,14.1c0.3,0,0.6,0.3,0.6,0.6V18c0,0.3-0.3,0.6-0.6,0.6H8.3c-0.3,0-0.6-0.3-0.6-0.6v-3.4
	c0-0.3,0.3-0.6,0.6-0.6H11.7"/>
<path class="st0" d="M18.1,14.1c0.3,0,0.6,0.3,0.6,0.6V18c0,0.3-0.3,0.6-0.6,0.6h-3.4c-0.3,0-0.6-0.3-0.6-0.6v-3.4
	c0-0.3,0.3-0.6,0.6-0.6H18.1"/>
</svg>
