<?xml version="1.0" encoding="utf-8"?>
<!-- Generator: Adobe Illustrator 23.1.1, SVG Export Plug-In . SVG Version: 6.00 Build 0)  -->
<svg version="1.1" xmlns="http://www.w3.org/2000/svg" xmlns:xlink="http://www.w3.org/1999/xlink" x="0px" y="0px"
	 viewBox="0 0 32 32" style="enable-background:new 0 0 32 32;" xml:space="preserve">
<path d="M7.2,12.8c-0.1,0-0.2,0.1-0.3,0.1l-2.1,0c-0.3,0-0.5-0.2-0.7-0.4L2.4,9.2C2.3,8.9,2.3,8.6,2.5,8.4l0.4-0.4
	c0.2-0.2,0.5-0.2,0.7,0L5.4,10c0.2,0.2,0.5,0.2,0.7,0L7,9.1c0.2-0.2,0.2-0.5,0-0.7L5.1,6.5c-0.2-0.2-0.2-0.5,0-0.7l0.4-0.4
	c0.2-0.2,0.5-0.2,0.8-0.1L9.4,7c0.2,0.1,0.4,0.4,0.4,0.7v2.1c0,0.1,0,0.2-0.1,0.3l4.1,4.1H8.7C8.7,14.3,7.2,12.8,7.2,12.8z
	 M29.6,11.3c0.2,0.2,0.2,0.6,0,0.8l-1.9,1.9c-0.2,0.2-0.6,0.2-0.8,0l-0.8-0.8c-0.2-0.2-0.2-0.6,0-0.8c0,0,0,0,0,0l0.1-0.1L25.9,12
	c-0.2-0.2-0.4-0.3-0.6-0.4l-0.9-0.3c-0.2-0.1-0.5-0.2-0.6-0.4l-1.6-1.6c-0.2-0.2-0.3-0.4-0.3-0.7V7.9c-0.8-2.4-3-1.9-3-1.9
	c-0.2,0-0.3-0.3-0.3-0.3c1.1-1.1,5.1-0.1,5.1-0.1c0.2,0.1,0.5,0.2,0.6,0.4l2.2,2.2c0.1,0.1,0.3,0.4,0.4,0.6l0.3,0.9
	c0.1,0.2,0.2,0.5,0.4,0.6l0.3,0.3l0.1-0.1c0.2-0.2,0.6-0.2,0.8,0C28.8,10.5,29.6,11.3,29.6,11.3z M28.1,10.4c0.1,0.4,0.6,1.3,1,2.2
	L27.8,14c-0.7-1.5-1.5-3.1-1.6-3.4c-0.1-0.4-0.3-0.4-0.6-0.4H23l-0.9-0.9c-0.2-0.2-0.3-0.4-0.3-0.7V8.2h3.8c0.4,0,0.8,0.1,1.1,0.2
	c0.1,0.1,0.1,0.3,0.2,0.4l0.3,0.9c0.1,0.2,0.2,0.5,0.4,0.6l0.3,0.3l0.1-0.1C28,10.5,28.1,10.5,28.1,10.4z M21.1,14.3h-3.4
	c0.4-0.3,0.8-0.6,1.2-1l2.7-2.7l1.6,1.6C23.2,12.2,22.1,13.3,21.1,14.3z M6.8,8.2h3.1v1.6c0,0.1,0,0.2-0.1,0.3H6.4
	c-0.2,0-0.5,0-0.6,0.4c0,0.2-0.5,1.2-1,2.3H4.7c-0.3,0-0.5-0.2-0.7-0.4l-0.5-1.1c0.2-0.5,0.4-0.9,0.4-1.1c0,0,0.1-0.7,0.6-1.2
	L5.4,10c0.2,0.2,0.5,0.2,0.7,0c0,0,0,0,0,0L7,9.1c0.2-0.2,0.2-0.5,0-0.7L6.8,8.2L6.8,8.2z M20.4,8.6c0,0.5,0.2,1.1,0.6,1.5h-9.2
	l-0.5-0.5V8.2h9.2C20.4,8.2,20.4,8.6,20.4,8.6z M29.8,14l-1.1,1.1c-0.1,0.1-0.2,0.2-0.3,0.2c0.2,0.4,0.3,0.7,0.5,0.9H3.1
	c0.2-0.4,0.6-1.2,1-2C3.6,14,3,13.6,2.8,13l-0.1-0.1C1.9,14.5,1,16.2,1,16.2v9.7c0,0.5,0.4,0.9,0.9,0.9h28.1c0.5,0,0.9-0.4,0.9-0.9
	v-9.7C31,16.2,30.4,15.2,29.8,14z M21.9,21c0,1.4-1.2,2.6-2.6,2.6h-6.6c-1.4,0-2.6-1.2-2.6-2.6v-1.4c0-0.1,0.1-0.2,0.2-0.2h1.9
	c0.1,0,0.2,0.1,0.2,0.2V21c0,0.1,0.1,0.2,0.2,0.2h6.6c0.1,0,0.2-0.1,0.2-0.2v-1.4c0-0.1,0.1-0.2,0.2-0.2h1.9c0.1,0,0.2,0.1,0.2,0.2
	L21.9,21L21.9,21z"/>
</svg>
