<?xml version="1.0" encoding="utf-8"?>
<!-- Generator: Adobe Illustrator 23.0.1, SVG Export Plug-In . SVG Version: 6.00 Build 0)  -->
<svg version="1.1" id="Layer_1" xmlns="http://www.w3.org/2000/svg" xmlns:xlink="http://www.w3.org/1999/xlink" x="0px" y="0px"
	 viewBox="0 0 36 36" style="enable-background:new 0 0 36 36;" xml:space="preserve">
<path d="M9.8,27.1c0,0.4,0.2,0.6,0.6,0.6h1.2c0.3,0,0.6-0.2,0.6-0.5c0-0.2,0.1-0.4,0.1-0.6h11.6c0.1,0.3,0.1,0.5,0.1,0.6
	c0,0.3,0.3,0.5,0.6,0.5h1.2c0.4,0,0.6-0.3,0.6-0.6c-0.2-1.5-1-4.8-4.4-7.9c-0.6,0.5-1.4,0.8-2.1,1.4c0.2,0.2,0.4,0.4,0.6,0.6h-4.6
	c0.7-0.6,1.8-1.4,3-1.9c6.3-3.2,7.5-8.2,7.7-10.1c0-0.4-0.2-0.6-0.6-0.6h-1.2c-0.3,0-0.6,0.2-0.6,0.5c0,0.1,0,0.4-0.1,0.6H12.3
	c-0.1-0.3-0.1-0.6-0.2-0.7c0-0.3-0.3-0.5-0.6-0.5h-1.2C9.9,8.4,9.8,8.6,9.8,9c0.2,1.7,1.2,5.8,5.9,9.1C10.9,21.2,9.9,25.4,9.8,27.1z
	 M18,16.6c-1-0.5-1.8-1.1-2.3-1.7h4.7C19.8,15.6,19,16.1,18,16.6L18,16.6z M22.9,12c-0.2,0.4-0.5,0.7-0.7,1.2H14
	c-0.3-0.4-0.6-0.7-0.7-1.2H22.9z M13.2,24c0.2-0.4,0.5-0.7,0.7-1.2H22c0.3,0.4,0.6,0.7,0.7,1.2H13.2z"/>
</svg>
