<?xml version="1.0" encoding="utf-8"?>
<!-- Generator: Adobe Illustrator 23.0.1, SVG Export Plug-In . SVG Version: 6.00 Build 0)  -->
<svg version="1.1" id="Layer_1" xmlns="http://www.w3.org/2000/svg" xmlns:xlink="http://www.w3.org/1999/xlink" x="0px" y="0px"
	 viewBox="0 0 28 28" style="enable-background:new 0 0 28 28;" xml:space="preserve">
<path class="st0" d="M21.1,6.9C17.2,3,10.8,3,6.9,6.9S3,17.2,6.9,21.1s10.2,3.9,14.1,0C25,17.2,25,10.8,21.1,6.9z M8.1,11.5
	c0.4-0.5,1.4-0.5,2,0.2l3.9,3.9l3.9-4.1c0.6-0.6,1.4-0.6,2,0s0.6,1.4,0,2L15,18.4c-0.6,0.6-1.4,0.6-2,0l-4.9-4.9
	c-0.3-0.3-0.4-0.7-0.4-1S7.8,11.8,8.1,11.5z"/>
</svg>
