<?xml version="1.0" encoding="utf-8"?>
<!-- Generator: Adobe Illustrator 23.1.1, SVG Export Plug-In . SVG Version: 6.00 Build 0)  -->
<svg version="1.1" id="question" xmlns="http://www.w3.org/2000/svg" xmlns:xlink="http://www.w3.org/1999/xlink" x="0px" y="0px"
	 viewBox="0 0 36 36" style="enable-background:new 0 0 36 36;" xml:space="preserve">
<path d="M20.6,26c0,1.7-1.4,3-3,3s-3-1.4-3-3c0-1.6,1.4-3,3-3S20.6,24.3,20.6,26z M25.3,13.4c0,4.8-5.2,4.9-5.2,6.7v0.4
	c0,0.4-0.4,0.9-0.9,0.9h-3.3c-0.4,0-0.9-0.4-0.9-0.9v-0.6c0-2.6,2-3.6,3.4-4.4c1.2-0.7,2.1-1.2,2.1-2.1c0-1.2-1.6-2.1-2.9-2.1
	c-1.7,0-2.4,0.8-3.5,2.1c-0.3,0.4-0.8,0.4-1.2,0.1l-2-1.5c-0.4-0.3-0.5-0.8-0.2-1.2C12.5,8.4,14.7,7,18.1,7
	C21.6,7,25.3,9.8,25.3,13.4z"/>
</svg>
