<?xml version="1.0" encoding="utf-8"?>
<!-- Generator: Adobe Illustrator 23.0.1, SVG Export Plug-In . SVG Version: 6.00 Build 0)  -->
<svg version="1.1" id="Layer_1" xmlns="http://www.w3.org/2000/svg" xmlns:xlink="http://www.w3.org/1999/xlink" x="0px" y="0px"
	 viewBox="0 0 72 20" style="enable-background:new 0 0 72 20;" xml:space="preserve">
<path class="st0" d="M69.5,11.5h-15c-0.8,0-1.5-0.7-1.5-1.5l0,0c0-0.8,0.7-1.5,1.5-1.5h15c0.8,0,1.5,0.7,1.5,1.5l0,0
	C71,10.8,70.3,11.5,69.5,11.5z"/>
<path class="st0" d="M18,19H2c-0.6,0-1-0.4-1-1V2c0-0.6,0.4-1,1-1h16c0.6,0,1,0.4,1,1v16C19,18.6,18.6,19,18,19z"/>
<path class="st0" d="M44,14.5H28c-0.6,0-1-0.4-1-1v-7c0-0.6,0.4-1,1-1h16c0.6,0,1,0.4,1,1v7C45,14.1,44.6,14.5,44,14.5z"/>
</svg>
