<?xml version="1.0" encoding="utf-8"?>
<!-- Generator: Adobe Illustrator 23.0.3, SVG Export Plug-In . SVG Version: 6.00 Build 0)  -->
<svg version="1.1" xmlns="http://www.w3.org/2000/svg" xmlns:xlink="http://www.w3.org/1999/xlink" x="0px" y="0px"
	 viewBox="0 0 32 32" style="enable-background:new 0 0 32 32;" xml:space="preserve">
<path d="M7,6.8V3C7,2,6.2,1.2,5.3,1.2S3.6,2,3.6,3v3.9C2,7.5,1,9,1,10.8s1.1,3.3,2.6,3.9V29c0,0.9,0.8,1.7,1.7,1.7S7,30,7,29V14.7
	c1.5-0.7,2.6-2.2,2.6-3.9C9.6,9,8.5,7.5,7,6.8z"/>
<path d="M17.7,17.2V3c0-0.9-0.8-1.7-1.7-1.7S14.3,2,14.3,3v14.3c-1.5,0.7-2.6,2.2-2.6,3.9s1.1,3.3,2.6,3.9V29c0,0.9,0.8,1.7,1.7,1.7
	s1.7-0.8,1.7-1.7v-3.9c1.5-0.7,2.6-2.2,2.6-3.9S19.3,17.9,17.7,17.2z"/>
<path d="M28.4,6.8V3c0-0.9-0.8-1.7-1.7-1.7S25,2,25,3v3.9c-1.5,0.7-2.6,2.2-2.6,3.9s1.1,3.3,2.6,3.9V29c0,0.9,0.8,1.7,1.7,1.7
	s1.7-0.8,1.7-1.7V14.7c1.5-0.7,2.6-2.2,2.6-3.9S29.9,7.5,28.4,6.8z"/>
</svg>
