<?xml version="1.0" encoding="utf-8"?>
<!-- Generator: Adobe Illustrator 23.0.1, SVG Export Plug-In . SVG Version: 6.00 Build 0)  -->
<svg version="1.1" id="Layer_1" xmlns="http://www.w3.org/2000/svg" xmlns:xlink="http://www.w3.org/1999/xlink" x="0px" y="0px"
	 viewBox="0 0 36 36" style="enable-background:new 0 0 36 36;" xml:space="preserve">
<style type="text/css">
	.st0{fill-rule:evenodd;clip-rule:evenodd;}
</style>
<g>
	<path class="st0" d="M17.9,27.5c-0.5,0-0.9-0.2-1.3-0.5S16,26.2,16,25.6c0-0.5,0.2-0.9,0.5-1.3c0.4-0.4,0.8-0.5,1.3-0.5
		s1,0.2,1.3,0.5c0.4,0.4,0.5,0.8,0.5,1.3c0,0.6-0.2,1-0.6,1.4C18.8,27.3,18.3,27.5,17.9,27.5z"/>
	<path class="st0" d="M11.9,13.6c0-0.8,0.3-1.6,0.8-2.4c0.5-0.8,1.2-1.5,2.2-2s2.1-0.8,3.4-0.8c1.2,0,2.2,0.2,3.2,0.7
		c0.9,0.4,1.6,1,2.1,1.8s0.7,1.6,0.7,2.5c0,0.7-0.1,1.3-0.4,1.8s-0.6,1-1,1.4s-1.1,1-2.1,1.9c-0.3,0.3-0.5,0.5-0.7,0.7
		s-0.3,0.4-0.4,0.5c-0.1,0.2-0.1,0.3-0.2,0.5c0,0.2-0.1,0.4-0.2,0.8c-0.2,0.9-0.6,1.3-1.5,1.3c-0.4,0-0.8-0.1-1.1-0.4
		c-0.3-0.3-0.4-0.7-0.4-1.2c0-0.7,0.1-1.3,0.3-1.8c0.2-0.5,0.5-0.9,0.8-1.3c0.4-0.4,0.8-0.8,1.4-1.4c0.5-0.5,0.9-0.8,1.1-1
		s0.4-0.5,0.6-0.8s0.2-0.6,0.2-0.9c0-0.7-0.2-1.2-0.7-1.7c-0.5-0.4-1.1-0.7-1.9-0.7c-0.9,0-1.6,0.2-2,0.7s-0.8,1.1-1.1,2
		s-0.8,1.4-1.6,1.4c-0.5,0-0.8-0.2-1.2-0.5C12,14.4,11.9,14,11.9,13.6z"/>
</g>
</svg>
