<?xml version="1.0" encoding="utf-8"?>
<!-- Generator: Adobe Illustrator 23.1.1, SVG Export Plug-In . SVG Version: 6.00 Build 0)  -->
<svg version="1.1" id="close" xmlns="http://www.w3.org/2000/svg" xmlns:xlink="http://www.w3.org/1999/xlink" x="0px" y="0px"
	 viewBox="0 0 32 32" style="enable-background:new 0 0 32 32;" xml:space="preserve">
<circle cx="16" cy="16" r="15"/>
<path d="M18.6,16l5.1-5.1c0.3-0.3,0.3-0.9,0-1.2l-1.4-1.4c-0.3-0.3-0.9-0.3-1.2,0L16,13.4
	l-5.1-5.1c-0.3-0.3-0.9-0.3-1.2,0L8.2,9.7c-0.3,0.3-0.3,0.9,0,1.2l5.1,5.1l-5.1,5.1c-0.3,0.3-0.3,0.9,0,1.2l1.4,1.4
	c0.3,0.3,0.9,0.3,1.2,0l5.1-5.1l5.1,5.1c0.3,0.3,0.9,0.3,1.2,0l1.4-1.4c0.3-0.3,0.3-0.9,0-1.2L18.6,16z"/>
</svg>
