<?xml version="1.0" encoding="utf-8"?>
<!-- Generator: Adobe Illustrator 23.0.1, SVG Export Plug-In . SVG Version: 6.00 Build 0)  -->
<svg version="1.1" id="Layer_1" xmlns="http://www.w3.org/2000/svg" xmlns:xlink="http://www.w3.org/1999/xlink" x="0px" y="0px"
	 viewBox="0 0 36 36" style="enable-background:new 0 0 36 36;" xml:space="preserve">
<path d="M27.8,25.4l-3.9-3.9c-0.2-0.2-0.4-0.3-0.7-0.3h-0.6c1-1.4,1.7-3.1,1.7-5.1c0-4.5-3.7-8.1-8.1-8.1S8,11.6,8,16.1
	s3.7,8.1,8.1,8.1c1.9,0,3.7-0.6,5.1-1.7v0.6c0,0.3,0.1,0.5,0.3,0.7l3.9,3.9c0.3,0.3,1,0.3,1.3,0l1.1-1.1
	C28.1,26.3,28.1,25.7,27.8,25.4z M16.1,21.2c-2.8,0-5.1-2.3-5.1-5.1s2.3-5.1,5.1-5.1s5.1,2.3,5.1,5.1C21.1,18.9,18.9,21.2,16.1,21.2
	z"/>
</svg>
