<?xml version="1.0" encoding="utf-8"?>
<!-- Generator: Adobe Illustrator 23.0.3, SVG Export Plug-In . SVG Version: 6.00 Build 0)  -->
<svg version="1.1" id="sliders" xmlns="http://www.w3.org/2000/svg" xmlns:xlink="http://www.w3.org/1999/xlink" x="0px" y="0px"
	 viewBox="0 0 32 32" style="enable-background:new 0 0 32 32;" xml:space="preserve">
<path d="M4.8,28.2C4.8,29.7,6,31,7.6,31l0,0h16.9c1.6,0,2.8-1.3,2.8-2.8l0,0V8.5H4.8V28.2z M20.7,13.2c0-0.5,0.4-0.9,0.9-0.9
	s0.9,0.4,0.9,0.9v13.1c0,0.5-0.4,0.9-0.9,0.9s-0.9-0.4-0.9-0.9V13.2z M15.1,13.2c0-0.5,0.4-0.9,0.9-0.9s0.9,0.4,0.9,0.9v13.1
	c0,0.5-0.4,0.9-0.9,0.9s-0.9-0.4-0.9-0.9V13.2z M9.4,13.2c0-0.5,0.4-0.9,0.9-0.9s0.9,0.4,0.9,0.9v13.1c0,0.5-0.4,0.9-0.9,0.9
	s-0.9-0.4-0.9-0.9V13.2z M28.2,2.9h-7l-0.6-1.1C20.4,1.3,19.9,1,19.3,1h-6.7c-0.5,0-1,0.3-1.3,0.8l-0.6,1.1h-7
	c-0.5,0-0.9,0.4-0.9,0.9v1.9c0,0.5,0.4,0.9,0.9,0.9h24.4c0.5,0,0.9-0.4,0.9-0.9V3.8C29.1,3.3,28.7,2.9,28.2,2.9z"/>
</svg>
