<?xml version="1.0" encoding="utf-8"?>
<!-- Generator: Adobe Illustrator 23.0.1, SVG Export Plug-In . SVG Version: 6.00 Build 0)  -->
<svg version="1.1" id="Layer_1" xmlns="http://www.w3.org/2000/svg" xmlns:xlink="http://www.w3.org/1999/xlink" x="0px" y="0px"
	 viewBox="0 0 28 28" style="enable-background:new 0 0 28 28;" xml:space="preserve">
<path class="st0" d="M21.1,6.9C17.2,3,10.8,3,6.9,6.9S3,17.2,6.9,21.1s10.2,3.9,14.1,0C25,17.2,25,10.8,21.1,6.9z M8.6,12.3h3.7V8.6
	c0-0.9,0.8-1.7,1.7-1.7s1.7,0.8,1.7,1.7v3.7h3.7c0.9,0,1.7,0.8,1.7,1.7s-0.8,1.7-1.7,1.7h-3.7v3.7c0,0.9-0.8,1.7-1.7,1.7
	s-1.7-0.8-1.7-1.7v-3.7H8.6c-0.9,0-1.7-0.8-1.7-1.7C6.9,13.1,7.7,12.3,8.6,12.3z"/>
</svg>
