<?xml version="1.0" encoding="utf-8"?>
<!-- Generator: Adobe Illustrator 23.0.1, SVG Export Plug-In . SVG Version: 6.00 Build 0)  -->
<svg version="1.1" id="Layer_1" xmlns="http://www.w3.org/2000/svg" xmlns:xlink="http://www.w3.org/1999/xlink" x="0px" y="0px"
	 viewBox="0 0 36 36" style="enable-background:new 0 0 36 36;" xml:space="preserve">
<style type="text/css">
	.st0{fill:#0099FF;}
	.st1{fill-rule:evenodd;clip-rule:evenodd;fill:#FFFFFF;}
</style>
<rect class="st0" width="36" height="36"/>
<g>
	<path class="st1" d="M25.6,25.3c0-2.6,2.2-4.7,4.8-4.7l0-4.9c-0.8,0-1.6-0.2-2.4-0.7c-2.3-1.3-3-4.3-1.7-6.5L22.2,6
		c-0.4,0.7-1,1.3-1.8,1.7C18.2,9,15.3,8.2,14,5.9L9.7,8.3c0.4,0.7,0.6,1.5,0.6,2.4c0,2.6-2.2,4.7-4.8,4.7l0,4.9
		c0.8,0,1.6,0.2,2.4,0.7c2.3,1.3,3,4.2,1.7,6.5l4.2,2.5c0.4-0.7,1-1.3,1.7-1.7c2.3-1.3,5.2-0.5,6.5,1.8l4.3-2.4
		C25.9,27,25.6,26.1,25.6,25.3L25.6,25.3z M15.4,22.4c-2.4-1.4-3.2-4.5-1.8-6.9c1.4-2.4,4.5-3.2,6.9-1.8c2.4,1.4,3.2,4.5,1.8,6.9
		C20.9,23,17.8,23.8,15.4,22.4z"/>
</g>
</svg>
