<?xml version="1.0" encoding="utf-8"?>
<!-- Generator: Adobe Illustrator 23.0.1, SVG Export Plug-In . SVG Version: 6.00 Build 0)  -->
<svg version="1.1" id="Layer_1" xmlns="http://www.w3.org/2000/svg" xmlns:xlink="http://www.w3.org/1999/xlink" x="0px" y="0px"
	 viewBox="0 0 36 36" style="enable-background:new 0 0 36 36;" xml:space="preserve">
<g>
	<path d="M12.9,22.3c-0.9-1-1.5-2.3-1.6-3.7H8.9c0.1,2,0.9,3.8,2.2,5.3L12.9,22.3z"/>
	<path d="M18.6,9v2.3c3.2,0.3,5.8,2.8,6.1,6.1H27C26.7,12.9,23,9.3,18.6,9z"/>
	<path d="M17.9,24.7c-1.6,0-3.1-0.6-4.3-1.6L12,24.7c1.6,1.5,3.7,2.3,5.9,2.3c4.8,0,8.7-3.7,9-8.4h-2.3C24.3,22,21.5,24.7,17.9,24.7
		z"/>
	<path d="M17.3,11.3V5.6c-4,0.2-7.7,2.3-9.9,5.7l5,2.9C13.6,12.5,15.4,11.5,17.3,11.3z"/>
	<path d="M17.9,28.2c-2.5,0-4.9-0.9-6.7-2.6l-1.6,1.7c2.3,2.1,5.3,3.2,8.4,3.2c6.7,0,12.2-5.3,12.4-11.9h-2.3
		C27.7,23.9,23.3,28.2,17.9,28.2z"/>
	<path d="M6.8,12.3c-0.8,1.6-1.3,3.4-1.3,5.2h5.8c0.1-0.8,0.3-1.5,0.6-2.3L6.8,12.3z"/>
</g>
</svg>
