<?xml version="1.0" encoding="utf-8"?>
<!-- Generator: Adobe Illustrator 25.4.1, SVG Export Plug-In . SVG Version: 6.00 Build 0)  -->
<svg version="1.1" xmlns="http://www.w3.org/2000/svg" xmlns:xlink="http://www.w3.org/1999/xlink" x="0px"
	 y="0px" viewBox="0 0 32 32" style="enable-background:new 0 0 32 32;" xml:space="preserve">
<path class="rightHalf" d="M16.1000004,23.1000004L14.4000006,25.5
	c0.5,0.1000004,1.1000004,0.1000004,1.5999994,0.1000004c6.2000008,0,11.7000008-3.2999992,14.7000008-8.3000011
	c0.5-0.7999992,0.5-1.8000002,0-2.5c-1.2999992-2.1000004-3-3.8999996-5-5.3000002l-3,4.1999998
	c0.2999992,0.6999998,0.3999996,1.5,0.3999996,2.3999996C23.1000004,19.8999996,20,23,16.1000004,23.1000004z
	 M17.3999996,21.2000008l4-5.8000002C21.7000008,18.2000008,19.8999996,20.6000004,17.3999996,21.2000008z"/>
<path class="leftHalf" d="M1.3,17.2999992c1.6000001,2.7999992,4.0999994,5.1000004,7,6.5l0,0
	l-2.1999998,3.1000004C5.7000003,27.5,5.8000002,28.1999989,6.4000006,28.6000004l0.6999998,0.5
	C7.7000003,29.5,8.4000006,29.3999996,8.8000002,28.8000011l17-23.7000008C26.1999989,4.5,26.0999985,3.8,25.5,3.3999999
	l-0.7000008-0.5c-0.6000004-0.4000001-1.2999992-0.3-1.7000008,0.3L20.3999996,7C19,6.5999999,17.5,6.4000001,16,6.4000001
	c-6.1999998,0-11.6999998,3.2999997-14.6999998,8.3000011C0.9,15.5,0.9,16.5,1.3,17.2999992L1.3,17.2999992z M8.8999996,16
	c0-3.8999996,3.1999998-7.1000004,7.1000004-7.1000004c0.8999996,0,1.7999992,0.1999998,2.6000004,0.5l-1,1.3999996
	c-1.2999992-0.3999996-2.8999996-0.3000002-4.1999998,0.3999996l0,0c1.1999998,0,2.1999998,1,2.1999998,2.1999998
	s-1,2.1999998-2.1999998,2.1999998s-2.1999998-1-2.1999998-2.1999998l0,0c-1,1.8000002-0.8000002,4.0999994,0.3999996,5.8000002l0,0
	l-1,1.3999996C9.6000004,19.3999996,8.8999996,17.7999992,8.8999996,16z"/>
</svg>
