<?xml version="1.0" encoding="utf-8"?>
<!-- Generator: Adobe Illustrator 23.0.1, SVG Export Plug-In . SVG Version: 6.00 Build 0)  -->
<svg version="1.1" id="Layer_1" xmlns="http://www.w3.org/2000/svg" xmlns:xlink="http://www.w3.org/1999/xlink" x="0px" y="0px"
	 viewBox="0 0 28 28" style="enable-background:new 0 0 28 28;" xml:space="preserve">
<path class="st0" d="M21.1,6.9C17.2,3,10.8,3,6.9,6.9S3,17.2,6.9,21.1s10.2,3.9,14.1,0C25,17.2,25,10.8,21.1,6.9z M16.5,8.1
	c0.5,0.4,0.5,1.4-0.2,2l-4,3.9l4.1,3.9c0.6,0.6,0.6,1.4,0,2s-1.4,0.6-2,0L9.6,15c-0.6-0.6-0.6-1.4,0-2l4.9-4.9
	c0.3-0.3,0.7-0.4,1-0.4S16.1,7.8,16.5,8.1z"/>
</svg>
