<?xml version="1.0" encoding="utf-8"?>
<!-- Generator: Adobe Illustrator 22.1.0, SVG Export Plug-In . SVG Version: 6.00 Build 0)  -->
<svg version="1.1" id="Layer_1" xmlns="http://www.w3.org/2000/svg" xmlns:xlink="http://www.w3.org/1999/xlink" x="0px" y="0px"
	 viewBox="0 0 36 36" style="enable-background:new 0 0 36 36;" xml:space="preserve">
<style type="text/css">
	.st0{fill:#099EFF;}
	.st1{enable-background:new    ;}
	.st2{fill:#FFFFFF;}
</style>
<rect class="st0" width="36" height="36"/>
<g class="st1">
	<path class="st2" d="M10.4140625,13.7236328V7.9394531h1.9960938c0.378418,0,0.7021484,0.0361328,0.9697266,0.1083984
		c0.2680664,0.0722656,0.4882812,0.1748047,0.6601562,0.3076172c0.171875,0.1337891,0.2978516,0.2949219,0.3779297,0.484375
		s0.1201172,0.4023438,0.1201172,0.6396484c0,0.1357422-0.0200195,0.2666016-0.0600586,0.390625
		c-0.0400391,0.1230469-0.1020508,0.2392578-0.1860352,0.3476562c-0.0839844,0.1074219-0.1904297,0.2060547-0.3198242,0.2939453
		s-0.2836914,0.1630859-0.4619141,0.2236328c0.7944336,0.1787109,1.1918945,0.6083984,1.1918945,1.2880859
		c0,0.2451172-0.046875,0.4726562-0.1401367,0.6806641s-0.2294922,0.3867188-0.4077148,0.5371094
		c-0.1787109,0.1513672-0.3989258,0.2695312-0.6601562,0.3544922s-0.5600586,0.1279297-0.8959961,0.1279297H10.4140625z
		 M11.4902344,10.4433594h0.8598633c0.3652344,0,0.6425781-0.0664062,0.8320312-0.2001953
		c0.1894531-0.1328125,0.2841797-0.3447266,0.2841797-0.6357422c0-0.3007812-0.0854492-0.515625-0.2563477-0.6435547
		c-0.1704102-0.1279297-0.4375-0.1923828-0.7998047-0.1923828h-0.9199219V10.4433594z M11.4902344,11.1875v1.6962891h1.0917969
		c0.2001953,0,0.3671875-0.0244141,0.5019531-0.0722656s0.2426758-0.1123047,0.3242188-0.1914062
		c0.0810547-0.0800781,0.1396484-0.1738281,0.1757812-0.2802734S13.6381836,12.1201172,13.6381836,12
		c0-0.1259766-0.0200195-0.2382812-0.0600586-0.3378906c-0.0400391-0.1005859-0.1025391-0.1855469-0.1879883-0.2568359
		c-0.0854492-0.0703125-0.1948242-0.1240234-0.328125-0.1621094C12.9287109,11.2060547,12.7675781,11.1875,12.578125,11.1875
		H11.4902344z"/>
	<path class="st2" d="M16.4741211,9.6201172v2.6074219c0,0.2509766,0.0581055,0.4443359,0.1738281,0.5820312
		c0.1162109,0.1376953,0.2900391,0.2060547,0.5219727,0.2060547c0.1708984,0,0.3305664-0.0380859,0.4799805-0.1142578
		s0.2905273-0.1806641,0.4243164-0.3134766V9.6201172H19.0625v4.1035156h-0.6044922
		c-0.1279297,0-0.2119141-0.0595703-0.2519531-0.1796875l-0.0678711-0.328125
		c-0.0854492,0.0849609-0.1733398,0.1630859-0.2641602,0.2333984c-0.0908203,0.0712891-0.1875,0.1308594-0.2900391,0.1806641
		c-0.1025391,0.0488281-0.2133789,0.0878906-0.3320312,0.1162109c-0.1186523,0.0273438-0.2460938,0.0419922-0.3818359,0.0419922
		c-0.2241211,0-0.4223633-0.0380859-0.5942383-0.1142578s-0.3164062-0.1835938-0.434082-0.3222656
		c-0.1171875-0.1386719-0.2055664-0.3037109-0.265625-0.4941406s-0.090332-0.4003906-0.090332-0.6298828V9.6201172H16.4741211z"/>
	<path class="st2" d="M21.1699219,7.7792969v5.9443359h-0.9882812V7.7792969H21.1699219z"/>
	<path class="st2" d="M23.2851562,7.7792969v3.4042969h0.1845703c0.0673828,0,0.1181641-0.0087891,0.15625-0.0283203
		c0.0371094-0.0185547,0.0771484-0.0527344,0.1201172-0.1035156l1.0195312-1.2597656
		c0.0449219-0.0537109,0.09375-0.0957031,0.1445312-0.1259766c0.0507812-0.03125,0.1171875-0.0458984,0.1992188-0.0458984h0.9042969
		l-1.2753906,1.5234375c-0.0458984,0.0556641-0.0917969,0.1074219-0.140625,0.1542969
		c-0.0478516,0.046875-0.0996094,0.0869141-0.15625,0.1220703c0.0566406,0.0400391,0.1054688,0.0859375,0.1484375,0.1396484
		s0.0859375,0.1103516,0.1279297,0.171875l1.3681641,1.9921875h-0.8925781c-0.0771484,0-0.1425781-0.0136719-0.1953125-0.0400391
		c-0.0537109-0.0263672-0.1015625-0.0722656-0.1445312-0.1357422l-1.0439453-1.5566406
		c-0.0400391-0.0605469-0.0791016-0.1005859-0.1201172-0.1191406c-0.0390625-0.0195312-0.0996094-0.0283203-0.1796875-0.0283203
		h-0.2246094v1.8798828h-0.9873047V7.7792969H23.2851562z"/>
</g>
<g transform="translate(213.85888,-65.751186)">
	<path class="st2" d="M-203.8000031,92.0999985v-2.6999969h1.1000061h1.1000061V91v1.6999969h5.6999969h5.6999969V91v-1.6999969
		h1.1000061h1.1000061V92v2.6999969h-0.3000031c-0.1999969,0-3.8000031,0-7.8999939,0h-7.6000061L-203.8000031,92.0999985
		L-203.8000031,92.0999985z M-190.5,84.8000031l-2.6999969,2.8000031c-1.5,1.5-2.6999969,2.8000031-2.6999969,2.8000031
		s-1.1999969-1.3000031-2.6000061-2.8000031l0,0l-2.6000061-2.8000031"/>
</g>
</svg>
