<?xml version="1.0" encoding="utf-8"?>
<!-- Generator: Adobe Illustrator 23.1.1, SVG Export Plug-In . SVG Version: 6.00 Build 0)  -->
<svg version="1.1" id="download" xmlns="http://www.w3.org/2000/svg" xmlns:xlink="http://www.w3.org/1999/xlink" x="0px" y="0px"
	 viewBox="0 0 36 36" style="enable-background:new 0 0 36 36;" xml:space="preserve">
<style type="text/css">
	.st0{fill:#FFFFFF;}
</style>
<g>
	<path id="_x3C_Path_bar_x3E_" class="st0" d="M25.5,27H10.5C9.7,27,9,26.3,9,25.5s0.7-1.5,1.5-1.5h15c0.8,0,1.5,0.7,1.5,1.5
		S26.3,27,25.5,27z"/>
	<path id="_x3C_Path_arrow_x3E_" class="st0" d="M25.7,9.2c0,0.1,0.1,0.1,0.1,0.2s0,0.1-0.1,0.2l-7.3,10.6c-0.1,0.2-0.3,0.2-0.6,0.1
		c-0.1,0-0.1-0.1-0.1-0.1L10.4,9.7c-0.1-0.2-0.1-0.4,0.1-0.6C10.6,9,10.6,9,10.7,9h14.7C25.5,9,25.7,9.1,25.7,9.2z"/>
</g>
</svg>
