<?xml version="1.0" encoding="utf-8"?>
<!-- Generator: Adobe Illustrator 22.1.0, SVG Export Plug-In . SVG Version: 6.00 Build 0)  -->
<svg version="1.1" id="Layer_1" xmlns="http://www.w3.org/2000/svg" xmlns:xlink="http://www.w3.org/1999/xlink" x="0px" y="0px"
	 viewBox="0 0 36 36" style="enable-background:new 0 0 36 36;" xml:space="preserve">
<style type="text/css">
	.st0{fill:#099EFF;}
	.st1{enable-background:new    ;}
	.st2{fill:#FFFFFF;}
</style>
<rect class="st0" width="36" height="36"/>
<g class="st1">
	<path class="st2" d="M13.7529297,20.2949219h2.8950195v1.1103516h-4.2402344v-7.2304688h1.3452148V20.2949219z"/>
	<path class="st2" d="M23.9970703,17.7900391c0,0.5302734-0.0878906,1.0166016-0.2646484,1.4599609
		s-0.4248047,0.8251953-0.7451172,1.1455078c-0.3203125,0.3193359-0.7050781,0.5683594-1.1552734,0.7451172
		c-0.4492188,0.1767578-0.9482422,0.2646484-1.4941406,0.2646484h-2.7602539v-7.2304688h2.7602539
		c0.5458984,0,1.0449219,0.0898438,1.4941406,0.2675781c0.4501953,0.1787109,0.8349609,0.4267578,1.1552734,0.7451172
		s0.5683594,0.6992188,0.7451172,1.1425781S23.9970703,17.2607422,23.9970703,17.7900391z M22.6220703,17.7900391
		c0-0.3964844-0.0527344-0.7519531-0.1591797-1.0673828c-0.1074219-0.3144531-0.2587891-0.5810547-0.4550781-0.7998047
		c-0.1972656-0.21875-0.4365234-0.3857422-0.7177734-0.5029297c-0.2822266-0.1162109-0.5996094-0.1748047-0.9521484-0.1748047
		h-1.4052734v5.0898438h1.4052734c0.3525391,0,0.6699219-0.0576172,0.9521484-0.1748047
		c0.28125-0.1162109,0.5205078-0.2841797,0.7177734-0.5019531c0.1962891-0.21875,0.3476562-0.4853516,0.4550781-0.8007812
		C22.5693359,18.5429688,22.6220703,18.1865234,22.6220703,17.7900391z"/>
</g>
</svg>
