<?xml version="1.0" encoding="utf-8"?>
<svg version="1.1" id="Layer_1" xmlns="http://www.w3.org/2000/svg" xmlns:xlink="http://www.w3.org/1999/xlink" x="0px" y="0px"
	 viewBox="0 0 20 20" xml:space="preserve">
<path d="M18.6,4.6L13.3,10l5.4,5.4c0.5,0.5,0.5,0.9,0,1.4l-1.9,1.9c-0.5,0.5-0.9,0.5-1.4,0L10,13.3l-5.4,5.4c-0.5,0.5-0.9,0.5-1.4,0
	l-1.9-1.9c-0.5-0.5-0.5-0.9,0-1.4L6.7,10L1.4,4.6c-0.5-0.5-0.5-0.9,0-1.4l1.9-1.9c0.5-0.5,0.9-0.5,1.4,0L10,6.7l5.4-5.4
	c0.5-0.5,0.9-0.5,1.4,0l1.9,1.9C19.1,3.7,19.1,4.4,18.6,4.6L18.6,4.6z"/>
</svg>
