<?xml version="1.0" encoding="utf-8"?>
<!-- Generator: Adobe Illustrator 25.2.3, SVG Export Plug-In . SVG Version: 6.00 Build 0)  -->
<svg version="1.1" id="genome_x5F_silhouettes" xmlns="http://www.w3.org/2000/svg" xmlns:xlink="http://www.w3.org/1999/xlink"
	 x="0px" y="0px" viewBox="0 0 2940 560" style="enable-background:new 0 0 2940 560;" xml:space="preserve">
<style type="text/css">
	.st0{fill:#1D1D1B;}
	.st1{fill-rule:evenodd;clip-rule:evenodd;}
	.st2{fill:#020203;}
</style>
<path d="M2329.6,511c0.1-0.2,0-0.6-0.5-1.4s-1.4-1-1.4-1c0,0.1,0.3,0.4,0.3,0.4c-0.5-0.2-0.7,0.2-0.7,0.2c-0.1,0-0.2-0.3-0.7-0.3
	c-0.4,0-0.7,0.3-0.7,0.3s-0.1-0.1-0.3,0s-0.4,0.8-0.5,0.8s0-0.2,0.1-0.4c0.1-0.2-0.6-0.5-0.9-0.6c-0.3-0.1-0.7,0-1.3,0.4
	c-0.5,0.4-1,0.9-1,0.9c0.1,0.2,0.6,0.3,0.6,0.3s-0.1,0.4-0.1,0.5s0,0.1-0.1,0.2c-0.1,0.2-0.5,0.6-0.7,0.9c-0.2,0.2-0.7,0.4-0.7,0.4
	c-0.1,0-0.2,0-0.2,0l0,0h0.1v0.1c0,0,0,0,0.1-0.1c0,0,0.4,0,0.9-0.6c0.5-0.5,0.7-0.9,0.7-0.9h0.1v0.1c0.1-0.2,0.3-0.6,0.3-0.6
	c0.5,0.2,0.9,0,0.9,0v0.5c0,0,0,0-0.4,0.6c-0.4,0.6-0.9,0.9-0.9,0.9c-0.1,0-0.1,0.1-0.1,0.1l0.1-0.1v0.1l0.1-0.1
	c0.7-0.3,1.2-1.4,1.2-1.4h0.1v0.1c0-0.1,0.1-0.8,0.1-0.8c0.2,0,0.6-0.3,0.6-0.3c0.1,0,0.4,0,0.4,0s0.1,0,0.2,0c0.1,0,0.2,0,0.3,0
	s0.1,0,0.1,0c0.3,0,0.4-0.3,0.4-0.3c0.2-0.1,0.5-0.4,0.4-0.4c0,0-0.2,0.4-0.2,0.5s0,0.1,0.1,0.1s0.1,0,0.2,0c0.1,0,0.3-0.1,0.5-0.3
	c0.2-0.1,0.4-0.3,0.4-0.2s0.2,0.3,0.3,0.5c0.1,0.3,0.2,0.9,0.2,0.9c-0.1,0.2,0,0.3,0,0.3c-0.1-0.2,0-0.2,0-0.2s0.1,0,0.2,0.1
	c0.1,0.1,0.3,0.5,0.6,0.8s0.7,0.4,0.8,0.4s0.3,0-0.2-0.1s-0.9-0.7-1-0.9c-0.1-0.2-0.3-0.3-0.3-0.3s0,0,0-0.1s-0.3-1-0.3-1
	c0.2,0.1,0.5,0.2,0.5,0.2c-0.1,0.1,0,0.2,0,0.2s0-0.2,0.2-0.2c0.2,0.1,0.2,0.3,0.2,0.3c0.3-0.2,0.1-0.4,0.1-0.4s0.2-0.1,0.1-0.5
	c-0.1-0.4-0.4-0.7-0.4-0.7c-0.1-0.2-0.5-0.6-0.5-0.6c0.3,0.1,0.6,0.3,1,0.7C2329.2,509.9,2329.6,511,2329.6,511z M2326.8,510
	c-0.1,0.1-0.3,0.2-0.3,0.2s0.1-0.1,0.1-0.2s0-0.1,0-0.1s0.3-0.2,0.4-0.3c0.1-0.1,0.2-0.2,0.2-0.1l0,0c0,0,0,0.3,0,0.4
	C2327.2,509.9,2327,509.9,2326.8,510z"/>
<path class="st0" d="M2296,511.9c-0.2-0.1-0.3-0.1-0.5-0.2c-0.1-0.1-0.3-0.1-0.4-0.2l-0.1-0.1l0,0c0.1,0,0.1,0.1,0.2,0.1
	c0.1,0,0.3,0.1,0.4,0c0,0,0,0,0.1,0c0,0,0.1,0,0.1-0.1c0,0-0.1,0-0.2,0c-0.1,0-0.2-0.1-0.3-0.1s-0.2-0.1-0.2-0.1
	c-0.1,0-0.1-0.1-0.2-0.1c-0.1-0.1-0.2-0.2-0.3-0.3c-0.1-0.1-0.2-0.2-0.4-0.3c-0.1-0.1-0.3-0.2-0.4-0.3c-0.1,0-0.1-0.1-0.2-0.1
	c-0.1,0-0.2-0.1-0.3-0.1c-0.1-0.1-0.3-0.1-0.4-0.2l0.3-0.4l0.1-0.1c0-0.1,0.1-0.2,0.1-0.2c0-0.1,0.1-0.2,0.1-0.3
	c0-0.1,0.1-0.2,0.1-0.3c0-0.1,0-0.1,0-0.2c0,0,0,0,0.1-0.1c0.2-0.2,0.4-0.3,0.6-0.4c0.2-0.1,0.3-0.3,0.5-0.4
	c0.1-0.1,0.1-0.2,0.2-0.2c0,0,0,0,0-0.1l0.1-0.1l0,0l0,0c0-0.1,0-0.3-0.1-0.4s-0.2-0.2-0.3-0.3c0,0-0.1,0-0.1-0.1
	c-0.1-0.1-0.2-0.1-0.3-0.1c-0.2,0-0.4,0-0.7,0c0,0,0,0-0.1,0s-0.3,0-0.4,0l-0.1-0.1c-0.1-0.1-0.1-0.1-0.2-0.2
	c-0.1-0.1-0.3-0.1-0.5-0.1s-0.3,0.1-0.4,0.2c0,0-0.1,0.1-0.1,0.2c-0.1,0-0.1,0-0.2,0c-0.4,0-0.7,0.3-0.7,0.6l0,0l-0.1,0.1
	c-0.1,0-0.1,0.1-0.2,0.1c-0.1,0-0.1,0.1-0.2,0.1c-0.1,0-0.2,0.1-0.3,0.1l-0.1,0.1c-0.1,0.1-0.1,0.1-0.2,0.2
	c-0.2,0.1-0.3,0.2-0.5,0.3c-0.1,0.1-0.2,0.2-0.3,0.2s-0.2,0-0.4,0c-0.3,0-0.7,0-1.1,0.2c-0.1,0-0.3,0.1-0.3,0.2
	c-0.1,0.1-0.1,0.2-0.2,0.2c0,0,0,0-0.1,0.1c0,0,0,0-0.1,0s-0.1,0.1-0.2,0.1c-0.1,0-0.3,0.1-0.4,0.1c-0.2,0.1-0.5,0.1-0.7,0.3
	c-0.1,0.1-0.2,0.2-0.2,0.3c0,0.1,0,0.2,0,0.4c0,0,0,0.1,0.1,0.1c0,0.1,0.1,0.1,0.2,0.2c0,0,0,0,0,0.1c-0.1,0.1-0.2,0.3-0.3,0.4
	c0,0-0.1,0.1-0.1,0.2c-0.3,0-0.5,0.1-0.8,0.2c-0.4,0.2-0.5,0.7-0.4,1.2c0.1,0.4,0.3,0.8,0.6,1.2c0.3,0.5,0.8,0.5,1.3,0.5h0.1l0,0
	c0.2,0.1,0.4,0.1,0.6,0.2c0.2,0.1,0.4,0.2,0.6,0.3c0.1,0.1,0.2,0.1,0.2,0.2c0,0.1,0,0.1,0,0.2c0.1,0.1,0.1-0.1,0.1-0.1
	c0-0.1,0-0.2-0.1-0.3l0,0c0-0.1,0.1-0.2,0.2-0.2c0.2-0.1,0.4-0.1,0.6-0.1c0.1,0,0.3,0,0.4,0c0.1,0,0.2,0,0.3,0.1
	c0.2,0.1,0.3,0.3,0.4,0.4c0.1,0.1,0.2,0.2,0.2,0.3s0,0.1-0.1,0.2c0,0.2,0.1,0.3,0.2,0.1c0.1-0.1,0.2-0.4,0.1-0.5
	c-0.1-0.1-0.2-0.1-0.2-0.2c-0.1-0.1-0.1-0.2-0.2-0.3c-0.2-0.2-0.5-0.2-0.7-0.3l0,0c-0.2-0.1-0.3-0.1-0.5-0.2c-0.1,0-0.1,0-0.2-0.1
	l0,0c0.1-0.1,0.2-0.3,0.2-0.4v-0.1l0.1,0.1c0.1,0.1,0.2,0.1,0.3,0.1c0.3,0,0.6,0,0.9-0.1c0.3-0.1,0.5-0.3,0.7-0.4
	c0.1-0.1,0.2-0.2,0.3-0.3c0,0,0.1,0,0.1-0.1c0,0.1,0.1,0.2,0.1,0.3s0,0.1,0.1,0.2c0,0,0,0,0.1,0.1c0,0,0.1,0.1,0.1,0.2
	c0.1,0.1,0.2,0.2,0.3,0.4c0.1,0.1,0.1,0.1,0.1,0.2c0.1,0.1,0.1,0.2,0.2,0.2c0.1,0.2,0.2,0.3,0.4,0.4c0.2,0.1,0.3,0.3,0.5,0.4
	c0.3,0.2,0.6,0.2,0.9,0.3c0.2,0.1,0.2,0.2,0.4,0.3c0.1,0,0.1,0,0.2,0.1c0,0.1,0.1,0.1,0.2,0l0,0c0.1-0.1,0-0.2,0-0.2
	c0-0.1-0.1-0.1-0.1-0.1s0,0-0.1,0c0.1,0,0.1,0,0.2,0c0.1,0,0.3,0,0.4,0c0.1,0,0.4-0.2,0.5,0c0,0.1,0,0.2,0.1,0.1
	c0.1,0,0.1-0.1,0-0.2l-0.1-0.1c-0.1-0.1-0.3-0.1-0.5-0.1s-0.5,0-0.7-0.1l0,0l0,0c-0.1-0.1-0.3-0.1-0.4-0.2c-0.2-0.2-0.3-0.4-0.5-0.6
	c-0.1-0.2-0.2-0.4-0.3-0.6c-0.1-0.2-0.2-0.3-0.3-0.5c-0.1-0.1-0.2-0.2-0.3-0.3s-0.1-0.2-0.1-0.3c0-0.2-0.1-0.3-0.1-0.5v-0.1
	c0.1-0.1,0.1-0.3,0.2-0.4c0.1-0.1,0.2-0.3,0.2-0.4c0,0,0,0,0-0.1c0.1,0,0.1,0,0.2,0.1c0.1,0.1,0.3,0.1,0.4,0.2c0,0,0,0,0.1,0
	c0.2,0.1,0.5,0.2,0.8,0.2c0,0,0,0.1-0.1,0.1c0,0.1-0.1,0.1-0.1,0.2c-0.1,0.1-0.1,0.2-0.1,0.3s0,0.2,0,0.3h-0.1
	c-0.1,0-0.1,0.1-0.2,0.2c0,0.1,0,0.2,0.1,0.2c0,0,0.1,0,0.1-0.1s0-0.1,0.1-0.1s0.1,0,0.2,0c0.1,0,0.1-0.1,0.2-0.2
	c0.1-0.1,0.2-0.1,0.2-0.2c0.1-0.1,0.1,0,0.2,0.1c0.1,0.1,0.1,0.1,0.2,0.2l0.1,0.1h0.1c0,0.1,0,0.1,0.1,0.1s0.2-0.1,0.1-0.2
	c-0.1-0.1-0.2-0.1-0.2-0.2c0,0,0,0,0-0.1c0,0,0,0,0.1,0s0.2,0,0.2,0c0.1,0,0.3,0.1,0.4,0.1c0.2,0,0.3,0,0.5,0.1c0,0,0,0,0.1,0h0.1
	h0.1C2296.2,512,2296.1,512,2296,511.9z"/>
<path d="M2255.7,515.6c0,0-0.1-0.4-0.2-0.4c-0.2-0.1-0.6-0.2-0.6-0.2s0.1-0.4,0.1-0.9s-0.2-1.2-0.1-1.4c0-0.1-0.2-1-0.4-1.5
	c-0.2-0.6-1-1.4-1-1.4s-0.6-1.8-1.1-2.6c-0.5-0.8-1.5-1.4-2.1-1.6c-0.5-0.2-2-0.3-2.6-0.3s-2.4,0.6-2.7,0.9s-1.5-1-1.6-1.1
	s-1.7-1.9-2.2-2.6c-0.4-0.5-1.1-1.4-1-2.8c0.1-1-0.1-1-0.2-0.8c-0.1,0.2-0.1,1.3-0.1,1.7c0,0.9,0.8,2.3,1,2.7
	c0.2,0.4,1.1,1.5,1.7,2.2c0.2,0.3,1.5,1.5,1.4,1.8c-0.1,0.2-0.9,1.2-1.2,1.4c-0.2,0.2-0.7,0.6-1,0.7c-0.2,0.1-0.7,0.3-0.8,0.8
	c-0.1,0.4-0.4,0.9-0.4,1s-0.1,0.4-0.2,0.6c-0.1,0.1-0.6,0.7-0.4,0.9c0.2,0.1,0.3-0.2,0.4-0.2c0,0,0.1,0.2,0.1,0.4
	c0.1,0.2,0.1,0.4,0.2,0.3c0.1-0.1,0.2-0.6,0.2-0.6s0.2,0.4,0.4,0.5c0.1,0.1,0.2-0.2,0.2-0.2s-0.4-0.8,1.6-0.3
	c0.2,0.1,1.2,0.2,1.3,0.3s0.6,1.2,0.7,1.2c0.1,0.1,0.5,0.4,0.5,0.6s-0.1,0.6,0,0.7c0,0.2,0,0.5,0,0.9s-0.1,0.7,0.2,0.9
	c0,0,0.9,0.4,1.3,0.3c0.5-0.1,0.7-0.4,1-0.4s1.4-0.1,1.8-0.2c0.4-0.1,1-0.2,1.3-0.5c0.3-0.2,0.9-0.2,1.2-0.2
	c0.2-0.1,0.5-0.2,0.9-0.5s0.7-0.7,0.7-0.7s0.1,0.7-0.1,0.9c-0.1,0.2,0,0.1,0.2,0.1s0.2,0.1,0.2,0.2c0,0.1,0.1,0.4,0.2,0.2
	c0.2-0.1,0.1-0.4,0.1-0.4s0.5,0.1,0.6,0.2s0.2,0.2,0.2,0.1s0.2,0.1,0.2-0.2C2255.9,515.8,2255.7,515.6,2255.7,515.6z"/>
<path d="M2208.8,499.7c-0.1-0.2-0.4-0.4-0.9-0.5c-0.1,0-0.3-0.1-0.3-0.1c-0.1,0-0.3-0.1-0.5-0.2s-0.4-0.2-0.6-0.3
	c-1.5-0.7-1.9-1-3.3-1c-1.3,0-1.5-0.1-1.6-0.5c-0.1-0.5-0.5-1-1-1l0,0c-0.1,0-0.1,0-0.2,0c-0.2,0.1-0.4,0.3-0.4,0.4
	c0,0-0.1,0.1-0.3,0.2c-0.1,0.3-0.3,0.4-0.3,0.5c-0.1,0.2-0.3,0.4-0.4,0.4s-0.1,0-0.1,0.1c0,0-0.2,0.1-0.5,0.1c-0.2,0-0.4,0-0.4,0.1
	h-0.1c-0.1,0-0.1,0-0.1,0.1s-0.1,0.2-0.3,0.2c-0.1,0-0.3,0.1-0.4,0.3c-0.1,0.1-0.1,0.1-0.3,0.1c-0.1,0-0.2,0-0.2,0.1
	c0,0-0.1,0.1-0.1,0c0,0-0.3,0.1-0.3,0.2s-0.1,0.1-0.3,0.1c-0.1,0-0.1,0-0.2,0c0,0.1-0.3,0.2-0.4,0.2s-0.1,0-0.2,0c0,0-0.1,0-0.2,0
	s-0.2,0-0.2,0s-0.2,0.1-0.4,0.1c-0.3,0-0.4,0-0.9-0.2c-0.3-0.1-0.5-0.2-0.6-0.2s-0.3,0-0.5-0.1c-0.2,0-0.4-0.1-0.6-0.1
	s-0.6-0.1-1-0.2c-0.1,0-0.3-0.1-0.4,0c-0.1,0-0.2,0-0.3,0c-0.2-0.1-0.5-0.1-0.9,0c-0.2,0-0.3,0-0.3,0c-0.1-0.1-0.1-0.1-0.1,0
	c0.1-0.1,0-0.1-0.7-0.1c-0.6,0-1,0-1.1-0.1s-0.1-0.1-0.3,0c0,0.1-0.1,0.1-0.2,0.2c-0.1,0-0.3,0-0.4,0.1c-0.1,0-0.3,0.1-0.3,0.1
	s-0.2,0.1-0.3,0.1c-0.1,0.1-0.3,0.1-0.4,0.1s-0.3,0.1-0.4,0.1c-0.1,0.1-0.2,0.2-0.3,0.2s-0.1,0-0.1,0s0,0.1-0.1,0.1
	s-0.1,0.1-0.1,0.1c0,0.1,0,0.2-0.4,0.3c-0.1,0.1-0.3,0.1-0.3,0.2l-0.1,0.1c0,0-0.1,0.1-0.2,0.2c-0.1,0.1-0.4,0.2-0.6,0.4
	c-0.5,0.2-0.6,0.3-0.5,0.3l-0.1,0.1c-0.2,0.1-0.6,0.4-0.6,0.4s-0.1,0.1-0.2,0.1c-0.2,0.1-0.4,0.4-0.3,0.4s0.1,0.1-0.2,0.3
	c-0.1,0.1-0.3,0.2-0.3,0.2s-0.2,0.1-0.3,0.2c-0.2,0.1-0.2,0.2-0.2,0.3s0,0.1-0.1,0.2c-0.1,0-0.1,0.1-0.1,0.1v0.1v0.1v0.1l-0.1,0.1
	c0,0-0.1,0.2-0.1,0.3c-0.1,0.2-0.1,0.2-0.1,0.2s-0.1,0.1-0.3,0.3s-0.3,0.4-0.4,0.5c-0.1,0.1-0.1,0.2,0,0.2c0.1,0.1,0.1,0.1,0,0.2
	s-0.1,0.1-0.1,0.2s0,0.1,0,0.1s-0.1,0.1-0.2,0.2c-0.2,0.4-0.2,0.4-0.1,0.4c0.1,0,0.2,0.1,0,0.2s0,0.1,0.2,0c0.1-0.1,0.2-0.1,0.2-0.1
	s-0.1,0.2-0.2,0.3c-0.2,0.2-0.2,0.3-0.2,0.3c0.1,0,0.1,0.1,0,0.2c-0.1,0.2-0.1,0.5-0.1,0.5c0.1,0,0.1-0.1,0.2-0.1
	c0.1-0.1,0.2-0.1,0.2,0c0,0,0,0.1,0,0.2c-0.1,0.1-0.1,0.1,0.1,0.1c0.1,0,0.1,0,0.1,0.1c-0.1,0.5-0.1,1.5,0,1.6c0,0,0.1,0.1,0,0.1
	c0,0.1,0,0.1,0.1,0.1s0.1,0,0.1,0.2c0,0.3,0,0.4,0.1,0.3c0,0,0.1,0,0.1,0.1s0,0.2,0,0.3s0,0.1,0,0.2c0,0,0,0.1,0,0.2s0,0.2,0,0.2
	s0,0.3,0,0.5c0,0.7,0,0.9-0.1,0.9s0,0.1,0.1,0.1s0.1,0,0,0.1c0,0.1,0.5,0.5,0.6,0.7c0.1,0.1,0.2,0.6,2.7,0.9
	c16.2,1.3,26.1,0.2,26.6-0.1c0.5-0.1,0.5-0.2,0-0.2c0,0-4.9,0.6-17.9-0.2l-3.7-0.4c0,0,3.7,0.1,4.4,0.1c0.1,0,0.3,0,0.5,0s1,0,1.3,0
	c0.6-0.1,0.7-0.1,0.7-0.3c0-0.1,0.1-0.1,0.1-0.2c0.1-0.1,0.1-0.1,0.1-0.1l-0.3-0.2l-0.2-0.1c-0.1,0-0.7-0.1-0.7-0.1s-0.2,0-0.4,0.1
	c-0.2,0-0.1,0.1-0.2,0.1c-0.2,0-0.6,0-0.6-0.2c0-0.3,0-0.3,0-0.4c0-0.4,0-0.5,0-0.9c0-0.3,0-0.4,0.1-0.3s0.1,0,0.1-0.1
	s0-0.2,0.1-0.1s0.3-0.1,0.5-0.3c0.2-0.3,0.2-0.3,0.6-0.3c0.2,0,0.3,0,0.5-0.2s0.3-0.2,0.5-0.2c0.1,0,0.2,0,0.2,0s0.2,0,0.3,0
	c0.2,0,0.3,0,0.4-0.1c0.1-0.1,0.1-0.1,0.2-0.1s0.2,0,0.3-0.1c0.2-0.1,0.2-0.1,0.3-0.1c0.1,0.1,0.3,0.1,0.4,0.1c0,0,0.1,0,0.2,0
	s0.2,0.1,0.4,0.3c0.1,0.1,0.3,0.2,0.3,0.2l0.1,0.1c0,0.1,0.1,0.2,0.2,0.2c0.3,0.3,0.3,0.3,0.4,0.4c0.1,0.2,0.5,0.9,0.7,1
	s0.7,0.9,1,1s0.6,0,1,0.1l0.2,0.2c0.1,0.1,0.1-0.1,0.2-0.1c0.2,0.1,0.3,0.4,0.5,0.4h1c0.5,0,1,0.1,1.4,0c0.3-0.1-0.1-0.4-0.4-0.5
	c-0.5-0.1-0.9-0.7-1-0.7c-1.3-0.5-1.1-0.3-1.5-1.2c-0.1-0.2-0.2-0.4-0.3-0.6s-0.2-0.3-0.2-0.3c-0.1-0.1-0.1-0.3-0.1-0.5
	c0-0.4-0.1-0.7-0.1-1.2c0-0.1,0-0.3,0-0.5l0.1-0.4c0-0.1,0-0.1,0.1-0.2l0.1-0.1c0,0,0.1-0.1,0.2-0.3s0.2-0.4,0.2-0.5
	s0.1-0.2,0.2-0.2s0.1,0,0.1-0.1s0-0.1,0-0.1s0,0,0-0.1s0-0.1,0.1-0.1s0.1,0,0.1-0.1c0,0,0-0.2,0.1-0.3c0-0.2,0.1-0.2,0.1-0.2
	c0.1,0,0.1,0,0.1-0.1s0.1-0.2,0.1-0.2c0.1-0.1,0.1-0.2,0.1-0.3c-0.1-0.2-0.1-0.2,0.1-0.2c0.1,0,0.1,0,0.1-0.1
	c-0.1-0.2-0.1-0.3,0.1-0.3c0.1,0,0.2,0,0.3-0.1c0.1-0.2,0.5-0.3,0.5-0.3s0.2,0,0.3-0.1c0.2-0.1,0.4-0.1,0.6-0.1s0.4,0,0.5-0.1
	c0.1,0,0.1,0,0.2,0s0.1,0,0.2-0.1s0.1-0.1,0.4-0.1c0.6,0,0.6-0.2,0.7-0.2c0.3-0.1,0.6-0.1,0.7-0.3c0-0.1,0-0.2,0-0.2s0.3,0,0.4-0.1
	c0.2,0,0.3-0.1,0.4-0.1s0.2-0.1,0.2-0.1c0.1,0,0.1-0.1,0.2-0.1l0.1-0.1c0.1,0,0.9-0.4,0.9-1c0-0.1,0.1-0.2,0.2-0.3l0,0
	C2208.9,500.4,2208.9,499.9,2208.8,499.7z"/>
<path d="M2137.7,503.4c-0.1-0.4-0.3-0.8-0.7-1c-0.1-0.1-0.1-0.1-0.2-0.2c-0.2-0.1-0.3-0.3-0.5-0.4c-0.1-0.1-0.3-0.1-0.4-0.1
	c-0.4-0.3-0.9-0.4-1.4-0.4c-0.1,0-0.2,0.1-0.3,0.1c-0.4,0.2-0.7,0.3-1.1,0.5c-0.1,0-0.2,0.1-0.3,0.1c-0.2-0.1-0.3,0.1-0.4,0.2
	c-0.2,0.2-0.4,0.3-0.5,0.5c0,0,0,0-0.1,0c0.2-0.8,0.5-1.5,0.2-2.4h0.1c0.1-0.1,0.2-0.2,0.3-0.2c0,0.1,0,0.2,0.1,0.3h0.1
	c0-0.1,0-0.1,0-0.2c0.3-0.2,0.6-0.4,0.9-0.5c0.4-0.2,0.5-0.4,0.4-0.9c-0.1-0.1,0-0.2,0.2-0.2c0.1,0,0.2,0.1,0.4,0.1
	c0-0.1,0-0.1-0.1-0.2c0.1,0,0.2,0.1,0.2,0.1c0.1-0.1,0.2-0.2,0.2-0.3v-0.1c-0.2-0.2-0.1-0.5-0.3-0.8c-0.1-0.1-0.2-0.3-0.3-0.4
	c-0.1-0.3-0.5-0.1-0.5-0.5l0,0c-0.1,0-0.1-0.1-0.2-0.1s-0.1-0.1-0.2-0.2c-0.3-0.2-0.6-0.3-0.9-0.5c-0.2-0.2-0.5-0.2-0.8-0.2
	c-0.1,0-0.2,0-0.3,0s-0.2,0.1-0.3,0.1c-0.1-0.4-0.2-0.7-0.5-1c-0.3-0.2-0.3-0.3,0-0.6c0.1-0.1,0.2-0.2,0.2-0.3c0-0.1,0-0.2-0.1-0.3
	c-0.1-0.2-0.2-0.3-0.3-0.5c-0.1-0.1-0.3-0.2-0.4-0.3c-0.2-0.1-0.4-0.2-0.6-0.3l0,0c-0.3-0.1-0.6-0.1-0.9-0.2
	c-0.4-0.2-0.8-0.4-1.3-0.4c-0.4,0-0.8-0.1-1.1,0c-0.1,0-0.2,0-0.3-0.1c-0.2-0.4-0.6-0.3-0.9-0.5c-0.3-0.1-0.7-0.1-1-0.2
	s-0.6-0.2-0.9-0.2c-0.1,0-0.3-0.1-0.4-0.1c-0.3,0-0.6,0.1-0.9,0.1c-0.2,0-0.3,0.1-0.5,0.1c-0.2,0.1,0,0.1-0.3,0.2
	c-0.2,0-0.3,0.1-0.5,0.2s-0.5,0.2-0.8,0.2c-0.1,0-0.2,0.2-0.3,0c-0.1,0.1-0.2,0.2-0.4,0.3c-0.2,0.1-0.4,0.3-0.5,0.4
	c-0.2,0.3-0.5,0.6-0.4,1.1c0.1,0.4,0.3,0.7,0.8,0.8c0.2,0,0.3,0.1,0.5,0.1c-0.2,0.2-0.1,0.3,0,0.4s0.2,0.2,0.2,0.4
	c0.1,0.2,0.3,0.3,0.4,0.2c0.1,0,0.3-0.1,0.4,0c0.3,0.2,0.6,0.4,0.8,0.6c0.1,0.1,0.2,0.2,0.2,0.4c0.1,0.4,0.1,0.8,0.3,1.2
	c0.1,0.1,0.1,0.3-0.1,0.4c-0.2,0.1-0.3,0.1-0.5,0.1l0.1-0.1c-0.2-0.2-0.4-0.3-0.6-0.5c-0.4-0.3-0.8-0.5-1.2-0.5
	c-0.2,0-0.3-0.2-0.5-0.2c-0.4,0-0.7,0-1.1,0.1c-0.3,0.1-0.6,0.1-0.9,0.2c-0.3,0.2-0.6,0.4-0.8,0.6c-0.3,0.3-0.4,0.6-0.4,1
	c0,0.5,0.3,0.7,0.6,1c0.2,0.1,0.3,0.3,0.5,0.4h0.1c0.5,0,0.9,0.3,1,0.8c0.1,0.2,0.2,0.4,0.3,0.6s0.2,0.5,0.4,0.7c0,0,0,0.1,0.1,0.2
	c0,0.1,0.1,0.2,0.1,0.2c0.1,0.1,0.1,0.2,0.2,0.2c0.2,0.3,0.3,0.7,0.4,1c-0.1,0-0.1,0.1-0.2,0.1c-0.3,0-0.5,0.1-0.7,0.2
	c-0.3,0.2-0.6,0.4-0.7,0.7c0,0.1-0.1,0.2,0.1,0.4c0.2,0.2,0.3,0.4,0.5,0.5s0.3,0.4,0.4,0.6c0.2,0.4,0.4,0.8,0.6,1.1
	c0.1,0.2,0.2,0.3,0.2,0.5c0,0.3,0,0.6,0.1,0.9c0.1,0.4,0.2,0.8,0.3,1.2c0,0.2,0,0.5,0.1,0.7c0,0.1,0.1,0.1,0.1,0.2c0,0,0,0,0.1,0
	c0,0.2-0.1,0.2-0.3,0.3c-0.1,0-0.2,0-0.3-0.1c0.1,0,0.1-0.1,0.2-0.1c0,0,0,0,0-0.1c-0.4-0.1-0.8,0-1.1-0.3s-0.6-0.5-0.9-0.9
	c0.1,0,0.2-0.1,0.2-0.1c-0.3,0-0.4-0.1-0.5-0.3c-0.2-0.4-0.3-0.8-0.4-1.1c0,0,0,0,0,0.1l0,0c-0.2-0.6-0.6-1.2-0.6-2v-0.1
	c-0.3-0.4-0.4-0.9-0.3-1.3c0-0.2,0-0.3-0.1-0.5c-0.1-0.3,0.1-0.7,0.4-0.7c0.1,0,0.2,0,0.2-0.1c0.1-0.1,0.1-0.1,0.2-0.2
	c-0.1-0.1,0-0.2,0.1-0.3c0.2-0.1,0.3-0.3,0.5-0.4s0.2-0.3,0.2-0.5c-0.2-0.5-0.5-0.9-1.1-1.1c-0.1,0-0.1-0.1-0.2-0.1
	c-0.1-0.1-0.1-0.1-0.2-0.2c-0.5-0.2-1-0.4-1.5-0.6c-0.1,0-0.1-0.1-0.2-0.1c-0.2,0-0.3,0.1-0.5,0.1s-0.3,0.1-0.5,0.1
	c-0.3,0.2-0.2,0.2-0.3,0.2c-0.1,0.1-0.3,0.1-0.4,0.2c-0.1,0.1-0.2,0.3-0.5,0.3l-0.1,0.1c0,0.1-0.1,0.1-0.2,0.2
	c-0.2,0.1-0.3,0.3-0.3,0.5v0.1c-0.2,0.3,0,0.6,0.3,0.7c0.1,0,0.3,0,0.2,0.2c0,0,0,0,0.1,0c0.1,0.1,0.2,0.1,0.3,0.2
	c0.4-0.3,0.7-0.2,0.8,0.3c0,0.1,0.1,0.1,0.1,0.2s0.1,0.2,0.1,0.2c-0.1,0.2,0,0.2,0.1,0.3c0.1,0,0.2,0.2,0.2,0.2c0,0.4,0.1,0.7,0.3,1
	c0.1,0.2,0.2,0.5-0.1,0.7c0.3,0.1,0.4,0.4,0.3,0.7c0,0.1,0,0.2,0.1,0.3c0.2,0.2,0.3,0.4,0.2,0.6c0.1,0.1,0.2,0.2,0.2,0.3
	c0.1,0.3,0.2,0.6,0.3,0.9c0.2,0.6,0.4,1.1,0.7,1.7c0.3,0.7,0.7,1.3,1.3,1.8c0.5,0.4,1,0.9,1.6,1.2c0.4,0.2,0.5,0.6,0.8,0.9
	c0,0,0,0.1,0,0.2c0,0.3,0,0.5,0.3,0.6c0.2,0.1,0.5,0.2,0.7,0c0.1,0,0.2,0,0.3,0s0.2,0.1,0.3,0.1c0.7-0.1,1.4,0.2,2.1,0.1
	c0.7,0,1.4-0.1,2-0.3c0.4-0.2,0.7-0.2,1.1-0.3c0.4,0,0.8-0.2,1.2-0.1c0.8,0.2,1.7,0.1,2.5,0c0.2,0,0.5,0,0.6,0.1
	c0.2,0,0.3-0.1,0.4-0.1c0.3-0.1,0.7-0.1,1-0.2c0.3-0.1,0.6-0.2,0.9-0.4c0.4-0.2,0.8-0.4,1.1-0.8c0.1-0.1,0.1-0.1,0.2-0.2
	c0.1-0.1,0.2-0.1,0.2-0.2c0.1-0.2,0.2-0.5,0.2-0.7c0.1-0.4,0.1-0.5,0.3-0.8c0.1-0.1,0.1-0.2,0.1-0.3c0-0.2,0-0.5,0-0.7
	s0.1-0.4,0.1-0.5c0-0.4,0.1-0.7,0.1-1.1c0.1-0.6,0.2-1.3,0.2-1.9c0-0.1,0.1-0.2,0.1-0.4c0-0.2-0.1-0.4-0.1-0.6s0.2-0.4,0.2-0.6
	c0.1,0.1,0.2,0.1,0.2,0.1c0.1,0,0.1-0.1,0.2-0.2c0-0.1,0-0.2,0.1-0.3c0-0.1,0.1-0.2,0.2-0.2c0.4-0.2,0.9-0.4,1.3-0.7l0.1-0.1
	C2137.6,503.9,2137.7,503.7,2137.7,503.4z M2120.7,503c-0.3-0.7-0.6-1.3-0.9-2c-0.1-0.2-0.2-0.3-0.2-0.5c0-0.1,0-0.3,0.1-0.5h0.1
	c0.1,0.1,0.2,0.3,0.3,0.4c0,0,0,0.1,0,0.2s0,0.2,0,0.2c0.1,0,0.2,0,0.3,0l0.1-0.1c0.1,0,0.2,0.1,0.2,0.1c0.1,0.4,0.2,0.7,0.2,1.1
	c0.1,0.3,0.1,0.6,0.1,0.9c0,0.2,0,0.4,0.1,0.6C2120.9,503.4,2120.8,503.2,2120.7,503z M2125.3,497.3c-0.2,0-0.2,0.1-0.1,0.2
	c0.1,0.2,0.1,0.2,0,0.4c-0.1,0.2-0.1,0.4,0,0.5c0,0,0,0.1,0,0.2c-0.1,0-0.2,0-0.2-0.1c-0.2-0.2-0.4-0.2-0.6-0.2
	c-0.1,0-0.3-0.1-0.4-0.1c-0.1,0-0.1,0-0.2,0c-0.2,0.1-0.2,0-0.2-0.2s-0.1-0.4-0.1-0.5s0-0.2,0-0.4c0-0.2,0-0.3,0-0.4
	c0-0.3-0.1-0.6,0.1-0.9c0-0.1,0.2-0.1,0.2-0.1c0.2,0.3,0.5,0.2,0.8,0.3c0.2,0.1,0.3,0.1,0.3,0.3c0,0.2,0.2,0.3,0.3,0.5
	c0,0.1,0.1,0.1,0.1,0.2C2125.3,497.1,2125.3,497.2,2125.3,497.3z M2128.3,505c-0.3,0.2-0.5,0.5-0.8,0.7c-0.2,0.2-0.6,0-0.7-0.2
	c-0.2-0.6-0.1-1.2,0-1.8c0.1-0.4,0.1-0.8,0.2-1.1c0.1-0.3,0.1-0.5,0.2-0.8c0.1-0.3,0.1-0.6,0.2-0.9c0-0.1,0-0.1,0.1-0.2
	c0.1,0.1,0.1,0.1,0.1,0.1c0-0.7,0.2-1.4,0.4-2c0.1-0.3,0.3-0.4,0.6-0.3c0,0.2,0,0.4,0,0.6c0,0.3,0.1,0.5,0.4,0.7h0.1
	c0.1,0,0.2,0,0.2,0.1c0.1,0.3,0.2,0.3,0.5,0.4c0.1,0,0.2,0.2,0.2,0.3c0.1,0.2,0.1,0.3,0.2,0.5v0.1c0,0.2,0,0.3-0.1,0.5
	c-0.1,0.3-0.1,0.5-0.2,0.8c-0.1,0.3-0.2,0.6-0.3,0.9C2129.2,503.8,2128.9,504.5,2128.3,505z M2133.4,506.3c-0.1,0.3-0.2,0.6-0.2,0.9
	c0.1,0.5-0.1,0.9-0.2,1.3c0,0.3-0.1,0.5-0.2,0.8c0,0.2-0.1,0.3-0.2,0.5v0.1c0.2,0.2,0,0.3,0,0.4c-0.1,0.2-0.2,0.4-0.2,0.6
	c0,0.1-0.1,0.1-0.2,0.2c-0.1,0-0.1,0.1-0.2,0.1c-0.1,0-0.2,0.1-0.4,0.1c-0.1,0-0.2-0.1-0.3,0.1h-0.1c-0.1,0-0.3,0-0.4-0.1
	c-0.1,0-0.1-0.2-0.2-0.3c-0.1,0-0.2,0.1-0.2,0.2c-0.1,0.2-0.2,0.1-0.3,0c-0.2-0.1-0.4-0.2-0.6,0c-0.1,0.1-0.4,0-0.5-0.1
	s-0.2-0.3-0.3-0.4c0.2-0.2,0.4-0.4,0.6-0.6c0.1-0.1,0.3,0,0.5,0.1c0.1,0,0.2-0.1,0.3-0.1c-0.1,0-0.2-0.1-0.2-0.1
	c0-0.2,0.1-0.4,0-0.6c-0.1-0.1-0.1-0.2,0-0.3c0.1-0.4,0.3-0.9,0.4-1.3c0.1-0.2,0.2-0.5,0.3-0.7c0-0.1,0-0.2,0.1-0.4
	c0.2-0.7,0.4-1.3,0.6-2c0.1-0.4,0.2-0.7,0.4-1.1c0.1,0.2,0.2,0.3,0.3,0.4c0.2-0.1,0.4,0,0.5,0.2s0.2,0.3,0.4,0.3
	c0.1,0,0.2,0.1,0.2,0.1c0.2,0.2,0.3,0.4,0.4,0.6C2133.5,505.7,2133.5,506,2133.4,506.3z"/>
<path class="st1" d="M2075.7,465.2l-0.9,0.6l-0.8,0.5c-4.7,1.2-10.8,6.9-13,11.4c-1.1,2.2-1.6,3.8-1.9,3.7c-0.1,0-1,0.1-1.2-0.1
	c-0.9-0.5-1.5-1.9-1.6-4.8c-0.1-4.4-2-8.9-6.2-10.9c-0.5-0.5-1.7-1.2-2.2-1.7c-0.7-0.5-2.1-0.6-2.6,0.1c-0.6,0.7-0.5,2.1-0.5,3v0.4
	c-0.5,1.4,0,5.4,0.5,6.9s1.3,3.1,1.9,3.8l0.6,0.7c0.8,1.2,1.7,1.4,2.1,2.4c0.1,0.4,0.3,0.8,0.4,1.2c0.4,2,0.5,1.3,0.4,2
	c-0.2,1-0.7,1.2-1.2,1c-5.2-2.3-9.2-3.7-14-2.8c-1.6,0.3-5.2,1.3-6.6,2c-1.7,0.9-3.3,2.3-4.7,4.5c-2.2,3.3-1.9,3.8-2.5,7.7
	c-0.2,2.6-0.7,7,1.6,9.7l0,0c-0.7,0.7-0.3,2.2-0.2,3.2c0.1,1.5-0.5,3.7,1.3,4.6l0.2,0.1l1.7,0.6c0.7,0.1,0.8,0.1,1.5,0.4
	c0.4,0.2,0.8,0.4,1.2,0.7c0.6,0.3,1.3,0.6,1.5,0.7c0.8,0.3,1.9,0.3,2.6,0.2c0.8-0.1,0.9-0.2,1.7-0.1c0.7,0.1,1,0.2,1.5-0.2
	c0.5-0.1,1.1-0.5,1.4-0.9c1-1.7-2.1-3-2.3-4.2c0.1,0,1,0.2,1.2,0.2c1.7,0.2,7.1,0.3,7.8,0.1c0.2,0,0.4,0.2,0.5,0.3
	c0.7,1.2,2.4,3.7,2.6,5.1c0,0.4,0,0.8,0.3,1c0.1,0.1,0.5,0.2,0.6,0.3c0.6,0.1,0.9,0.2,1.5,0.1h1.6l2.9-0.1l0.4-0.2l0.7-0.5
	c0.1-0.1,0.4-0.1,0.2-1.1c0-0.2-0.2-0.7-0.3-0.9c-0.4-0.7-0.5-0.9-1.1-1.3c-0.7-0.5-1-1-1.2-1.3c-0.3-0.9-0.6-1.9-0.9-2.8
	c0.6,0.2,1.4,0.1,1.7,0.1l0.8,1.1c0.1,0.2,0.5,0.9,0.7,1.3c0.1,0.2,0.1,0.3,0.1,0.4c0.1,0.2,0,0.2,0.2,0.6c0.2,0.7,0.5,0.8,1.2,0.9
	c0.4,0.2,3.3,0.5,3.5,0h1.2c0.9,0,1.5,0,2.3-0.3c0.8-0.7-0.2-2.6-1-3c-0.3-0.6-1-0.7-1.5-0.9l-1.2-0.4c-0.6-0.2-0.5-0.3-0.7-0.8
	l-0.1-1.3v-0.8c0-0.8-0.2-0.6,0.1-1.2c0.2-0.4,0.3-0.6,0.7-0.8c0.4-0.3,0.7-0.6,0.9-1c0.3-0.7,1-1.9,1.2-2.7c0-0.2,0.1-0.5,0.1-0.7
	c0-0.1,0-0.3-0.1-0.4c0.1,0.1,0.3,0.2,0.8,0.1c0.8,0,1.7-0.5,2.4-0.6c1.8,0.3,2.4-1.4,2.6-2.9c0.2-1.4-1.4-6-1.6-7.6
	c-0.2-1.7-0.4-3.5-1.5-4.7c-0.3-0.3-0.3-0.4-0.6-0.7c-0.2-0.3-0.5-0.4-0.6-1c0.6-0.5,0.9-1.1,1.1-1.8c0.3-0.5,0.1-0.7,0.7-1.4
	c0.4-0.5,0.6-0.6,1.1-1c2-1.4,3.3-3,4.2-4.7c1.3-2.4,2.6-4.9,3.8-7.4l0.8-0.7c0.6-0.3,1-0.8,0.7-1.4
	C2075.7,464.9,2076.2,464.9,2075.7,465.2z"/>
<path d="M1982.2,513.1c-1.1-0.9-7.2-5-8.9-5.6c0,0,0-1.6-6.1-4.9c0,0-1.3-1.7-1.4-1.7s0.5-0.3-2.4-3c0,0,0.3-0.4-1.2-1.9
	s-3.1-4.2-3.1-4.2s0.4-0.1-1.3-2.7c-1.7-2.6-2.3-5.9-5-9c-2.7-3.2-1.6-3-3.8-5.5c-2.2-2.5-4.4-5.3-7-6.6c0,0-3.1-2.5-4.3-3
	c0,0-1.9-4.5-3.4-5.3c0,0-1.4-1.3,0.3-4c0,0,1.5,0.2,1.8-0.1c0,0,0.2,0.7,0.2,1c0,0,2.1-2.3-1.1-5c-0.3-0.9-0.2-2.1-3.4-3.3
	c-3.2-1.3-6-0.8-7.4,0.4s-2.9,2.4-4,7.4c-0.5,2.3-0.3,3.2-0.3,3.2s-0.2,0.9-0.2,1.3s-0.5,1.2-0.6,2.3c0,0-1.7,4.5-1.9,5.4
	c0,0-1.7,3.2-1.6,5.3c0.1,2.1,0.9,4.5,1,5.1c0,0-0.1,1.3,0.7,2.7c0,0-0.2,1.1,0.6,1.7c0.5,0.3,0.5,0.4,0.5,0.8s0,1.6,0.7,1.4
	c0,0,1.3,2.2,1.5,2.7s1.3,2.3,1.5,2.4s1.9,2.1,2.2,2.2c0.3,0.2,1.2,1.3,1.2,1.3l0.3-0.2c0,0,1.5,4.3,1.7,4.5s1.6,4,2,4.2
	c0,0,1.5,5.2,2.8,6.5c0,0,0.8,0.4,0.4,1.3s-2.3,0.6-2.7,0.7c0,0-2-0.6-2.2-0.8c-0.2-0.2-1.1-0.8-2-0.5c0,0-2.4-0.8-3.6,1.5v0.2
	c0,0-2,0.8-2.3,2.6v0.2c0,0,0.2,0,0.3-0.1c0.1-0.1,1.2-1.7,2.1-1.6c0,0,0.5,0.9,1.7,0.6c1.2-0.3,0.9-0.5,2.3-0.3s2,0.3,3,0.3
	c1.1,0,2.1,0,2.3,0s1.5,0,1.7,0.1s0.4,0.4,0.5,0.6c0.1,0.1,0.7,0.5,1.2,0.4c0.3,0-0.2,0.8,0.7,1c0,0-0.2,0.4-0.5,0.6l-0.1,0.3
	c0,0,0.6,0.1,0.6,0c0.1-0.1,1.1-0.3,1.3-0.4s0.6-1.2,0.5-1.5c0-0.3,0.5-0.6,0.8-0.6s0.7-0.6,0.9-0.6c0.1,0,1.1,0.8,0.7,2.2v0.2
	c0,0,0.6,0.3,0.8-0.8s-0.1-2.1-0.2-2.1c0,0-0.7-0.9-1.4-1.1c0,0-1.2-0.6-1.9-0.3c0,0-0.7,0.1-0.8,0.2h-0.9l0.1-0.6
	c0,0,0.7-1.3,1-1.5s1.3-1.5,1.3-1.5l0.5,1.8l0.6,0.1l0.6-1.1c0,0,0.4,0.1,0.6,0.1s0.6,0.2,0.6,0.4c0,0.2,0.7,0.9,1.7,0.3
	s1.2-1.4,1.3-1.6c0.2-0.2,0.8-1.6,1-1.9s0.3-0.6,0.6-0.9c0.3-0.3,0.5-0.8,0-1.4l1.2,0.6c0,0,1.3,0.3,1.7,0.1c0,0,2.1,1.2,2.4,1.5
	c0,0,0.2,0.7,0.2-0.7c0,0,1.3,0.9,1.5,1.3s13.7,14.3,18.7,16.1c1.2,0.4,2.6,0.4,1.7-1.4c0,0,5.2,1.1,3.6-1.1
	c-1.6-2.2-2.6-2.6-2.6-2.6s-0.2-0.8-1.3-1.9s-7.4-9.1-7.4-9.1s12.4,7,13.3,8.6c0,0,2.2,1.1,1-0.3c-1.2-1.4-2.3-1.9-2.3-1.9
	s0.6-1.1,0-1.5c0,0,4.3,2.5,4.6,2.6C1982.5,513.8,1983.4,514,1982.2,513.1z M1923.6,511c0,0-0.3,0-0.4,0.1c0,0,1.3-1.4,2.3-0.6
	c0,0-0.2,0.3,0,0.3C1925.8,510.8,1924,510.5,1923.6,511z"/>
<path d="M1810.2,438.6c0,0.4-0.4,0.5-0.6,0.7c-0.4,0.3-0.8,0.7-1.3,0.8c-0.1,0-0.2,0.1-0.3,0.1c-0.5,0.2-1,0.5-1.4,0.7
	c-0.5,0.2-1,0.4-1.4,0.6c-0.4,0.1-0.8,0.3-1.2,0.3c-0.4,0-0.8-0.1-1.1,0.1c-0.1,0.1-0.3,0.1-0.4,0c-0.7-0.4-1.3,0.1-2,0.2
	c-0.4,0-0.8,0.2-1.1,0.3c-0.5,0.1-1.1-0.2-1.6,0.1c-0.3,0.2-0.7,0-1.1,0c-0.1,0-0.2,0-0.3,0.1c-0.3,0.1-0.6,0.2-0.8,0.2
	c-0.4-0.1-0.7-0.1-1.1,0c-0.3,0.1-0.6,0.3-0.8,0.5c-0.1,0.1-0.4,0.1-0.6,0.1c-0.3,0-0.7,0-1,0.1c-0.7,0.3-1.3,0.9-2.1,1
	c-0.1,0-0.1,0.1-0.2,0.1c-0.2,0.1-0.4,0.2-0.5,0.2c-0.5,0.1-0.9,0.1-1.3,0.2c-0.3,0.1-0.7,0.3-0.9,0.6c-0.5,0.6-1,1.1-1.7,1.3
	c-0.7,0.3-1.2,0.7-1.7,1.2c-0.2,0.2-0.4,0.6-0.8,0.5l-0.1,0.1c-0.1,0.1-0.2,0.3-0.3,0.3c-0.2,0.2-0.5,0.3-0.8,0.4
	c-0.2,0.1-0.4,0.2-0.3,0.5c0,0-0.1,0.1-0.2,0.2c-0.7,0.4-1.5,0.8-2.2,1.2c-0.3,0.2-0.6,0.4-0.9,0.4c-0.8,0.1-1.5,0.4-2.2,0.7
	c-0.2,0.1-0.4,0-0.5,0.1c-1,0.5-1.9,1-2.8,1.4c-0.4,0.2-0.9,0.4-1.2,0.7s-0.7,0.5-1.1,0.6c-1,0.3-1.7,0.9-2.4,1.6
	c-0.2,0.2-0.4,0.5-0.8,0.6c-0.2,0-0.3,0.2-0.4,0.4c-0.1,0.1-0.3,0.3-0.4,0.4c0.1,0.5-0.2,0.9-0.5,1.2c-0.1,0.1-0.2,0.2-0.3,0.3
	c-0.1,0.3-0.3,0.4-0.6,0.6c-0.3,0.1-0.6,0.4-0.9,0.6c-0.2,0.1-0.3,0.3-0.5,0.4s-0.4,0.3-0.3,0.5c-0.8,0.5-1.5,0.9-2.2,1.3
	c-0.1,0.4-0.1,0.7-0.3,1c-0.2,0.4-0.4,0.8-0.6,1.1c-0.1,0.2-0.1,0.5-0.3,0.7c-0.3,0.4-0.4,1-1,1.2l-0.1,0.1c-0.3,0.3-0.6,0.7-1,0.9
	c-0.6,0.3-0.8,0.9-1.1,1.4c-0.3,0.4-0.4,1.1-1,1.3c-0.1,0-0.1,0.2-0.2,0.3c0,0.1,0,0.2-0.1,0.3c-0.2,0.4-0.5,0.7-0.8,1.1
	c0,0,0.1,0.1,0.2,0.2c-0.6,0.1-0.5,0.6-0.6,1c-0.3-0.4-0.2-0.7-0.1-1c-0.2,0.3-0.3,0.6-0.3,0.9c0,0.5-0.3,0.7-0.5,1.1
	c-0.1,0.2-0.3,0.4-0.3,0.7c0,0.3-0.1,0.7-0.3,0.9c-0.5,0.7-0.6,1.5-0.8,2.3c-0.1,0.2-0.1,0.5-0.2,0.7c-0.1,0.3-0.2,0.6-0.3,0.8
	c-0.5,0.6-1.1,1.2-1.6,1.8c-0.2,0.2-0.3,0.5-0.5,0.7c-0.3,0.4-0.5,0.7-1,0.9c0,0-0.1,0.1,0,0.1c0.1,0.4-0.3,0.5-0.4,0.8
	c-0.2,0.4-0.5,0.9-0.8,1.2c-0.3,0.4-0.7,0.8-1,1.2c-0.1,0.1-0.2,0.2-0.2,0.3c-0.4,0.7-0.8,1.3-1.1,2c0,0.1-0.1,0.2,0,0.2
	c0.3,0.2,0,0.3-0.1,0.4c-0.1,0.2-0.2,0.3-0.3,0.5c-0.1,0.2-0.1,0.5-0.2,0.8c-0.1,0.5-0.4,1-0.3,1.5c0.1,0.6,0,1.2,0.1,1.8v0.1
	c0.1,0.3,0.3,0.6,0.3,1c0,0.6,0.4,0.8,0.7,1.1c-0.2,0.5,0.1,0.8,0.4,1.1c0,0.2-0.1,0.5,0,0.6c0.6,0.8,0.2,1.7,0.2,2.5
	c0,0.6-0.1,1.2-0.1,1.9c0,0.2-0.1,0.3-0.1,0.5c0,0.4,0,0.8-0.1,1.1c-0.2,0.6-0.3,1.2-0.4,1.9c-0.1,0.3-0.1,0.5-0.1,0.8
	c0,0.6-0.1,1.2-0.1,1.8c0,0.2,0,0.4,0,0.6c0,0.1,0.1,0.2,0.1,0.3c0.1,0.3,0,0.6,0.2,0.8c0.5,0.9,1,1.8,1.6,2.6
	c0.9,1.1,1.8,2.4,3.4,2.7c0.1,0,0.1,0.1,0.2,0.1c0.8,0.3,1.6,0.5,2.4,0.8c0.3,0.1,0.6,0.2,0.7,0.4c0.5,0.6,0.9,1.2,1.4,1.7
	c0.5,0.6,1.1,1.1,2,1.2c0.6,0.1,1.1,0.4,1.6,0.8c0.3,0.2,0.6,0.4,1,0.5c0.3,0.1,0.5,0.2,0.8,0.3c0.7,0.2,1.3,0.4,1.9,0.6
	c0.5,0.1,1,0.3,1.5,0.4c0.2,0,0.3,0,0.5,0s0.3,0,0.5,0c0.6,0.1,1.2,0.2,1.9,0.2c0.5,0.1,1,0.1,1.4,0.2c1.1,0.3,2.2,0.1,3.2,0.2
	c0.8,0.1,1.6,0.1,2.4,0.3c1.2,0.3,2.4,0.2,3.5-0.1c0.4-0.1,0.9-0.1,1.3-0.2c0.4-0.1,0.8-0.1,1.1-0.2c0.4-0.1,0.8-0.3,1.1-0.3
	c1.4,0.1,2.8-0.3,4.2-0.6c1-0.2,2-0.4,3-0.7c0.5-0.1,1-0.3,1.4-0.5s0.8-0.4,1-0.8c0.1-0.3,0.3-0.7,0.5-0.9c0.4-0.5,0.6-1.1,0.6-1.7
	c0.1,0,0.2,0,0.3-0.1c0.2-0.5,0.5-1.1,0.7-1.6c0.1-0.2,0.2-0.3,0.2-0.5c0.2-0.3,0.4-0.6,0.4-1c0-0.3,0.3-0.8,0.6-0.9
	c0.3-0.1,0.8,0.2,0.9,0.5c0.3,0.8,0.9,1.4,1.4,2c0.3,0.3,0.6,0.8,0.8,1.2c0.2,0.6,0.3,1.2,0.8,1.7c0,0,0,0.1,0,0.2
	c-0.1,0.5,0.2,0.7,0.5,1c0.1,0,0.2,0.1,0.2,0.2c0,0.4,0.3,0.7,0.5,1c0.2,0.4,0.6,0.7,1,0.9c0.7,0.4,1.4,0.7,1.8,1.4
	c0.1,0.1,0.2,0.2,0.3,0.2c0.8,0.2,1.5,0.5,2.3,0.6c1.6,0.2,3.3,0.2,5,0.3c1.3,0.1,2.6,0.1,3.9,0.1c0.9,0,1.8,0,2.8,0
	c0.4,0,0.9-0.1,1.3-0.2c0.8,0,1.6,0,2.5,0c0.5,0,0.9,0.2,1.3,0.3s0.7,0.2,1.1,0.2c1.1,0,2.1-0.1,3.2-0.2c0.4,0,0.9-0.1,1.3-0.3
	s0.7-0.5,1.1-0.9c0.1-0.1,0.1-0.4,0-0.5c-0.6-0.5-1.1-1.1-1.8-1.4c-0.3-0.1-0.5-0.4-0.7-0.7c-0.2-0.2-0.2-0.6-0.4-0.8
	c-0.2-0.4-0.5-0.8-0.8-1.1c-0.6-0.9-1.5-1.3-2.6-1.2c-0.7,0.1-1.3,0.2-1.9,0.3c-0.2,0-0.3,0.1-0.5,0c-0.7-0.1-1.4-0.3-2.1-0.5
	c-0.5-0.1-0.9-0.4-1.4-0.5c-1-0.2-1.9-0.3-2.9-0.5c-0.6-0.1-1-0.3-1.3-0.8c-0.2-0.4-0.5-0.7-0.8-1.1c-0.1-0.2-0.3-0.4-0.3-0.6
	c0-0.5-0.1-0.8-0.4-1.2c-0.1-0.1-0.1-0.2-0.1-0.3c-0.3-0.9-0.6-1.8-0.8-2.7c0,0,0,0,0-0.1c0-0.3-0.1-0.7-0.1-1c0-0.2,0-0.4-0.1-0.6
	s-0.2-0.5-0.2-0.7c-0.1-1.5-0.5-2.9-0.9-4.2c0-0.1,0-0.1,0-0.2c-0.1-0.3-0.1-0.6-0.2-0.9c-0.2-0.8-0.4-1.7-0.6-2.5s-0.2-1.7-0.7-2.4
	c-0.1-0.1-0.1-0.4-0.1-0.6c-0.1-0.3,0-0.6-0.1-0.9c-0.1-0.4-0.3-0.9-0.6-1.2c-0.3-0.4-0.2-0.9-0.4-1.3c0-0.1,0.2-0.3,0.2-0.5
	c0.1-0.5,0.2-1,0.3-1.4c0-0.2,0.1-0.4,0.2-0.5c0.2-0.4,0.5-0.8,0.8-1.2c0.2-0.3,0.4-0.5,0.6-0.8c0.1-0.1,0.2-0.3,0.3-0.5
	c0.2-0.6,0.2-1.3,1-1.4c0.1,0,0.3-0.2,0.3-0.4c0.2-0.5,0.3-1.1,0.4-1.6c0-0.1,0.1-0.1,0.1-0.2c0.1-0.3,0.2-0.5,0.3-0.8
	c0.1-0.2,0.4-0.4,0.5-0.7c0.2-0.4,0.3-0.7,0.6-1c0.5-0.5,1.1-0.8,1.8-1c0.3-0.1,0.6,0,0.9,0c0.8,0,1.5,0.3,2.2,0.7
	c0.5,0.3,0.9,0.7,1.4,1c0.4,0.2,0.8,0.2,1.2,0.3c0.7,0.3,1.4,0,2.1-0.1c0.1,0,0.2-0.1,0.3,0c0.4,0.1,0.7,0.3,1.1,0.4l0.1,0.1
	c0.2,0.2,0.4,0.5,0.6,0.7s0.3,0.3,0.4,0.5c0.3,0.4,0.5,0.8,0.8,1.2c0.1,0.1,0.2,0.3,0.3,0.4c0.4,0.3,0.8,0.6,1.2,0.9
	c0.3,0.2,0.4,0.5,0.6,0.9c0.5,0.8,1,1.5,1.5,2.3c0.3,0.4,0.8,0.6,1.2,0.9c0.3,0.2,0.6,0.5,0.9,0.5c0.4,0.1,0.6,0.2,0.8,0.5
	c0,0.1,0.1,0.1,0.2,0.1c0.6,0.2,0.9,0.9,1.3,1.2c0,0,0,0.1,0.1,0.2s0.1,0.2,0.2,0.3c0.5,0.7,1,1.4,1.5,2.1c0.2,0.3,0.5,0.4,0.7,0.7
	c0.4,0.6,1,1,1.5,1.4c0.4,0.3,0.7,0.8,1.1,1.1c0.1,0.1,0.2,0.3,0.3,0.4c0.3,0.2,0.4,0.4,0.4,0.8c0,0.1,0.1,0.2,0.1,0.3
	c0.7,0.3,1,0.9,1.3,1.5c0.1,0.2,0.3,0.4,0.5,0.6c0.3,0.4,0.8,0.5,0.9,1c0,0.1,0.2,0.2,0.3,0.3c0.9,0.3,1.6,0.8,2.3,1.4
	c0.6,0.6,1.2,1,1.9,1.4c0.2,0.1,0.4,0.3,0.6,0.4c0.5,0.4,0.9,1,1.5,1.3c0.4,0.2,0.7,0.4,1.1,0.7c1,0.8,1.8,1.6,2.8,2.4
	c0.2,0.1,0.4,0.2,0.6,0.3c0.4,0.2,0.9,0.3,1.2,0.6c0.7,0.5,1.3,1,1.9,1.6c0.2,0.2,0.3,0.4,0.5,0.5c0.4,0.1,0.5,0.4,0.6,0.7
	c0.3,0.7,0.8,1,1.4,1.2c0.5,0.1,1,0.2,1.4,0.4s0.7,0.5,1.1,0.7c0.6,0.4,1.1,0.8,1.6,1.2c0.2,0.1,0.4,0.1,0.6,0.3
	c0.3,0.2,0.4,0.5,0.3,0.9c-0.1,0.6,0,1.2,0.4,1.8c0.2,0.4,0.6,0.5,1,0.3c0.3-0.1,0.6-0.3,0.7-0.6c0.2-0.5,0.3-1,0.3-1.5
	s0.2-0.9,0.5-1.2c0.3-0.4,0.7-0.8,1.1-1.2c0.1-0.1,0.4-0.3,0.6-0.3c0.3,0,0.7,0.2,1,0.3c0.6,0.3,1.1,0.2,1.6-0.1
	c0.3-0.2,0.6-0.3,1-0.4c0.4,0,0.7,0,1.1,0.1c0.1,0,0.2,0.1,0.2,0.2c0.6,0.7,1.2,1.4,1.8,2.1c0.2,0.3,0.6,0.6,0.9,0.6
	c0.6,0.1,1.1,0.3,1.2,1c0.1,0.3,0.3,0.3,0.6,0.3c0.3,0,0.5-0.1,0.5-0.4c0.1-0.6,0.3-1.3,0.3-1.9c-0.1-1.4-0.6-2.8-1.2-4.1
	c-0.1-0.2-0.2-0.5-0.3-0.7c-0.5-0.5-1.1-0.8-1.8-1c-0.8-0.2-1.6-0.4-2.3-0.9c-0.6-0.4-1.2-0.7-1.9-0.9c-0.8-0.2-1.6-0.2-2.3-0.6
	c-0.3-0.2-0.6-0.2-1-0.2c-0.8-0.1-1.5-0.3-2.2-0.7c-0.9-0.4-1.6-1-2.3-1.6c-0.3-0.3-0.6-0.6-0.9-1c-0.1-0.2-0.3-0.3-0.4-0.5
	c-0.5-1.1-1.2-1.9-1.9-2.7c-0.3-0.3-0.7-0.6-0.7-1.1c0-0.1-0.1-0.2-0.2-0.3c-0.2-0.4-0.7-0.6-0.8-1.1c0-0.2-0.2-0.4-0.3-0.5
	c-0.3-0.3-0.7-0.6-1.1-1c0.3-0.3,0.4-0.5,0-0.7c-0.6-0.3-0.7-1-1-1.5c-0.3-0.4-0.4-0.8-0.8-1.1c-0.2-0.1-0.4-0.3-0.2-0.6v-0.2
	c-0.3-0.4-0.3-1-0.9-1.2l-0.1-0.1c0-0.7-0.9-1-0.9-1.8c0,0,0,0,0-0.1c-0.3-0.4-0.6-0.8-0.8-1.1c-0.2-0.4-0.7-0.6-0.5-1.1
	c0,0,0,0,0-0.1c-0.3-0.4-0.6-0.9-0.9-1.2c-0.5-0.6-0.8-1.3-1.5-1.6c-0.2-0.1-0.4-0.3-0.6-0.5c-0.5-0.7-1.1-1.4-1.9-1.8l-0.1-0.1
	c-0.6-0.5-1.2-1-1.8-1.3c-0.7-0.4-1.5-0.7-2.2-1.1c-0.5-0.3-1.1-0.6-1.4-1.1c-0.4-0.6-0.9-1.1-1.4-1.5c-0.3-0.3-0.7-0.6-1-0.9
	c-0.1-0.1-0.1-0.2-0.1-0.2c0-0.4,0.1-0.8,0.1-1.1c0-0.1,0-0.3,0-0.4c-0.2-0.3-0.5-0.7-0.8-1c-0.4-0.4-0.7-0.9-1.1-1.3
	c-0.2-0.3-0.4-0.6-0.7-0.8c-0.3-0.2-0.7-0.3-1.1-0.5c-0.4-0.1-0.4-0.3-0.4-0.7c0-0.1,0-0.3-0.1-0.4c-0.2-0.2-0.5-0.4-0.6-0.7
	c-0.2-0.4-0.5-0.8-0.4-1.1c0-0.4-0.1-0.6-0.3-0.9c-0.1-0.1-0.1-0.3-0.2-0.4c-0.3-0.6-0.1-1.4-0.7-1.9l-0.1-0.1
	c0.1-0.4,0-0.9,0.2-1.2c0.7-0.9,0.6-1.9,0.5-3c-0.2-1.3-0.4-2.5-0.7-3.8c-0.1-0.4,0-0.8,0.3-1.1c0.2-0.2,0.3-0.5,0.4-0.7
	c0.2-0.4,0.5-0.5,1-0.5c0.4,0,0.9,0.2,1.3-0.2c0.2-0.2,0.5-0.3,0.8-0.4c0.6-0.1,1.1-0.2,1.5-0.9c0.1-0.2,0.4-0.3,0.1-0.6
	c0,0,0-0.2,0.1-0.2c0.3-0.4,0.5-0.9,0.3-1.3c-0.1-0.2-0.1-0.4-0.1-0.6s0.1-0.6,0-0.7c-0.2-0.3-0.1-0.5,0-0.8
	c-0.1-0.2-0.2-0.4-0.2-0.6s0-0.5-0.1-0.7c-0.2-0.4-0.3-0.8-0.3-1.2c0-0.2-0.1-0.3-0.1-0.5c-0.1-0.4-0.2-0.8-0.2-1.2
	c0-0.1,0-0.1,0-0.2c-0.3-0.4-0.5-0.8-0.8-1.2c-0.3-0.4-0.5-0.8-0.5-1.3c0-0.1,0-0.2-0.1-0.3c-0.4-0.6-0.8-1.1-1.2-1.7
	c-0.1-0.1-0.1-0.2-0.1-0.2c0-0.2,0-0.4-0.3-0.5c-0.1,0-0.2-0.2-0.3-0.3c-0.2-0.3-0.4-0.5-0.7-0.8c-0.1-0.1-0.2-0.2-0.3-0.4
	c-0.3-0.4-0.6-0.9-1-1.2c-0.1-0.1-0.1-0.1-0.2-0.2c-0.3-0.3-0.7-0.6-1.1-0.8c-0.2-0.2-0.5-0.3-0.8-0.5c-0.4-0.2-0.9-0.3-1.2-0.6
	c-0.5-0.3-0.9-0.4-1.4-0.4c-0.6,0-1.1-0.1-1.7-0.2c-0.3,0-0.5-0.2-0.8-0.3c-0.4-0.1-0.9-0.3-1.4-0.2c0.1,0.1,0.2,0.2,0.2,0.2
	c-0.3-0.2-0.8,0.1-0.9-0.4c-0.3,0-0.6-0.1-0.8,0c-0.5,0.1-1,0.2-1.4-0.1c-0.2-0.1-0.4-0.2-0.6,0c0,0-0.1,0-0.2,0
	c-0.3-0.1-0.5,0-0.6,0.2c-0.3-0.1-0.6-0.2-0.8-0.2c-0.3,0-0.7,0.1-1,0c-0.5-0.1-1,0.1-1.4,0.3c-0.3,0.1-0.6,0.3-0.9,0.4
	c-0.2,0.1-0.4,0.2-0.5,0.2c-0.3-0.1-0.5,0-0.8,0.2C1810.7,438.4,1810.5,438.5,1810.2,438.6z"/>
<path id="_x3C_path_x3E_" d="M1639.8,398.8c-2.8,0-3.3,0.2-4.8,1.5c-0.8,0.8-1.7,0.7-2.8,1c-1.1-0.1-2.5,3.2-3.5,3
	c-0.5-0.1-2.4-0.3-4.4-0.5s-4.1-0.4-4.9-0.5c-1.6-0.2-1.8,0-2.3,1.9c-0.3,1-0.3,1.2,0,1.4c0.3,0.2,0.3,0.3-0.1,0.9
	c-0.3,0.4-0.5,0.9-0.5,1.6c0,0.5-0.1,1.4-0.2,2c-0.6,2.5-0.2,4.1,1.5,6.1c1.5,1.7,3.7,4.9,3.7,5.3c0,0.5,2.8,2.6,3.4,2.6
	c0.9,0,2.7,1.1,4.1,2.7c1.2,1.3,1.7,2,2.5,4c1,2.3,1,2.5,1,4.8s-0.1,2.8-1.9,9.3c-1,3.8-2,7.6-2.1,8.5c-0.2,1.5-0.4,1.8-1.7,3.3
	c-3.3,3.9-4.8,6.9-5.3,10.9c-0.2,1.7-0.2,2.3,0,3.2c0.2,0.6,0.3,1.9,0.3,2.9c0,1.6,0,1.8-0.9,3.1c-1.2,1.8-4.9,7.9-5.3,9.9l-0.8,3.7
	l-1.9,2.5c-1.4,2-1.8,2.7-1.7,3.1c0.1,0.3,0,1.7-0.1,3.2c-0.3,3.2-0.1,4,1.6,7.2c0.7,1.3,1.1,2.4,1.1,2.9c0,0.4,0.2,1.1,0.4,1.4
	c0.3,0.5,0.3,1.1,0.2,2.2c-0.1,1.4-0.1,1.7,0.6,3c0.4,0.8,0.8,1.8,0.9,2.1c0.2,0.6,0,3.5-0.4,6.4l1.1,1.3c0.8,0,1.4,0.1,1.5,0.3
	c0.6,0.7,1.9,0.9,3.8,0.5c2-0.5,3-1,3.8-2.1c0.5-0.7,0.7-0.8,1.5-0.8s1.1,0.2,1.6,0.7l0.7,0.7l-0.2,4.2l-0.2,4.2l0.7,0.5
	c0.4,0.3,1.1,0.9,1.6,1.3c0.9,0.8,0.9,0.8,3.3,0.8c1.3,0,2.5,0.1,2.6,0.2c0.2,0.2,0.5,0.2,1.5-0.1c0.7-0.2,0.9-0.4,0.9-0.8
	c0-0.3,0.3-0.9,0.7-1.4c0.7-0.8,0.7-0.9,0.6-2c-0.1-1.2-0.9-3-1.8-4.3c-0.4-0.5-0.4-0.9-0.3-1.6c0.1-0.8,0.1-0.9-0.4-1.2
	c-0.9-0.4-1.9-3.1-1.7-4.5c0.1-0.7,0.4-1.1,1.5-2.1c1.3-1.3,1.4-1.3,2.6-1.3c1.1,0,1.4-0.1,1.7-0.6c0.7-0.9,2.2-0.8,2.9,0.1
	c0.3,0.4,0.8,0.8,1.1,0.8c0.9,0.3,3.2,1.9,4.1,2.9c0.8,0.9,0.9,0.9,2.9,1.2c2.8,0.3,3.7,0.9,4.2,2.4c0.2,0.6,0.4,1.5,0.4,1.8
	c0,0.6,0.2,0.8,1.3,1.2c0.7,0.3,1.5,0.5,1.8,0.5s0.9,0.1,1.4,0.4c1.1,0.5,2.5,0.5,4.4,0c1.5-0.4,1.5-0.4,1.8-1.6
	c0.4-1.1,0.3-1.3-0.1-2.8c-0.3-0.9-0.5-2.2-0.6-3c-0.1-0.9-0.2-1.4-0.4-1.4c-0.3,0-0.4-0.3-0.9-3.5c-0.3-1.7-0.3-3.1-0.2-4.4
	c0.1-1,0.1-3.3,0.1-5.2c0-3.8,0.8-9.9,1.7-13c0.6-1.9,1.7-7.9,2.3-12.9c0.3-2.5,0.5-2.9,1.3-4.4c2.4-4.1,2-9.3-1.4-17.3
	c-0.4-0.9-0.8-2.3-1-3.2c-0.2-0.8-0.6-2.4-0.9-3.5c-0.5-1.5-0.7-2.4-0.7-3.8c0-1.5-0.1-2-0.5-2.5c-0.9-1.3-3.2-6.1-4-8.2
	c-1.7-4.6-2.9-9-2.9-10.3c0-1.5,0.1-1.6,2-1.7h1.2l0.4,1.4c0.4,1.4,1.4,2.7,2.5,3.2c1,0.5,1.1,0.1,0.6-1.6c-0.8-2.7-1.3-5.3-1.7-9.1
	c-0.2-2.1-0.5-4-0.5-4.4c-0.2-0.5-2.8-3-5.3-4.9c-0.7-0.5-1.7-1.6-2.2-2.3c-2.2-3.3-5.3-5.8-9.8-7.9
	C1645.6,399.4,1643,398.8,1639.8,398.8L1639.8,398.8z M1660.2,486.9l0.3,0.2l0.3,1.9l0.2,1.7l-0.1,1.1v2.8l-0.3-2.9l-0.7-1.5
	l-0.2-0.7l-0.4-1l0.6-1.2L1660.2,486.9L1660.2,486.9z M1660.7,503.6l0.3,0.1l0.2,0.5l-0.8,1.6l-0.8,2l-0.2,1.9l0.1,1.5l0.1,1.5
	l-0.5,0.6l-0.2,1.1l-0.3,1.1l-1.2-0.1l-1.9-1.1l-1.6-1.1l-1.1-1.3l-0.4-0.6l-0.2-1.2l0.5-0.7l3.2-1.6l0.8-0.6l1.5-0.7l0.9-0.8
	l0.8-0.6L1660.7,503.6L1660.7,503.6z"/>
<path class="st2" d="M1496.8,312.7c2.7,5.7,0.2,11.8,2.1,17.8c0.9,2.9,1.5,6,2,9c0.5,3.3,0.9,6.6,1.2,9.9c0.1,0.7-0.1,1.5-0.3,2.1
	c-0.6,1.4-1.6,2.7-2.1,4.1c-1.8,4.1-3.5,8.3-5.1,12.5c-0.9,2.5-1.4,5-1.4,7.7c-0.1,6.5,1.8,12.4,5.2,17.9c0.8,1.2,1.4,2.7,1.7,4.1
	c0.5,3.1,1,6.2,1,9.3c0.1,6.5,0.1,13,0,19.5c0,4.1-0.3,8.2-0.6,12.3c-0.3,3.7-0.4,7.5-1.7,11.1c-0.8,2.3-1.4,4.6-2,6.9
	c-1.5,6-2.1,12.1-1.1,18.2c0.7,4.2,1.5,8.5,1.9,12.8c0.4,5.3,0.5,10.6,0.6,15.9c0.1,3.2-0.5,6.3-1.6,9.3c-0.6,1.7-0.9,3.3-0.7,5
	c0.3,1.7,0.4,3.5,2.5,4.2c0.1,0,0.3,0.4,0.3,0.7c-0.1,1.6-0.5,3.2-0.4,4.8c0.3,3.4,0.3,4,3.9,4.7c0.7,0.1,1.4,0.3,2,0.3
	c3.4,0.3,6.8,0.4,10.2,0.8c5,0.6,10,1.3,15.1,1.1c3.1-0.1,6.1-0.8,9.1-1.6c2.4-0.7,2.9-2.7,3.5-4.6c0.1-0.4,0.1-0.8-0.9-1.1
	c-0.1,0-1.3-0.2-2.8-0.6c-6.4-2.2-11.7-3.5-18.1-6.4c1,0,2.1,0.2,3.1,0.1c3.6-0.2,7.1-0.4,10.7-0.7c1.4-0.1,2.5-0.8,2.9-2.3
	c0.2-0.9,0-1.5-1-1.7c-1.1-0.1-2.2-0.2-3.3-0.4c-0.8-0.1-1.5-0.7-2.3-0.8c-4-0.3-7.5-2-11.3-3c-0.8-0.2-1.6-0.6-2.4-0.9
	c-1.1-0.4-1.5-1.2-1.6-2.4c-0.3-8.2,1.3-16.3,2.1-24.4c0.5-5.1,1.1-10.2,1.7-15.3c0.4-3.4,0.5-6.8,1.3-10.1
	c0.9-3.6,2.3-7.1,3.4-10.7c0.3-1,0.5-2,0.6-3c0.2-1.9,0.2-3.8,0.6-5.7c1.1-4.5,2.5-9,3.6-13.5c2-8.3,3.7-16.6,3.4-25.2
	c-0.2-5.4-1-10.8-1.7-16.2c-0.4-3.2-0.9-6.3,0.5-9.4c0.1-0.4,0.2-0.8,0.2-1.2c0-3.6,1-7,2.2-10.3c1.4-3.9,1.8-8,1.7-12.2
	c-0.2-6.5-0.5-12.9-0.8-19.4c-0.2-5.6,1.2-7.8,0.9-14c0-0.6,1.6-0.8,2.1-1c1.2-0.5,1.7-1.3,2.1-2.5c0.7-2.1,0.1-4-1.2-5.7
	c-0.8-1.1-2.8-3.7-3.8-4.6c-4.1-4.1-6.5-6.9-9.8-11.9c-1.1-1.8-2.3-3.5-3.5-5.3c-0.4-0.6-0.8-1.4-1.4-1.6c-2.4-1-2.9-4.8-2.9-4.8
	c-0.1-1.2,0.6-3.3,2.4-4.2c0.2,0,0.4,0.2,0.6,0.3c0.4,0.3,2.5,1.6,3,1.9c4.5,2.2,3.7-3.6,5.8-2.7c0.2,0.1,0.4,0.2,0.6,0.1
	c1-1.3,0.4-0.7,0.8-1.5c0,0,0.1,0,0.1,0.1v-0.1c1.3,0.2,1.5-0.5,1.7-0.8c0-0.8,0.8-1.5,1.6-1.4c0.4,0.1,0.8,0.4,1.2,0.5
	c2.6,0.4,1.8-3,1.8-3.5c0-0.8,0.1-1.6,0.1-2.4c0.2-2.1-0.5-4.5,1.8-5c1.2-0.6,0.3-1,0.8-1.8c-0.1-0.2,0-0.5,0.1-0.7
	c0-0.1,0-0.1,0-0.2c0-0.3,0.2-0.8,0.1-1.1c0.1-0.4,0-0.6,0.4-1.2l0.3-1.6h0.1c0,0,0-0.1,0-0.2h0.1c0-0.1,0-0.2,0-0.2
	c0.2,0,0.1-0.3,0.1-0.4c0.1-0.1,0.1-0.3,0.1-0.4c0,0,0-0.1,0.1-0.1c0-0.3,0-0.5,0.1-0.8c0-0.2,0.1-1.6,0.2-1.8c0-0.1,0-0.3,0.1-0.3
	c0-0.3,0-0.7,0.1-1c0,0,0,0,0.1,0c0,0-0.1,0-0.2,0l0.1-0.2c0-0.1,0-0.2,0.1-0.3c0-0.2-0.1-1-0.2-1.8c-0.2-0.7-1.5-3.2-1.5-3.4
	c-0.4-1.3-1.2-1.6-2.1-3.1c-7.2-6.2-9-5.8-9.9-6.4h0.1c0,0-0.1,0-0.2,0c0-0.2-0.2-0.2-0.4-0.2c0-0.2,0.1-0.3,0.2-0.5
	c-0.1-0.2-0.3-0.3-0.4-0.5c0-0.1-0.1-0.2-0.2-0.4c0,0-0.1,0-0.2-0.1c0-0.1,0-0.2,0.1-0.3c0-0.2-0.1-0.4-0.3-0.5
	c-0.1,0-0.1-0.2,0-0.2h-0.1l-0.1-0.1c-0.1-0.3-0.4-0.5-0.8-0.5v-0.1c0.1,0,0.1-0.1,0.2-0.2c-0.1-0.1-0.2-0.1-0.4,0
	c0-0.1,0-0.1,0-0.2h0.1c-0.1-0.1-0.3-0.1-0.4-0.1c0,0,0-0.1,0-0.2c-0.1,0-0.2,0-0.3,0c0.2-0.3,0-0.6-0.1-0.9
	c-0.2-0.1-0.4-0.2-0.7-0.3c-0.1-0.2-0.1-0.5-0.3-0.7c0-0.1,0-0.2-0.1-0.3c-0.5-0.4-0.4-0.2-0.8-0.2c-0.1-0.1-3.4-2.2-4.5-2.2
	c-0.4,0-0.9,0.1-1.2,0.1c-0.2,0.1-0.4,0.2-0.7,0.2c-0.1,0.1-0.4,0.1-0.6,0.1v0.1c-0.6,0-0.5-0.1-0.9,0.2c0,0,0-0.1,0-0.2
	c-0.1,0.1-0.2,0.3-0.4,0.4v-0.1c0,0.1,0,0.1,0,0.2h-0.1v-0.1c0,0.1-0.1,0.2-0.2,0.3c0,0.1,0,0.2,0,0.3c-0.1,0-0.2,0-0.2,0
	s0,0.1,0,0.2c-0.2,0-0.3,0-0.5,0.1c-0.9,0.1-1.1,0.6-1.3,0.8c-0.3,0.3-0.7,0-1,1.3c0,0.2-0.2,0.3-0.4,0.4c0.1,0,0.2,0,0.3,0.1
	c-0.2,0.1-0.4,0.3-0.6,0.5c0.1,0,0.1,0.1,0.2,0.1c-0.1,0.2-0.3,0.4-0.5,0.6c-0.3,0.2-0.6,0.5-0.9,0.7c0,0,0,0.1,0,0.2h-0.1
	c-0.1,0.2-0.2,0.4-0.3,0.6c0,0.2-0.1,0.4-0.2,0.6c0,0-0.1,0.9-0.1,1c-0.1,0-0.2-0.1-0.3-0.2c0,0.3,0.2,0.7,0.1,1
	c0,0.2-0.2,0.4-0.1,0.7l-0.1,0.1c0,0,0.1,0,0.1,0.1c-0.1,0.2-0.2,0.4-0.2,0.6c0.1,0.2,0,0.3,0,0.5c-0.1,0.7,0,1.4,0.3,2.1
	c-0.2,0-0.3-0.1-0.5-0.2v-0.1l0,0c-0.2-0.1-0.2-0.4-0.3-0.5c0,0.1,0,0.1,0,0.2c0.1,0.1,0.1,0.2,0.2,0.3c0.3,0.4,0.8,0.7,1.1,1.1
	c0.1,0.3,0.3,0.5,0.5,0.7c0.1,0.1,0.1,0.2,0.1,0.3c-0.1,0.2-1.3,1.4-1.5,2.3c-0.4,0.4-0.4,1-0.9,1.9v0.1c-0.1,0.2-1.2,3.9-1.3,4.8
	c-0.3,2.1,0.6,9.2,0.6,9.4c0.1,0.2,0.1,0.4,0.1,0.5c0.2,0,0,0.3,0.2,0.4c0-0.1,0-0.1,0-0.2c0.1,0.1,0.1,0.2,0.2,0.3
	c0.1,0,0.2,0.1,0.2,0.2c0,0,0.1,0,0.1,0.1v0.1c0,0-0.1,0-0.2,0c0,0.2,0.1,0.5,0.1,0.7h-0.1c0,0.1,0,0.1,0,0.2
	c-0.1,0.2-0.1,0.5-0.2,0.7c0,0.2,0,0.3-0.2,0.4c0,0.2,0,0.4-0.2,0.6c0,0.3-0.2,0.7-1.5,4c-0.5,1.3-1.8,7-4.3,9.5
	c-10.2,9.9-7.4,22.8-7.2,23.3L1496.8,312.7z"/>
<path d="M1434.7,545.3c-0.5,0.5-1.2,0.9-1.9,0.8c-0.3-0.1-0.7-0.2-1-0.3c-0.3-0.2-0.6-0.2-0.9,0.1c-0.6,0.7-1.3,0.9-2.2,0.8
	c-0.4-0.1-0.8,0.1-1,0.4c-0.6,0.8-1.5,1-2.4,0.5c-1.3-0.7-2.8-0.8-4.3-0.9c-2-0.1-3.9-0.6-5.6-1.6c-2.3-1.2-4.6-2.4-6.9-3.8
	c-1.9-1.2-4-1.9-6.1-2.4c-1.5-0.3-2.8-0.8-4.2-1.4c-1.1-0.5-1.9-1.3-2.6-2.3c-0.8-1.3-1.2-2.7-1.2-4.2c0-1.6,0.4-3.2,0.9-4.7
	c0.4-1.5,0.8-2.9,1.2-4.4c0.1-0.3,0.1-0.8,0.1-1.2c-0.1-2-0.2-4-0.2-6c-0.1-2.1-0.3-4.1-0.6-6.2c-0.3-1.9-0.8-3.8-1.2-5.7
	c-0.3-1.6-0.6-3.2-1-4.8c-0.2-1.2-0.5-2.3-0.8-3.4c-0.4-1.7-0.7-3.4-1.2-5c-0.6-2-1.3-3.9-2.1-5.8c-0.8-1.9-1.6-3.8-1.9-5.9
	c-0.2-1.3-0.4-2.6-0.5-3.9c-0.1-2.6,0.1-5.1,0.5-7.6c0.6-3.4,1.4-6.8,2.2-10.2c0.4-1.8,0.8-3.6,1.1-5.4c0.3-1.3,0.6-2.7,0.9-4
	c0.5-2.3,1-4.5,1.5-6.9c0.3-1.8,0.7-3.6,1-5.5c0.2-1,0.2-1.9,0.3-2.9c0.4-5.2,0.2-10.5,0.1-15.8c-0.1-2.1,0.1-4.1,0.1-6.2
	c0.1-2.7,0.3-5.4,0.6-8.1c0.2-1.5,0.4-3.1,0.6-4.6c0.5-3.5,0.9-7.2,0.6-10.8c-0.2-2.3-0.7-4.6-1.5-6.7c-0.6-1.9-1.5-3.7-1.9-5.6
	c-0.6-2.8-0.9-5.8-0.8-8.7c0.1-2,0.3-4,0.8-6c0.6-2.7,1.5-5.4,2.7-8c0.6-1.4,1.4-2.7,2.2-4c0.2-0.5,0.2-0.8,0-1.2
	c-1.4-2.6-2.8-5.1-4.1-7.8c-1-2-1.7-4.2-2.6-6.3c-1.2-3-2.3-6.1-3.4-9.2c-0.7-1.9-1-3.8-0.8-5.8c0.2-1.6,0.5-3.3,0.8-4.9
	c0.2-1.5,0.4-2.9,0.6-4.4c0.4-4,0.4-8.1,0.2-12.1c-0.1-3.4-0.5-6.8-0.7-10.2c-0.2-3.4-0.6-6.8-0.3-10.2c0.1-1.5,0.4-3.1,0.8-4.6
	c0.4-1.8,0.9-3.7,1.5-5.4c0.9-2.8,2.4-5.3,4.1-7.8c1.3-1.9,2.6-3.7,3.7-5.5c1.5-2.3,2.6-4.7,3-7.4c0.3-2.4-0.2-4.8-1.3-7
	c-0.8-1.5-1.6-2.8-2.4-4.2c-1-1.7-1.9-3.6-2.3-5.6c-0.5-2.4-0.6-4.9-0.2-7.4c0.2-1.5,0.7-2.9,1.2-4.3c0.5-1.1,1.1-2.2,1.7-3.2
	c0.7-1.2,1.7-2.2,2.7-3.1c1.2-1.1,2.6-1.9,4-2.6c1.9-0.9,3.8-1.5,5.8-1.8c2.1-0.3,4.2-0.5,6.3-0.3c2.7,0.2,5.2,0.8,7.6,2.1
	c2.9,1.6,5.1,3.8,6.3,6.9c0.7,1.9,1.4,3.7,2,5.6c0.2,0.7,0.3,1.5,0.5,2.2c0.1,0.5,0,0.9-0.2,1.3c-0.3,0.9-0.5,1.7,0.1,2.4
	c0.5,1.1,1.7,2.4,2.7,3.8c0.3,0.5,1.2,1.3,1.5,1.8c0.3,0.9,0.4,1.6-0.7,2.2c-0.4,0.2-0.9,0.3-1.3,0.5c-0.8,0.3-0.9,0.7-0.6,1.5
	c0.1,0.2,0.1,0.3,0.2,0.5c0.2,0.6,0.2,1.2-0.3,1.7c-0.2,0.2-0.3,0.5-0.2,0.8c0.1,0.5,0.1,1-0.2,1.4c-0.6,0.8-0.6,1.6-0.4,2.6
	c0.2,0.8,0.2,1.6,0,2.3c-0.4,1.3-1.3,2.1-2.5,2.4c-1,0.2-2.2,0.3-3.2,0.5c-0.9,0.2-1.7,0.3-2.6,0.5c-1,0.3-1.6,1.2-1.7,2.3
	c0,1.9-0.4,3.7-0.8,5.5c-0.2,1-0.3,2.1-0.3,3.1c-0.1,0.9,0.1,1.8,0.5,2.6c0.2,0.5,0.5,0.9,0.9,1.2c1.5,1.1,2.7,2.6,3.9,4
	c1.7,2,2.8,3.6,4.5,5.6c2.3,3.7,2.6,4.2,4.8,8c1.2,2.3,2.5,6.9,2.3,9.4c-0.2,2.2-0.5,3.1-1.4,6c-0.3,0.3-0.4,1.2-0.3,1.7
	c0.1,0.9,0.2,1.7,0.5,2.6c0.5,1.4,0.8,2.8,0.9,4.4c0.1,2.1,0.7,4.1,1.1,6.2c0.2,1.2,0.4,2.4,0.5,3.7c0.1,0.9,0.1,1.9-0.1,2.8
	c-0.3,2.9-0.2,5.8,0,8.7c0.2,2-0.1,3.9-0.3,5.9c-0.4,2.4-0.4,4.9-0.2,7.3c0.2,3.2,0.5,6.4,0.1,9.5c-0.2,1.8-0.5,3.5-0.9,5.3
	c-0.5,2.4-1.2,4.8-1.7,7.2c-0.5,2.2-0.6,4.5-0.6,6.7c0,0.3,0.2,0.7,0.3,1c1,2,1.7,4.2,2.3,6.5c0.3,1.4,0.1,2.8-0.3,4.2
	c-0.4,1.5-0.7,3-1.3,4.5c-0.6,1.7-0.6,3.4-0.8,5.2c-0.1,1.7-0.2,3.4-0.3,5.1c-0.2,1.9-0.6,3.8-0.9,5.6c-0.5,2.8-1.3,5.6-2.3,8.3
	c-0.9,2.6-2,5.2-3,7.8c-1,2.7-2.2,5.5-3.5,8.1c-0.7,1.5-1.2,3-1.3,4.6c-0.2,3.1-1.2,5.9-2.4,8.7c-0.9,2-2,3.8-3.3,5.5
	s-1.9,3.6-2,5.7c-0.2,4-0.3,8.1-0.5,12.1c-0.1,3.4-0.2,6.9-0.4,10.3c-0.3,4.6-0.3,9.1-0.3,13.7c0,4.2,0,8.5,0.1,12.7
	c0,1.2,0.3,2.3,0.6,3.4c0.5,1.4,1.3,2.5,2.6,3.3c1.9,1.2,3.8,2.3,5.6,3.4c1.7,1,3.4,1.9,5.3,2.3c0.8,0.2,1.5,0.3,2.3,0.2
	c1.7-0.2,3.4,0.3,4.9,0.9c0.6,0.2,1.2,0.6,1.7,1c0.5,0.3,0.9,0.5,1.5,0.5c0.4-0.1,0.9,0,1.3-0.1c0.9,0,1.5,0.4,1.7,1.3
	c0.2,1.2-0.1,2.1-1,2.8c-0.9,0.6-1.9,1-2.9,1.2c-0.8,0.2-1.6,0.2-2.4,0.1c-0.8-0.1-1.6-0.1-2.3,0.2c-1.7,0.8-3.6,1-5.5,0.8
	c-1.5-0.2-2.8-0.7-4.1-1.2c-1-0.3-1.9-0.7-2.9-1c-1.6-0.5-3.1-0.4-4.7-0.1c-0.9,0.2-1.7,0.5-2.6,0.7c-0.3,0.1-0.6,0.2-0.9,0.3
	c-0.5,0.2-0.9,0.5-1.4,0.6c-0.9,0.3-1,0.6-0.5,1.4c2,3.3,4.4,6.3,7.4,8.8c3.5,3,7.4,5.3,11.5,7.3c0.9,0.5,1.9,0.8,2.8,1.2
	c1.2,0.5,2.2,1.1,3.2,1.7c0.3,0.2,0.8,0.5,1.2,0.6c0.4,0.2,0.8,0.3,1.2,0.6c1,0.6,1.3,1.8,0.7,2.8c-0.6,1-1.5,1.6-2.6,1.8
	c-0.6,0.1-1,0.2-1.4,0.7c-0.3,0.4-0.8,0.5-1.3,0.5C1435.4,545.6,1435.1,545.4,1434.7,545.3z"/>
<path d="M1307.6,285.7c-1-2.4-1.6-4.9-3.8-6.7c-2.1-1.7-3.9-3.8-6.1-5.5c-2-1.4-4.1-2.7-6.3-3.6c-1.9-0.8-2.3-2.1-2.7-3.8
	c-0.5-2.4-1.2-4.9-2.4-7c-1.2-2.1-3.3-3.9-5-5.7c-0.4-0.5-0.9-1-1.4-1.2c-3.3-1.2-8.2,0.5-10.1,3.5c-1.8,2.8-3.4,3.2-6.2,1.5
	c-3-1.8-5.8-1.7-8.5,0.5c0.9,3.6,0.9,3.7-1,5.2c0-1.7-0.1-3.4,0-5.1c0-0.4,0.3-0.9,0.6-1.1c2.9-2.1,5.9-4.1,8.8-6.2
	c2.7-2,5.6-3.9,8.2-6c3.1-2.6,2.6-8.1-0.8-10.1c-2.4-1.5-4.9-2.7-7.8-2.9c-1.2-0.1-2.5,0.1-2.9-1.5c-0.1-0.3-0.7-0.4-1.1-0.7
	c-0.6-0.3-1.2-0.6-2-1.1c1.3-1.4,2.4-2.7,3.6-3.8c0.3-0.3,1.1-0.1,1.6-0.1c1,0,2,0.1,3,0.1c1,0.1,2,0.1,3,0.1c0.7,0.1,1.3,0.4,2,0.4
	c2.7-0.1,5.4-0.1,7.1,2.5c0.1,0.2,0.4,0.2,0.6,0.4c2,1.5,4.3,2.8,6,4.6c1.4,1.5,2.9,2.3,4.6,3.1c2.2,1.1,4.6,1.8,5.9,4.3
	c0.5,1,1.7,1.7,2.5,2.5c0.1-0.1,0.2-0.2,0.4-0.3c-0.2-0.6-0.4-1.2-0.7-1.8c-0.8-2.3-1.5-4.6-2.3-6.9c-0.4-1.1-0.6-2.3-0.9-3.4
	c-0.3-1.1-0.6-2.1-0.9-3.1c-0.1-0.5-0.1-1.2-0.4-1.6c-1.8-2.7-4-4.9-7.3-5.8c-0.2-0.1-0.4-0.1-0.5-0.3c-2.3-2.1-5.2-2.2-7.9-3
	c-1.8-0.5-3.7-0.5-5.5-0.9c-4.5-0.9-7.8,0.3-10.5,4.3c0.5,0.4,1.1,0.8,1.8,1.2c-1.7,0.7-3.5-0.6-4.7,1.3c0.7,0.5,1.3,1,2,1.5
	c-1.7,1.9-3.2,3.6-5,5.5c-0.2-7.1-0.4-13.8-0.7-20.5c0.1,0,0.1,0,0.2,0c0.4,0.8,0.8,1.5,1.2,2.4c0.3-0.5,0.5-0.8,0.8-1.3
	c0.2,2.2,0.3,2.3,1.4,2.7c0.3-1,0.6-2,1-3.3c0.8,1.1,1.3,1.8,1.8,2.6c0.2-0.9,0.5-1.7,0.7-2.4c0.1,0,0.2,0.1,0.4,0.1
	c0.1,0.8,0.2,1.6,0.3,2.1c0.8,0,1.4,0.1,2-0.1c0.5-0.1,1.2-0.4,1.5-0.8c0.5-0.6,0.7-1.4,1.2-2.3c0.6,1.1,1.1,1.9,1.5,2.7
	c0.4-0.3,0.8-0.9,1.1-0.9c1.2,0.2,1.8-0.4,2.2-1.6c0.4,0.7,0.8,1.2,1.1,1.7c0.2-0.1,0.3-0.1,0.5-0.1c-0.2-1.8-0.4-3.6-0.5-5.5
	c-0.1,0-0.1,0,0-0.1v0.1c0.2,0,0.8-0.2,0.7-0.1c1,0.7,0.7,2,1.7,2.7c0.4,0.2,0.8,0.2,1.2,0.2c0-0.4,0.1-0.7,0-1.1
	c-0.1-0.5-0.2-0.9-0.4-1.6c0.7,0.5,1.1,0.9,1.6,1.4l1.5-0.9c1.5-1.6-1.3-2.7-0.4-4.7c0.6,0.6,0.9,1,1.3,1.4c0.1-0.2,0.1-0.7,0.2-1.2
	c1.8,0.3,2.1,0.1,2-1.7c0-0.3-0.2-0.7-0.4-0.9c-0.9-1-1.8-2-2.9-3.1c1.7-0.3,3.4-0.6,5.3-0.9c-0.9-0.5-1.4-0.9-2.1-1.3
	c0.8-0.1,1.5-0.1,2-0.2c-0.1-0.8-0.1-1.4-0.1-2.3c-1-1.2-3.8-0.1-4.7-2.4c1.6-0.9,3.1-1.8,3.5-3.7c-1.4,0.1-2.7,0.2-4.1,0.3
	c0.7-1.4,1.2-2.6,1.8-4c-0.5,0-0.8,0-1.2,0c-0.1-1-0.2-2-0.4-3.2c-0.6,0.7-0.9,1.2-1.4,1.7c-0.2-0.6-0.4-1.1-0.6-1.5
	c-0.4,0.3-0.8,0.5-1.2,0.8c0.1-1.1,0.2-2.1,0.4-3.5c-1.4,0.8-2.4,1.3-3.5,2c-0.3-1.4-0.6-2.6-0.9-4.1c-0.5,0.7-0.7,1-0.9,1.3
	c-0.5-1.1-1.1-2.1-1.5-3.2c-0.1,0.1-0.2,0.1-0.4,0.2c0,0.6,0.1,1.1,0,1.7s-0.3,1.1-0.5,2.1c-1.5-4.7-1.5-4.7-3.2-5.9
	c-0.3,1.3-2.3,0.1-2.4,1.7c-0.1,1.1,0,2.1,0,3.2c-0.2,0.1-0.4,0.1-0.5,0.2c-0.4-3.7-3.9-3.3-6.2-4.6c0.3,1,0.7,2,1,3.1
	c-1.1-0.4-1.9-0.6-3.1-1c0.7,1.1,1.1,1.8,1.7,2.7c-2.1-0.3-4.1-0.6-6-0.9c0,0.1,0,0.1,0,0.2c1.2,0.5,2.4,1.1,3.7,1.6
	c-0.1,0.1-0.1,0.2-0.2,0.3c-3-0.5-6-1-9-1.5c-0.1,0.2-0.1,0.3-0.1,0.5c0.8,0.5,1.5,0.9,2.3,1.4c0,0.1-0.1,0.1-0.1,0.2
	c-0.5-0.1-1.1-0.2-1.6-0.3c-0.1,0.1-0.2,0.2-0.4,0.2c0.7,1.1,1.4,2.2,2.1,3.6c-1.3,0-2.4,0-3.7,0c1.5,1.4,2.8,2.6,4.1,3.9
	c-2.6,0.1-5,0.1-7.4,1.5c1.4,0.5,2.4,1,3.6,1.4c-1.2,0.6-2.3,1.1-3.4,1.5c0.1,0.1,0.1,0.2,0.1,0.3c0.3,0.1,0.6,0.1,0.9,0.2
	c-0.2,0.2-0.4,0.4-0.7,0.6c0.5,0.1,0.9,0.2,1.4,0.4c-0.6,0.2-1,0.4-1.4,0.5c0,0.1-0.1,0.3-0.1,0.4c1.8,0.5,3.6,1.1,5.3,1.7
	c-1.8,1-3.6,1.9-5.2,3c-2.7,1.7-5.5,3.3-6.9,6.5c-0.4,0.8-1.4,1.4-2.3,1.7c-1.1,0.5-2.5,0.6-3.7,1.1s-2.5,1.2-3.6,2.2
	c-1.2,1.1-2.3,2.4-3.2,3.8c-0.7,1-1.2,2.2-1.5,3.4c-0.4,1.4-0.5,2.8-0.7,4.3c-0.1,0.8-0.2,1.5-0.3,2.1c1.7-1.4,3.1-3.1,5-4
	c3.3-1.5,5.8-3.7,7.5-6.8c0.9-1.7,2.1-3,3.8-3.9c0.9-0.5,1.7-0.9,2.5-1.5c1.8-1.2,3.7-2,5.9-1.5c1.6,0.3,2,0.5,1.7,1.7
	c0.6,0.4,1.3,0.7,1.6,1.1c1.8,2.7,3.6,5.5,5.4,8.2c0.4,0.6,0.6,1.4,0.7,2.1c0.2,3.9,0.1,7.8,0.4,11.7c0.2,2.9-1.2,4.6-3.4,6
	c-0.6,0.4-1.4,0.5-2.1,0.4c-2.9-0.2-4.7-2-6.5-4.1c-1.2-1.4-2.5-2.8-4.5-3c-1-0.1-2.1,0.2-3.1,0.5c-2.7,0.8-4.9,2.2-6.6,4.4
	c-1.9,2.5-1.7,5.6-1.7,8.5c0,1.8,0.2,3.6,0.3,5.5c0.1,2.4,1.2,4.2,2.8,5.9c0.8,0.9,1.6,1.9,2.5,3c-0.4,0.2-0.7,0.3-0.9,0.4
	c-1.7,0.3-3.4,0.4-5,0.9c-2,0.7-4.1,1.6-5.8,2.9c-3.1,2.4-5.5,5.6-7.8,8.8c-2.8,4-5.2,8.2-5.9,13c-0.2,0.9-0.5,1.9-0.8,2.8
	c-0.4,1.1-0.8,2.1-1.3,3.1c0.1,0.1,0.2,0.1,0.3,0.2c0.4-0.5,0.8-0.9,1.3-1.5c1.1-1.2,2-2.5,3.1-3.7c5.4-5,10.8-9.9,16.4-14.8
	c2.6-2.4,3.5-4.4,7.1-5.3c0.3-0.1,1.9-0.5,2.3-0.7c-0.1-0.1-0.1-0.1,0.1-0.1c0,0,0,0.1-0.1,0.1c0.4,0.2,2.4,0.7,1.7,0.6
	c0.9,0.1,1.3,0.6,2.4,0.7c0.4,0.1,0.6,0.2,0.7,0.2c5.2,2.9,9.4,7,12.7,12c1,1.5,1.2,3.3,0.9,5.1c-0.1,0.4-0.7,0.9-1.1,0.9
	c-0.5,0-1.1-0.4-1.4-0.8c-1.5-1.7-3.7-2.2-5.6-2.2c-1.9,0.1-3.9,1.3-5.7,2.2c-1.1,0.5-1.9,1.5-3,2.4c-2.3-2.6-5.5-2-8.3-0.9
	c-3.6,1.2-7,3.1-9.3,6.3c-1.4,1.9-3.4,3.4-3.1,6.4c0.3,2.9-0.1,5.8,0.4,8.7c0.1,0.2-0.1,0.5-0.2,0.7c-1.4,1.4-2.7,2.8-4.2,3.9
	c-2.1,1.6-4,3.2-5.2,5.6c-0.8,1.7-1.6,3.4-2.7,4.9c-1.4,1.8-2.1,3.7-2.5,5.8c-0.2,1.2-0.4,2.5-0.6,4.2c1-1.3,1.7-2.4,2.5-3.3
	c1-1.2,1.9-2.8,3.2-3.7c2.6-1.8,5.5-3.3,8.2-4.9c1.3-0.8,2.5-1.5,3.9-2.3c0.3,0.6,0.5,1.1,0.8,1.5c0.9,1.5,1.1,1.5,2.3,0.2
	c1.2-1.2,2-2.9,3.9-3.5c3.2-1,6.4-2.1,9.5-3.3c1-0.4,2-1.1,2.7-1.8c1.4-1.5,2.9-2.1,4.8-1.5c1.4,0.5,2.9,0.9,4.3,1.5
	c2.5,1.2,4.6,2.9,4.8,6.1c-3.8,0.7-4.1,4.3-6,6.8c-0.2,0.2-0.1,0.7-0.1,0.9c-0.1,1.4,0.9,2.8,0,4.2c-0.2,0.3,0.2,1.1,0.5,1.5
	c0.1,0.2,0.5,0.4,0.5,0.6c0.5,1.9,2.1,2.8,3.3,4c0.6,0.6,1.6,1.2,1.2,2.4c-1.3-0.9-2.4-2-3.8-2.6c-2.7-1.2-5.5-2.3-8.3-3.4
	c-0.5-0.2-1.1-0.4-1.4-0.8c-3-3.9-7.4-4.6-11.4-1.7c-0.2,0.1-0.5,0.2-0.7,0.4c0.8-1.5,0.8-2.7-0.6-3.8c-0.8-0.6-1.3-0.8-2.2-0.7
	c-0.8,0.2-1.7,0.2-2.4,0.5c-1.3,0.5-2.7,0.9-3.7,1.8c-3.2,3-5.9,6.5-7.9,10.3c-2.4,4.5-5.3,8.9-5.5,14.3c-0.2,2.9-0.7,5.8-0.1,8.6
	c0.4,1.8,1.2,3.4,2.8,4.9c0.3-1.4,0.2-2.7,0.8-3.4c1.8-2,3.8-3.9,5.9-5.4c1.2-0.9,3-1.1,4.4-1.8c2.4-1.2,4.8-2.6,7.2-3.9
	c0.4-0.2,0.7-0.3,1.1-0.4c0.3,3.4,0.8,4.6,3.2,7.1c0.2,0.2,0.4,0.5,0.5,0.7c1.2,1.5,2.3,3.3,3.7,4.4c2.4,2.1,4.9,4,6.8,7
	c0.2-0.5,0.5-0.9,0.5-1.3c0.5-2,2-3.1,3.8-3.7c2.3-0.7,4.6-1.1,6.9-1.7c0,3.3,0,6.8,0,10.3c-0.6,0.1-1.2,0.2-1.7,0.4
	c-0.3,0.1-0.7,0.5-0.7,0.7c0.5,1.1,0.1,2.7,1.6,3.4c1.1,0.5,1,1.4,0.8,2.3c-1.4,0.1-2.7,0.1-4.1,0.2c-2.8,0.4-5.7,0.2-8.4-0.5
	c-1.5-0.4-2.9-0.7-4-2.3c-1.2-1.7-3.4-1.2-5.2-0.9c-1.8,0.4-3.3,1.1-3.9,3.1c-0.4,1.4-1.1,2.6-1.8,3.9c-0.2,0.4-0.5,0.7-0.9,1.1
	c-0.2-0.4-0.3-0.5-0.3-0.7c-0.1-0.6,0-1.2-0.1-1.8c-0.1-0.5-0.2-1.4-0.5-1.5c-0.6-0.2-1.4,0-1.9,0.3c-0.5,0.2-0.9,0.8-1.2,1.2
	c-2.8,4.2-6,7.9-9.9,11.1c-2.1,1.7-3.3,4-4.4,6.3c-1,2.2-1.1,4.5-0.7,6.8c0.4,1.8,1.1,3.6,1.6,5.3c0.5,1.5,0.9,3,1.5,4.9
	c1-1.8,1.8-3.3,2.8-4.8c0.5-0.8,1.1-1.5,1.7-2.3c0.2-0.3,0.5-0.6,0.7-0.9c0.9-1,1.7-2.1,2.6-3.1c1.5-1.5,3.3-3,4.8-4.5
	c0.9-0.9,1.6-2,2.5-2.8s2-1.5,3-2.4c0.7,0.9,1.3,1.7,2,2.4c1.1,1.2,2.2,2.3,3.3,3.4c1.4,1.2,3.6,1.5,4.3,3.7c-4.6,1.3-8,4.4-11,8.3
	c-0.2-0.5-0.3-0.8-0.4-1.1c-0.7-1.7-0.8-3.6-2.3-4.8c-0.4-0.4-1-0.5-1.5-0.8c-0.2,0.5-0.7,1.1-0.7,1.7c-0.5,2.4-0.8,4.9-1.4,7.4
	c-0.2,0.8-0.5,1.7-1,2.4c-1.7,2.4-3.4,4.7-5.2,7.1c-1.5,2-2.7,4.1-2.5,6.7c0.1,0.5-0.4,1.1-0.5,1.7c-0.1,1.1-0.4,2.3-0.2,3.3
	c0.4,1.4,1.3,2.8,2,4.1c1.2,2.3,2.4,4.4,3.7,6.7c0.2,0.3,0.5,0.5,0.5,0.6c0.8-2.4,1.6-4.9,2.4-7.4c0.1,0.1,0.2,0.1,0.4,0.1
	c-0.1,1.5-0.3,3.1-0.2,4.6c0.2,2.3,0.9,4.5,1,6.8c0.1,2.8,1.5,4.9,3.3,6.8c0.8,0.8,1.5,1.6,2.5,2.5c0.2-0.5,0.4-0.7,0.4-0.9
	c0.4-2.1,1.4-3.7,3.3-4.8c1.2-0.7,2.4-1.8,3.4-2.8c1.7-1.8,3.3-3.7,4.8-5.6c0.3-0.4,0.4-0.8,0.7-1.3c0.9-2,1.8-4,2.8-6
	c0.1-0.2,0.4-0.4,0.5-0.5c0.4-0.5,1-1.1,1.2-1.7c0.5-1.1,0.8-2.3,1.2-3.4c2.5,1.7,4.9,3.6,7,5.8c2.7,2.8,2.5,6.1,2.3,9.4
	c-2,0.2-3.8,0.5-5.6,0.7c0,0.2,0,0.4,0,0.7c0.5,0.2,1,0.4,1.5,0.5c0.8,0.1,1.5,0.1,2.3,0.1c1.4,0.1,2,0.8,2,2.2
	c-0.1,3.3-0.1,6.6,0,9.8c0.1,3.3-0.2,6.5,0,9.8c0.3,4.8,0,9.6,0.1,14.4c0.1,4.7-0.2,9.5-0.2,14.2c0,5.9-0.2,11.9-0.2,17.8
	c0,2.3-0.2,4.1-2.1,5.6c-0.1,0.1,0,0.2,0,0.4c2.8,0,5.6,0,8.3,0c1.6,0,1.7-0.3,1.4-2c-0.7-3-1.7-6-1.8-9
	c-0.5-12.7-0.6-25.4-0.9-38.2c-0.1-3.2,0-6.4-0.2-9.5c-0.2-3.2,0.5-6.3-0.1-9.5c-0.4-2.1,0.1-4.3-0.2-6.5c-0.3-2.5,0.8-4.3,2.2-5.9
	c1.2,0.4,2.3,0.7,3.4,1.1c0.7,0.3,1.4,0.7,2.1,1c1.5,0.7,3.1,1.2,4.7,1.8c0.6,0.2,1.4,0.1,1.8,0.5c1.3,1,2.7,1.3,4.3,1.3
	c1.2-0.1,2.1,0.3,2.8,1.2c0.2,0.2,1.2,0.3,1.2,0.2c0.9-2.1,2.9-2.8,4.5-4.1c0.8-0.7,1.5-1.7,2.1-2.5c0.9-1.2,1.7-2.4,2.5-3.7
	c0.1-0.2,0.5-0.3,0.7-0.3c2.3,0.1,4.1,1.4,5.9,2.7c0.3,0.2,0.5,0.6,0.8,0.9c1,1.4,2,2.8,2.9,4.1c0.6-1.1,1-2.1,1.7-3s1.5-1.7,0.8-3
	c-0.2-0.3-0.1-0.8,0.1-1.1c0.5-1,0.2-1.8-0.4-2.6c-1.2-1.8-2.5-3.6-3.5-5.6c-1-2.1-1.9-4.1-3.6-5.8c-2-1.9-4-3.3-6.9-2.1
	c-1.3,0.5-2.3,0.2-3.3-0.8c-1.9-2-4.3-2-6.4-0.3c-0.3,0.2-0.7,0.5-0.9,0.7c-1.8,0.8-1.9,0.8-0.9,2.5c-0.9,2.5-3.2,3.6-5.5,4.4
	s-4.8,1-6.9-1.4c1.2-0.9,2.6-1.8,3.6-3.1c1.2-1.5,2.3-3.3,3.3-5c0.6-1.2,0.6-2.8,1.4-3.7c1.4-1.7,1.1-3.6,1.4-5.4
	c0.4-2.1-0.2-4.3,0.1-6.3c0.2-2.2-0.1-3.9-1.9-5.2c0,0,0-0.2,0.1-0.3c1.1,0.5,2.4,0.9,3.1,1.7c0.9,0.9,2,1.2,3.2,1.5
	c2,0.4,3.9,0.8,5.9,1.2c1,0.2,2,0.5,2.8,1c2,1.1,3.9,2.3,6,3.5c0.7-2.5,1.1-4.9,1.8-7.1c0.7-2.2,1.5-4.3,2.2-6.5
	c0.4-1.4,0.5-2.8,0.6-4.3c0.1-1.2-0.5-2.5-0.4-3.7c0.4-3-1.4-4.9-3-6.9c-0.6-0.8-1.1-1.5-1.7-2.3c-0.6-0.7-1.2-1.3-2-1.7
	c-1.7-0.9-3.6-1.4-5.3-2.4c-1.6-0.9-3.1-1.1-4.9-0.6c-0.8,0.2-1.8,0.3-2.4-0.1c-1.7-0.8-3.3-1.9-4.9-2.8s-4.7-0.4-6,0.9
	c-1.5,1.7-3.4,2.7-5.8,1.6c-1-0.5-2.1-0.9-3-1.5c-0.5-0.4-0.9-1.1-1-1.7c-0.1-2.6,0.1-5.2-0.1-7.8c-0.1-1.7,0.5-3,1.6-4.1
	c2.6-2.5,5.8-2.9,9.2-2.8c-0.7,0.8-1.5,1.4-1.7,2.1c-0.4,1.3,1.2,3.7,2.7,3.7c2.1,0.1,3.6,1.5,4.9,2.7c1.9,1.8,4.1,3,6.3,4.3
	c0.8,0.5,1.8,0.5,2.8,0.7c0.4,0.1,0.9,0,1.3,0.2c3.1,1.3,6.2,2.6,9.2,4c3.7,1.6,6.3,4.1,7.2,8.2c0.1,0.2,0.2,0.3,0.5,0.8
	c0.5-2.3,1.3-4.1,0.5-6.2c-0.7-1.8-1.5-3.7-2.1-5.6c-1.2-3.9-2.6-7.6-6.4-9.9c-0.4-0.2-0.7-0.5-0.8-0.8c-0.2-0.5-0.6-1.2-0.4-1.8
	c0.7-2,0.2-3.8-0.8-5.5c-1.1-2-2.3-3.9-3.4-5.8c0.1-0.1,0.1-0.1,0.1-0.2c0.8,0.6,1.7,1.2,2.6,2c0.2-0.8,0.4-1.6,0.5-2.3
	c0.4-1.2,0.8-2.5,1.2-3.8c0.5-1.7,0.8-3.4,1.3-5.2c0.8-2.6,1.6-5.3,1.1-8c-0.4-2-1.6-3.9-2.5-5.9c-0.7-1.4-1.4-2.6-2.2-3.9
	c0.1-0.1,0.2-0.2,0.4-0.3c0.8,0.5,1.7,0.9,2.5,1.5c1.9,1.3,3.6,3.1,5.8,4c3,1.2,4.4,3.6,5.8,6c0.2,0.4,0.4,0.7,0.5,1
	c0.5-1.2,0.7-2.4,0.7-3.5c0.1-3.6,0.2-7.1,0.1-10.7c-0.1-2.3-0.8-4.5-1.2-6.7c-0.3-1.4-0.5-2.8-1.1-4c-1.6-3.2-3.1-6.5-5.7-9
	c-1.9-1.9-4.3-3-6.8-3.2c-3.6-0.4-6.5,1.7-8.3,4.7c-1.1,1.8-2.5,2.9-4.6,3.3c-0.7,0.1-1.7-0.3-2-0.8c-1.2-2-2.5-3.7-5.5-3.6
	c0.4-0.6,0.6-0.9,0.8-1.2c1-1.4,2.1-2.7,2.9-4.3c1.8-3.7,1.4-7.3-0.7-10.8c-0.3-0.5-0.8-1-1.2-1.4c-0.7-0.6-1.5-1.5-2.4-1.6
	c-3.4-0.2-6.6,0.2-9.1,2.9c-0.8,0.9-1.7,0.9-2.7,0.1c0.1-0.2,0.1-0.4,0.2-0.6c0.2-0.4,0.5-0.8,0.7-1.1c3.2-4.2,7.3-7.2,12.4-8.7
	c0.6-0.2,1.2-0.5,1.8-0.5c0.8,0,1.2,0.4,1.7,1.3c0.4,0.9,1.8,1.4,2.3,2.3c1.7,2.8,4.6,3.4,7.2,4.1c3.3,0.9,6.2,1.8,7.8,5.2
	c0.2,0.4,0.7,0.7,1.2,1.3c0.4-2.8,0.6-5.3,0.9-7.8c0.2-0.1,0.4-0.2,0.5-0.4c2.9,1.8,5.8,3.5,8.7,5.3c2.9,1.9,4.7,4.7,6.5,7.6
	c1.2,2.2,3.3,3.4,5.6,4.6C1310.1,290.6,1308.7,288.2,1307.6,285.7z M1246.9,204.2c0.7-0.3,1.2-0.5,2.1-0.9c-0.4,0.9-0.7,1.5-1.1,2.4
	C1247.6,205.1,1247.3,204.7,1246.9,204.2z M1249.7,208c-1.2-1.4-0.9-1.8,1.3-2.5C1250.5,206.3,1250.1,207.1,1249.7,208z
	 M1251.2,273.2c-3.7-5.3-8.3-9.1-13.7-12.3c0.4-0.5,0.7-1.1,1.2-1.5c1.5-1.1,3.1-2.1,4.7-3.1c0.3-0.2,1-0.2,1.2-0.1
	c1.7,1.4,3.4,2.8,5.1,4.3c0.4,0.4,0.9,0.6,1.4,0.8C1251.2,265.1,1251.2,269,1251.2,273.2z M1248.7,337.9c-0.4,0.5-1,0.9-1.4,1.5
	c-0.6,0.7-1.2,0.9-2.2,0.5c-0.7-0.2-1.7,0-2.5,0.3c-1.2,0.5-4-0.1-4.9-1c-2.3-2.7-2.3-2.7-5.1-4.1c1.2-2.2,2.4-4.3,3.5-6.5
	c-0.1-0.1-0.2-0.1-0.4-0.2c0.1-0.1,0.3-0.1,0.4-0.1c4.3,0.9,8.1,2.9,11.3,5.9c0.7,0.7,1.1,1.8,1.5,2.8
	C1249,337.2,1248.8,337.7,1248.7,337.9z M1231.2,424.4c-2,1.7-2.4,1.6-4-0.4c-0.3-0.4-0.8-0.6-1.2-0.7c-0.7-0.2-1.4-0.3-1.8-0.4
	c-0.2-1.8-0.3-3.4-0.4-5c0-0.1-0.1-0.2-0.1-0.3c0.9-2.2,1-4.9,3.1-6.6c0.1,0.1,0.2,0.1,0.2,0.1c-0.4,1.7,0.3,3.3,0.8,4.9
	c0.1,0.1,0,0.3,0.1,0.4c1.1,2,2.1,4,3.3,5.9C1231.8,423.1,1232,423.7,1231.2,424.4z M1248.7,435.1c-0.7-0.8-1.4-1.5-2.1-2.2
	c0.1-0.1,0.1-0.2,0.2-0.3c0.7,0.2,1.4,0.5,2,0.7C1248.8,433.9,1248.8,434.4,1248.7,435.1z M1248.2,401.7c-2.5-0.7-5-1.6-7.5-2.4
	c-0.1-0.2-0.1-0.3-0.1-0.5c2.1-1.4,4.1-2.8,6.4-4.3c0.8,2,1.7,3.8,2.3,5.6C1249.7,401.1,1249.5,402.1,1248.2,401.7z M1254.3,378
	c0.4,0.2,0.7,0.3,1.1,0.5c2.1,1,3.9,2.5,6.4,2.5c1.2,0,2.5,0.9,3.8,1.5c0.2,0.1,0.4,0.4,0.7,0.7c-1.4,0-2.5,0.1-3.7,0
	c-0.4,0-0.8-0.2-1-0.5c-1.4-1.4-3.1-2-5.2-2C1255,380.8,1254,379.5,1254.3,378z M1253.8,391.5c1.3,0.8,2.5,1.5,3.6,2.3
	c0.4,0.4,0.5,1.1,0.7,1.6c-1.6,0.8-3,1.5-4.6,2.4C1253.6,395.7,1252.9,393.5,1253.8,391.5z M1285.6,355.6c-1.5-1.2-2.8-2.4-4.3-3.6
	C1285.2,353.5,1285.3,353.7,1285.6,355.6z M1253,334.3c0.8,0.8,1.4,1.3,2.1,2c-0.8,0.7-1.3,1.1-2.1,1.8
	C1253,336.8,1253,335.8,1253,334.3z M1263.2,353c-3.7-0.3-7.2,0.4-10.1,3.3c-0.1-1.2-0.7-2.3,0.8-3.3c0.8-0.5,1.1-1.8,1.4-2.8
	c0.5-2,2.1-3.7,1.4-6c-0.4-1.5-0.2-3.2-1.6-4.3c-0.2-0.2-0.4-1-0.2-1.2c0.4-0.5,1.1-1.3,1.7-1.2c0.8,0.1,1.8,0.6,2.4,1.2
	c0.9,0.9,1.7,2,2.3,3.1c1.2,2.4,3.3,3.7,5.7,4.6c1.4,0.5,2.7,1.3,4,2c-0.1,0.1-0.1,0.2-0.2,0.3c-0.4-0.1-0.8-0.2-1.2-0.3
	c-0.5-0.1-1.4-0.4-1.4-0.2c-0.3,0.5-0.5,1.2-0.4,1.8c0.3,1.4,1,2.5,2.4,3.2c0.4,0.2,0.7,0.4,0.9,0.9
	C1268.4,353.5,1265.8,353.1,1263.2,353z M1264.3,298.3c0.5-0.4,1-0.8,1.5-1.2c0.3,0.6,0.5,1.2,0.9,1.9c-1.2,0-2.1,0-3.3,0
	C1263.8,298.7,1264.1,298.5,1264.3,298.3z M1254.5,304c2.8-2.3,5.9-3.6,9.7-3.7c2.6-0.1,3.8,1.4,5.2,2.9c0.9,1,1.7,2.1,2.6,3.1
	c1.2,1.4,1.2,2.1-0.2,3.3c-0.3,0.2-0.6,0.5-0.7,0.9c-0.7,2-2.1,3.1-4.3,3.8c0.5,0.1,0.8,0.2,1.1,0.2c-0.9,0.6-1.7,1.1-2.6,0.1
	c-0.2-0.2-0.9,0.1-1.4,0.1c-0.9-0.1-2-0.1-2.5-0.5c-2.2-1.8-4.4-3.3-7.4-2.4c-0.1,0.1-0.3-0.1-0.6-0.1c0-2-0.1-4,0.1-5.9
	C1253.3,305.1,1254,304.5,1254.5,304z M1253.9,277.8c0-3.9-0.2-7.6,0.1-11.3c0.1-1.8,1.4-3.1,3-4.4c1.2,2,3.3,1.8,5.2,2.3
	c1.5,0.4,3.4,2.3,4.1,4.5C1261.6,271.1,1257.2,273.6,1253.9,277.8z"/>
<path d="M1091.2,129.5c0.7,0.3,2.9,0.7,5.5,0.8c7.8,0.6,10.7,2.1,10.7,5.8c0,0.7-0.3,1.8-0.6,2.5c-0.7,1.4-0.5,1.8,1.6,3.3
	c0.8,0.6,1.7,1.3,2.1,1.6s1.3,0.8,2.1,1.2c2,1,2.2,1.5,1.5,3s-1.6,1.7-4.4,1.2l-2.1-0.4l-3.1,1.5c-1.8,0.8-4.6,2-6.5,2.7
	c-3.9,1.4-4,1.5-4.6,5.1c-0.5,2.8-0.5,13.1,0,19.1c0.4,5.3,2.8,27.4,3.5,33c0.3,2.1,1,6,1.6,8.7c1.6,7,7.2,31.9,7.4,33.3
	c0.1,0.7,0.5,1.5,0.9,1.8c0.7,0.6,2.2,2.9,2.2,3.2c0,0.1-0.3,0.1-0.7,0c-0.9-0.3-0.8,0,0.8,2c1.5,1.8,1.6,2.1,0.1,1.3
	c-1.4-0.8-1.6-0.6-1.1,0.7c0.2,0.7,0.4,2,0.4,2.9v1.6l-0.6-0.9l-0.6-0.9l-0.2,0.7c-0.4,1.5-0.2,2.9,0.8,4.7c0.5,1,1.1,2.6,1.3,3.5
	c0.2,0.9,0.7,2.1,1,2.7l0.6,1.1l-0.8-0.2c-0.5-0.1-0.8-0.2-0.8-0.1s0.3,0.9,0.6,2c0.6,1.8,0.6,1.8,0,1.5c-1-0.5-1.2,1.3-0.4,2.6
	l0.7,0.9l-0.7,0.2c-0.5,0.1-0.7,0.4-0.5,0.7c0.1,0.3,0.3,1,0.4,1.7l0.2,1.2l-0.8-1l-0.8-1l-0.2,0.8c-0.8,3.7-0.9,5.1-0.8,6.9
	l0.1,2.1l-0.9-0.6c-0.5-0.3-0.9-0.5-1-0.4c0,0.1-0.5,0.9-1,1.9s-1.3,2.2-1.7,2.6c-0.4,0.5-0.8,1.4-1,2c-0.2,1-0.3,1.2-0.9,1
	c-0.7-0.2-0.7,0-0.7,1.6c0,1.5-0.3,2.2-1.5,4.1c-0.8,1.3-2,4-2.7,5.9c-1.2,3.4-1.3,3.5-1.5,2.4l-0.2-1.2l-1.5,1.3
	c-1.1,0.9-1.7,1.8-2.2,3.3c-0.5,1.3-0.8,1.9-1,1.6c-0.4-0.6-0.4-0.5-1.5,2.9c-0.5,1.6-1,3-1.1,3s-0.3-1-0.5-2.2
	c-0.3-2.1-0.3-2.2-0.7-1.2c-0.6,1.3-0.3,4.3,0.6,5.9c0.8,1.7,0.8,1.8,0,1.4c-0.4-0.2-0.7-0.3-0.8-0.3c-0.1,0.1,0.1,1.4,0.5,3
	c0.3,1.6,0.6,3,0.5,3c-0.1,0.1-0.4-0.3-0.7-0.9c-0.8-1.7-0.9-0.9-0.1,1.5c0.6,1.9,0.7,3.1,0.9,8.5c0.1,3.7,0,6.4-0.2,6.6
	s-0.5,0-0.9-0.6l-0.6-0.9l-0.4,1.5c-0.2,0.8-0.7,2.3-1.1,3.4s-0.8,2.7-0.9,3.7l-0.2,1.7l-0.7-0.7c-1-0.9-1.5-0.5-2.2,1.6
	c-0.8,2.4-3.2,6.1-5.6,8.8l-2.3,2.4v-1.1c0-0.6-0.1-1-0.2-1s-1.4,1.1-3,2.5l-2.8,2.5l-0.6-0.7l-0.6-0.7l-1.9,1.3
	c-2.9,2-2.8,1.9-2.6,0.9c0.2-0.8,0-0.7-1.9,1.1c-2,2-2,2-2.4,1.3c-0.2-0.4-0.5-0.8-0.5-0.9c-0.1-0.1-0.8,0.6-1.8,1.4
	c-1.3,1.2-1.8,1.5-2.1,1.2c-0.3-0.3-0.9-0.1-2.2,0.6c-2.1,1.1-4.5,2-7.7,3c-3,0.8-3.3,0.8-3.2,0.1c0.1-0.7,0.4-0.7-5,0.9
	c-5.3,1.6-6.7,1.9-6.7,1.1c0-0.7,0-0.7-1.5,0c-1.7,0.7-7.1,1.8-7.6,1.6c-0.2-0.1-1,0.4-1.7,0.9c-0.7,0.6-2.1,1.5-3.1,2
	c-1.6,0.8-9.9,4.4-10.2,4.4c-0.1,0-0.1-0.2-0.1-0.5c0-0.4-0.6-0.5-3-0.3c-7.1,0.4-7.6,0.4-8.9,1.1c-0.7,0.4-2.1,1-3,1.3l-1.7,0.7
	l0.2-1.1c0.2-1.2,0.1-1.3-0.9-0.8c-0.3,0.2-1.5,0.5-2.5,0.6l-1.9,0.2l-3.1,6.1c-4.8,9.7-7.4,15.7-7.4,17.6c0,1.8-1,4.2-2.4,5.8
	c-1.4,1.6-1.8,3.1-1.6,4.9c0.1,1.2,0.1,1.8-0.3,2.2c-0.3,0.3-0.6,1.4-0.7,2.5c-0.1,1.1-0.6,2.7-1,3.6s-0.8,1.9-0.8,2.3
	c0,1.8,10.8,61,11.2,61.8c4,7.3,4,7.3,6.9,7.3c1.2,0,2.8-0.2,3.6-0.4c3.4-0.7,3.5-0.7,5.2,0.1c0.9,0.4,2.8,1,4.1,1.2
	c3,0.5,4.4,1.2,6.3,3.2c2.2,2.3,2.5,4.3,0.8,4.3c-0.5,0-2.1-0.5-3.6-1c-2.1-0.7-2.9-0.9-3-0.6c-0.1,0.2-0.5,0.8-1,1.4
	c-0.7,0.8-1.2,1-3.3,1.2c-1.3,0.2-3.5,0.3-4.8,0.3c-3.4,0-3.8,0.4-1.2,1.2c3.3,1.1,5.1,1.9,5.9,2.8c0.6,0.7,1.3,0.9,3.8,1.3
	c2.8,0.4,4.3,1,6.4,2.2c0.5,0.3,1.2,0.5,1.8,0.5s1.2,0.2,1.5,0.5s1.1,0.6,1.7,0.7c0.7,0.2,1.1,0.5,1.2,0.9c0.1,0.5,0.8,1,2.2,1.7
	c2.6,1.2,5.9,4.5,7.7,7.6c1.1,1.8,1.3,2.3,0.8,2.4c-0.7,0.2-2.6-0.7-5.6-2.5c-1.5-0.9-3-1.7-3.3-1.7s-0.9,0.4-1.4,0.7
	c-1,1-3.6,1.8-6.3,2.1c-2,0.2-2.6,0.1-8.6-1.2c-2.6-0.6-8-1.4-8.2-1.2c0,0,0.2,0.9,0.4,2c0.5,2.3,0.6,3.1,0.2,3.7
	c-0.3,0.4-0.6,0.4-1.9-0.2c-0.8-0.4-2.4-0.8-3.5-0.9c-3-0.3-4.3-0.7-4.8-1.6c-0.4-0.5-1.1-0.9-2.2-1.2c-3.7-0.9-4.3-1.6-4.8-5.5
	c-0.2-1.5-0.4-2.8-0.5-2.9c-0.1-0.1-0.5,0.2-0.9,0.6l-0.7,0.7l-0.2-3.4c-0.2-3.2-0.3-3.6-1.6-5.8c-0.7-1.3-1.6-2.8-1.9-3.3
	c-0.4-0.8-1-1-3.3-1.7c-3.7-1-9.7-4-10.8-5.3l-0.9-1l0.1-10.2c0.1-7,0.4-12.6,0.8-17.4c1.2-12.4,2.7-34.9,2.6-37.4
	c-0.2-2.8-1.6-6.9-3.9-11.5c-0.8-1.6-2-4.5-2.6-6.3c-1.8-5.5-1.4-9.5,1-12.6c0.4-0.5,0.7-1.2,0.7-1.7c0-1,1.1-2.8,2.3-3.7
	c0.5-0.4,0.9-0.8,0.9-1.1s0.7-1.4,1.6-2.7c1.4-2,7.5-13.5,7.5-14.1s-4.5-1.1-9.6-1.1h-5.5l0.7-1c0.4-0.6,0.8-1.1,0.8-1.2
	s-1.8,0.2-4,0.7s-4.1,0.8-4.2,0.7c-0.2-0.1-0.3-0.6-0.3-1.1c0-0.8-0.1-0.9-1-0.9s-1,0.1-1,1c0,1.2-0.4,1.2-1.1,0
	c-0.7-1.2-1.3-1.5-3.2-1.7c-0.8-0.1-1.8-0.3-2-0.4c-0.5-0.2-0.5,0-0.4,0.9c0.1,0.6,0.6,1.9,1.1,2.9c1.1,2,1.1,2.3,0.5,2.3
	c-0.7,0-2.9-2.3-4.4-4.6c-1.1-1.8-1.3-1.9-1.3-1.1c0,2,1,5.3,2.1,6.9c3.3,4.5-3,0.4-7.1-4.7l-0.9-1.1l0.2,2c0.2,3.3,1.3,4.7,6.8,9.5
	c2.6,2.2,4.6,4.1,4.4,4.2c-0.2,0.1-1-0.1-1.9-0.4c-0.8-0.3-1.6-0.5-1.7-0.5c-0.4,0,1.3,3.1,2.3,4.1c1,1.1,3.1,2.3,4.5,2.7
	c2,0.6-0.2,1.9-3.3,1.9c-1.4,0-2.7,1.1-3,2.5c-0.5,2.5-2.2,4.2-3.3,3.3c-0.4-0.3-0.5-0.7-0.3-1.4c0.2-0.8,0-1.1-1.3-2.3
	c-0.9-0.7-2.7-2.4-4-3.8c-2.4-2.4-2.5-2.2-0.5,0.8c1,1.6,0.3,1.3-3.3-0.9c-1.4-0.9-3.3-2.4-4.2-3.4l-1.7-1.8l0.5,1.3
	c0.3,0.7,0.8,1.5,1.1,1.9c0.6,0.7,0.5,1-0.2,0.5c-1.4-1.1-3.2-4.2-4.1-7.2l-0.6-1.9l-0.2,1.7c-0.1,1-0.3,1.8-0.4,2
	c-0.4,0.4-2-0.8-2.6-2c-0.3-0.7-0.7-2.2-0.8-3.5l-0.3-2.3l-1.5,3.2c-0.9,1.8-1.7,3.6-1.9,4c-0.5,1.4-1.5,1.3-2,0
	c-0.1-0.2-1,0.4-2.2,1.4c-1.9,1.5-2.1,1.6-2.8,1.2c-0.4-0.2-1.3-1.7-2.1-3.2c-1.3-2.5-1.4-2.9-1.2-4.5c0.1-0.9,0.1-1.7,0.1-1.7
	c-0.1,0-0.7,0.9-1.3,2c-0.7,1.1-1.3,1.9-1.5,1.7c-0.5-0.5-1-4.7-0.8-6.6c0.1-1,0.7-2.8,1.2-3.9c1.4-2.8,1.4-2.9,0.2-1.5
	c-0.6,0.7-1.1,1.2-1.3,1.2c-0.4,0-1-1.9-1-3.1c0-1.7,1.1-3.5,3.3-5.5c1.2-1.1,2.4-2.4,2.7-2.9c0.5-0.8,0.5-1,0.1-1.4
	c-0.3-0.3-0.7-0.4-1.2-0.2c-0.8,0.3-4.1,4.1-4.7,5.5c-0.7,1.3-1.8,1.4-2.9,0.2c-1.8-2-1.9-4.9-0.2-8.9c0.6-1.3,1.1-2.6,1.2-2.9
	c0.1-0.3-0.8,0.7-2,2.3c-1.2,1.5-2.5,3-2.9,3.3c-0.8,0.6-0.8,0.6-0.3,2.3c0.6,2.1,0.6,4.6,0,5.7c-0.3,0.6-0.7,0.8-1.5,0.9
	c-0.6,0.1-1,0.3-1,0.5s0.8,2.3,1.8,4.5c1,2.3,1.7,4.1,1.6,4.1c-0.1,0-0.9-0.6-1.8-1.3l-1.7-1.3l-0.2,3.1l-0.2,3.1l-1.8-2.1
	c-1-1.2-1.8-2.1-1.9-2c-0.1,0.1,0.1,0.9,0.3,2c0.2,1,0.3,1.9,0.2,2s-1.6-0.3-3.3-0.8l-3.1-1l1.3,1.5c0.7,0.8,1.9,2.1,2.6,2.8
	c0.7,0.7,1.8,1.9,2.3,2.5l1,1.2l-2.5-1.6c-1.4-0.9-2.6-1.6-2.6-1.6c0,0.1,0.1,0.7,0.3,1.3c0.5,1.5,0,2.5-1.6,3.5
	c-1.9,1.2-3.8,0.8-6-1.2c-1.2-1.1-1.6-0.7-2.9,2.6c-0.6,1.4-1.2,2.6-1.3,2.6s-0.3-0.5-0.3-1.1c0-1.6-1.3-2.9-3.4-3.7
	c-1-0.4-2.1-0.7-2.4-0.7c-0.7,0-0.7,0.1-0.1,2.8c0.3,1.2-0.5,1.2-1.9,0.2l-1.3-1v0.8c0,2-2.1,1-3.4-1.6c-0.9-1.8-2.2-7.4-2.6-10.7
	c-0.1-1.1-0.3-2.2-0.5-2.4c-0.1-0.2-1.1-0.9-2.1-1.7c-4.2-3.3-5.1-4.1-5.5-5.1c-0.2-0.6-0.6-1.5-0.9-2c-0.8-1.5-0.2-4.4,2-9.5
	c0.1-0.3-0.1-0.3-0.9-0.1c-0.6,0.2-1.1,0.3-1.2,0.2c-0.1-0.1,0.6-1.4,1.5-3l1.6-2.9l0.3-4.4c0.4-4.9,0.8-6.3,3.6-12
	c2-3.9,4.2-7.4,5.7-9.2c0.6-0.7,1.1-1.5,1.1-1.8c0-1.3,1.4-5.9,2.5-8.1c1.3-2.8,3.6-5.4,7.7-8.8c2.8-2.3,9.2-8.4,9.2-8.7
	c0-0.1-0.7-0.1-1.5-0.1c-1.8,0-1.9-0.4-0.6-2.5c1.3-2.3,3.9-4.1,7.7-5.5l2-0.7h-2.9H862l1.5-1.3c0.8-0.7,2.5-1.8,3.9-2.5
	c2.4-1.2,2.5-1.2,6-1.2c4.3,0,4.7-0.2,3.9-2c-0.9-2-0.7-2.2,0.9-1.1l1.4,1l1.5-0.9c0.9-0.6,1.6-1.2,1.7-1.8c0.4-1.6,0.5-2,0.8-2
	c0.2,0,0.3,0.4,0.3,1c0,0.5,0.1,1,0.2,1c0.1,0,4.5-2,9.8-4.4c12.4-5.6,18-8.1,26-11.3c39.4-15.7,68.5-20.1,90-13.4
	c3.8,1.2,10,4.3,13.2,6.5c1.5,1.1,3.8,3,5.2,4.4l2.5,2.4l6,1.5c18.4,4.6,29,5.5,34.7,3.1c2.1-0.9,2.7-1.6,4.4-5.4
	c1.9-4.3,4.8-9.5,7.5-13.1c1.9-2.5,2-2.9,1.5-3c-1-0.3-1.2-1.6-0.4-2.6c0.7-0.9,0.7-0.9,0-2.1c-0.6-1-0.6-1.4-0.3-2.5
	c0.2-0.7,0.2-1.3,0.1-1.3c-0.2,0-0.3-0.2-0.3-0.5c0-0.6,1.5-3.6,1.9-3.9c0.3-0.2,0.3-0.6-0.3-7.6c-0.5-5.5-1-9.8-2.6-21.1
	c-6.8-47-6.5-44.4-6.6-53.9c-0.1-5.6,0-10.1,0.4-14.8c0.5-6.1,0.5-6.8,0-7.9c-0.3-0.8-0.5-2.2-0.5-3.7c0-2.1,0.1-2.8,1-4.6
	c1.9-3.8,8-8.6,10.9-8.6C1089.6,129.1,1090.6,129.3,1091.2,129.5z M874.9,363.6l0.2,1l-1.1-1.1c-0.6-0.6-1.1-0.9-1.1-0.7
	s0.7,1.9,1.6,3.7c0.9,1.9,1.6,3.5,1.6,3.6s-0.8-0.1-1.8-0.6l-1.8-0.8l0.5,1c0.7,1.3,0.7,3.7,0,3.4c-0.4-0.2-0.4,0,0,1
	c0.3,0.7,0.6,1.4,0.7,1.6c0.4,0.8,0.7,0.3,2.6-3.4c1-2.1,2.2-4.3,2.6-4.8c1.1-1.5,1-1.9-0.7-2.5c-0.8-0.3-1.8-1-2.3-1.5s-1-1-1.1-1
	S874.8,363.1,874.9,363.6z"/>
<path d="M536.5,29.3c0.7,0.2,12.6,1.1,13.3,1.3c7.5,0,15,0,22.6-0.1c7-0.3,13.3,1.4,19.4,4.1c3.6,1.6,7.2,3.5,10.7,5.4
	c5.8,3.6,11.7,7.2,17.5,10.8l0,0l0,0l0,0l0,0c3.2,4.1,6.4,8.2,9.6,12.3c5.5,12.8,11,25.6,16.5,38.3c2.9,4.4,5.8,8.9,8.4,13.4
	c5.9,10,10.8,20.4,13.1,32l0,0c0.9,2,1.8,4.1,2.7,6.1c0.5,1,0.9,2,1.4,3c1.1,4.4,2.3,8.8,3.4,13.2c1.1,4.4,2.3,8.8,3.4,13.2l0,0
	c0.4,1,0.8,2,1.1,3c0.2,2.1,0.5,4.1,0.7,6.2c1.6,4.1,3.2,8.2,4.8,12.3c1.1,2.3,2.3,4.6,3.4,6.9c2.6,8.1,5.1,16.2,7.7,24.3l1,5.7
	c0.8,5,1.6,10,2.4,15c0.2,1,0.3,1.9,0.5,2.9c0.4,3.6,0.8,7.3,1.2,10.9c0.6,7.3,1.2,14.7,1.7,22c0.2,2.7,0.5,5.3,0.8,7.9
	c0.1,1.8,0.5,11.5,0.5,18.3c-0.2,1.7-0.3,3.5-0.5,5.2c0.2,1,0.3,2,0.5,3c0.1,1.3,0.1,2.7,0.2,3.9c3.8,3.5,7.5,6.9,11.2,10.5
	c1.9,1.7,3.9,3.4,5.8,5.2c5.3,4.2,10.6,8.5,15.9,12.7c1.9,1.6,3.9,3.1,5.8,4.6c2.6,2.3,5.2,4.6,7.8,6.9c0.9,0.8,1.8,1.5,2.7,2.3
	c7.8,8,15.5,16.3,20.1,26.7c0.3,0.5,0.8,1,0.8,1.5c0,0.9-0.3,1.9-0.5,2.8c-0.8-0.3-1.8-0.5-2.4-1.2c-1.5-1.6-2.8-3.4-4.2-5.1
	c-0.1-0.1,0-0.2,0.1-0.3c-1.2-1-2.3-2-3.5-3c-6.3-4.9-12.6-9.8-18.9-14.6c-11.2-7.2-22.5-14.3-33.6-21.5c1.4,2.1,2.8,4.3,4.2,6.5
	c0.1,0.2,0.3,0.3,0.4,0.5c1.3,1.4,2.7,2.8,4.1,4.1c3.4,3.3,6.7,6.5,10,9.8c1.5,1.3,3,2.7,4.5,4c6.2,4.9,12.4,9.7,18.6,14.5
	c1.8,1.4,3.4,3.1,5.1,4.6c0.6,0.2,1.1,0.3,1.7,0.5c1,0.6,2.2,1.2,3.2,1.9c4.3,3.2,8.7,6.5,13,9.8v1.7c-6.4-0.6-11.7-4.1-17.2-7
	c-4.2-2.2-8.2-4.6-12.2-7c-1.1-0.6-2.2-1.2-3.2-1.9c-14.2-8.9-28-18.3-40.6-29.3c-0.1,1.2-0.2,2.3-0.3,3.4
	c-0.9,8.4-1.8,16.8-2.7,25.2c-0.4,2.6-0.8,5.2-1.2,7.8c-0.1,0.4-0.1,0.8-0.1,1.2c-0.3,2.1-0.6,4.3-1,6.5c-0.4,3.1-0.8,6.2-1.2,9.3
	c-0.1,0.9-0.1,1.9-0.2,2.7c-0.1,0.8-0.3,1.6-0.4,2.5c-0.2,2.1-0.5,4.2-0.7,6.2c-1.4,13-3.5,25.8-7.4,38.3c-0.8,2.3-1.5,4.6-2.3,6.9
	c-0.9,2.1-1.9,4.3-2.8,6.5c-6.1,14.2-24.8,28.2-45.8,21.6c-5.5-1.7-10.4-4.2-13.5-9.5c-1-1.8-3.3-2.9-5-4.3
	c-1.2-0.5-2.4-0.9-3.6-1.4c-0.1-0.3-0.1-0.7-0.1-1.1c6.9-0.1,9.8-5.1,13.2-9.7c1-1.3,2.7-2.1,4.1-3.1c0.5-0.3,1.5-0.2,1.8,0.1
	c1.6,1.9,3,3.9,4.4,5.9c1.4,1,2.8,1.9,4.3,2.9c1.4-0.1,3-0.3,4.4-0.4c0.8-0.7,1.6-1.3,2.2-2.1c1.3-1.7,2.2-3.6,3.6-5.1
	c1.4-1.5,1.8-2.9,1.4-4.9c-0.3-1.6-0.6-4,0.3-4.9c2.4-2.7,3.3-5.6,3.2-9.1c0-0.5,0.2-1.2,0.5-1.6c1.5-2.5,1.2-5.1,0.5-7.8
	c-0.8-3.2-0.4-6.4,1.8-9c1.8-2.1,1.9-4.2,1.1-6.7c-1.1-3.2-1.2-6.4,0.2-9.5c0.5-1.2,0.2-2.6,0.3-3.9s0.1-2.7,0.3-3.9
	c1.2-5.2,2.7-10.4,1-15.8c-0.3-1-0.2-2.1-0.2-3.1c0.3-4.5,0.6-9,1-13.5c-0.8-14.3-1.6-28.5-2.3-42.8c-0.1-1-0.3-2.1-0.4-3.1
	c-0.6-7.8-1.3-15.7-1.9-23.5c-1.1-4.7-2.3-9.4-3.4-14.1c-1-2.1-2-4.2-3-6.2c-0.9-2.1-3.8-8.3-5.6-12.6c-2.2-5.4-9.9-16.5-11.9-21.9
	c-0.8-2-1.7-3.1-3.9-2.9c-1.2,0.2-2.3,0.4-3.4,0.5c-5,0.6-11.5-1.8-13.3-6.9c-1.7-2.7-3.5-5.4-5.3-8.1c-6-1.6-12-3.1-18-4.6
	c-4.2-1-8.9,0.5-12.6-2.7c-6.5-5.7-14.2-5.3-22.1-4.2c-0.2,1.7-0.2,3.5-0.5,5.2c-1.3,5.3-2.7,10.6-4.1,15.9
	c-0.8,0.9-1.5,1.8-2.3,2.7c-3.5,1.4-6.5,0-9.5-1.4l-3.9-1.4c-7.9-3.8-22.2-1.4-27.1-9c0,0-7.9,2.2-10.3,7.9
	c-2.8,9.1-5.6,18.2-8.3,27.3c-1,7.1-2.1,14.1-3.1,21.2c-0.4,3.1-0.7,6.1-1.1,9.2c-0.2,1.8-0.1,3.7-0.5,5.4
	c-1.8,7.2-3.5,14.4-5.3,21.5c-1.8,7.2-3.6,14.4-5.4,21.5c-0.6,1.4-1.3,2.7-1.9,4.1c-1.3,7.3-2.6,14.7-4,22c-1.9,10.2-4,20.4-6,30.6
	c0,1.4,0,2.8,0,4.2c-0.1,1.6-0.1,3.2-0.2,4.8c0.1,1,0.1,2,0.2,3c0.3,2,0.5,4.1,0.8,6.1c0,2,0,4.1,0,6.1s0,4.1,0,6.1
	c0,0.7-0.1,1.4-0.1,2c-0.3,1.3-0.6,2.7-0.9,4c-0.3,1.4-0.5,2.8-0.8,4.1c-0.7,2.4-1.4,4.8-2.1,7.2c-0.1,0.6-0.2,1.2-0.3,1.8
	c-0.3,2-0.7,4-1,6c-0.3,1.4-0.6,2.7-0.9,4.1c0.1,1.2-0.4,2.2-0.8,5.1c-0.1,0.3-0.1,0.6,0,0.9c1.3,2.4,2.7,4.8,4,7.1
	c2.7,3.4,5.4,6.7,8.1,10.1c5.3,6.1,10.5,12.2,15.8,18.3c0.9,2,1.8,4,2.6,6c2,5.8-0.8,10.5-6.9,11.1c-4.8,0.5-9.7,1-14.6,0.9
	c-2,0-3.6,0.2-4.9,1.1c-0.8,0.5-1.5,1.3-2,2.3c-0.4,0.2-1.7,1-1.3,0.7c1.3-0.7-8.5,3.7-9.2,3.8c-10.2,1.7-24.2,3.2-43.8,2.5
	c-7.9-0.3-17.3,0-23-4.5c-4.9-3.8-9.4-2.9-9.6-8.1c-0.1-1.9,0.1-3.9,0.3-5.8c0.2-1.8,0.5-3.5,0.8-5.3c0.1-0.7,0.2-1.4,0.3-2.1
	c0-0.1,0-0.3,0.1-0.4c0.1-0.7,0.2-1.3,0.3-2l0,0l0,0l0,0c1.8-4.9,3.5-9.8,5.3-14.6c0.6-7.4,2.5-15.1,1.5-22.3
	c-1.5-10.6-0.5-20.9,0.6-31.2c0.3-2.7,0.5-5.5,0.8-8.2c-0.3-10.1-0.5-20.1-0.8-30.2c-0.7-7.1-1.3-14.2-2-21.4
	c-0.1-0.3-0.1-0.7-0.2-1c-1.4-7.7-2-15.7-4.4-23c-1.4-4.2-3.8-7.9-6-11.8c-2.2-3.8-4.3-7.8-4.9-12.3c-0.6-1.8-1.2-3.6-1.8-5.4
	c-1.4-4.2-2.6-8.4-4.1-12.6c-0.4-1-1.3-1.9-2-2.8c-12.3,3.7-24.3,8.2-36.8,10.9c-9.9,2.1-15.4,2.8-34,4.5
	c-16.2,1.6-26.6,1.6-40.2,0.3c-10.8-1.1-21.8-0.7-32.7-1c-4.1,3.2-8.7,6-12.3,9.6c-4.1,4.1-7.3,9-10.9,13.5
	c-3.2,5.3-6.4,10.7-9.5,16c-2.3,4.7-4.7,9.5-7,14.2c-4.3,13.8-5.3,28.1-6.1,42.4c0,0-1.4,17.5-2,23.7c-0.4,4.7-1.1,9.6-0.8,14.4
	c0.4,4.7,2.1,9.8,5.5,13.2c3,3.1,5.9,6.4,9,9.3c3.8,3.5,6,6.5,7.2,11.7c0.6,2.7,2.7,7.3,1.9,10.1c-0.5,1.7-3.7,2.4-4.9,3.3
	c-3.2,2.3-5,2-9.3,2.9c-5.4,1.3-7.1,0.5-12.7,0.8c1.9,3.5,7.6,14,3.1,17.4c-5.6,4.2-12.7,4.9-19.2,5.6c-5.3,0.6-9.2,0.9-15.3,1.4
	c-4.6,0.4-11.5,1.4-16.1,0.9s-9.1-1.4-13.7-1.8c-4.4-0.4-8.9-0.8-13.3-1.8c-4.8-1.1-8.1-1.8-10.5-6.2c-1.9-3.5-5.3-7.6-5-11.8
	c0.3-3.9,1.7-7.9,3.5-11.3c1.9-3.7,1.2-8.6,1.4-12.8c0.2-6-0.9-11.9-0.6-17.9c0.2-5.3-0.9-11.4,0.4-16.4c0.7-2.7,2-5.3,2.4-8.2l1-5
	c0.3-3,0.7-6.1,1-9.1c0-2.4,0-4.7,0.1-7.1c0.9-9.4,1.8-18.8,2.7-28.2c0-1.1,0-2.3,0-3.4c0-2.3,0-4.5,0.1-6.8c-0.3-1-0.5-2.1-0.8-3.1
	c-0.6-5.4-0.9-10.9-1.9-16.3c-1.5-7.8-3.5-15.4-5.2-23.1c-3.1-8.4-6.3-16.9-9.4-25.3c-0.6-2.7-1.2-5.4-1.7-8.1
	c-0.7-0.9-1.7-1.8-1.9-2.8c-0.9-4.5-1.8-9-2.7-13.6c-0.9-4.5-1.8-9-2.7-13.6l0,0c-0.9-5.9-1.9-11.7-2.8-17.6c-1-7.4-2-14.9-3-22.3
	c-0.1-2.3-0.2-4.6-0.4-7c-0.3-2.4-0.5-4.5-0.7-6.8c0,0,0.6,29.5-0.1,44.4c-0.4,8.9-0.1,23.8-5.3,34.3c-1.6,7.5-8.9,22.9-8.9,31.5
	c0,5.3-0.9,16.3-1.6,24c2.9,8.2,3.4,18.2,3,28.2c0.6,13.5-1.5,28.3-1.9,39.6c-1.1-9.7-1.9-19.6-2.9-29.3c0,2.8,0,5.6,0,8.4
	c0.2,12.3-0.1,24.7-3.3,36.6c-0.2-5.6-0.5-11-0.9-16.4c-1.2,4-2.3,7.5-3.7,11.4c0.7-5.3,1.3-10.3,1.7-15.3c-0.5,1.6-1.1,3.3-1.7,5.1
	c1.1-7.8,1.9-15,2.1-22.3c-0.1-3.3-0.4-6.7-0.7-10.2c-2.3,18.2-5.1,27.6-15,42.8c4.3-8.6,6.8-14.9,7-22.6c-1.8,3.9-4.1,7.8-7,12.3
	c3.6-7.1,5.9-12.7,6.7-18.8c-0.2-1.3-0.4-2.7-0.6-4.2c-1.6,0.9-3,2.1-4.7,3c1.6-3,3.3-6.1,4.9-9.1c-1.9,0.7-3.7,1.2-5.6,1.9
	c0.5-1.2,1.1-2.4,1.6-3.6c-0.3,0.2-0.6,0.4-0.9,0.6c0.9-1.7,1.8-3.4,2.8-5.2c-0.1-1.1-0.1-2.2-0.2-3.2c-1.1,0.3-2.2,0.7-3.3,1.1
	c1.2-2.6,2.3-5.1,3.5-7.7c-1.1-11.6,2.3-18.3,8.2-27.6c3.4-30.6,15.2-54,15.2-74.1c0-2.3-3.5-66.1-3.5-66.1l0.1-1.1
	c0-4.4,0-8.7,0-13.1l0,0l0,0c0.2-6.5,0.4-13,0.6-19.5c1.5-8,3-16.1,4.4-24.1c0.5-1.7,1-3.5,1.5-5.2c1-2.1,2-4.1,3.1-6.2
	c1-2.1,4.1-7.8,4.8-9.6c0.2-0.5,3.9-5.2,4.1-5.6c0.9-1.3,2.1-3.7,4.2-5.6v-0.1c1.8-2.9,2.9-4.4,5.1-7.1c1-1,1.9-2,2.7-2.9
	c1.6-2,3.3-4.1,4.9-6.1c2.4-2.7,4.8-5.4,7.3-8c5.2-5.5,10.5-10.9,15.8-16.4c0.7-1.3,1.4-2.6,2.1-3.9c3.7-3.7,7.4-7.4,11.3-11
	c1.4-1.3,3.2-2.1,4.8-3.2c7.1-6.5,14.2-13,21.3-19.5c7.5-4.5,14.9-9.1,22.4-13.6c12.3-5.1,25-9.1,38.3-10.4
	c5.5-0.5,10.9-1.4,16.4-1.3c5.6,0.1,11.1,0.3,16.7,0.6c5.6,0.3,11.1,0.6,16.7,0.8c8.1,1.7,16.3,3.3,24.4,5l0,0l0,0l0,0
	c3.1,0.7,6.2,1.3,9.3,2c3,0.6,5.9,1.3,8.9,1.9c5.3,0.7,10.7,1.5,16,2.2s10.7,1.4,16,2c15.7,1.7,43.1-3.6,57.7-8.4
	c2.8-0.9,5.6-1.8,8.4-2.7l16.4-5.9c4.4-3.6,9-7.1,13.5-10.5c3.7-2.4,7.3-5.1,11.6-6.5c2.9-2.7,7.1-2.8,10.3-5.1
	c3-2.3,6.5-3.8,10.3-4c7.4-0.7,14.9-4.4,22.3-2c8-0.2,15.4,3.2,22.8,5.8c4.3,1.5,8.7,3,12.7,5.2c3,1.7,6.1,3.2,9.5,4.1L536.5,29.3z"
	/>
</svg>
