<?xml version="1.0" encoding="utf-8"?>
<!-- Generator: Adobe Illustrator 23.0.1, SVG Export Plug-In . SVG Version: 6.00 Build 0)  -->
<svg version="1.1" id="Layer_1" xmlns="http://www.w3.org/2000/svg" xmlns:xlink="http://www.w3.org/1999/xlink" x="0px" y="0px"
	 viewBox="0 0 20 20" style="enable-background:new 0 0 20 20;" xml:space="preserve">
<style type="text/css">
	.st0{fill:#47D147;}
</style>
<path class="st0" d="M19,10c0,5-4,9-9,9s-9-4-9-9s4-9,9-9S19,5,19,10z M9,14.8l6.7-6.7c0.2-0.2,0.2-0.6,0-0.8l-0.8-0.8
	c-0.2-0.2-0.6-0.2-0.8,0l-5.4,5.4L6,9.3c-0.2-0.2-0.6-0.2-0.8,0l-0.8,0.8c-0.2,0.2-0.2,0.6,0,0.8l3.8,3.8C8.4,15,8.7,15,9,14.8
	L9,14.8z"/>
</svg>
