<?xml version="1.0" encoding="utf-8"?>
<!-- Generator: Adobe Illustrator 25.2.3, SVG Export Plug-In . SVG Version: 6.00 Build 0)  -->
<svg version="1.1" id="chevron_x5F_down" xmlns="http://www.w3.org/2000/svg" xmlns:xlink="http://www.w3.org/1999/xlink" x="0px"
	 y="0px" viewBox="0 0 30 19" style="enable-background:new 0 0 30 19;" xml:space="preserve">
<path d="M29.5,2.8l-2.4-2.4c-0.6-0.6-1.6-0.6-2.2,0l-10,10L5,0.5c-0.6-0.6-1.6-0.6-2.2,0L0.5,2.8c-0.6,0.6-0.6,1.6,0,2.2L11.3,16
	c0.1,0.1,0.1,0.2,0.2,0.2l2.4,2.4c0.3,0.3,0.7,0.5,1.1,0.5c0.4,0,0.8-0.1,1.1-0.5l2.4-2.4c0.1-0.1,0.1-0.1,0.2-0.2L29.5,5
	C30.2,4.4,30.2,3.4,29.5,2.8z"/>
</svg>
