<?xml version="1.0" encoding="utf-8"?>
<!-- Generator: Adobe Illustrator 23.0.1, SVG Export Plug-In . SVG Version: 6.00 Build 0)  -->
<svg version="1.1" id="Layer_1" xmlns="http://www.w3.org/2000/svg" xmlns:xlink="http://www.w3.org/1999/xlink" x="0px" y="0px"
	 viewBox="0 0 20 20" style="enable-background:new 0 0 20 20;" xml:space="preserve">
<style type="text/css">
	.st0{fill:#0099FF;}
</style>
<path class="st0" d="M10,1c-5,0-9,4-9,9s4,9,9,9s9-4,9-9S15,1,10,1z M10,17.3c-4,0-7.3-3.2-7.3-7.3S6,2.7,10,2.7S17.3,6,17.3,10
	S14,17.3,10,17.3z M13.7,7.7L11.4,10l2.3,2.3c0.2,0.2,0.2,0.4,0,0.6l-0.8,0.8c-0.2,0.2-0.4,0.2-0.6,0L10,11.4l-2.3,2.3
	c-0.2,0.2-0.4,0.2-0.6,0l-0.8-0.8c-0.2-0.2-0.2-0.4,0-0.6L8.6,10L6.3,7.7c-0.2-0.2-0.2-0.4,0-0.6l0.8-0.8c0.2-0.2,0.4-0.2,0.6,0
	L10,8.6l2.3-2.3c0.2-0.2,0.4-0.2,0.6,0l0.8,0.8C13.9,7.3,13.9,7.6,13.7,7.7L13.7,7.7z"/>
</svg>
