<?xml version="1.0" encoding="utf-8"?>
<!-- Generator: Adobe Illustrator 23.0.3, SVG Export Plug-In . SVG Version: 6.00 Build 0)  -->
<svg version="1.1" id="alert" xmlns="http://www.w3.org/2000/svg" xmlns:xlink="http://www.w3.org/1999/xlink" x="0px" y="0px"
	 viewBox="0 0 32 32" style="enable-background:new 0 0 32 32;" xml:space="preserve">
<path d="M20.1,26.9c0,2.3-1.9,4.1-4.1,4.1s-4.1-1.9-4.1-4.1s1.9-4.1,4.1-4.1S20.1,24.6,20.1,26.9z M26.5,9.7c0,6.6-7.1,6.7-7.1,9.1
	v0.6c0,0.6-0.5,1.2-1.2,1.2h-4.5c-0.6,0-1.2-0.5-1.2-1.2v-0.8c0-3.5,2.7-4.9,4.7-6c1.7-1,2.8-1.6,2.8-2.9c0-1.7-2.2-2.8-3.9-2.8
	c-2.3,0-3.3,1.1-4.8,2.9c-0.4,0.5-1.1,0.6-1.6,0.2L7,7.9C6.5,7.5,6.3,6.8,6.7,6.3C9,2.9,12,1,16.6,1C21.4,1,26.5,4.8,26.5,9.7z"/>
</svg>
