<?xml version="1.0" encoding="utf-8"?>
<!-- Generator: Adobe Illustrator 23.1.1, SVG Export Plug-In . SVG Version: 6.00 Build 0)  -->
<svg version="1.1" id="question_x5F_circle" xmlns="http://www.w3.org/2000/svg" xmlns:xlink="http://www.w3.org/1999/xlink"
	 x="0px" y="0px" viewBox="0 0 32 32" style="enable-background:new 0 0 32 32;" xml:space="preserve">
<path d="M16,31C7.7,31,1,24.3,1,16S7.7,1,16,1s15,6.7,15,15S24.3,31,16,31z M16,3.7C9.2,3.7,3.7,9.2,3.7,16S9.2,28.3,16,28.3
	S28.3,22.8,28.3,16S22.8,3.7,16,3.7z"/>
<path d="M18.2,18.3v-3.2c0-0.4-0.3-0.8-0.8-0.8h-2.9c-0.4,0-0.8,0.3-0.8,0.8v3.2v1.9v4.5c0,0.4,0.3,0.8,0.8,0.8h2.9
	c0.4,0,0.8-0.3,0.8-0.8v-4.5V18.3z M18.6,9.1c0-1.5-1.2-2.6-2.6-2.6s-2.6,1.2-2.6,2.6s1.2,2.6,2.6,2.6S18.6,10.6,18.6,9.1z"/>
</svg>
