<?xml version="1.0" encoding="utf-8"?>
<!-- Generator: Adobe Illustrator 23.0.1, SVG Export Plug-In . SVG Version: 6.00 Build 0)  -->
<svg version="1.1" id="Layer_1" xmlns="http://www.w3.org/2000/svg" xmlns:xlink="http://www.w3.org/1999/xlink" x="0px" y="0px"
	 viewBox="0 0 28 28" style="enable-background:new 0 0 28 28;" xml:space="preserve">
<path class="st0" d="M23.7,21.4l-3.9-3.9c-0.2-0.2-0.4-0.3-0.7-0.3h-0.6c1-1.4,1.7-3.1,1.7-5.1c0-4.5-3.7-8.1-8.1-8.1S4,7.7,4,12.1
	s3.7,8.1,8.1,8.1c1.9,0,3.7-0.6,5.1-1.7v0.6c0,0.3,0.1,0.5,0.3,0.7l3.9,3.9c0.3,0.3,1,0.3,1.3,0l1.1-1.1
	C24.1,22.3,24.1,21.7,23.7,21.4z M12.1,17.2c-2.8,0-5.1-2.3-5.1-5.1S9.3,7,12.1,7s5.1,2.3,5.1,5.1C17.1,14.9,14.9,17.2,12.1,17.2z"
	/>
</svg>
