<?xml version="1.0" encoding="utf-8"?>
<!-- Generator: Adobe Illustrator 23.0.3, SVG Export Plug-In . SVG Version: 6.00 Build 0)  -->
<svg version="1.1" id="Layer_1" xmlns="http://www.w3.org/2000/svg" xmlns:xlink="http://www.w3.org/1999/xlink" x="0px" y="0px"
	 viewBox="0 0 32 32" style="enable-background:new 0 0 32 32;" xml:space="preserve">
<g>
	<path d="M29.6,14.6h-1.4C27.6,8.9,23.1,4.4,17.4,3.8V2.4C17.4,1.6,16.8,1,16,1s-1.4,0.6-1.4,1.4v1.4C8.9,4.4,4.4,8.9,3.8,14.6H2.4
		C1.6,14.6,1,15.2,1,16s0.6,1.4,1.4,1.4h1.4c0.6,5.7,5.1,10.2,10.8,10.8v1.4c0,0.8,0.6,1.4,1.4,1.4s1.4-0.6,1.4-1.4v-1.4
		c5.7-0.6,10.2-5.1,10.8-10.8h1.4c0.8,0,1.4-0.6,1.4-1.4S30.4,14.6,29.6,14.6z M21.5,17.4h4c-0.6,4.2-3.9,7.5-8.1,8.1v-4
		c0-0.8-0.6-1.4-1.4-1.4s-1.4,0.6-1.4,1.4v4c-4.2-0.6-7.5-3.9-8.1-8.1h4c0.8,0,1.4-0.6,1.4-1.4s-0.6-1.4-1.4-1.4h-4
		c0.6-4.2,3.9-7.5,8.1-8.1v4c0,0.8,0.6,1.4,1.4,1.4s1.4-0.6,1.4-1.4v-4c4.2,0.6,7.5,3.9,8.1,8.1h-4c-0.8,0-1.4,0.6-1.4,1.4
		S20.7,17.4,21.5,17.4z"/>
</g>
</svg>
