<?xml version="1.0" encoding="utf-8"?>
<!-- Generator: Adobe Illustrator 22.1.0, SVG Export Plug-In . SVG Version: 6.00 Build 0)  -->
<svg version="1.1" id="Layer_1" xmlns="http://www.w3.org/2000/svg" xmlns:xlink="http://www.w3.org/1999/xlink" x="0px" y="0px"
	 viewBox="0 0 20 20" style="enable-background:new 0 0 20 20;" xml:space="preserve">
<style type="text/css">
	.st0{fill:#C5CCD3;}
</style>
<path class="st0" d="M19,9.9c0,0.5-0.2,0.9-0.5,1.2c-2.8,2.8-5.7,4.2-8.6,4.2c-0.1,0-0.1,0-0.2,0c-0.8,0-1.5-0.1-2.3-0.3l1.1-1.1
	C9,14,9.5,14,10,14c2.3,0,4.2-1.9,4.2-4.2c0-0.5-0.1-1-0.2-1.4l2-2c0.9,0.6,1.8,1.3,2.6,2.2C18.8,8.9,19,9.4,19,9.9z M10,12.6
	c1.5,0,2.8-1.2,2.8-2.8c0-0.1,0-0.2,0-0.3l-3,3C9.8,12.6,9.9,12.6,10,12.6z M16.9,3.8L3.6,17.1c-0.1,0.1-0.2,0.1-0.3,0.1
	c-0.2,0-0.3-0.1-0.4-0.2c-0.2-0.2-0.2-0.6,0-0.8l2.2-2.2C3.5,13,2.2,11.9,1.4,11c-0.6-0.6-0.6-1.7,0-2.4c1.4-1.5,4.4-4.1,8.3-4.2
	c1.3,0,2.7,0.2,4,0.8L16,3c0.2-0.2,0.6-0.2,0.8,0C17,3.2,17,3.5,16.9,3.8z M12.5,6.5C11.8,6,10.9,5.7,10,5.7c-2.3,0-4.2,1.9-4.2,4.2
	c0,0.9,0.3,1.8,0.8,2.5l1-1c-0.3-0.4-0.4-0.9-0.4-1.5c0-1.5,1.2-2.8,2.8-2.8c0.6,0,1.1,0.2,1.5,0.4L12.5,6.5z"/>
</svg>
