<?xml version="1.0" encoding="utf-8"?>
<!-- Generator: Adobe Illustrator 22.1.0, SVG Export Plug-In . SVG Version: 6.00 Build 0)  -->
<svg version="1.1" id="Layer_1" xmlns="http://www.w3.org/2000/svg" xmlns:xlink="http://www.w3.org/1999/xlink" x="0px" y="0px"
	 viewBox="0 0 28 28" style="enable-background:new 0 0 28 28;" xml:space="preserve">
<style type="text/css">
	.st0{fill:#FFFFFF;}
	.st1{fill:#009EFF;}
</style>
<path class="st0" d="M23.7,21.4l-3.9-3.9c-0.2-0.2-0.4-0.3-0.7-0.3h-0.6c1-1.4,1.7-3.1,1.7-5.1c0-4.5-3.7-8.1-8.1-8.1S4,7.7,4,12.1
	s3.7,8.1,8.1,8.1c1.9,0,3.7-0.6,5.1-1.7v0.6c0,0.3,0.1,0.5,0.3,0.7l3.9,3.9c0.3,0.3,1,0.3,1.3,0l1.1-1.1
	C24.1,22.3,24.1,21.7,23.7,21.4z M12.1,17.2c-2.8,0-5.1-2.3-5.1-5.1S9.3,7,12.1,7s5.1,2.3,5.1,5.1C17.1,14.9,14.9,17.2,12.1,17.2z"
	/>
<path class="st1" d="M20.2,17.6c-0.9,0-1.7,0.3-2.3,0.9l-6.7-3.8c0-0.2,0.1-0.4,0.1-0.6c0-0.2,0-0.4-0.1-0.6l6.7-3.8
	c0.6,0.5,1.4,0.9,2.3,0.9c1.9,0,3.5-1.5,3.5-3.5s-1.5-3.5-3.5-3.5S16.7,5,16.7,7c0,0.2,0,0.4,0.1,0.6l-6.7,3.8
	c-0.6-0.5-1.4-0.9-2.3-0.9c-1.9,0-3.5,1.5-3.5,3.5s1.5,3.5,3.5,3.5c0.9,0,1.7-0.3,2.3-0.9l6.7,3.8c0,0.2-0.1,0.4-0.1,0.6
	c0,1.9,1.5,3.5,3.5,3.5s3.5-1.5,3.5-3.5S22.1,17.6,20.2,17.6z"/>
</svg>
