<?xml version="1.0" encoding="utf-8"?>
<!-- Generator: Adobe Illustrator 25.4.1, SVG Export Plug-In . SVG Version: 6.00 Build 0)  -->
<svg version="1.1" id="e_x5F_logotype" xmlns="http://www.w3.org/2000/svg" xmlns:xlink="http://www.w3.org/1999/xlink" x="0px"
	 y="0px" viewBox="0 0 315 32" style="enable-background:new 0 0 315 32;" xml:space="preserve">
<style type="text/css">
	.st0{fill:#9AA7B1;}
	.st1{enable-background:new    ;}
	.st2{fill:#1B2C39;}
</style>
<g>
	<path class="st0" d="M234.1,26.2v4.3h-24V1.4h4.5v24.8C214.6,26.2,234.1,26.2,234.1,26.2z"/>
	<path class="st0" d="M190.9,1.4c3.7,0,6.4,0.6,8.3,1.9c1.9,1.3,2.8,3.1,2.8,5.5c0,1.3-0.4,2.5-1.1,3.5c-0.8,1-1.9,1.8-3.4,2.4
		c1.1,0.3,2.1,0.8,3,1.4c0.9,0.6,1.7,1.4,2.2,2.4c0.6,1,0.9,2.2,0.9,3.5c0,1.7-0.3,3.1-1,4.2s-1.6,2-2.7,2.6
		c-1.1,0.6-2.4,1.1-3.7,1.4c-1.4,0.3-2.7,0.4-4.1,0.4h-17V1.4H190.9z M191.3,5.8h-11.8v7.5h12.3c1,0,1.9-0.2,2.8-0.5
		c0.9-0.3,1.5-0.7,2.1-1.3c0.5-0.6,0.8-1.3,0.8-2.1c0-1.3-0.6-2.3-1.8-2.8C194.5,6,193,5.8,191.3,5.8z M192,17.6h-12.5v8.6h12.7
		c2,0,3.6-0.4,4.9-1.1c1.3-0.7,1.9-1.8,1.9-3.3c0-1.1-0.4-2-1.1-2.6c-0.7-0.6-1.6-1-2.7-1.3C194.1,17.8,193.1,17.6,192,17.6z"/>
	<path class="st0" d="M138.4,1.4l11.5,15.5l11.5-15.5h4.4v29.2h-4.5V18.2c0-1.8,0-3.5,0.1-5.1s0.2-3.2,0.4-4.9l-10.5,14h-2.7
		L138,8.2c0.2,1.6,0.3,3.2,0.4,4.9c0.1,1.6,0.1,3.3,0.1,5.1v12.4H134V1.4H138.4z"/>
	<path class="st0" d="M101.7,1.4h24.2v4.3h-19.7v7.7h17.4v4.3h-17.4v8.5h19.7v4.3h-24.2V1.4z"/>
	<path class="st0" d="M69.9,21.6c1.6,1.7,3.4,3,5.2,4c1.8,0.9,4,1.4,6.6,1.4c1.4,0,2.8-0.2,4.2-0.5c1.3-0.3,2.4-0.9,3.3-1.6
		s1.3-1.6,1.3-2.7c0-0.9-0.4-1.7-1.1-2.1c-0.8-0.5-1.9-0.9-3.3-1.1c-1.4-0.3-3.2-0.5-5.2-0.8c-2.5-0.3-4.7-0.8-6.5-1.5
		c-1.8-0.7-3.2-1.6-4.2-2.7s-1.5-2.6-1.5-4.3c0-1.8,0.6-3.4,1.7-4.7c1-1.3,2.6-2.3,4.5-3c2-0.7,4.1-1,6.6-1c3,0,5.5,0.4,7.7,1.3
		s3.9,2.2,5.1,3.8l-3,3.3c-1.1-1.3-2.5-2.4-4.1-3.2C85.5,5.4,83.6,5,81.4,5c-1.5,0-2.8,0.2-4,0.5s-2.1,0.8-2.8,1.4
		c-0.7,0.6-1,1.3-1,2.2c0,1,0.4,1.8,1.1,2.4c0.7,0.6,1.8,1.1,3.1,1.4c1.3,0.3,2.9,0.6,4.7,0.8c1.7,0.2,3.3,0.4,4.8,0.7
		c1.6,0.3,3,0.7,4.2,1.3c1.2,0.5,2.2,1.3,2.9,2.2c0.7,0.9,1.1,2.1,1.1,3.6c0,1.9-0.6,3.5-1.7,5c-1.1,1.4-2.7,2.5-4.8,3.3
		c-2.1,0.8-4.5,1.2-7.2,1.2c-3,0-5.7-0.4-8.2-1.3c-2.4-0.9-4.6-2.3-6.4-4.3L69.9,21.6z"/>
	<path class="st0" d="M56.2,1.4h4.5v29.2h-4.5L37.3,7.7c0.2,1.8,0.3,3.6,0.5,5.4s0.3,3.6,0.3,5.4v12.1h-4.5V1.4H38l18.9,23.5
		c-0.2-1.4-0.3-2.8-0.4-4.5c-0.1-1.6-0.2-3.2-0.2-4.9c0-1.6-0.1-3.2-0.1-4.6V1.4z"/>
	<path class="st0" d="M25.5,1.4v4.3H5.8v7.7h17.4v4.3H5.8l0.1,4.1c0,1.4,0.7,2.6,1.9,3.3c1.3,0.7,2.9,1.1,4.9,1.1h12.8v4.3H12.9
		c-1.4,0-2.7-0.1-4.1-0.4s-2.6-0.7-3.7-1.4c-1.1-0.6-2-1.5-2.7-2.6s-1-2.5-1-4.2v-1.3V1.4H25.5z"/>
</g>
<g class="st1">
	<path class="st2" d="M237.8,1.4l4.4,0c0.5,0,0.9,0.1,1.1,0.3c0.3,0.2,0.5,0.5,0.7,0.9l6.8,17.7c0.2,0.6,0.4,1.2,0.7,1.9
		c0.2,0.7,0.4,1.4,0.6,2.2c0.3-1.5,0.7-2.9,1.1-4.1L260,2.6c0.1-0.3,0.3-0.6,0.6-0.8c0.3-0.3,0.7-0.4,1.1-0.4l4.4,0l-11.8,29.1
		l-4.9,0L237.8,1.4z"/>
	<path class="st2" d="M287.6,1.4v4.3l-12.9,0v8.1l10.2,0v4.2l-10.2,0l0,8.2l12.9,0v4.3l-18.4,0l0-29.1L287.6,1.4z"/>
	<path class="st2" d="M297.9,20.3v10.2l-5.4,0l0-29.1l9.5,0c1.9,0,3.6,0.2,5.1,0.7c1.4,0.5,2.6,1.1,3.5,1.9c0.9,0.8,1.6,1.8,2.1,2.9
		c0.4,1.1,0.7,2.4,0.7,3.7c0,1.4-0.2,2.7-0.7,3.9s-1.2,2.2-2.1,3c-0.9,0.8-2.1,1.5-3.5,2c-1.4,0.5-3.1,0.7-5,0.7L297.9,20.3z
		 M297.9,16l4.1,0c1,0,1.9-0.1,2.6-0.4c0.7-0.2,1.3-0.6,1.8-1.1c0.5-0.5,0.8-1,1.1-1.7c0.2-0.7,0.4-1.4,0.4-2.2
		c0-0.8-0.1-1.5-0.4-2.1s-0.6-1.2-1.1-1.6c-0.5-0.4-1.1-0.8-1.8-1c-0.7-0.2-1.6-0.4-2.6-0.4l-4.1,0V16z"/>
</g>
</svg>
