<?xml version="1.0" encoding="utf-8"?>
<!-- Generator: Adobe Illustrator 23.1.1, SVG Export Plug-In . SVG Version: 6.00 Build 0)  -->
<svg version="1.1" id="cross" xmlns="http://www.w3.org/2000/svg" xmlns:xlink="http://www.w3.org/1999/xlink" x="0px" y="0px"
	 viewBox="0 0 32 32" style="enable-background:new 0 0 32 32;" xml:space="preserve">
<path d="M30.2,5.4L19.8,16l10.6,10.6c0.8,0.8,0.8,1.5,0,2.3l-1.5,1.5c-0.8,0.8-1.5,0.8-2.3,0L16,19.8L5.4,30.4
	c-0.8,0.8-1.5,0.8-2.3,0l-1.5-1.5c-0.8-0.8-0.8-1.5,0-2.3L12.2,16L1.8,5.4C1,4.6,1,3.9,1.8,3.1l1.5-1.5c0.8-0.8,1.5-0.8,2.3,0
	L16,12.2L26.6,1.6c0.8-0.8,1.5-0.8,2.3,0l1.5,1.5C31,3.9,31,5.1,30.2,5.4L30.2,5.4z"/>
</svg>
