<?xml version="1.0" encoding="utf-8"?>
<!-- Generator: Adobe Illustrator 25.4.1, SVG Export Plug-In . SVG Version: 6.00 Build 0)  -->
<svg version="1.1" id="ensembl-e" xmlns="http://www.w3.org/2000/svg" xmlns:xlink="http://www.w3.org/1999/xlink" x="0px" y="0px"
	 width="150px" height="150px" viewBox="0 0 150 150" style="enable-background:new 0 0 150 150;" xml:space="preserve">
<style type="text/css">
	.st0{fill:#0099FF;}
</style>
<path class="st0" d="M44.015152,90.0760117c-0.1893959-0.4166641-0.3030319-0.9090881-0.3030319-1.4015121
	c0-1.969696,1.5909081-3.522728,3.522728-3.522728h0.1893921h99.1666718c1.8560486,0,3.3333282-1.477272,3.3333282-3.3333359
	L150,75.0381317v-0.1515121c0-38.9015121-31.3636322-70.4545441-70.1515121-70.6060562
	c-0.1136398-0.037879-65.0757599-0.037879-65.0757599-0.037879C7.2727275,4.1669235,0,12.2729845,0,19.0154076v13.863636
	c0,1.85606,1.4772727,3.3333359,3.3333335,3.3333359l76.2121201,0.0378799c14.5454483,0,27.234848,8.10606,33.8257523,20.0757561
	l0.0378799,0.1136398c0.3030243,0.5681801,0.4924164,1.2121201,0.4924164,1.9318199
	c0,2.1969719-1.780304,4.015152-3.977272,4.015152h-0.227272L3.409091,62.0835915
	c-1.8560607,0-3.3333335,1.4772682-3.3333335,3.3333321v65.3030319c0,8.3712158,8.825758,14.8484955,14.431818,14.8484955
	c0,0,63.2954559,0.1893921,65.0378799,0.1893921c23.484848,0,44.3181839-11.5530243,57.1590881-29.3181763l0.0378876-0.0757675
	c0.4545441-0.6060638,0.7196808-1.3257523,0.7196808-2.1212158c0-1.3257523-0.7196808-2.4621201-1.780304-3.1060638l0,0
	l-0.1136322-0.0757599l-21.477272-12.5378799l-0.0378799-0.0378799l-0.0757675-0.0378876
	c-0.4924164-0.265152-1.0606003-0.4166641-1.6666641-0.4166641c-1.0984802,0-2.0833282,0.5302963-2.727272,1.2878723
	l-0.1136322,0.1136322c-7.0833435,8.7121201-17.8787918,14.2424316-29.9242477,14.2424316
	C63.598484,113.7123718,49.886364,103.9396515,44.015152,90.0760117L44.015152,90.0760117"/>
</svg>
