<svg xmlns="http://www.w3.org/2000/svg" viewBox="0 0 395.70001 373.89998">
  <g id="Layer_2" data-name="Layer 2">
    <g id="ensembl-mark-colour">
      <g>
        <path d="M379,127.6c-5.7-2.6-11.2-5.3-17.6-5.3-.3,0-.9-.2-1.7-.3a23.49616,23.49616,0,0,0,1.9-3c1.2-2.1.5-3.5-1.9-3.5-5.3-.3-9.7,1.7-13.7,4.8-1.4,1-3,1.9-4.4,3l-.7-.7c1.2-1.9,2.4-4,3.8-6a6.76149,6.76149,0,0,0,.2-7.9c-9.8-17-35.1-27.4-55.5-15.7A34.75694,34.75694,0,0,0,275,108.5c1.7,1.4,3.3,2.8,4.8,4.3,0-.1-.1-.1-.1-.2,16.9,13.2,34.9,11.7,55.6,9.7-11.7,4.6-30.5,8.2-43.1,4.4a101.3025,101.3025,0,0,1,7,10.9l.5.8a11.01386,11.01386,0,0,1,1,4.9c-.2,3.7-1.8,8.4-8.6,10.3a60.38511,60.38511,0,0,0,8.9-1.7c5.3-.7,10.5-1.6,15.8-2.4a16.986,16.986,0,0,1,2.6-.3c-.2,2.4-.2,4.6-.3,6.7,0,2.3.7,4.8,2.8,5.1.9.2,3.1-2.1,3.5-3.6a17.00361,17.00361,0,0,0,.3-8.1c-.5-2.8.7-3.1,1.9-3.3,1.9,3.3,3.1,6.5,5.3,9,1.4,1.7,4,2.8,6.2,3.8.5.3,1.6-.2,2.4-.3a6.1146,6.1146,0,0,0-.7-2.4,92.53849,92.53849,0,0,0-6.4-10.3c-.3-.7-1.6-.9-2.4-1.2-1-.3-3.1-.3-3.1-.7-.3-1.6-.7-3.8.2-5.1,4.6-5.7,10-9.8,17.6-10,1.9,0,4,.7,6.7,1.2-2.3,2.3-4,4-6,6,0,.2.2.3.2.5,3.3-.9,6.7-2.1,10.2-2.8s7-1,9.3-1.4c-5,1.6-10.9,3.3-16.9,5.3a23.3939,23.3939,0,0,0-4,1c-1.6.5-1.7,1.6-1,3,1.7,3.6,7.9,7.2,11.9,6.7.9-.2,2.1-.5,2.4-1.2a3.46393,3.46393,0,0,0-.9-2.6c-1-1.2-2.6-2.1-4.2-3.5a7.54974,7.54974,0,0,1,1.7-.3c5.7.5,10.7-1.2,15.5-4,2.4-1.6,5.1-2.8,7.6-4.6C381.7,129.9,381.6,128.8,379,127.6Z" fill="#96d0c9"/>
        <g>
          <path d="M383,187.4a7.75864,7.75864,0,0,0,1-1.9c-2.9-.2-5.5-.1-8.1-.4-2-.2-3.1-.9-2.9-3.6a93.63537,93.63537,0,0,0-1-13c0-1.2-1.1-2.4-1.6-3.6a4.79976,4.79976,0,0,1-1.2,0c-.3,2-.8,3.8-1,5.6-.6,4.1-.9,8.1-1.5,12.2.1.7-.2,1.5.3,2.2C369.4,189.6,379.1,191,383,187.4Z" fill="#09f"/>
          <path d="M40.7,159.3c-.2,0-.5-.2-.7-.2-4.8,2.4-9.3,5.3-11.6,10.5-.7,1.6-.5,3.6-.2,5.5.3,1.7,2.1,2.1,3.3.7a49.11647,49.11647,0,0,0,9.1-16C41.1,159.6,40.9,159.4,40.7,159.3Z" fill="#09f"/>
        </g>
        <g>
          <path d="M175.9,59c-6.5,0-12.7,6.5-12.7,13.1.2,7.5,5.8,13.1,13.1,12.7,6.5-.2,12.2-6.5,12.2-13.3C188.4,64.4,182.8,58.7,175.9,59Z" fill="#ca81ff"/>
          <path d="M342.3,72c-5.3,0-9.3,4.2-9.3,9.7-.2,5,4.4,9.3,9.3,9.3,4.6,0,9.3-4.8,9.3-9.5C351.6,75.6,347.6,71.8,342.3,72Z" fill="#ca81ff"/>
          <path d="M57.1,280.9c1.2,3.8,2.8,7.7,3.8,11.6,1.6,5.7,3.1,11.2,3,17.2,0,3,3.3,5.1,7,4.8-1.4-3.8-2.8-7.7-4.4-11.4-.7-1.6-1.4-2.8,1-3.3a9.42908,9.42908,0,0,0,1-1c1.9-2.6,3-2.8,5.5-.9a34.78844,34.78844,0,0,0,18.1,7.6,39.87607,39.87607,0,0,1,19,7.9c.9.7,1.9,1,2.8,1.6l.5-.5a18.7739,18.7739,0,0,0-2.1-4c-6-7.6-11.7-15.1-20.7-19.3-5.3-2.4-11-2.3-16.7-2.4a18.90589,18.90589,0,0,1-13.7-6,11.874,11.874,0,0,0-4.6-3C56.7,279.8,56.9,280.3,57.1,280.9Z" fill="#ca81ff"/>
        </g>
        <path d="M197.6,213.7c.2-.9.5-1.7.7-2.8a115.698,115.698,0,0,1,13.1-30.2c2.6-4.2,4.8-8.8,7.2-13.1a25.46234,25.46234,0,0,0,3.8-14.1l-49.6-.2c-.2,1.4-.5,2.8-.7,4.4a26.47008,26.47008,0,0,0,3.1,16.2c5,9.5,9.5,19.1,13.9,29a54.38369,54.38369,0,0,1,3.4,10.8l5.1,0Z" fill="#8ef4f8"/>
        <path d="M238.1,153.6a19.23452,19.23452,0,0,0-.5,2.9c-.2,5.3,1.2,10.2,5.5,13.9a48.22808,48.22808,0,0,0,5.1,3.8c1.6,1,2.8,1,3.3-1.2.5-2.6,1-5.3,1.4-6.9-.2-5.5-1.4-9.7-4.4-12.4Z" fill="#6f8190"/>
        <path d="M188.1,213.7c-.7-2.6-1.7-5.3-2.6-7.7-3.5-8.6-8.3-16.9-12.6-25.1-3.3-6.4-7.4-12.4-8.8-19.5-.5-2.4-.3-5.4-.5-8H157c-.5.7-1.1,1.5-1.6,2.2-4.2,6.7-8.8,13.2-11.9,20.2a63.00931,63.00931,0,0,0-4.8,26.5,53.09675,53.09675,0,0,0,1.5,11.4h7c-4.6-13.2-3.2-26.5,3.1-39.6-3.3,15-3,28,1.2,39.6Z" fill="#8b5526"/>
        <path d="M116.3,226.9a99.736,99.736,0,0,0,9,16.7h0a92.57528,92.57528,0,0,1-4.2,10.3c-4,8.6-7,17-2.8,26.5.2.5.2,1.6-.2,1.6a2.107,2.107,0,0,1-1.9,0c-3.1-2.6-6.5-5.5-9.5-8.4a31.78336,31.78336,0,0,1-2.6-3.5c-.2.2-.3.2-.7.3,0,1.4.5,3,.2,4.4a4.56789,4.56789,0,0,1-2.3,2.8,3.25019,3.25019,0,0,1-3-1.4c-2.1-4.2-3.8-8.4-5.7-12.8a62.06353,62.06353,0,0,1-1.4-6.2c-.5-2.1-1.4-3.1-3.8-2.1a29.46383,29.46383,0,0,1-5.7,1.6c-8.3,1.4-16.4.3-22.7-5.5a71.76906,71.76906,0,0,1-9.7-11.7c-5.1-8.1-7.7-17.2-9.3-26.7-1.2-7.2,1.9-10,9.1-10.2a24.44185,24.44185,0,0,1,8.4,1.9c5.5,2.1,10.7,4.6,16.2,6.9a12.04627,12.04627,0,0,0,9.5.2,179.34956,179.34956,0,0,1,17.6-5.5,23.28737,23.28737,0,0,1,15.8,1.6,21.73218,21.73218,0,0,1,7.7,6.1h-.6c-4.2.5-8.2,4.8-8.1,9.2a8.71811,8.71811,0,0,0,.7,3.9M48.1,214.8c1.4,7.9,11.2,13.1,17.9,9.1a9.28113,9.28113,0,0,0,3.6-4,3.60757,3.60757,0,0,0-.9-3.1c-5.3-3.1-10.7-6-16-6.7C48.6,210.1,47.4,211.5,48.1,214.8Zm23,13.4a4.31831,4.31831,0,0,0,1.7,3.3,64.97021,64.97021,0,0,0,7.2,3.3c4.6-.5,7.7-2.3,8.4-4.8.7-2.8-1.6-6.9-5-8.8C79,218.8,71.4,222.7,71.1,228.2Z" fill="#33adff"/>
        <g>
          <path d="M349.8,213.7a50.15486,50.15486,0,0,0-6-19.3c-3.8-7.4-10.5-12.6-17.2-17.6a90.4101,90.4101,0,0,0-42-18.1c-5.5-.9-10.9-.9-16.2,1.6-5.7,2.6-9,8.1-7.9,13.7a18.79279,18.79279,0,0,0,3.3,7.2c3.6,5.1,7.6,9.8,7.2,16.7a3.53723,3.53723,0,0,0,.9,1.7c.9-.5,2.1-1,2.3-1.7.7-3.3,1.7-6.9,1.7-10.3,0-4.8.3-5.5,5.1-4.6a8.96572,8.96572,0,0,1,3.6,1.9c3.6,3.6,7.2,7.6,8.1,13.2a56.854,56.854,0,0,0,4.9,15.6Zm-72.3-47.2a4.45387,4.45387,0,0,1,4.8,3.8c.2,2.8-2.3,5.1-5.7,5.3-2.3.2-3.6-1.4-3.8-4A4.85541,4.85541,0,0,1,277.5,166.5Z" fill="#9aa7b1"/>
          <path d="M301,249h0a9.29717,9.29717,0,0,0-11.5,1.9s-6.4,7.5-10.3,11c1,5.1,1,9.8-2.3,14.4a31.01363,31.01363,0,0,0-3.5,8.1c-.3,1.4.2,3,.3,4.4.3,0,.9.2,1.2.2,1-1.4,2.3-2.6,3-4.2,1.9-3.3,3.3-7,5.3-10.3,2.3-3.8,1.4-8.1,1.4-12.1,0-1-.2-2.1-.2-3.1,0-.5.5-1.6.9-1.6,1.9,0,4.6-.5,5.8.5s1.7,3.6,1.6,5.5a11.36491,11.36491,0,0,1-2.3,5c-4.4,5.7-5.7,12.1-6.9,18.8-.2.7.3,1.6.5,2.4.9-.3,2.1-.5,2.3-1,1.6-3,2.8-6.4,4.2-9.3,2.1-4.4,4.8-8.8,6.7-13.2a19.124,19.124,0,0,0,1.2-7.2c0-2.1.5-2.4,2.3-2.6,3.1,0,6.4,0,9.5-.2.9,0,1.9-.2,2.8-.2Z" fill="#9aa7b1"/>
        </g>
        <g>
          <path d="M351.1,179.3c5.1,0,9-4.4,9-10.2a8.664,8.664,0,0,0-8.6-8.6c-4.8,0-9.1,4.6-9.1,9.7A9.05886,9.05886,0,0,0,351.1,179.3Z" fill="#f90"/>
          <path d="M262.1,324.4a35.96262,35.96262,0,0,0,1.2,4.4c.7,2.1,1.9,2.4,4,1.4,4.8-2.3,9.7-4.6,14.6-6.5,9-3.5,18.1-2.8,27,.2a65.59092,65.59092,0,0,0,6.7,2.1c1,.2,2.3-.5,3.3-.7-.3-.9-.3-2.1-.9-2.8-6.5-9.1-15.7-13.4-25.5-13.4a57.40582,57.40582,0,0,0-27,7.4C260.7,319.1,260.5,318.9,262.1,324.4Z" fill="#f90"/>
        </g>
        <g>
          <path d="M236.7,213.7a68.81431,68.81431,0,0,0,3.5-22.9c0-9-2.3-19-6.2-28.4a33.66177,33.66177,0,0,0-1.9-3.8c-.9-1.2-1.7-1.4-2.6,0-6.9,11.7-14.3,23.4-20.7,35.3a95.12729,95.12729,0,0,0-7.9,19.8Z" fill="#eb768a"/>
          <path d="M303.4,278.3c5-.3,7.7-4.8,8.6-7.7a2.28751,2.28751,0,0,0-3.1-2.8,32.90732,32.90732,0,0,0-7.9,5Z" fill="#eb768a"/>
          <path d="M72.3,84.6a51.08509,51.08509,0,0,1,1-9.5,23.28989,23.28989,0,0,0-1-12.5C68.3,52.3,54,46,43.7,55.4c-9.1,8.3-4.6,18.8,6.7,26.2l4.2,3H72.3ZM46,63.5c.2-.4.2-.7.5-1,3.9-4.9,13.1-5.3,18.5-.8,5.7,4.6,8,12.9,5.1,19.1C68,67.9,61.1,61,46,63.5Zm4,9a4.72247,4.72247,0,0,1,5.7-3.3c2.9.6,4.7,2.7,4,5.2-.5,2.4-3.2,3.9-5.9,3.3C51.3,77.1,49.5,74.7,50,72.5Z" fill="#eb768a"/>
        </g>
        <g>
          <path d="M262,99.1a10.67989,10.67989,0,0,0-.1-2.5c.5-5.8.2-11.6.2-17.2,0-3,.7-4.8,3.6-5.8a11.16282,11.16282,0,0,0,6.9-7c1.7-4.4.9-6.4-3.1-8.1v-10a7.63588,7.63588,0,0,0-.9-2.8c-1.4-2.6-1.9-2.8-5.7-1.9-.7-3.3-1.2-6.5-2.1-9.7-.5-1.9-1.7-3.6-2.6-5.7-1.4,1.6-3,3.1-3.8,5a66.48,66.48,0,0,0-3.3,8.4c-.5,1.4-1.2,2.3-3,1.2a2.2269,2.2269,0,0,0-3.5,1.2,39.60219,39.60219,0,0,0-1.9,8.1c-.2,1.7-.3,2.8-2.4,2.8s-3.6,2.6-3.3,5.5a23.93436,23.93436,0,0,0,1.2,4.6c.7,1.9,0,2.8-1.7,2.6-2.8-.2-5.7-.5-8.4-.7-7.9-.3-13.7,5.1-13.6,12.6.2,3.5,1.9,5.7,6.4,5.3,3.5-.2,5.3-1.9,8.2-3.6a91.93953,91.93953,0,0,1,13.2-6.9c4.4-1.9,7.9-.3,9.7,4,2.3,5.7,3.7,10.9,3.2,16.6Z" fill="#327c89"/>
          <path d="M146.9,31.4c-3.3-.2-6.6-.4-9.9-.5a3.22726,3.22726,0,0,0-2.1.8c-1.8,1.7-3.6,3.6-5.3,5.3-1.1,1.1-2.2,2.1-3.3,3.2-1,1.1-.6,2.3.9,3a6.80555,6.80555,0,0,0,2.4.8,17.69382,17.69382,0,0,0,8.5-1.3c4-1.7,6.6-4.8,9-8.2.3-.5.6-1,.9-1.4C148.6,31.9,148.4,31.4,146.9,31.4Z" fill="#327c89"/>
        </g>
        <g>
          <path d="M252.1,280v.9c-.2,5.7,3.1,9.5,8.4,9.7a8.98848,8.98848,0,0,0,9-8.4c.2-4.2-1.7-7.2-5-8.4l-.4-.3a90.70238,90.70238,0,0,1-12,6.5Z" fill="#84fa3a"/>
          <path d="M134.5,25.5c3.2-3.5,6.1-7.3,9.2-10.9.8-.9.8-1.8-.6-2.6a7.072,7.072,0,0,0-7-.7,22.30925,22.30925,0,0,0-10.4,9,12.73818,12.73818,0,0,0-1.5,4.4,31.86821,31.86821,0,0,0-.6,5.3c-.2,1.6-.5,3.1-.6,4.6.2.1.3.3.6.4a14.79487,14.79487,0,0,0,2.1-1.3C128.7,31,131.8,28.4,134.5,25.5Z" fill="#84fa3a"/>
        </g>
        <g>
          <path d="M32.9,84.7a10.48129,10.48129,0,0,0,.8-2.9c0-4.2-3.3-7.9-7.2-7.7a7.88631,7.88631,0,0,0-7.6,7.7,7.22361,7.22361,0,0,0,.7,2.8Z" fill="#47d147"/>
          <path d="M324.7,262.8c-.2.2-.5.3-.7.7-1.6,2.1-1,6,1,8.1a35.07372,35.07372,0,0,0,3.6,3c-6.9-1.2-10.5,2.3-13.7,6.7l11,7.4a23.00768,23.00768,0,0,0,2.6-.3c0,1.7-2.1,4.4,1.4,4.4,1.6,0,3.3-.9,5.3-1.4a44.60935,44.60935,0,0,0,.7,6.5,3.71455,3.71455,0,0,0,1.9,2.3c.9.2,1.9-.7,2.8-1.6a4.898,4.898,0,0,0,1.9-2.8c1-5.1,3.8-9.1,6.9-13.4a10.17377,10.17377,0,0,1,3.1-3.1Z" fill="#47d147"/>
          <path d="M153.2,12c-1.1,0-2.4-.2-3.3.9-3.6,4.5-7.3,8.9-11,13.4a5.97341,5.97341,0,0,0-.6,1.1,2.09193,2.09193,0,0,1,.4.6c4.2-.1,8.5-.1,12.8-.3a2.36467,2.36467,0,0,0,1.4-1.2,24.97465,24.97465,0,0,0,1.3-13.3A1.56955,1.56955,0,0,0,153.2,12Z" fill="#47d147"/>
        </g>
        <g>
          <path d="M39.3,373.2C21.5,373.2.2,354.7.2,333.6V161.7c0-3.7,3-7.8,6.2-8.4a34.42572,34.42572,0,0,0-2.6,12.1c-.7,11.9,5.8,19.5,16,23.4a18.653,18.653,0,0,0,3.3.7c-2.3-4.6-4-8.8-6.4-12.6-4.2-7.4-6.5-15.1-5.8-23.7v-.3h2.6c1,4.6,2.1,9.3,3.1,13.9h1.2c.3-.9.7-1.6.9-2.4A30.256,30.256,0,0,1,23.8,153h5.3a130.5675,130.5675,0,0,0-4.8,12.3c-1.9,7-1.7,14.3,1.6,21,1,2.3,2.3,2.4,4.4,1.2,9-5.3,13.1-13.1,11.6-23.4a19.416,19.416,0,0,1-.2-3.5c4.2,2.6,7,16.5,3.1,23.4-3.6,6.4-8.6,10.7-16.2,11.6a26.97744,26.97744,0,0,1-20-5c-.9,5.7-1,10.7.3,15.7a3.44046,3.44046,0,0,0,2.3,1.2c4.8-.5,9,.9,13.1,3s7,6.9,6.7,10.5c-.3,3.5-1.9,4.8-5.5,4.8a30.42864,30.42864,0,0,0-7.9.9c-3.1.7-5.3,3.3-4.6,6.5a62.09879,62.09879,0,0,0,3.6,11.6c.9,1.7,3.1,3,5.1,4,1.9.9,3.6-.3,4-2.4a8.33563,8.33563,0,0,0-2.8-8.1,5.97268,5.97268,0,0,1-1.2-2.8c1-.2,2.6-1,3.3-.5a16.75868,16.75868,0,0,1,4.2,4.2,8.1635,8.1635,0,0,1,.9,3,12.24227,12.24227,0,0,0,5.7,9.5c1.6,1,1.7,2.3-.2,3-2.6,1-5.5,2.1-8.1,3-1.4.5-4-.7-3.8,2.3.2,2.1,2.8,4.2,5.1,4.2a28.51,28.51,0,0,1,6.5.5c6.4,1.2,10.5,5.5,13.6,10.7,2.1,3.8,3.1,8.1,4.8,12.1a8.21567,8.21567,0,0,1,.2,2.3c-.2.2-.5.2-.7.3-1.9-3-3.8-5.8-5.8-8.8-3.3-5.5-7.2-10.3-13.9-11.9a2.85091,2.85091,0,0,0-1.6-.2,10.21132,10.21132,0,0,0-4.2,1.6c-.3.3.5,2.4,1.2,3.6a14.19141,14.19141,0,0,0,8.8,6.9c5,1.2,8.4,4.4,12.3,7.4,5.3,4.2,6.4,10,7.9,15.8a14.28215,14.28215,0,0,1,0,3,37.6913,37.6913,0,0,0-4.8-3.1c-1.9-1.4-4-3-6-4.4-1.6-1.2-2.6-.5-2.4,1.4a7.29652,7.29652,0,0,0,.9,3.5,22.12159,22.12159,0,0,0,12.1,11c10.3,4,21.2,5.7,32.2,6.4a90.8109,90.8109,0,0,0,11.6-.3c-8.8-1.2-17-3.1-23.1-11.4,1.2.2,1.7.2,2.3.3,7,3.6,14.6,5.5,22.2,7.2,1,.2,1.7,1.4,2.8,1.9.7.3,1.7.9,2.3.7,3.1-1.4,6.9-2.4,9.3-4.8,2.8-2.4,2.3-6.4.9-9.5a106.20694,106.20694,0,0,0-6-10.9c-2.3-3.8-5-7.6-7.4-11.4a5.40432,5.40432,0,0,1-1.2-3.6c0-1,1.2-2.1,2.1-2.6.3-.2,1.7.3,2.3,1,4.2,6.2,8.4,12.3,12.6,18.4a53.0358,53.0358,0,0,1,3.8,7c4,9.5-1.4,19-11.9,20.7a61.071,61.071,0,0,1-9.5.9H71.3c-.3,0-.7.2-1.7.3a15.868,15.868,0,0,0,2.6,2.6c15.7,7.4,31.5,6.7,47-.2,6.4-2.8,12.6-5,19.7-4,7,.7,11.4,4.8,14.1,10.9.3.7.7,1.4,1.2,2.8,1.2-4.8,3-8.3,7-9.8.9-.3,2.1-.9,3-.5,3.1,1,6.5,1.7,9.3,3.5,3.8,2.3,3.6,5.5.5,8.4a17.77352,17.77352,0,0,1-11,4.8c-3.3.3-6.2-.9-8.6-4.8-1.2,7.9-4.4,13.6-11.2,16.5-3,1.2-8.8,1.4-11.2,0,1.9-.7,3.1-1.2,4.6-1.6a14.51852,14.51852,0,0,0,8.8-5.3,20.02649,20.02649,0,0,0,1.6-2.4c.7-1.7.3-2.8-1.9-3a26.777,26.777,0,0,0-16,4.2,8.69513,8.69513,0,0,0-2.4,2.3c-2.3,2.6-1.9,5,1.4,6.4a22.578,22.578,0,0,0,8.3,2.4,54.493,54.493,0,0,0,39.4-10.3c1.6-1,3.1-2.1,5.5-3.5-.5,9.1-.2,17.4,6.7,23.6.3,0,.5-.2.9-.2-.2-.9-.2-1.6-.3-2.3-2.1-6.2-1.4-12.3-.9-18.4.5-5.8,1.2-11.6,1.2-17.4,0-5.1-2.6-9.1-7-11.7A63.52936,63.52936,0,0,0,147.6,309c-4.4,0-8.4-.3-12.4-2.4-4.6-2.3-7.2-6-7.2-11.2a12.43086,12.43086,0,0,1,6.9-11.7,15.43477,15.43477,0,0,1,14.6-.5,21.83554,21.83554,0,0,1,10,9c2.4,4.2,6.2,6.5,10.2,8.6,10,5.1,19.5,10.9,27,19.3,6.7,7.4,12.4,15.3,14.3,25.3a31.77012,31.77012,0,0,1-5.3,24.8c-.7,1-2.2,2.1-2.9,3.3C201.4,373.7,39.3,373.2,39.3,373.2Zm75-30.7a8.25244,8.25244,0,0,0,.9,5.3c2.1,3.5,3.3,3.3,5.8.2,5.7-7.4,13.2-10.7,22.5-10.3H147c-2.3-4.2-4.4-7.7-8.6-8.1-7.7-.7-15,1-20.5,6.7A14.73167,14.73167,0,0,0,114.3,342.5Z" fill="#1b2c39"/>
          <path d="M358.5,282.7a42.21892,42.21892,0,0,0-5.2,9c-2.6,6-8.1,9.5-13.4,13.1a16.73288,16.73288,0,0,0-6.7,7.7c-2.3,5.5-3,5.5-6.9.7-8.4-10.3-19.5-15.8-32.9-16.7-13.7-.9-26,3.1-38.1,8.8-9.7,4.4-17.7,10.9-25.1,18.4-1.7,1.7-2.1,3.1-.3,5.3,2.4,2.8,4.6,6,6.7,9,3,4,6.9,5.7,11.6,4.8,4-.7,6.7.3,9,3.8,3.3,5.3,3,9.8-2.4,13.1a55.7285,55.7285,0,0,1-9.7,4.2c-7,2.3-14.3,1.6-21.4,1.6-3.6,0-3.8,0-2.8-3.5a47.09791,47.09791,0,0,0,1.7-19.7c-1.9-15.7-8.8-29.1-18.3-41.3a87.5982,87.5982,0,0,0-12.4-13.4A101.85158,101.85158,0,0,1,137.8,259c.2,4.2-1.7,11.8,1.4,14.2,2.8,1.9,5.5.7,9.6,2.9,3.4,1.8,13.5,6.6,16.8,8.3,25.7,13.6,39.5,28.7,48.3,56.2,2.3,7.4,2.6,15.1-.3,22.5-1.4,3.6-3,7.6-6.5,9.8a7.393,7.393,0,0,1-2.2,1h5.6c61.3,0,116.4-30.3,150.3-77.1l1.4-1.9a9.99,9.99,0,0,0,.9-4.9C362.4,286.2,361,284.3,358.5,282.7ZM251.7,321.8c-2.6.9-5.3,1.4-7.9,2.1-.2-.3-.3-.7-.5-1a43.79406,43.79406,0,0,1,3.5-5.7c.5-.5,1.9-.5,3-.5.5,0,1.2.7,1.7,1,.7.5,1.7,1,1.6,1.6C252.9,320.3,252.4,321.7,251.7,321.8Zm68,7.1a8.71907,8.71907,0,0,1-3.6,0c-2.6-.3-5.3-.7-7.4,1.2-2.8,2.4-5.7,5.1-8.3,7.7a80.53094,80.53094,0,0,1-6.7,6.2c-5,3.8-10.9,5.3-16.9,6.2-3.3.5-5.8,1.6-6,5.3a3.45591,3.45591,0,0,1-1,2.1,6.15079,6.15079,0,0,1-1.9,1.2,7.4865,7.4865,0,0,1,.2-2.1c2.1-6,2.1-11.7-1.6-17.4a18.27571,18.27571,0,0,1-1.4-2.8c-2.1-6.4-4-12.6-6.2-19-.5-1.7.5-2.4,1.7-3.1,9.3-5.3,19-9.1,29.8-9.3a46.72292,46.72292,0,0,1,7.4.9c10.7,2.1,19,7.7,23.9,17.6C323.2,326.3,322.5,328.1,319.7,328.9Z" fill="#1b2c39"/>
          <path d="M124.3,71.3c-.7,3.4-4.2,5.4-8.3,4.5-3.7-.8-6.3-4.4-5.6-7.9.6-3,4.8-5.2,8.4-4.4C122.6,64.3,125.1,67.7,124.3,71.3Zm271.4,115C395.7,83.9,312.8.8,210.7,0h-7.2c-.1,0-.2,0-.2.1-.5.6-1.4,2.1-2.3,2.3-2.2.4-4.8-.1-7.2-.3-.6-.2-1.4-.4-1.6-.9a2.99462,2.99462,0,0,1-.4-1c0-.1-.2-.2-.3-.2H39.5C17.1.8.6,21,0,39.5V75.3c0,5.5,3.7,9.3,8.8,9.3l4-.1a5.72144,5.72144,0,0,0,1.4-.1c.2-1.3.3-2.7.5-3.9A13.76052,13.76052,0,0,1,17.3,74c2.4-2.8,2.2-16.6,9.8-5.4.1.1.1.1.2.1l2.3.2c.2,0,.3-.1.3-.2,2.7-11.3,7.2-13.2,15.2-18,14.2-8.3,31,.1,32.5,13.6.4,3.9-.6,7.9-.9,11.8-.3,3.6-1.2,4.7-.9,8.1a.31931.31931,0,0,0,.3.3l3-.1c.2,0,.3-.4.4-.5,1-6.8.6-6.4,4.5-12.4,6.6-10.3,16.6-16.7,30.6-17.8,6.5-.5,12.4,1.4,16.8,6.4,3.1,3.5,3.2,8.6.2,11.2a9.06091,9.06091,0,0,1-2.2,1.1c1.9-5-.1-8.3-5.2-11.2-4.5-2.6-7.9-2.8-12.7-1.9-7.6,1.3-10.9,6.2-11.7,13.1-.7,6.3,2,8.2,2.7,11.9a.31929.31929,0,0,0,.3.3l45.6-.1a.26518.26518,0,0,0,.3-.3c.4-3.9-8.6-18-4.2-29v-.1c9.1-11.8,13-18.8,26.4-16.7C183,40.3,193,60.9,194.3,65.6c.7,3.1,1.5,6.4,2.4,9.5a6.01436,6.01436,0,0,0,.9,1.3c.1.2.4.1.5-.1a8.34069,8.34069,0,0,0,.8-1.2,1.803,1.803,0,0,0,.2-1c1.6-10.7,5.3-20.6,14.3-27.6,5.5-4.2,9.1-9.5,11.9-15.7a48.75262,48.75262,0,0,1,4.2-7.4,21.16413,21.16413,0,0,0,4-10.5,6.80533,6.80533,0,0,1,.3-1.2c4.7.4,9.1.5,13.7.7,2.1.1,3.1.5,3.3,3.1a4.08732,4.08732,0,0,0,5.6,4,.34824.34824,0,0,0,.1-.5c-1-1-1.9-1.7-2.7-2.5-3.1-3.3-1.9-7.6,2.3-8.8,4-1.2,8.9,1.8,9.8,6.4.5,2.4,1.5,3.4,3.8,4.4a107.561,107.561,0,0,1,14.8,7.4,20.87218,20.87218,0,0,0,9.5,3.6,19.04542,19.04542,0,0,1,2.9.9.36528.36528,0,0,1,.2.5c-2,3.1-1.8,4.5.4,5.8a.36527.36527,0,0,0,.5-.2,15.17611,15.17611,0,0,1,.9-2.8,17.41939,17.41939,0,0,1,1.9-2.6.6012.6012,0,0,1,.4-.1,7.31857,7.31857,0,0,1,2.6,2.3,10.01913,10.01913,0,0,1,1.4,5.1c-.2,4.6.6,9.5-3,13.4-2.8,3-5.4,6-8.3,9v.1c-.1.3-.5.1-1,.3a55.37276,55.37276,0,0,0-1.7-5.8c-1.8-4.1-2.9-8.4-1.6-13a17.98329,17.98329,0,0,0,2.2-.6c0,.1.1.1.1.2,1.4,3.1,2.4,6.3,3.8,9.3a13.03339,13.03339,0,0,0,1.5,2,.28333.28333,0,0,0,.5,0c.6-.9,1.4-1.7,1.4-2.6,0-6-1.2-11.4-5.5-16-1.9-2.1-4.1-2.6-5.8,0-5.3,8.8-6.7,18.1-2.4,27.6,1.2,2.9.9,4.7-.7,7-3.2,4.6-6.2,9.1-9,13.9-.3.4-.1,1.4.1,2.3,0,.2.2.3.4.2a7.313,7.313,0,0,0,2.3-.9c3.5-4,6.7-8.2,10-12.4,1.6-2.1,3.5-2.1,5.7-.9,7.4,4.4,14.6,3.4,21.2-1.6,1.2-.9,1.9-2.3,2.8-3.3-.2-.2-.3-.5-.5-.7-7.4,1.7-14.5.9-21.9-1.8-.2-.1-.3-.3-.1-.5,1.3-1.3,2.6-2.9,3.9-4.4a2.07754,2.07754,0,0,1,1.2-.5c3.5.2,7,.2,10.5.5,1.1.2,2.1,1.4,3,2.3.7.7,1,1.8,1.7,2.1,3.5,1.9,4.8,1.7,8.1-.9,2.1-1.7,2.3-3.1,0-4.4s-5-2-7.4-3a10.026,10.026,0,0,0-8.3.2c-1.3.7-2.7.6-4.6.8-.2,0-.4-.2-.3-.4.9-2.7,1.9-4.3,3.9-4.6a20.456,20.456,0,0,1,5.5.1c.3,0,.5-.4.2-.5-.9-.7-1.5-1.3-2-1.7a26.36879,26.36879,0,0,1-3-1c.3-2.6.7-5.3,1.2-7.7.2-.5,1.6-1.6,2.3-1.4,2.7.7,2.2,6.8,1.3,8.2l.7-.5a13.764,13.764,0,0,0,3-2.4c1.9-2.2,4.6-3.3,7-2.4a2.42784,2.42784,0,0,1,1.4,1.7v.1c-.4,2.8-5.3,5.1-7.7,3.5-.3-.3-1-.1-1.7-.3a1.89855,1.89855,0,0,1-.3.9,45.25685,45.25685,0,0,0,4,2.6c5.6,3.2,11.5,6.1,17,9.7a66.57715,66.57715,0,0,1,12.1,10.3c4.2,4.2,7.4,9.3,7.6,15.7,0,5.4,1.6,9.9,6,13.1.7.4,1,1.1,1.7,1.6,5.3,4,8.1,9.5,9.5,15.7,1.1,4.6,2.6,9,8.1,10,.2,0,.3.2.5.2,1.6.9,1.7,2.1.7,3.5h0c-.6.7-.9,1.4-1.6,1.7-1.7,1.2-1.7,2.6-1,4.6a59.35628,59.35628,0,0,1,4,18.1,8.45,8.45,0,0,0,1.9,4.8,11.95655,11.95655,0,0,1,2.4,12.1,9.87818,9.87818,0,0,0-.3,3c0,1.7.5,3.5.3,5.3a63.67647,63.67647,0,0,0,.3,20.9c.7,3.7,1.3,5.6-.4,8.9a11.5446,11.5446,0,0,1-1.9,1.4c-2.7.8-6.3.1-5.3-2.5l-.1.1a17.7725,17.7725,0,0,0,1.3-8.9c-.2-2.6-1.4-3.1-3.6-1.9a13.98845,13.98845,0,0,0-2.6,1.6c-2.1,2-3.7,3.8-4.1,7.7-.9-1-1.7-2.3-2.6-3.1.5-.9.7-1.9,1.3-2.8,1.9-.9,2.7-1,3.6-2.9.3-1.7.7-3.8-1.6-5a9.45538,9.45538,0,0,1-2.4-1.4c-2.8-1.6-5.5-.5-6,2.6a20.24515,20.24515,0,0,0,0,5.5,2.60992,2.60992,0,0,1-3,3.1c-2.8-.3-3.6.3-2.3,2.8,1.7,3.1,3,5.3,5.7,7.6,0,.1,8.5.1,11.9.1h10.1a8.62694,8.62694,0,0,0,8.8-8.8l.2-17.9ZM104.7,45.2C99.3,51.9,86.1,55.9,77,49.6c-5.7-4-7.3-12.1-3.4-18.8,3-5.1,8.3-6.6,12.4-3.5,2.7,1.9,3,4.9,3,8.1a69.88555,69.88555,0,0,0,.4,10.3c.4,2.8,1.6,3.2,4.2,2.2a18.57917,18.57917,0,0,0,4.9-2.4c2.4-1.7,3.9-3.9,1.6-6.6-1.9-2.2-4-4.1-5.7-6.4a15.6051,15.6051,0,0,1-2.7-5.1,9.22316,9.22316,0,0,1,9.3-11A11.347,11.347,0,0,1,112,26C113.2,32.7,110.4,38.3,104.7,45.2Zm52.4-22.1c-1.1,4-2.8,7.9-4.2,11.7v.1c-3.8,5.6-8.3,10.4-15.4,12.1a37.37922,37.37922,0,0,1-9.5.9c-5.2-.2-7.3-2.7-8.2-7C115.9,23,126.2,7.8,145,6.2a57.93365,57.93365,0,0,1,7.2.1c3.2.2,4.6,1.4,5.3,4.5A28.24356,28.24356,0,0,1,157.1,23.1Zm8.2-11.4c0-3.9,2.1-6.4,5.7-6.4,4.1,0,7,3.3,7,8.1-.2,3.1-3.5,6.9-6.3,6.7C168.7,20.1,165.3,15.6,165.3,11.7Zm14.2,23.1c-.7,1.2-1.5,1.4-2.4.2-1-1.8-2.1-3.7-3.1-5.5l.7-.7a19.659,19.659,0,0,0,3.2,1C181.9,30.6,181.6,31.7,179.5,34.8Zm15.2,19.4c-2.6-3.4-5.2-6.7-8.1-10.2-.1-.2-.1-.4.1-.5a5.72278,5.72278,0,0,1,6,1.4c2.7,2.4,2.6,5.7,2.8,8.8C195.2,53.9,195,54,194.7,54.2Zm12.9-9.1c-2.2,3.1-4.8,6.1-7.2,9.1-.2,0-.3-.2-.5-.2a46.99446,46.99446,0,0,1,0-6.5c.5-2.6,4.1-5,6.8-4.1C207.1,43.4,207.8,44.9,207.6,45.1Zm5.9-7.3c-2.1,2-4.2,1.3-6.8,1.1-.3,0-.4-.4-.1-.6,3.3-2.2,3.5-2.8,2.5-5.6-1.4-4.2-2.8-5.7-6-5.5a4.72426,4.72426,0,0,0-4.6,4c-.2,1.4-.6,3.5.3,4.6,1.3,1.6,3.3,2.5,5.1,3.8a.28333.28333,0,0,1,0,.5c-1.8,1.5-3.7,2.9-5.6,4.5a.24737.24737,0,0,1-.4-.1c-.8-1.1-1.1-2.2-1.7-2.4-3.8-1.1-7.9-1.9-11.7-2.8h0c-.9-.2-1.8-.3-2.5-.4-.2,0-.3-.2-.2-.4a24.23566,24.23566,0,0,0,1.6-4.4c.4-2.2.9-4.1,2.8-5.8,1.4-1,.9-2.3-.7-2.6a19.80606,19.80606,0,0,0-4.2-.3,8.74158,8.74158,0,0,1-6.7-2.4.45417.45417,0,0,1,0-.5l7.5-6.1a.36734.36734,0,0,0,.1-.3c-.7-3.6-1.3-7.3-2.3-10.8-.7-2.1.1-3,1.7-3.5a6.14523,6.14523,0,0,1,7.7,5.1c.4,3.7,3,7.3,6.4,7.6a3.93145,3.93145,0,0,0,2.6-1.2c.5-.4.2-1.6,0-2.3-.4-.9-.9-1.9-1.4-2.8a2.10187,2.10187,0,0,0,.7-.5c.9.8,1.9,1.6,2.8,2.4.8.7,1.6,1.7,2.6,2.7l.6-.2a8.10559,8.10559,0,0,1,.6-2,38.79948,38.79948,0,0,1,3.6-7.4c1.4-1.9,3.6-1.9,5.8-.9,2.3,1.3,1.4,3.2.9,5a8.66969,8.66969,0,0,1-1.4,2.7.30415.30415,0,0,1-.4,0c-1.6-1.8-3-.7-4.6.4a19.51614,19.51614,0,0,1-4.6,2.8h-.1v.1h0c-3.5,1.4-5.2,2.8-4.9,5.9.1,1.4,1.5,2.6,2.4,4,1.1,1.9,2.8,2.1,4.8,1.6,2.2-.7,4-1.8,4.4-4.2a35.93214,35.93214,0,0,0,.5-4.6,14.10092,14.10092,0,0,0-.9-3.2c0-.2,0-.3.2-.4.7-.2,1.8-.6,3.1-1,.2-.1.4.1.4.3-.3,2.7-.6,4.9-.9,7.2,0,.2.1.4.3.3,3.1-.3,5.1,1.2,7,3.7a.36527.36527,0,0,1-.2.5,27.32074,27.32074,0,0,1-4.1,1.3c-1.7.3-3.4.1-5.1.3a1.98081,1.98081,0,0,0-1.7,3c1.8,3.2,3.3,6.4,4.9,9.5A.36748.36748,0,0,1,213.5,37.8Zm7.3-8.2c-1,3.2-3.5,6.2-4.4,5.5a28.20913,28.20913,0,0,1-3.2-4.3c-.1-.2,0-.5.2-.5,2.7-.4,4.8-.8,7.1-1.1C220.7,29.2,220.9,29.4,220.8,29.6Zm3.7-10c-3.1.2-7-3.8-7-7.4A6.66789,6.66789,0,0,1,224,5c3.5,0,6,2.6,6,6.9C230,15.5,226.9,19.6,224.5,19.6Z" fill="#1b2c39"/>
        </g>
        <g>
          <path d="M384.3,171.3a2.48954,2.48954,0,0,0-1.5-1.8c-1.1-.1-2.8.1-3.2.6a53.11838,53.11838,0,0,0-3.5,7.6C380.1,178.4,384.8,174.3,384.3,171.3Z" fill="#d90000"/>
          <path d="M240.1,284.6a111.35584,111.35584,0,0,1-23.7,4.4h0c.3,1.4-.1,2.4.2,4.6-1.9,7,3.9,14,10.5,15.4,7.6,1.6,14.3-3,15.3-10.5a24.05518,24.05518,0,0,0-2.3-13.9Z" fill="#d90000"/>
          <path d="M191.4,28.2c-2.7,0-5.4,3.7-5.4,7.1,0,2.6,2.4,4.6,5.8,4.6,2.8,0,5.3-2.8,5.3-6.2A5.35741,5.35741,0,0,0,191.4,28.2Z" fill="#d90000"/>
        </g>
        <g>
          <path d="M63.2,153l-.1.3a31.41418,31.41418,0,0,0-3,8.1c-3,13.7,5.6,28.7,19.1,32.8,5.1,1.6,10.5,2.1,13.4,2.6,16.5-.9,28.6-6,37.4-17a27.25651,27.25651,0,0,0,3.8-26.4Z" fill="#f8c041"/>
          <path d="M196,22.2c1.1-2.4.4-5.8-2-6.5-3.6-1-5.3-4-7.4-6.5a8.70269,8.70269,0,0,0-2.1-1.7c-.3.5-.9,1-.9,1.4a9.49269,9.49269,0,0,0,.9,3.5c.3.7,1.6.9,3,1.6-3.3.7-3.8,2.4-3.5,5.1a8.07749,8.07749,0,0,0,4.4,6.9C190.2,27.1,194.8,24.6,196,22.2Z" fill="#f8c041"/>
        </g>
        <path d="M195.9,27.1c0,.5.9,1,1.4,1.6.7-.7,1.6-1.4,1.7-2.3.3-.3-.5-1.1-1.4-2.4C196.7,25.3,196,26.2,195.9,27.1Z"/>
      </g>
    </g>
  </g>
</svg>
