<?xml version="1.0" standalone="no"?>
<!DOCTYPE svg PUBLIC "-//W3C//DTD SVG 20010904//EN"
 "http://www.w3.org/TR/2001/REC-SVG-20010904/DTD/svg10.dtd">
<svg version="1.0" xmlns="http://www.w3.org/2000/svg"
 width="858.000000pt" height="858.000000pt" viewBox="0 0 858.000000 858.000000"
 preserveAspectRatio="xMidYMid meet">
<g transform="translate(0.000000,858.000000) scale(0.100000,-0.100000)"
fill="#000000" stroke="none">
<path d="M7603 8115 c-176 -38 -338 -160 -465 -349 -69 -103 -96 -154 -144
-274 -55 -135 -133 -416 -160 -572 -2 -14 -9 -45 -14 -70 -5 -25 -12 -58 -14
-75 -3 -16 -12 -70 -20 -120 -8 -49 -18 -110 -21 -135 -3 -25 -8 -52 -10 -60
-4 -15 -50 -399 -60 -505 -3 -33 -8 -78 -10 -100 -2 -22 -7 -67 -10 -100 -3
-33 -8 -83 -11 -110 -3 -28 -7 -81 -9 -119 -3 -37 -7 -80 -10 -95 -2 -14 -7
-60 -10 -101 -3 -41 -7 -86 -10 -100 -2 -14 -7 -52 -10 -85 -6 -67 -14 -142
-20 -195 -6 -45 -16 -138 -20 -170 -1 -14 -6 -50 -11 -80 -4 -30 -7 -58 -6
-61 1 -4 -3 -33 -8 -65 -5 -33 -12 -81 -15 -109 -3 -27 -7 -61 -10 -75 -7 -50
-15 -106 -21 -155 -3 -27 -12 -90 -19 -140 -8 -49 -17 -110 -20 -135 -9 -68
-45 -302 -50 -325 -3 -11 -7 -38 -10 -60 -5 -36 -49 -301 -60 -365 -3 -14 -7
-38 -10 -55 -3 -16 -12 -64 -20 -105 -8 -41 -17 -88 -19 -103 l-5 -28 101 3
100 3 13 35 c7 19 32 87 55 150 44 119 298 764 330 835 10 22 55 128 100 235
45 107 91 213 100 235 10 22 46 103 80 180 34 77 75 168 91 203 16 35 29 65
29 67 0 1 23 51 50 109 28 58 50 108 50 110 0 2 27 61 60 131 33 70 60 128 60
130 0 1 30 65 66 141 109 229 162 341 239 504 40 85 92 196 115 245 78 166
226 509 268 621 76 201 112 368 117 549 8 249 -47 398 -205 555 -151 151 -306
199 -507 155z"/>
<path d="M4476 6243 c-1 -1 -42 -5 -91 -8 -128 -8 -261 -21 -304 -30 -10 -2
-42 -6 -71 -10 -29 -4 -62 -9 -74 -12 -12 -2 -37 -7 -56 -10 -19 -2 -73 -14
-120 -25 -47 -11 -98 -22 -115 -25 -16 -3 -48 -11 -70 -18 -22 -7 -78 -23
-125 -35 -47 -12 -94 -25 -105 -30 -19 -8 -320 -109 -340 -114 -5 -1 -23 -8
-40 -16 -16 -7 -39 -16 -50 -21 -11 -5 -47 -18 -80 -30 -33 -12 -84 -32 -113
-45 -29 -13 -55 -24 -58 -24 -3 0 -35 -13 -71 -30 -35 -16 -66 -30 -68 -30 -2
0 -41 -17 -87 -39 -46 -21 -93 -41 -105 -45 -13 -4 -23 -12 -23 -17 0 -5 -6
-9 -12 -9 -17 0 -222 -102 -226 -112 -2 -5 -10 -8 -19 -8 -8 0 -26 -9 -40 -20
-14 -11 -32 -20 -39 -20 -8 0 -14 -4 -14 -10 0 -5 -5 -10 -11 -10 -13 0 -133
-72 -137 -82 -2 -5 -9 -8 -15 -8 -14 0 -150 -89 -155 -102 -2 -4 -8 -8 -13 -8
-14 0 -129 -82 -129 -93 0 -4 -4 -6 -9 -2 -6 3 -13 -1 -18 -8 -4 -7 -24 -24
-43 -37 -19 -14 -42 -32 -51 -40 -9 -8 -44 -40 -79 -70 -106 -91 -249 -240
-330 -342 -14 -17 -32 -38 -40 -47 -39 -43 -196 -282 -192 -293 1 -5 -2 -8 -6
-8 -5 0 -19 -21 -32 -47 -13 -27 -26 -50 -29 -53 -6 -5 -81 -157 -81 -165 0
-3 -9 -21 -20 -40 -11 -20 -20 -42 -20 -50 0 -8 -4 -15 -10 -15 -5 0 -10 -8
-10 -17 0 -10 -6 -29 -13 -43 -7 -14 -30 -74 -52 -135 -21 -60 -43 -116 -49
-124 -9 -12 -8 -13 4 -6 12 7 13 6 3 -6 -6 -8 -14 -27 -17 -42 -2 -15 -7 -30
-9 -35 -14 -21 -69 -255 -71 -294 0 -10 -3 -18 -6 -18 -4 0 -10 -41 -13 -92
-1 -10 -4 -18 -7 -18 -3 0 -5 -15 -6 -33 0 -17 -5 -72 -9 -122 -13 -138 -7
-408 10 -435 4 -6 5 -13 3 -16 -4 -3 15 -113 25 -149 2 -5 7 -26 11 -45 24
-108 122 -334 178 -414 84 -118 160 -205 249 -281 47 -41 155 -115 167 -115 6
0 12 -4 14 -9 3 -7 92 -52 218 -109 25 -11 66 -25 90 -32 25 -7 50 -15 55 -18
6 -4 21 -8 34 -10 14 -2 32 -7 42 -13 10 -5 29 -9 43 -9 14 0 26 -3 26 -7 0
-5 15 -9 33 -11 32 -2 70 -9 75 -12 5 -5 12 -6 167 -26 11 -1 61 -5 110 -9 50
-4 99 -8 110 -9 11 -1 28 1 37 6 9 4 19 5 21 1 4 -6 112 -9 112 -3 0 1 29 3
65 6 173 10 305 30 530 80 39 9 43 10 85 22 22 6 43 12 47 12 4 0 26 7 48 15
22 8 40 12 40 8 0 -3 6 -1 13 5 7 6 24 13 37 16 33 6 311 101 336 114 10 5 21
10 24 10 8 1 111 40 170 65 14 5 30 11 35 13 12 3 138 56 213 90 29 13 54 24
56 24 15 0 536 254 589 287 20 13 37 20 37 17 0 -4 6 -2 13 4 6 5 53 31 102
58 50 26 101 55 115 64 14 10 27 18 30 17 3 0 40 20 83 44 43 24 104 58 135
76 48 27 60 39 76 80 10 26 25 62 32 80 8 17 14 36 14 42 0 6 4 19 10 29 9 17
71 183 85 231 4 13 3 22 -1 19 -38 -18 -195 -78 -206 -78 -4 0 -19 -5 -35 -11
-15 -6 -29 -10 -30 -10 -1 0 -26 -9 -55 -20 -51 -20 -516 -178 -521 -178 -1 0
-15 -4 -30 -10 -16 -6 -36 -11 -46 -11 -10 0 -21 -3 -25 -7 -3 -4 -12 -8 -19
-9 -7 -1 -31 -9 -54 -18 -24 -8 -43 -13 -43 -10 0 2 -9 0 -21 -6 -11 -6 -30
-13 -41 -15 -12 -3 -61 -16 -109 -30 -49 -15 -99 -28 -111 -29 -13 -2 -30 -6
-38 -9 -14 -5 -95 -24 -136 -32 -11 -2 -19 -4 -19 -5 0 -1 -12 -3 -28 -5 -15
-2 -51 -8 -80 -14 -69 -14 -91 -18 -220 -36 -35 -4 -133 -14 -210 -20 -27 -2
-51 -6 -54 -9 -3 -3 -14 -1 -24 4 -10 6 -20 7 -22 3 -6 -10 -129 -9 -145 1 -7
4 -12 3 -12 -2 0 -5 -12 -7 -27 -5 -16 2 -58 6 -94 8 -36 2 -79 7 -95 10 -16
3 -51 8 -78 11 -27 3 -57 9 -67 15 -10 5 -22 8 -26 7 -15 -3 -83 14 -89 23 -3
5 -9 7 -13 5 -15 -10 -261 89 -261 104 0 4 -8 10 -18 14 -9 3 -26 11 -37 18
-32 20 -175 165 -175 176 0 6 -6 17 -13 24 -16 16 -77 139 -81 161 -1 9 -5 20
-9 23 -4 4 -7 18 -7 31 0 13 -4 23 -8 23 -4 0 -8 8 -9 18 -1 20 -12 144 -17
185 -2 15 1 27 7 27 5 0 5 5 -2 13 -6 8 -9 16 -7 18 2 2 7 27 10 54 3 28 7 59
10 70 2 11 7 40 11 65 4 25 10 50 13 55 4 6 8 19 9 30 2 11 6 27 10 35 3 8 7
17 7 20 1 3 21 60 45 128 37 103 47 122 65 123 139 5 447 19 497 23 20 2 41 6
47 10 6 3 13 2 17 -4 4 -6 11 -8 16 -4 5 3 40 7 77 9 37 3 91 7 120 10 28 3
76 7 105 10 28 3 77 8 107 11 30 3 75 7 100 10 56 5 120 12 185 21 28 3 67 7
87 7 21 1 38 3 38 6 0 3 15 7 33 8 30 3 66 8 77 12 3 1 8 2 12 1 4 0 31 4 60
9 29 5 68 12 86 15 89 14 136 22 172 30 14 3 36 7 50 10 38 7 123 24 145 29
11 2 63 14 115 26 52 12 102 23 110 25 8 2 17 4 20 6 3 1 10 3 15 4 6 2 12 4
15 5 3 1 12 3 20 5 8 1 35 8 60 15 25 7 45 11 45 11 0 -1 26 7 59 19 32 11 62
17 67 14 5 -3 9 -1 9 4 0 5 10 12 23 15 62 15 185 56 262 88 17 7 32 13 35 14
17 6 49 19 75 30 17 8 48 21 70 31 97 41 276 133 286 147 3 5 8 8 10 6 2 -1
29 13 59 32 30 19 58 33 63 31 4 -1 7 2 7 7 0 5 24 24 53 42 28 19 57 39 62
45 6 6 28 24 50 40 45 32 275 259 275 271 0 7 10 21 58 79 5 5 15 21 22 35 7
13 16 26 20 29 3 3 17 28 30 55 13 28 28 53 33 56 5 3 8 9 8 12 0 4 8 27 19
51 24 56 48 126 55 163 3 15 9 42 12 58 8 37 7 181 -1 215 -3 14 -9 40 -12 58
-3 17 -11 32 -16 32 -5 0 -7 4 -4 8 3 5 -5 24 -17 43 -11 19 -21 37 -22 40 0
3 -8 13 -17 23 -10 10 -18 20 -18 24 0 11 -96 108 -137 139 -21 15 -40 30 -43
33 -8 8 -62 39 -100 58 -19 9 -36 20 -38 25 -2 4 -11 7 -21 7 -9 0 -21 4 -26
9 -24 21 -285 103 -373 117 -20 3 -46 7 -57 9 -149 26 -266 35 -473 38 -85 1
-155 1 -156 0z m254 -781 c64 -30 87 -52 98 -95 29 -105 -60 -248 -260 -422
-66 -58 -77 -66 -164 -131 -44 -32 -82 -63 -85 -67 -3 -5 -9 -7 -13 -5 -3 1
-22 -9 -40 -24 -19 -16 -37 -28 -40 -28 -3 0 -31 -15 -63 -34 -96 -56 -175
-96 -189 -96 -7 0 -14 -4 -16 -8 -3 -8 -212 -103 -234 -106 -7 -1 -19 -8 -28
-15 -9 -7 -16 -11 -16 -7 0 4 -13 0 -30 -9 -16 -9 -30 -13 -30 -9 0 4 -6 2
-12 -4 -11 -9 -268 -98 -308 -107 -8 -2 -47 -13 -86 -24 -39 -11 -84 -22 -100
-25 -16 -3 -43 -10 -61 -15 -17 -5 -34 -7 -37 -3 -3 3 -6 1 -6 -4 0 -5 -12
-10 -27 -10 -16 -1 -39 -5 -53 -8 -14 -4 -38 -9 -55 -11 -16 -3 -41 -7 -55
-10 -14 -3 -45 -8 -70 -11 -25 -3 -56 -7 -70 -9 -14 -2 -43 -6 -65 -9 -143
-21 -525 -42 -525 -28 0 17 175 273 193 280 4 2 7 10 7 18 0 9 5 12 10 9 6 -3
10 -2 10 3 0 17 79 100 247 260 13 12 28 22 33 22 5 0 15 9 22 19 8 10 30 29
51 41 20 12 37 26 37 31 0 5 7 9 15 9 8 0 15 5 15 11 0 5 5 7 10 4 6 -3 10 -2
10 3 0 6 24 25 53 43 28 18 54 36 57 39 3 3 28 19 55 35 28 15 53 33 57 39 4
6 8 7 8 2 0 -5 8 -2 18 6 28 25 259 148 277 148 7 0 18 7 25 15 7 8 16 12 21
9 5 -3 9 0 9 5 0 6 3 10 8 9 4 -2 32 8 62 21 30 13 57 24 60 24 3 0 30 11 60
25 30 13 56 24 57 23 2 0 8 1 15 4 7 2 58 19 113 38 55 19 105 35 110 36 6 1
28 7 50 13 22 6 45 13 50 14 54 15 166 42 210 49 17 3 37 8 45 10 31 8 116 21
210 31 36 3 66 8 68 9 2 2 56 2 120 1 95 -2 125 -6 162 -24z"/>
<path d="M5836 2443 c-311 -65 -569 -311 -648 -616 -22 -85 -31 -271 -16 -367
22 -153 108 -319 228 -441 133 -136 255 -203 445 -245 57 -13 227 -15 292 -4
40 6 74 11 75 10 9 -5 156 56 209 86 219 124 386 351 425 580 17 98 10 293
-14 383 -51 197 -183 377 -363 496 -76 51 -135 78 -234 106 -91 27 -299 33
-399 12z"/>
</g>
</svg>
