<?xml version="1.0" encoding="utf-8"?>
<!-- Generator: Adobe Illustrator 22.1.0, SVG Export Plug-In . SVG Version: 6.00 Build 0)  -->
<svg version="1.1" id="Layer_1" xmlns="http://www.w3.org/2000/svg" xmlns:xlink="http://www.w3.org/1999/xlink" x="0px" y="0px"
	 viewBox="0 0 36 36" style="enable-background:new 0 0 36 36;" xml:space="preserve">
<style type="text/css">
	.st0{fill:#009EFF;}
	.st1{enable-background:new    ;}
</style>
<g id="keyline">
	<rect class="st0" width="36" height="1"/>
	<rect y="35" class="st0" width="36" height="1"/>
	<rect class="st0" width="1" height="36"/>
	<rect x="35" class="st0" width="1" height="36"/>
</g>
<g class="st1">
	<path class="st0" d="M7.0991211,14.7490234v0.909668H4.5463867v1.7041016h2.0112305v0.8798828H4.5463867v1.737793h2.5527344
		v0.9140625H3.4672852v-6.1455078H7.0991211z"/>
	<path class="st0" d="M7.9711914,20.8945312v-4.3603516h0.6010742c0.1274414,0,0.2109375,0.0634766,0.2509766,0.190918
		l0.0678711,0.3442383c0.0820312-0.090332,0.1689453-0.1723633,0.2607422-0.2460938
		c0.0913086-0.0737305,0.1884766-0.1376953,0.2905273-0.1914062s0.2119141-0.0947266,0.3286133-0.1235352
		c0.1166992-0.027832,0.2441406-0.0424805,0.3823242-0.0424805c0.2231445,0,0.4208984,0.0405273,0.5932617,0.1210938
		c0.1723633,0.0810547,0.3164062,0.1943359,0.4321289,0.340332c0.1152344,0.1459961,0.203125,0.3203125,0.2626953,0.5224609
		c0.0600586,0.2026367,0.0898438,0.4257812,0.0898438,0.6694336v2.7753906h-0.9838867v-2.7753906
		c0-0.2661133-0.0576172-0.472168-0.1733398-0.6181641c-0.1152344-0.1459961-0.2885742-0.21875-0.5195312-0.21875
		c-0.1699219,0-0.3291016,0.0410156-0.4780273,0.1230469c-0.1484375,0.0820312-0.2890625,0.1943359-0.421875,0.3359375v3.1533203
		H7.9711914z"/>
	<path class="st0" d="M14.9238281,17.3837891c-0.0263672,0.0454102-0.0541992,0.0776367-0.0834961,0.0957031
		c-0.0292969,0.0185547-0.0664062,0.027832-0.1113281,0.027832c-0.0478516,0-0.0991211-0.0141602-0.1533203-0.0424805
		c-0.0546875-0.0283203-0.1176758-0.0600586-0.1894531-0.0957031c-0.0712891-0.0351562-0.1533203-0.0673828-0.2446289-0.0957031
		c-0.0917969-0.0283203-0.199707-0.0424805-0.324707-0.0424805c-0.1938477,0-0.3461914,0.0439453-0.4580078,0.1318359
		c-0.1113281,0.0878906-0.1669922,0.2026367-0.1669922,0.3442383c0,0.0932617,0.0283203,0.1723633,0.0854492,0.2358398
		c0.0571289,0.0639648,0.1328125,0.1196289,0.2270508,0.1679688s0.2011719,0.0913086,0.3203125,0.1293945
		c0.1196289,0.0385742,0.2416992,0.0800781,0.3666992,0.1254883c0.1245117,0.0454102,0.246582,0.097168,0.3662109,0.1552734
		s0.2260742,0.1318359,0.3208008,0.2207031c0.09375,0.0893555,0.1694336,0.1962891,0.2265625,0.3208008
		c0.0571289,0.125,0.0859375,0.2753906,0.0859375,0.4511719c0,0.2089844-0.0361328,0.4023438-0.1074219,0.5800781
		c-0.0717773,0.1767578-0.1767578,0.3300781-0.3149414,0.4589844s-0.3085938,0.2285156-0.5117188,0.3007812
		s-0.4360352,0.109375-0.6987305,0.109375c-0.140625,0-0.2783203-0.0136719-0.4121094-0.0410156
		c-0.1342773-0.0273438-0.2626953-0.0644531-0.3862305-0.1123047s-0.237793-0.1044922-0.3427734-0.1699219
		c-0.1044922-0.0654297-0.1967773-0.1357422-0.2763672-0.2119141l0.2265625-0.4003906
		c0.0292969-0.0478516,0.0639648-0.0849609,0.1035156-0.1103516c0.0400391-0.0253906,0.090332-0.0380859,0.1513672-0.0380859
		s0.1191406,0.0185547,0.1733398,0.0546875c0.0546875,0.0371094,0.1176758,0.0771484,0.1894531,0.1191406
		c0.0712891,0.0429688,0.1557617,0.0820312,0.2524414,0.1191406c0.097168,0.0371094,0.2197266,0.0546875,0.3686523,0.0546875
		c0.1166992,0,0.2167969-0.0136719,0.3007812-0.0439453c0.0834961-0.0302734,0.1523438-0.0693359,0.2070312-0.1162109
		c0.0541992-0.0488281,0.0942383-0.1054688,0.1191406-0.1679688c0.0253906-0.0644531,0.0380859-0.1308594,0.0380859-0.1982422
		c0-0.1025391-0.0288086-0.1855469-0.0859375-0.2509766c-0.0571289-0.0644531-0.1323242-0.1210938-0.2265625-0.1699219
		c-0.0942383-0.0478516-0.2021484-0.0917969-0.3227539-0.1289062c-0.1206055-0.0390625-0.2441406-0.0800781-0.3701172-0.1259766
		c-0.1264648-0.0454102-0.25-0.0981445-0.3706055-0.1591797s-0.2285156-0.1381836-0.3227539-0.2319336
		c-0.0942383-0.0932617-0.1699219-0.2080078-0.2265625-0.3442383c-0.0571289-0.1357422-0.0859375-0.300293-0.0859375-0.4926758
		c0-0.1787109,0.0332031-0.3486328,0.0996094-0.5102539c0.0664062-0.1611328,0.1640625-0.3022461,0.2929688-0.4228516
		c0.128418-0.1201172,0.2890625-0.2167969,0.4814453-0.2890625c0.1928711-0.0722656,0.4150391-0.1083984,0.6669922-0.1083984
		c0.2817383,0,0.5375977,0.0498047,0.7685547,0.1489258c0.2314453,0.0991211,0.4238281,0.2294922,0.5776367,0.3911133
		L14.9238281,17.3837891z"/>
	<path class="st0" d="M17.6679688,16.4658203c0.2573242,0,0.4941406,0.0439453,0.7104492,0.1318359
		s0.402832,0.2163086,0.5595703,0.3847656s0.2788086,0.3754883,0.3666992,0.6206055s0.1308594,0.5249023,0.1308594,0.8393555
		c0,0.0791016-0.0029297,0.1450195-0.0097656,0.1977539c-0.0058594,0.0522461-0.0185547,0.0932617-0.0351562,0.1230469
		c-0.0175781,0.0297852-0.0410156,0.0507812-0.0703125,0.0639648c-0.0292969,0.0126953-0.0664062,0.019043-0.1113281,0.019043
		H16.684082c0.0292969,0.4477539,0.1420898,0.7768555,0.3383789,0.9858398
		c0.1967773,0.2089844,0.456543,0.3144531,0.7807617,0.3144531c0.1591797,0,0.2963867-0.0195312,0.4121094-0.0595703
		c0.1152344-0.0400391,0.2163086-0.0830078,0.3027344-0.1318359c0.0859375-0.0478516,0.1616211-0.0917969,0.2270508-0.1308594
		c0.0649414-0.0410156,0.1279297-0.0605469,0.1889648-0.0605469c0.0400391,0,0.0737305,0.0087891,0.1030273,0.0253906
		c0.0292969,0.0175781,0.0546875,0.0410156,0.0761719,0.0722656l0.2871094,0.3828125
		c-0.109375,0.1367188-0.2314453,0.25-0.3671875,0.3417969c-0.1347656,0.0927734-0.2763672,0.1660156-0.4238281,0.2216797
		c-0.1469727,0.0556641-0.2973633,0.09375-0.449707,0.1162109c-0.152832,0.0234375-0.3007812,0.0351562-0.4443359,0.0351562
		c-0.2836914,0-0.5478516-0.0507812-0.7924805-0.1513672c-0.2441406-0.1005859-0.456543-0.2490234-0.6367188-0.4462891
		c-0.1806641-0.1972656-0.3227539-0.4414062-0.4262695-0.7304688c-0.1035156-0.2910156-0.1552734-0.6269531-0.1552734-1.0102539
		c0-0.2973633,0.0449219-0.5771484,0.1352539-0.8393555c0.090332-0.2617188,0.2197266-0.4897461,0.3881836-0.684082
		c0.168457-0.1938477,0.3745117-0.3476562,0.6171875-0.4609375C17.0883789,16.5229492,17.3623047,16.4658203,17.6679688,16.4658203z
		 M17.6875,17.2182617c-0.2866211,0-0.5107422,0.0864258-0.6728516,0.2592773s-0.265625,0.4179688-0.3105469,0.7353516h1.8476562
		c0-0.1362305-0.0170898-0.2641602-0.0517578-0.3847656s-0.0874023-0.2260742-0.1591797-0.3164062
		c-0.0717773-0.0908203-0.1621094-0.1621094-0.2709961-0.2148438C17.9609375,17.2446289,17.8334961,17.2182617,17.6875,17.2182617z"
		/>
	<path class="st0" d="M20.2363281,20.8945312v-4.3603516h0.6015625c0.1269531,0,0.2109375,0.0634766,0.25,0.190918
		l0.0644531,0.3232422c0.0712891-0.0849609,0.1464844-0.1630859,0.2246094-0.2338867s0.1621094-0.1318359,0.2509766-0.1826172
		c0.0888672-0.0512695,0.1845703-0.0913086,0.2861328-0.1210938c0.1025391-0.0297852,0.2148438-0.0449219,0.3369141-0.0449219
		c0.2578125,0,0.4697266,0.074707,0.6357422,0.2231445c0.1660156,0.1489258,0.2890625,0.3466797,0.3720703,0.5932617
		c0.0634766-0.1445312,0.1435547-0.2685547,0.2392578-0.3720703s0.1992188-0.1875,0.3144531-0.2529297
		c0.1132812-0.0649414,0.2353516-0.1132812,0.3642578-0.1445312c0.1279297-0.03125,0.2578125-0.046875,0.3876953-0.046875
		c0.2265625,0,0.4257812,0.0371094,0.6015625,0.1108398s0.3222656,0.1811523,0.4423828,0.3227539
		c0.1191406,0.1416016,0.2099609,0.3144531,0.2724609,0.5185547s0.09375,0.4379883,0.09375,0.7011719v2.7753906h-0.984375
		v-2.7753906c0-0.2773438-0.0566406-0.4863281-0.1699219-0.6269531c-0.1152344-0.1401367-0.2822266-0.2099609-0.5019531-0.2099609
		c-0.1015625,0-0.1953125,0.0180664-0.28125,0.0551758c-0.0859375,0.0366211-0.1621094,0.0898438-0.2265625,0.1591797
		c-0.0654297,0.0693359-0.1171875,0.1567383-0.1542969,0.2612305c-0.0371094,0.1049805-0.0546875,0.2255859-0.0546875,0.3613281
		v2.7753906h-0.9882812v-2.7753906c0-0.2915039-0.0546875-0.5039062-0.1650391-0.637207s-0.2724609-0.199707-0.4873047-0.199707
		c-0.140625,0-0.2734375,0.0375977-0.3964844,0.1123047c-0.1230469,0.0751953-0.2382812,0.1777344-0.3447266,0.3081055v3.1918945
		H20.2363281z"/>
	<path class="st0" d="M26.9541016,20.8945312v-6.3154297H27.9375v2.4902344
		c0.1621094-0.184082,0.3457031-0.3305664,0.5498047-0.4394531c0.2041016-0.109375,0.4433594-0.1640625,0.7167969-0.1640625
		c0.2236328,0,0.4267578,0.0493164,0.6113281,0.1469727s0.34375,0.2397461,0.4775391,0.4267578
		c0.1347656,0.1870117,0.2382812,0.4179688,0.3105469,0.6928711c0.0732422,0.2749023,0.109375,0.5908203,0.109375,0.9477539
		c0,0.3256836-0.0410156,0.628418-0.1230469,0.9057617s-0.1992188,0.5175781-0.3525391,0.7226562
		c-0.1523438,0.203125-0.3369141,0.3632812-0.5537109,0.4775391c-0.2158203,0.1142578-0.4589844,0.1728516-0.7265625,0.1728516
		c-0.125,0-0.2382812-0.0136719-0.3417969-0.0410156s-0.1982422-0.0644531-0.2832031-0.1132812
		c-0.0849609-0.046875-0.1640625-0.1064453-0.2363281-0.1757812c-0.0742188-0.0693359-0.1435547-0.1464844-0.2099609-0.2314453
		l-0.0439453,0.2929688c-0.015625,0.0732422-0.0429688,0.1259766-0.0810547,0.1572266s-0.0908203,0.046875-0.1572266,0.046875
		H26.9541016z M28.8652344,17.2822266c-0.2041016,0-0.3789062,0.0458984-0.5234375,0.1376953
		C28.1972656,17.512207,28.0625,17.6420898,27.9375,17.809082v1.9545898c0.1113281,0.1484375,0.2333984,0.25,0.3652344,0.3085938
		c0.1308594,0.0585938,0.2734375,0.0869141,0.4277344,0.0869141c0.1484375,0,0.2822266-0.0302734,0.4023438-0.0888672
		c0.1191406-0.0595703,0.2207031-0.1503906,0.3046875-0.2724609c0.0830078-0.1220703,0.1474609-0.2753906,0.1933594-0.4609375
		c0.0449219-0.1855469,0.0664062-0.4042969,0.0664062-0.6567383c0-0.2548828-0.0185547-0.4707031-0.0566406-0.6479492
		c-0.0390625-0.1772461-0.09375-0.3208008-0.1660156-0.4316406c-0.0712891-0.1103516-0.1582031-0.190918-0.2607422-0.2421875
		C29.1113281,17.3076172,28.9960938,17.2822266,28.8652344,17.2822266z"/>
	<path class="st0" d="M32.5292969,14.5791016v6.3154297h-0.984375v-6.3154297H32.5292969z"/>
</g>
</svg>
