<?xml version="1.0" encoding="utf-8"?>
<!-- Generator: Adobe Illustrator 22.1.0, SVG Export Plug-In . SVG Version: 6.00 Build 0)  -->
<svg version="1.1" id="Layer_1" xmlns="http://www.w3.org/2000/svg" xmlns:xlink="http://www.w3.org/1999/xlink" x="0px" y="0px"
	 viewBox="0 0 36 36" style="enable-background:new 0 0 36 36;" xml:space="preserve">
<style type="text/css">
	.st0{fill:#099EFF;}
	.st1{enable-background:new    ;}
	.st2{fill:#FFFFFF;}
</style>
<rect class="st0" width="36" height="36"/>
<g class="st1">
	<path class="st2" d="M5.6865234,20.0527344c0.2416992,0,0.4521484-0.0234375,0.6313477-0.0703125
		s0.3496094-0.1113281,0.5117188-0.1933594V18.671875H6.1088867c-0.0693359,0-0.1235352-0.0205078-0.1635742-0.0615234
		c-0.0395508-0.0410156-0.0595703-0.0917969-0.0595703-0.1508789v-0.6459961h1.9155273v2.4853516
		c-0.1459961,0.1142578-0.2983398,0.2128906-0.4560547,0.2958984c-0.1582031,0.0839844-0.3266602,0.1523438-0.5058594,0.2060547
		c-0.1791992,0.0546875-0.3710938,0.09375-0.5751953,0.1210938c-0.2045898,0.0273438-0.4248047,0.0410156-0.6611328,0.0410156
		c-0.4194336,0-0.8056641-0.078125-1.1586914-0.234375c-0.3535156-0.15625-0.6586914-0.3720703-0.9160156-0.6503906
		c-0.2578125-0.2773438-0.4589844-0.609375-0.6035156-0.9941406c-0.1445312-0.3852539-0.2167969-0.8061523-0.2167969-1.262207
		c0-0.4619141,0.0703125-0.8852539,0.2109375-1.2705078c0.140625-0.3857422,0.340332-0.7167969,0.5991211-0.9946289
		s0.5727539-0.4931641,0.9418945-0.6459961c0.3691406-0.1533203,0.7832031-0.2294922,1.2426758-0.2294922
		c0.4697266,0,0.8764648,0.0742188,1.2202148,0.2231445c0.34375,0.1484375,0.6352539,0.3417969,0.8745117,0.5800781
		l-0.3110352,0.5185547c-0.0610352,0.1044922-0.1416016,0.1572266-0.2426758,0.1572266
		c-0.0639648,0-0.1289062-0.0229492-0.1953125-0.0683594c-0.0849609-0.0537109-0.171875-0.1074219-0.2607422-0.1611328
		s-0.1870117-0.1005859-0.2944336-0.140625c-0.1079102-0.0395508-0.2285156-0.0717773-0.362793-0.0976562
		c-0.1337891-0.0253906-0.2885742-0.0380859-0.4638672-0.0380859c-0.2841797,0-0.5410156,0.0507812-0.7705078,0.152832
		s-0.425293,0.2480469-0.5874023,0.4379883c-0.1616211,0.1899414-0.2866211,0.4179688-0.3740234,0.684082
		c-0.0878906,0.2666016-0.1318359,0.5639648-0.1318359,0.8925781c0,0.3540039,0.046875,0.6694336,0.1396484,0.9458008
		c0.0927734,0.2753906,0.2231445,0.5097656,0.3901367,0.6992188C4.5,19.65625,4.6987305,19.8017578,4.9301758,19.9023438
		C5.1611328,20.0029297,5.4130859,20.0527344,5.6865234,20.0527344z"/>
	<path class="st2" d="M9.7919922,14.5791016v6.3154297H8.8085938v-6.3154297H9.7919922z"/>
	<path class="st2" d="M12.6474609,16.4658203c0.3051758,0,0.5820312,0.0527344,0.8300781,0.1572266
		c0.2480469,0.1049805,0.4599609,0.2539062,0.6352539,0.4462891c0.175293,0.1928711,0.3105469,0.4282227,0.40625,0.7055664
		c0.0957031,0.277832,0.1430664,0.5878906,0.1430664,0.9306641c0,0.3452148-0.0473633,0.6577148-0.1430664,0.9350586
		s-0.230957,0.5146484-0.40625,0.7099609s-0.387207,0.3457031-0.6352539,0.4501953
		c-0.2480469,0.1054688-0.5249023,0.1582031-0.8300781,0.1582031c-0.3056641,0-0.5830078-0.0527344-0.8325195-0.1582031
		c-0.2495117-0.1044922-0.4624023-0.2548828-0.6391602-0.4501953c-0.1762695-0.1953125-0.3129883-0.4326172-0.4101562-0.7099609
		c-0.0966797-0.2773438-0.1455078-0.5898438-0.1455078-0.9350586c0-0.3427734,0.0488281-0.652832,0.1455078-0.9306641
		c0.097168-0.2773438,0.2338867-0.5126953,0.4101562-0.7055664c0.1767578-0.1923828,0.3896484-0.3413086,0.6391602-0.4462891
		C12.0644531,16.5185547,12.3417969,16.4658203,12.6474609,16.4658203z M12.6474609,20.1503906
		c0.3398438,0,0.5913086-0.1210938,0.7543945-0.3652344c0.1635742-0.2441406,0.2451172-0.6005859,0.2451172-1.0708008
		s-0.081543-0.8286133-0.2451172-1.0751953c-0.1630859-0.246582-0.4145508-0.3701172-0.7543945-0.3701172
		c-0.3452148,0-0.6000977,0.1240234-0.7646484,0.3720703s-0.2470703,0.6054688-0.2470703,1.0732422
		c0,0.4672852,0.0825195,0.8237305,0.2470703,1.0688477S12.3022461,20.1503906,12.6474609,20.1503906z"/>
	<path class="st2" d="M17.855957,17.3837891c-0.0263672,0.0454102-0.0541992,0.0776367-0.0834961,0.0957031
		c-0.0292969,0.0185547-0.0664062,0.027832-0.1113281,0.027832c-0.0478516,0-0.0991211-0.0141602-0.1533203-0.0424805
		c-0.0546875-0.0283203-0.1176758-0.0600586-0.1894531-0.0957031c-0.0712891-0.0351562-0.1533203-0.0673828-0.2446289-0.0957031
		c-0.0917969-0.0283203-0.199707-0.0424805-0.324707-0.0424805c-0.1938477,0-0.3461914,0.0439453-0.4580078,0.1318359
		c-0.1113281,0.0878906-0.1669922,0.2026367-0.1669922,0.3442383c0,0.0932617,0.0283203,0.1723633,0.0854492,0.2358398
		c0.0571289,0.0639648,0.1328125,0.1196289,0.2270508,0.1679688s0.2011719,0.0913086,0.3203125,0.1293945
		c0.1196289,0.0385742,0.2416992,0.0800781,0.3666992,0.1254883c0.1245117,0.0454102,0.246582,0.097168,0.3662109,0.1552734
		s0.2260742,0.1318359,0.3208008,0.2207031c0.09375,0.0893555,0.1694336,0.1962891,0.2265625,0.3208008
		c0.0571289,0.125,0.0859375,0.2753906,0.0859375,0.4511719c0,0.2089844-0.0361328,0.4023438-0.1074219,0.5800781
		c-0.0717773,0.1767578-0.1767578,0.3300781-0.3149414,0.4589844s-0.3085938,0.2285156-0.5117188,0.3007812
		s-0.4360352,0.109375-0.6987305,0.109375c-0.140625,0-0.2783203-0.0136719-0.4121094-0.0410156
		c-0.1342773-0.0273438-0.2626953-0.0644531-0.3862305-0.1123047s-0.237793-0.1044922-0.3427734-0.1699219
		c-0.1044922-0.0654297-0.1967773-0.1357422-0.2763672-0.2119141l0.2265625-0.4003906
		c0.0292969-0.0478516,0.0639648-0.0849609,0.1035156-0.1103516c0.0400391-0.0253906,0.090332-0.0380859,0.1513672-0.0380859
		s0.1191406,0.0185547,0.1733398,0.0546875c0.0546875,0.0371094,0.1176758,0.0771484,0.1894531,0.1191406
		c0.0712891,0.0429688,0.1557617,0.0820312,0.2524414,0.1191406c0.097168,0.0371094,0.2197266,0.0546875,0.3686523,0.0546875
		c0.1166992,0,0.2167969-0.0136719,0.3007812-0.0439453c0.0834961-0.0302734,0.1523438-0.0693359,0.2070312-0.1162109
		c0.0541992-0.0488281,0.0942383-0.1054688,0.1191406-0.1679688c0.0253906-0.0644531,0.0380859-0.1308594,0.0380859-0.1982422
		c0-0.1025391-0.0288086-0.1855469-0.0859375-0.2509766c-0.0571289-0.0644531-0.1323242-0.1210938-0.2265625-0.1699219
		c-0.0942383-0.0478516-0.2021484-0.0917969-0.3227539-0.1289062c-0.1206055-0.0390625-0.2441406-0.0800781-0.3701172-0.1259766
		c-0.1264648-0.0454102-0.25-0.0981445-0.3706055-0.1591797s-0.2285156-0.1381836-0.3227539-0.2319336
		c-0.0942383-0.0932617-0.1699219-0.2080078-0.2265625-0.3442383c-0.0571289-0.1357422-0.0859375-0.300293-0.0859375-0.4926758
		c0-0.1787109,0.0332031-0.3486328,0.0996094-0.5102539c0.0664062-0.1611328,0.1640625-0.3022461,0.2929688-0.4228516
		c0.128418-0.1201172,0.2890625-0.2167969,0.4814453-0.2890625c0.1928711-0.0722656,0.4150391-0.1083984,0.6669922-0.1083984
		c0.2817383,0,0.5375977,0.0498047,0.7685547,0.1489258c0.2314453,0.0991211,0.4238281,0.2294922,0.5776367,0.3911133
		L17.855957,17.3837891z"/>
	<path class="st2" d="M21.3359375,17.3837891c-0.0253906,0.0454102-0.0537109,0.0776367-0.0830078,0.0957031
		c-0.0292969,0.0185547-0.0664062,0.027832-0.1113281,0.027832c-0.0478516,0-0.0986328-0.0141602-0.1533203-0.0424805
		s-0.1171875-0.0600586-0.1894531-0.0957031c-0.0712891-0.0351562-0.1533203-0.0673828-0.2441406-0.0957031
		c-0.0917969-0.0283203-0.2001953-0.0424805-0.3251953-0.0424805c-0.1943359,0-0.3466797,0.0439453-0.4580078,0.1318359
		s-0.1669922,0.2026367-0.1669922,0.3442383c0,0.0932617,0.0283203,0.1723633,0.0849609,0.2358398
		c0.0576172,0.0639648,0.1328125,0.1196289,0.2275391,0.1679688s0.2011719,0.0913086,0.3203125,0.1293945
		c0.1201172,0.0385742,0.2412109,0.0800781,0.3662109,0.1254883s0.2470703,0.097168,0.3671875,0.1552734
		c0.1191406,0.0581055,0.2255859,0.1318359,0.3203125,0.2207031c0.09375,0.0893555,0.1699219,0.1962891,0.2265625,0.3208008
		c0.0566406,0.125,0.0859375,0.2753906,0.0859375,0.4511719c0,0.2089844-0.0361328,0.4023438-0.1074219,0.5800781
		c-0.0722656,0.1767578-0.1767578,0.3300781-0.3144531,0.4589844c-0.1386719,0.1289062-0.3085938,0.2285156-0.5117188,0.3007812
		s-0.4365234,0.109375-0.6992188,0.109375c-0.140625,0-0.2783203-0.0136719-0.4121094-0.0410156
		c-0.1347656-0.0273438-0.2626953-0.0644531-0.3867188-0.1123047c-0.1230469-0.0478516-0.2373047-0.1044922-0.3422852-0.1699219
		c-0.1044922-0.0654297-0.1967773-0.1357422-0.2763672-0.2119141l0.2265625-0.4003906
		c0.0292969-0.0478516,0.0639648-0.0849609,0.1035156-0.1103516c0.0400391-0.0253906,0.090332-0.0380859,0.1518555-0.0380859
		c0.0605469,0,0.1191406,0.0185547,0.1728516,0.0546875c0.0546875,0.0371094,0.1181641,0.0771484,0.1894531,0.1191406
		c0.0712891,0.0429688,0.1552734,0.0820312,0.2529297,0.1191406c0.0966797,0.0371094,0.21875,0.0546875,0.3681641,0.0546875
		c0.1162109,0,0.2167969-0.0136719,0.3007812-0.0439453c0.0830078-0.0302734,0.1523438-0.0693359,0.2070312-0.1162109
		c0.0537109-0.0488281,0.0947266-0.1054688,0.1191406-0.1679688c0.0253906-0.0644531,0.0380859-0.1308594,0.0380859-0.1982422
		c0-0.1025391-0.0292969-0.1855469-0.0859375-0.2509766c-0.0566406-0.0644531-0.1328125-0.1210938-0.2265625-0.1699219
		c-0.09375-0.0478516-0.2021484-0.0917969-0.3222656-0.1289062c-0.1210938-0.0390625-0.2441406-0.0800781-0.3710938-0.1259766
		c-0.1259766-0.0454102-0.25-0.0981445-0.3701172-0.1591797s-0.2285156-0.1381836-0.3227539-0.2319336
		c-0.0942383-0.0932617-0.1699219-0.2080078-0.2265625-0.3442383c-0.0571289-0.1357422-0.0859375-0.300293-0.0859375-0.4926758
		c0-0.1787109,0.0332031-0.3486328,0.0996094-0.5102539c0.0664062-0.1611328,0.1640625-0.3022461,0.2924805-0.4228516
		c0.1289062-0.1201172,0.2890625-0.2167969,0.4824219-0.2890625c0.1923828-0.0722656,0.4140625-0.1083984,0.6660156-0.1083984
		c0.2822266,0,0.5380859,0.0498047,0.7695312,0.1489258c0.2304688,0.0991211,0.4238281,0.2294922,0.5771484,0.3911133
		L21.3359375,17.3837891z"/>
	<path class="st2" d="M25.59375,20.8945312h-0.4423828c-0.0927734,0-0.1650391-0.0146484-0.21875-0.0449219
		c-0.0537109-0.0292969-0.0927734-0.0898438-0.1201172-0.1796875l-0.0869141-0.3105469
		c-0.1035156,0.0986328-0.2050781,0.1855469-0.3046875,0.2617188c-0.0996094,0.0742188-0.2021484,0.1367188-0.3085938,0.1884766
		c-0.1064453,0.0507812-0.2197266,0.0888672-0.3388672,0.1142578S23.5214844,20.9628906,23.375,20.9628906
		c-0.171875,0-0.3320312-0.0253906-0.4775391-0.0742188c-0.1455078-0.0507812-0.2714844-0.125-0.3759766-0.2246094
		c-0.1054688-0.0996094-0.1865234-0.2226562-0.2451172-0.3710938c-0.0585938-0.1474609-0.0869141-0.3203125-0.0869141-0.515625
		c0-0.1650391,0.0390625-0.328125,0.1210938-0.4882812c0.0800781-0.1601562,0.2148438-0.3056641,0.4042969-0.4350586
		c0.1875-0.1293945,0.4394531-0.2368164,0.7519531-0.3217773c0.3134766-0.0854492,0.703125-0.128418,1.1669922-0.128418v-0.2568359
		c0-0.2939453-0.0576172-0.5117188-0.1728516-0.652832c-0.1152344-0.1416016-0.2832031-0.2119141-0.5039062-0.2119141
		c-0.1601562,0-0.2919922,0.0195312-0.3984375,0.059082c-0.1054688,0.0400391-0.1982422,0.0844727-0.2773438,0.1342773
		c-0.078125,0.0493164-0.1503906,0.0942383-0.2167969,0.1337891s-0.1386719,0.0595703-0.21875,0.0595703
		c-0.0664062,0-0.1230469-0.0185547-0.1708984-0.0551758c-0.0478516-0.0371094-0.0869141-0.0825195-0.1162109-0.1362305
		l-0.1787109-0.3359375c0.4697266-0.4589844,1.0361328-0.6884766,1.7001953-0.6884766
		c0.2392578,0,0.4521484,0.0419922,0.6396484,0.1254883c0.1865234,0.0834961,0.3457031,0.199707,0.4755859,0.3486328
		c0.1298828,0.1484375,0.2285156,0.3266602,0.296875,0.5332031c0.0673828,0.2070312,0.1015625,0.4335938,0.1015625,0.6801758
		V20.8945312z M23.6816406,20.2402344c0.1015625,0,0.1943359-0.0097656,0.2792969-0.0292969
		s0.1650391-0.0488281,0.2402344-0.0878906c0.0761719-0.0390625,0.1494141-0.0878906,0.2197266-0.1445312
		s0.1416016-0.125,0.2128906-0.203125v-0.7294922c-0.2861328,0-0.5263672,0.0185547-0.71875,0.0576172
		s-0.3466797,0.0878906-0.4638672,0.1484375c-0.1171875,0.0585938-0.1992188,0.1289062-0.2490234,0.2089844
		c-0.0488281,0.0800781-0.0732422,0.1669922-0.0732422,0.2617188c0,0.1855469,0.0507812,0.3173828,0.1523438,0.3974609
		C23.3847656,20.2001953,23.5175781,20.2402344,23.6816406,20.2402344z"/>
	<path class="st2" d="M26.5615234,20.8945312v-4.3603516h0.5771484c0.1015625,0,0.171875,0.0195312,0.2109375,0.0595703
		c0.0400391,0.0395508,0.0664062,0.1074219,0.0800781,0.2036133l0.0595703,0.5273438
		c0.1455078-0.2695312,0.3173828-0.4819336,0.5136719-0.6376953s0.4169922-0.2338867,0.6611328-0.2338867
		c0.2011719,0,0.3691406,0.0498047,0.5019531,0.1489258l-0.1279297,0.7861328
		c-0.0078125,0.0512695-0.0244141,0.0874023-0.0517578,0.1083984c-0.0263672,0.0214844-0.0625,0.0317383-0.1074219,0.0317383
		c-0.0390625,0-0.09375-0.0097656-0.1630859-0.0292969c-0.0693359-0.0200195-0.1611328-0.0297852-0.2744141-0.0297852
		c-0.2050781,0-0.3808594,0.0600586-0.5263672,0.1801758c-0.1455078,0.1206055-0.2685547,0.296875-0.3701172,0.5292969v2.7158203
		H26.5615234z"/>
	<path class="st2" d="M31.2636719,22.09375c-0.0292969,0.0722656-0.0664062,0.1289062-0.1132812,0.1669922
		c-0.0458984,0.0380859-0.1171875,0.0576172-0.2128906,0.0576172h-0.7324219l0.7646484-1.7470703l-1.6533203-4.0371094h0.8613281
		c0.0791016,0,0.140625,0.0195312,0.1826172,0.0595703c0.0419922,0.0395508,0.0742188,0.0849609,0.0957031,0.1357422
		l0.8720703,2.2612305c0.0292969,0.0737305,0.0546875,0.1499023,0.0761719,0.2299805
		c0.0205078,0.078125,0.0390625,0.1582031,0.0546875,0.2373047c0.0214844-0.0820312,0.0449219-0.1611328,0.0703125-0.2373047
		c0.0253906-0.0771484,0.0527344-0.1552734,0.0820312-0.234375l0.8203125-2.2568359
		c0.0205078-0.0566406,0.0556641-0.1035156,0.1054688-0.1401367c0.0488281-0.0366211,0.1035156-0.0551758,0.1640625-0.0551758
		h0.7890625L31.2636719,22.09375z"/>
</g>
</svg>
