<?xml version="1.0" encoding="utf-8"?>
<!-- Generator: Adobe Illustrator 22.1.0, SVG Export Plug-In . SVG Version: 6.00 Build 0)  -->
<svg version="1.1" id="Layer_1" xmlns="http://www.w3.org/2000/svg" xmlns:xlink="http://www.w3.org/1999/xlink" x="0px" y="0px"
	 viewBox="0 0 36 36" style="enable-background:new 0 0 36 36;" xml:space="preserve">
<style type="text/css">
	.st0{fill:#009EFF;}
	.st1{enable-background:new    ;}
</style>
<g id="keyline">
	<rect class="st0" width="36" height="1"/>
	<rect y="35" class="st0" width="36" height="1"/>
	<rect class="st0" width="1" height="36"/>
	<rect x="35" class="st0" width="1" height="36"/>
</g>
<g class="st1">
	<path class="st0" d="M14.4350586,21.4042969h-1.2700195v-3.159668H9.9887695v3.159668H8.7192383v-7.2294922h1.2695312v3.1098633
		h3.1762695v-3.1098633h1.2700195V21.4042969z"/>
	<path class="st0" d="M17.7236328,16.1948242c0.3027344,0,0.581543,0.0517578,0.8359375,0.1547852
		c0.2548828,0.1035156,0.4736328,0.2543945,0.6591797,0.4526367c0.1835938,0.1982422,0.3271484,0.4418945,0.4296875,0.7299805
		c0.1035156,0.2885742,0.1552734,0.6176758,0.1552734,0.987793c0,0.0932617-0.0039062,0.1704102-0.0117188,0.2324219
		c-0.0078125,0.0615234-0.0224609,0.1098633-0.0419922,0.1450195c-0.0205078,0.034668-0.0478516,0.0600586-0.0820312,0.074707
		c-0.0351562,0.0151367-0.078125,0.0224609-0.1308594,0.0224609h-2.9707031
		c0.0341797,0.5268555,0.1669922,0.9135742,0.3979492,1.159668c0.2314453,0.2470703,0.5371094,0.3710938,0.918457,0.3710938
		c0.1875,0,0.3491211-0.0234375,0.4848633-0.0703125s0.2543945-0.0986328,0.355957-0.1552734
		s0.1904297-0.1083984,0.2670898-0.1552734s0.1508789-0.0703125,0.222168-0.0703125
		c0.046875,0,0.0878906,0.0107422,0.1220703,0.03125c0.0341797,0.0195312,0.0634766,0.0478516,0.0888672,0.0839844
		l0.3378906,0.4501953c-0.1289062,0.1601562-0.2714844,0.2939453-0.4316406,0.4033203
		c-0.1582031,0.1074219-0.3251953,0.1943359-0.4985352,0.2597656c-0.1733398,0.0644531-0.3500977,0.1103516-0.5292969,0.1367188
		c-0.1796875,0.0273438-0.3540039,0.0410156-0.5224609,0.0410156c-0.3344727,0-0.6450195-0.0605469-0.9321289-0.1777344
		c-0.2875977-0.1191406-0.5375977-0.2939453-0.75-0.5253906c-0.2124023-0.2324219-0.3793945-0.5185547-0.5009766-0.859375
		c-0.1220703-0.3417969-0.1831055-0.7382812-0.1831055-1.1879883c0-0.3500977,0.0532227-0.6791992,0.159668-0.987793
		c0.105957-0.3081055,0.2583008-0.5766602,0.456543-0.8046875c0.1982422-0.2285156,0.4404297-0.4091797,0.7260742-0.5424805
		C17.0419922,16.2617188,17.3642578,16.1948242,17.7236328,16.1948242z M17.7470703,17.0795898
		c-0.3374023,0-0.6015625,0.1020508-0.7919922,0.3051758c-0.1904297,0.2036133-0.3125,0.4916992-0.3652344,0.8652344h2.1738281
		c0-0.1601562-0.0205078-0.3110352-0.0610352-0.4526367s-0.1030273-0.265625-0.1875-0.3725586
		c-0.0839844-0.1064453-0.1904297-0.190918-0.3183594-0.2524414C18.0683594,17.1108398,17.918457,17.0795898,17.7470703,17.0795898z
		"/>
	<path class="st0" d="M21.9775391,13.9746094v7.4296875h-1.1572266v-7.4296875H21.9775391z"/>
	<path class="st0" d="M23.2851562,23.0800781v-6.8051758h0.7070312c0.0742188,0,0.1386719,0.0180664,0.1914062,0.0546875
		c0.0527344,0.0371094,0.0878906,0.09375,0.1035156,0.1704102l0.09375,0.4746094
		c0.1933594-0.2363281,0.4160156-0.4282227,0.6679688-0.574707c0.2509766-0.1469727,0.5449219-0.2202148,0.8828125-0.2202148
		c0.2617188,0,0.5019531,0.0585938,0.71875,0.175293s0.4042969,0.2856445,0.5625,0.5073242s0.2792969,0.4951172,0.3652344,0.8198242
		c0.0859375,0.3251953,0.1289062,0.6977539,0.1289062,1.1176758c0,0.3837891-0.0488281,0.7382812-0.1445312,1.0654297
		c-0.0976562,0.3261719-0.2363281,0.609375-0.4150391,0.8496094c-0.1796875,0.2402344-0.3974609,0.4277344-0.6513672,0.5625
		c-0.2548828,0.1347656-0.5390625,0.203125-0.8554688,0.203125c-0.2714844,0-0.5019531-0.0449219-0.6904297-0.1328125
		c-0.1894531-0.0888672-0.3583984-0.2109375-0.5087891-0.3671875v2.0996094H23.2851562z M25.5332031,17.1547852
		c-0.2402344,0-0.4453125,0.0541992-0.6162109,0.1625977c-0.1699219,0.1083984-0.3291016,0.2607422-0.4755859,0.4575195v2.2993164
		c0.1308594,0.1738281,0.2744141,0.2949219,0.4287109,0.3632812c0.1552734,0.0683594,0.3212891,0.1015625,0.4990234,0.1015625
		c0.1748047,0,0.3339844-0.0341797,0.4755859-0.1044922c0.1416016-0.0693359,0.2626953-0.1767578,0.3603516-0.3193359
		c0.0986328-0.1435547,0.1738281-0.3242188,0.2275391-0.5429688s0.0791016-0.4755859,0.0791016-0.7724609
		c0-0.2998047-0.0214844-0.5541992-0.0673828-0.7626953C26.3984375,17.8291016,26.3339844,17.659668,26.25,17.5297852
		s-0.1865234-0.2250977-0.3066406-0.2851562C25.8222656,17.1845703,25.6855469,17.1547852,25.5332031,17.1547852z"/>
</g>
</svg>
