<?xml version="1.0" encoding="utf-8"?>
<!-- Generator: Adobe Illustrator 22.1.0, SVG Export Plug-In . SVG Version: 6.00 Build 0)  -->
<svg version="1.1" id="Layer_1" xmlns="http://www.w3.org/2000/svg" xmlns:xlink="http://www.w3.org/1999/xlink" x="0px" y="0px"
	 viewBox="0 0 36 36" style="enable-background:new 0 0 36 36;" xml:space="preserve">
<style type="text/css">
	.st0{fill:#009EFF;}
	.st1{display:none;}
	.st2{display:inline;fill:#009EFF;}
	.st3{display:inline;opacity:0.8;fill:#009EFF;enable-background:new    ;}
	.st4{display:inline;opacity:0.6;fill:#009EFF;enable-background:new    ;}
	.st5{display:inline;opacity:0.2;fill:#009EFF;enable-background:new    ;}
	.st6{display:inline;opacity:0.4;fill:#009EFF;enable-background:new    ;}
	.st7{enable-background:new    ;}
</style>
<g id="keyline">
	<rect class="st0" width="36" height="1"/>
	<rect y="35" class="st0" width="36" height="1"/>
	<rect class="st0" width="1" height="36"/>
	<rect x="35" class="st0" width="1" height="36"/>
</g>
<g id="ld" class="st1">
	
		<rect x="16.2915134" y="5.5906501" transform="matrix(0.7071068 -0.7071068 0.7071068 0.7071068 -0.009932 15.1572838)" class="st2" width="3.9999614" height="3.9999619"/>
	
		<rect x="19.6960793" y="8.9060383" transform="matrix(0.7071068 -0.7071068 0.7071068 0.7071068 -1.3570915 18.5357304)" class="st3" width="3.9999614" height="3.9999614"/>
	
		<rect x="23.0007381" y="12.2013388" transform="matrix(0.7071068 -0.7071068 0.7071068 0.7071068 -2.7193084 21.8376484)" class="st3" width="3.9999614" height="3.9999623"/>
	
		<rect x="26.3052979" y="15.4966412" transform="matrix(0.7071068 -0.7071068 0.7071068 0.7071068 -4.0815558 25.1394958)" class="st4" width="3.9999614" height="3.9999614"/>
	
		<rect x="29.5898685" y="18.8920498" transform="matrix(0.7071068 -0.7071068 0.7071068 0.7071068 -5.5204444 28.4565296)" class="st5" width="3.9999595" height="3.9999614"/>
	
		<rect x="32.9945374" y="22.2073402" transform="matrix(0.7071068 -0.7071068 0.7071068 0.7071068 -6.8675032 31.835022)" class="st5" width="3.9999614" height="3.9999614"/>
	
		<rect x="13.1020088" y="8.8011885" transform="matrix(0.7071068 -0.7071068 0.7071068 0.7071068 -3.2143099 13.842309)" class="st2" width="3.9999614" height="3.9999614"/>
	
		<rect x="16.4066677" y="12.096489" transform="matrix(0.7071068 -0.7071068 0.7071068 0.7071068 -4.5765266 17.1442261)" class="st4" width="3.9999614" height="3.9999614"/>
	
		<rect x="19.6912384" y="15.4917984" transform="matrix(0.7071068 -0.7071068 0.7071068 0.7071068 -6.0153446 20.4612312)" class="st6" width="3.9999614" height="3.9999614"/>
	
		<rect x="23.095808" y="18.807188" transform="matrix(0.7071068 -0.7071068 0.7071068 0.7071068 -7.3625045 23.8396816)" class="st4" width="3.9999614" height="3.9999614"/>
	
		<rect x="26.4004688" y="22.1024895" transform="matrix(0.7071068 -0.7071068 0.7071068 0.7071068 -8.724721 27.1415997)" class="st5" width="3.9999614" height="3.9999614"/>
	
		<rect x="29.7051277" y="25.3978882" transform="matrix(0.7071068 -0.7071068 0.7071068 0.7071068 -10.0870085 30.4435482)" class="st5" width="3.9999614" height="3.9999614"/>
	
		<rect x="33.0096893" y="28.6930904" transform="matrix(0.7071068 -0.7071068 0.7071068 0.7071068 -11.4491844 33.7453651)" class="st5" width="3.9999614" height="3.9999614"/>
	
		<rect x="9.7925091" y="12.0915499" transform="matrix(0.7071068 -0.7071068 0.7071068 0.7071068 -6.5102763 12.4658632)" class="st2" width="3.9999614" height="3.9999614"/>
	
		<rect x="13.1971779" y="15.4070387" transform="matrix(0.7071068 -0.7071068 0.7071068 0.7071068 -7.8574767 15.8444118)" class="st2" width="3.9999623" height="3.9999614"/>
	
		<rect x="16.5017376" y="18.7023392" transform="matrix(0.7071068 -0.7071068 0.7071068 0.7071068 -9.2197227 19.1462612)" class="st6" width="3.9999614" height="3.9999614"/>
	
		<rect x="19.8062973" y="21.9976387" transform="matrix(0.7071068 -0.7071068 0.7071068 0.7071068 -10.5819693 22.4481068)" class="st5" width="3.9999614" height="3.9999614"/>
	
		<rect x="23.0909672" y="25.3929482" transform="matrix(0.7071068 -0.7071068 0.7071068 0.7071068 -12.0207577 25.7651825)" class="st4" width="3.9999614" height="3.9999614"/>
	
		<rect x="26.4955387" y="28.7084389" transform="matrix(0.7071068 -0.7071068 0.7071068 0.7071068 -13.3679876 29.1436615)" class="st4" width="3.9999614" height="3.9999614"/>
	
		<rect x="29.8001976" y="32.003643" transform="matrix(0.7071068 -0.7071068 0.7071068 0.7071068 -14.7301359 32.4455528)" class="st5" width="3.9999614" height="3.9999614"/>
	
		<rect x="6.6031079" y="15.3020897" transform="matrix(0.7071068 -0.7071068 0.7071068 0.7071068 -9.7146244 11.1509619)" class="st2" width="3.9999619" height="3.9999604"/>
	
		<rect x="9.9076681" y="18.5973892" transform="matrix(0.7071068 -0.7071068 0.7071068 0.7071068 -11.07687 14.4528093)" class="st4" width="3.9999614" height="3.9999614"/>
	
		<rect x="13.192338" y="21.9926987" transform="matrix(0.7071068 -0.7071068 0.7071068 0.7071068 -12.5156593 17.769886)" class="st6" width="3.9999623" height="3.9999614"/>
	
		<rect x="16.5969067" y="25.3081894" transform="matrix(0.7071068 -0.7071068 0.7071068 0.7071068 -13.8628893 21.1483631)" class="st5" width="3.9999614" height="3.9999614"/>
	
		<rect x="19.9014664" y="28.6034908" transform="matrix(0.7071068 -0.7071068 0.7071068 0.7071068 -15.2251358 24.4502106)" class="st5" width="3.9999614" height="3.9999595"/>
	
		<rect x="23.2062283" y="31.8987885" transform="matrix(0.7071068 -0.7071068 0.7071068 0.7071068 -16.5873222 27.7522011)" class="st5" width="3.9999614" height="3.9999633"/>
	
		<rect x="3.2935088" y="18.5925484" transform="matrix(0.7071068 -0.7071068 0.7071068 0.7071068 -13.0106907 9.7744751)" class="st4" width="3.9999616" height="3.9999614"/>
	
		<rect x="6.6981778" y="21.907938" transform="matrix(0.7071068 -0.7071068 0.7071068 0.7071068 -14.3578205 13.1529942)" class="st5" width="3.9999614" height="3.9999614"/>
	
		<rect x="10.002739" y="25.2032394" transform="matrix(0.7071068 -0.7071068 0.7071068 0.7071068 -15.7200661 16.4548435)" class="st5" width="3.9999614" height="3.9999614"/>
	
		<rect x="13.3073978" y="28.498539" transform="matrix(0.7071068 -0.7071068 0.7071068 0.7071068 -17.082283 19.7567596)" class="st5" width="3.9999604" height="3.9999614"/>
	
		<rect x="16.5919685" y="31.8938465" transform="matrix(0.7071068 -0.7071068 0.7071068 0.7071068 -18.521101 23.0737667)" class="st5" width="3.9999614" height="3.9999633"/>
	
		<rect x="0.1042084" y="21.8030872" transform="matrix(0.7071068 -0.7071068 0.7071068 0.7071068 -16.2150078 8.4596434)" class="st4" width="3.9999614" height="3.9999614"/>
	
		<rect x="3.4087682" y="25.0983887" transform="matrix(0.7071068 -0.7071068 0.7071068 0.7071068 -17.5772552 11.7614918)" class="st4" width="3.9999614" height="3.9999614"/>
	
		<rect x="6.6933384" y="28.4937" transform="matrix(0.7071068 -0.7071068 0.7071068 0.7071068 -19.0160732 15.0784969)" class="st5" width="3.9999614" height="3.9999614"/>
	
		<rect x="10.097908" y="31.8090878" transform="matrix(0.7071068 -0.7071068 0.7071068 0.7071068 -20.3632317 18.4569454)" class="st6" width="3.9999614" height="3.9999614"/>
	
		<rect x="-3.1942022" y="25.0023384" transform="matrix(0.7071068 -0.7071068 0.7071068 0.7071068 -19.4433022 7.0643539)" class="st4" width="3.9999614" height="3.9999614"/>
	
		<rect x="0.0902697" y="28.3975468" transform="matrix(0.7071068 -0.7071068 0.7071068 0.7071068 -20.8820782 10.3812609)" class="st5" width="3.9999614" height="3.9999633"/>
	
		<rect x="3.3950291" y="31.6928482" transform="matrix(0.7071068 -0.7071068 0.7071068 0.7071068 -22.2442665 13.6832495)" class="st5" width="3.9999614" height="3.9999614"/>
	
		<rect x="-3.0991328" y="31.6081886" transform="matrix(0.7071068 -0.7071068 0.7071068 0.7071068 -24.0864983 9.0663872)" class="st5" width="3.9999614" height="3.9999595"/>
</g>
<g class="st7">
	<path class="st0" d="M13.7529297,20.2949219h2.8950195v1.1103516h-4.2402344v-7.2304688h1.3452148V20.2949219z"/>
	<path class="st0" d="M23.9970703,17.7900391c0,0.5302734-0.0878906,1.0166016-0.2646484,1.4599609
		s-0.4248047,0.8251953-0.7451172,1.1455078c-0.3203125,0.3193359-0.7050781,0.5683594-1.1552734,0.7451172
		c-0.4492188,0.1767578-0.9482422,0.2646484-1.4941406,0.2646484h-2.7602539v-7.2304688h2.7602539
		c0.5458984,0,1.0449219,0.0898438,1.4941406,0.2675781c0.4501953,0.1787109,0.8349609,0.4267578,1.1552734,0.7451172
		s0.5683594,0.6992188,0.7451172,1.1425781S23.9970703,17.2607422,23.9970703,17.7900391z M22.6220703,17.7900391
		c0-0.3964844-0.0527344-0.7519531-0.1591797-1.0673828c-0.1074219-0.3144531-0.2587891-0.5810547-0.4550781-0.7998047
		c-0.1972656-0.21875-0.4365234-0.3857422-0.7177734-0.5029297c-0.2822266-0.1162109-0.5996094-0.1748047-0.9521484-0.1748047
		h-1.4052734v5.0898438h1.4052734c0.3525391,0,0.6699219-0.0576172,0.9521484-0.1748047
		c0.28125-0.1162109,0.5205078-0.2841797,0.7177734-0.5019531c0.1962891-0.21875,0.3476562-0.4853516,0.4550781-0.8007812
		C22.5693359,18.5429688,22.6220703,18.1865234,22.6220703,17.7900391z"/>
</g>
</svg>
