<?xml version="1.0" encoding="utf-8"?>
<!-- Generator: Adobe Illustrator 22.1.0, SVG Export Plug-In . SVG Version: 6.00 Build 0)  -->
<svg version="1.1" id="Layer_1" xmlns="http://www.w3.org/2000/svg" xmlns:xlink="http://www.w3.org/1999/xlink" x="0px" y="0px"
	 viewBox="0 0 36 36" style="enable-background:new 0 0 36 36;" xml:space="preserve">
<style type="text/css">
	.st0{fill:#099EFF;}
	.st1{enable-background:new    ;}
	.st2{fill:#FFFFFF;}
</style>
<rect class="st0" width="36" height="36"/>
<g class="st1">
	<path class="st2" d="M6.6464844,9.6533203c0.0341797,0.0039062,0.0644531,0.0126953,0.0908203,0.0253906
		c0.0273438,0.0126953,0.0537109,0.03125,0.0791016,0.0546875c0.0253906,0.0244141,0.0537109,0.0566406,0.0849609,0.0957031
		l3.2255859,4.1103516c-0.0117188-0.0996094-0.0185547-0.1962891-0.0234375-0.2919922
		c-0.0039062-0.0947266-0.0058594-0.1826172-0.0058594-0.265625V9.6464844h1.0068359v6.1455078h-0.5908203
		c-0.0908203,0-0.1660156-0.0136719-0.2255859-0.0429688c-0.0585938-0.0273438-0.1171875-0.0791016-0.1738281-0.1523438
		l-3.2128906-4.0927734c0.0087891,0.0908203,0.0146484,0.1806641,0.0195312,0.2695312
		c0.0039062,0.0898438,0.0058594,0.1708984,0.0058594,0.2441406v3.7744141H5.9199219V9.6464844h0.5986328
		C6.5693359,9.6464844,6.6123047,9.6484375,6.6464844,9.6533203z"/>
	<path class="st2" d="M14.0878906,11.3632812c0.2744141,0,0.5273438,0.0439453,0.7587891,0.1318359
		c0.2304688,0.0878906,0.4296875,0.2158203,0.5966797,0.3847656s0.2978516,0.375,0.3916016,0.6201172
		c0.0927734,0.2451172,0.1396484,0.5253906,0.1396484,0.8398438c0,0.0791016-0.0029297,0.1455078-0.0107422,0.1972656
		c-0.0068359,0.0527344-0.0195312,0.09375-0.0380859,0.1230469c-0.0185547,0.0302734-0.0429688,0.0517578-0.0742188,0.0644531
		s-0.0712891,0.0185547-0.1191406,0.0185547h-2.6943359c0.03125,0.4482422,0.1513672,0.7763672,0.3613281,0.9863281
		s0.4873047,0.3144531,0.8330078,0.3144531c0.1699219,0,0.3164062-0.0195312,0.4394531-0.0595703
		c0.1240234-0.0390625,0.2314453-0.0830078,0.3232422-0.1318359c0.0917969-0.0478516,0.1728516-0.0917969,0.2421875-0.1318359
		c0.0693359-0.0390625,0.1367188-0.0595703,0.2021484-0.0595703c0.0419922,0,0.0791016,0.0087891,0.1103516,0.0253906
		c0.03125,0.0175781,0.0576172,0.0419922,0.0810547,0.0722656l0.3056641,0.3828125
		c-0.1162109,0.1357422-0.2460938,0.25-0.390625,0.3417969c-0.1445312,0.0927734-0.2958984,0.1660156-0.453125,0.2216797
		c-0.1572266,0.0546875-0.3173828,0.09375-0.4804688,0.1162109c-0.1621094,0.0234375-0.3203125,0.0341797-0.4736328,0.0341797
		c-0.3027344,0-0.5849609-0.0498047-0.8457031-0.1503906s-0.4873047-0.2490234-0.6796875-0.4462891
		c-0.1933594-0.1972656-0.3447266-0.4404297-0.4550781-0.7314453c-0.1103516-0.2900391-0.1660156-0.6269531-0.1660156-1.0087891
		c0-0.2978516,0.0488281-0.5771484,0.1445312-0.8398438c0.0966797-0.2617188,0.234375-0.4902344,0.4150391-0.6845703
		c0.1796875-0.1933594,0.3994141-0.3476562,0.6582031-0.4609375C13.4697266,11.4199219,13.7617188,11.3632812,14.0878906,11.3632812
		z M14.109375,12.1162109c-0.3066406,0-0.5458984,0.0859375-0.71875,0.2587891s-0.2832031,0.4179688-0.3310547,0.7353516H15.03125
		c0-0.1357422-0.0185547-0.2646484-0.0546875-0.3847656c-0.0371094-0.1201172-0.09375-0.2255859-0.1708984-0.3164062
		c-0.0761719-0.0908203-0.1728516-0.1621094-0.2880859-0.2148438C14.4013672,12.1416016,14.2646484,12.1162109,14.109375,12.1162109
		z"/>
	<path class="st2" d="M16.2978516,11.4316406h0.8330078c0.0791016,0,0.1464844,0.0185547,0.2001953,0.0546875
		c0.0537109,0.0371094,0.0878906,0.0839844,0.1015625,0.140625l0.625,2.3291016
		c0.0341797,0.1269531,0.0615234,0.2519531,0.0830078,0.3740234s0.0419922,0.2431641,0.0615234,0.3652344
		c0.03125-0.1220703,0.0644531-0.2431641,0.0996094-0.3652344s0.0732422-0.2470703,0.1132812-0.3740234l0.7216797-2.3378906
		c0.0175781-0.0566406,0.0517578-0.1035156,0.1025391-0.1396484c0.0507812-0.0371094,0.1103516-0.0556641,0.1787109-0.0556641
		h0.4628906c0.0761719,0,0.140625,0.0185547,0.1914062,0.0556641c0.0507812,0.0361328,0.0849609,0.0830078,0.1015625,0.1396484
		l0.7138672,2.3798828c0.0371094,0.1220703,0.0703125,0.2402344,0.1005859,0.3554688
		c0.0292969,0.1142578,0.0585938,0.2304688,0.0869141,0.3466797c0.0195312-0.1220703,0.0419922-0.2441406,0.0654297-0.3662109
		c0.0244141-0.1210938,0.0546875-0.2480469,0.0917969-0.3779297l0.6455078-2.3291016
		c0.0146484-0.0566406,0.0488281-0.1035156,0.1025391-0.140625c0.0537109-0.0361328,0.1162109-0.0546875,0.1865234-0.0546875
		h0.7949219l-1.3808594,4.3603516h-0.8457031c-0.0908203,0-0.15625-0.0625-0.1953125-0.1865234l-0.7871094-2.5205078
		c-0.0253906-0.0820312-0.0488281-0.1650391-0.0693359-0.2490234c-0.0214844-0.0830078-0.0390625-0.1660156-0.0537109-0.2480469
		c-0.0166016,0.0849609-0.0351562,0.1689453-0.0546875,0.2529297c-0.0205078,0.0830078-0.0429688,0.1669922-0.0683594,0.2519531
		l-0.7949219,2.5126953c-0.0400391,0.1240234-0.1162109,0.1865234-0.2294922,0.1865234h-0.8027344L16.2978516,11.4316406z"/>
	<path class="st2" d="M27.4501953,9.578125c0.2490234,0,0.4716797,0.0390625,0.6689453,0.1152344
		S28.484375,9.8720703,28.625,9.9990234c0.140625,0.1279297,0.2509766,0.2734375,0.3310547,0.4375
		c0.0810547,0.1650391,0.1289062,0.3349609,0.1425781,0.5107422l-0.6669922,0.1396484
		c-0.0087891,0.0029297-0.0175781,0.0048828-0.0273438,0.0048828c-0.0107422,0-0.0195312,0-0.0283203,0
		c-0.0478516,0-0.0908203-0.0136719-0.1289062-0.0410156c-0.0390625-0.0263672-0.0693359-0.0683594-0.0917969-0.125
		c-0.0253906-0.0732422-0.0576172-0.1435547-0.0976562-0.2099609c-0.0400391-0.0673828-0.0878906-0.125-0.1445312-0.1748047
		s-0.1230469-0.0888672-0.2001953-0.1191406c-0.0761719-0.0292969-0.1640625-0.0439453-0.2626953-0.0439453
		c-0.1191406,0-0.2255859,0.0205078-0.3193359,0.0615234s-0.1728516,0.0957031-0.2373047,0.1650391
		c-0.0654297,0.0703125-0.1152344,0.1503906-0.1494141,0.2421875c-0.0341797,0.0927734-0.0507812,0.1894531-0.0507812,0.2919922
		c0,0.0849609,0.0087891,0.1669922,0.0273438,0.2460938s0.0478516,0.1582031,0.0869141,0.2382812
		c0.0400391,0.0791016,0.0917969,0.1601562,0.1552734,0.2441406c0.0644531,0.0839844,0.1425781,0.1738281,0.2363281,0.2695312
		l1.6318359,1.6962891c0.09375-0.1787109,0.1689453-0.3671875,0.2255859-0.5654297s0.0927734-0.3994141,0.1103516-0.6035156
		c0.0058594-0.0654297,0.0263672-0.1171875,0.0634766-0.1572266s0.0878906-0.0595703,0.1533203-0.0595703h0.6582031
		c-0.0029297,0.3740234-0.0566406,0.7314453-0.1611328,1.0712891s-0.2548828,0.6523438-0.4501953,0.9384766l1.2871094,1.3349609
		h-1.0283203c-0.0537109,0-0.1015625-0.0029297-0.1425781-0.0087891c-0.0410156-0.0048828-0.0800781-0.015625-0.1162109-0.03125
		c-0.0371094-0.015625-0.0722656-0.0361328-0.1064453-0.0615234c-0.0341797-0.0263672-0.0693359-0.0585938-0.1064453-0.0986328
		l-0.4248047-0.4375c-0.2724609,0.2216797-0.5742188,0.3945312-0.9072266,0.5185547
		c-0.3330078,0.125-0.6933594,0.1875-1.0820312,0.1875c-0.2382812,0-0.4707031-0.0410156-0.6972656-0.1210938
		c-0.2265625-0.0810547-0.4287109-0.1982422-0.6074219-0.3505859c-0.1787109-0.1533203-0.3222656-0.3378906-0.4316406-0.5546875
		c-0.1083984-0.2167969-0.1630859-0.4619141-0.1630859-0.7333984c0-0.1894531,0.03125-0.3701172,0.09375-0.5419922
		c0.0615234-0.1708984,0.1484375-0.3310547,0.2587891-0.4785156c0.1103516-0.1464844,0.2412109-0.2802734,0.3935547-0.3994141
		c0.1513672-0.1191406,0.3173828-0.2207031,0.4990234-0.3056641c-0.1503906-0.2128906-0.2597656-0.4199219-0.3291016-0.6230469
		c-0.0693359-0.2021484-0.1044922-0.4042969-0.1044922-0.6054688c0-0.2119141,0.0390625-0.4140625,0.1171875-0.6054688
		c0.0771484-0.1914062,0.1914062-0.3574219,0.3398438-0.4990234s0.3310547-0.2548828,0.5458984-0.3378906
		C26.9345703,9.6201172,27.1777344,9.578125,27.4501953,9.578125z M25.9707031,14.015625
		c0,0.1552734,0.0273438,0.2958984,0.0810547,0.4208984c0.0537109,0.1240234,0.1269531,0.2294922,0.2207031,0.3164062
		c0.09375,0.0859375,0.2021484,0.1533203,0.3251953,0.1992188c0.1230469,0.046875,0.2539062,0.0703125,0.3935547,0.0703125
		c0.2490234,0,0.4765625-0.0390625,0.6816406-0.1162109c0.2050781-0.078125,0.3935547-0.1865234,0.5634766-0.3251953
		l-1.6152344-1.6582031c-0.2265625,0.1474609-0.3916016,0.3134766-0.4951172,0.4980469
		C26.0224609,13.6044922,25.9707031,13.8027344,25.9707031,14.015625z"/>
</g>
<g class="st1">
	<path class="st2" d="M5.6245117,22.5537109C5.5932617,22.59375,5.5625,22.625,5.5327148,22.6474609
		s-0.0727539,0.0341797-0.1293945,0.0341797c-0.0537109,0-0.1064453-0.0166016-0.1572266-0.0488281
		c-0.0512695-0.0332031-0.1118164-0.0693359-0.1826172-0.1103516c-0.0712891-0.0410156-0.1552734-0.078125-0.2529297-0.1113281
		c-0.0976562-0.0322266-0.2192383-0.0488281-0.3632812-0.0488281c-0.1845703,0-0.3461914,0.0341797-0.4848633,0.1005859
		S3.7080078,22.625,3.6162109,22.7490234c-0.0922852,0.125-0.1611328,0.2763672-0.2060547,0.453125
		c-0.0454102,0.1767578-0.0683594,0.3779297-0.0683594,0.6015625c0,0.2324219,0.0249023,0.4384766,0.074707,0.6201172
		c0.0493164,0.1816406,0.1210938,0.3339844,0.2143555,0.4570312c0.09375,0.1230469,0.2070312,0.2167969,0.340332,0.2802734
		c0.1328125,0.0634766,0.2832031,0.0957031,0.4501953,0.0957031c0.1674805,0,0.3027344-0.0205078,0.40625-0.0615234
		c0.1030273-0.0410156,0.1904297-0.0859375,0.2612305-0.1357422s0.1323242-0.0947266,0.1845703-0.1367188
		c0.0527344-0.0410156,0.1113281-0.0615234,0.1767578-0.0615234c0.0849609,0,0.1484375,0.0332031,0.190918,0.0976562
		l0.3017578,0.3828125c-0.1162109,0.1357422-0.2421875,0.25-0.3779297,0.3417969
		c-0.1362305,0.0927734-0.2773438,0.1660156-0.4228516,0.2216797c-0.1459961,0.0546875-0.296875,0.09375-0.4526367,0.1162109
		c-0.15625,0.0234375-0.3105469,0.0341797-0.4633789,0.0341797c-0.269043,0-0.5229492-0.0498047-0.7607422-0.1503906
		c-0.2382812-0.1005859-0.4458008-0.2470703-0.6225586-0.4404297c-0.1772461-0.1923828-0.3173828-0.4277344-0.4208984-0.7070312
		s-0.1552734-0.5976562-0.1552734-0.9541016c0-0.3203125,0.0463867-0.6171875,0.1381836-0.890625
		c0.0922852-0.2734375,0.2275391-0.5097656,0.4057617-0.7099609c0.1787109-0.1992188,0.3999023-0.3564453,0.6630859-0.4697266
		c0.2636719-0.1132812,0.5668945-0.1699219,0.909668-0.1699219c0.3256836,0,0.6113281,0.0527344,0.8564453,0.1572266
		c0.2451172,0.1054688,0.465332,0.2548828,0.6606445,0.4511719L5.6245117,22.5537109z"/>
	<path class="st2" d="M6.6142578,25.9921875v-6.3154297h1.0498047v2.4267578
		c0.1699219-0.1611328,0.3569336-0.2919922,0.5610352-0.390625c0.2041016-0.0996094,0.4433594-0.1494141,0.7182617-0.1494141
		c0.237793,0,0.4487305,0.0410156,0.6333008,0.1210938c0.184082,0.0810547,0.3378906,0.1943359,0.4609375,0.3398438
		c0.1230469,0.1464844,0.2167969,0.3203125,0.2802734,0.5234375c0.0639648,0.2021484,0.0957031,0.4257812,0.0957031,0.6689453
		v2.7753906H9.3637695v-2.7753906c0-0.2666016-0.0615234-0.4726562-0.1845703-0.6181641
		c-0.1235352-0.1455078-0.3081055-0.21875-0.5546875-0.21875c-0.1811523,0-0.3515625,0.0410156-0.5102539,0.1230469
		s-0.3085938,0.1943359-0.4501953,0.3359375v3.1533203H6.6142578z"/>
	<path class="st2" d="M14.8637695,25.9921875h-0.4716797c-0.0991211,0-0.1772461-0.0146484-0.2338867-0.0449219
		c-0.0566406-0.0292969-0.0991211-0.0898438-0.1274414-0.1806641l-0.09375-0.3095703
		c-0.1103516,0.0986328-0.21875,0.1855469-0.324707,0.2607422c-0.1064453,0.0751953-0.2163086,0.1386719-0.3295898,0.1894531
		s-0.2338867,0.0888672-0.3613281,0.1142578c-0.1274414,0.0263672-0.269043,0.0390625-0.4248047,0.0390625
		c-0.184082,0-0.3544922-0.0253906-0.5102539-0.0751953s-0.2895508-0.1240234-0.4013672-0.2236328
		s-0.1992188-0.2236328-0.2612305-0.3710938c-0.0625-0.1474609-0.09375-0.3193359-0.09375-0.515625
		c0-0.1650391,0.0429688-0.328125,0.1293945-0.4882812c0.0864258-0.1611328,0.2304688-0.3056641,0.4316406-0.4355469
		c0.2011719-0.1289062,0.46875-0.2363281,0.8032227-0.3212891c0.3344727-0.0859375,0.7495117-0.1279297,1.2451172-0.1279297
		v-0.2568359c0-0.2939453-0.0615234-0.5117188-0.1845703-0.6533203c-0.1235352-0.1416016-0.3027344-0.2119141-0.5375977-0.2119141
		c-0.1704102,0-0.3120117,0.0195312-0.425293,0.0595703c-0.1132812,0.0390625-0.2119141,0.0839844-0.2954102,0.1337891
		s-0.1606445,0.09375-0.2314453,0.1337891s-0.1489258,0.0595703-0.2338867,0.0595703
		c-0.0708008,0-0.1318359-0.0185547-0.1826172-0.0556641C11.6972656,22.6748047,11.65625,22.6289062,11.625,22.5751953
		l-0.190918-0.3359375c0.5014648-0.4589844,1.1064453-0.6884766,1.8144531-0.6884766
		c0.2553711,0,0.4824219,0.0419922,0.6821289,0.1259766c0.2001953,0.0830078,0.3691406,0.1992188,0.5083008,0.3476562
		c0.1386719,0.1494141,0.2441406,0.3271484,0.3164062,0.5341797c0.0722656,0.2060547,0.1083984,0.4326172,0.1083984,0.6796875
		V25.9921875z M12.8237305,25.3378906c0.1074219,0,0.2070312-0.0097656,0.2973633-0.0292969
		c0.0908203-0.0195312,0.1767578-0.0488281,0.2573242-0.0878906s0.1586914-0.0869141,0.2338867-0.1445312
		c0.074707-0.0566406,0.1508789-0.125,0.2270508-0.203125v-0.7294922c-0.3056641,0-0.5615234,0.0195312-0.7670898,0.0576172
		s-0.3706055,0.0878906-0.4951172,0.1474609c-0.1245117,0.0605469-0.2133789,0.1298828-0.265625,0.2099609
		s-0.0786133,0.1669922-0.0786133,0.2607422c0,0.1855469,0.0546875,0.3183594,0.1635742,0.3984375
		C12.5058594,25.2978516,12.6479492,25.3378906,12.8237305,25.3378906z"/>
	<path class="st2" d="M15.8964844,25.9921875v-4.3603516h0.6416016c0.1362305,0,0.2255859,0.0634766,0.2680664,0.1914062
		l0.0722656,0.34375c0.0874023-0.0908203,0.1801758-0.1728516,0.2783203-0.2460938
		c0.0976562-0.0742188,0.2011719-0.1376953,0.3100586-0.1914062s0.2260742-0.0947266,0.3505859-0.1230469
		s0.2607422-0.0429688,0.4082031-0.0429688c0.237793,0,0.4487305,0.0410156,0.6333008,0.1210938
		c0.184082,0.0810547,0.3383789,0.1943359,0.4614258,0.3398438c0.1230469,0.1464844,0.2167969,0.3203125,0.2802734,0.5234375
		c0.0634766,0.2021484,0.0957031,0.4257812,0.0957031,0.6689453v2.7753906h-1.050293v-2.7753906
		c0-0.2666016-0.0615234-0.4726562-0.1845703-0.6181641c-0.1235352-0.1455078-0.3081055-0.21875-0.5546875-0.21875
		c-0.1811523,0-0.3515625,0.0410156-0.5102539,0.1230469s-0.3085938,0.1943359-0.4501953,0.3359375v3.1533203H15.8964844z"/>
	<path class="st2" d="M22.2373047,21.5556641c0.1875,0,0.3632812,0.0185547,0.5273438,0.0566406
		s0.3144531,0.0947266,0.4501953,0.1679688H24.46875v0.3916016c0,0.0644531-0.0166016,0.1162109-0.0507812,0.1523438
		c-0.0341797,0.0371094-0.0927734,0.0625-0.1748047,0.0771484l-0.390625,0.0722656
		c0.0283203,0.0732422,0.0498047,0.1513672,0.0654297,0.2333984s0.0234375,0.1689453,0.0234375,0.2587891
		c0,0.2158203-0.0429688,0.4101562-0.1289062,0.5849609c-0.0869141,0.1738281-0.2060547,0.3222656-0.3574219,0.4443359
		c-0.1513672,0.1210938-0.3310547,0.2158203-0.5400391,0.2822266c-0.2080078,0.0664062-0.4335938,0.0996094-0.6777344,0.0996094
		c-0.1640625,0-0.3242188-0.015625-0.4804688-0.046875c-0.1357422,0.0830078-0.203125,0.1757812-0.203125,0.2783203
		c0,0.0888672,0.0400391,0.1533203,0.1210938,0.1953125c0.0800781,0.0410156,0.1865234,0.0703125,0.3183594,0.0878906
		c0.1318359,0.0166016,0.28125,0.0253906,0.4482422,0.0253906s0.3388672,0.0068359,0.5146484,0.0214844
		c0.1757812,0.0136719,0.3466797,0.0390625,0.5136719,0.0742188c0.1669922,0.0361328,0.3164062,0.0917969,0.4482422,0.1689453
		c0.1318359,0.0761719,0.2382812,0.1806641,0.3193359,0.3134766c0.0800781,0.1318359,0.1210938,0.3017578,0.1210938,0.5087891
		c0,0.1933594-0.0478516,0.3808594-0.1425781,0.5634766c-0.0947266,0.1816406-0.2324219,0.34375-0.4121094,0.4853516
		c-0.1796875,0.1425781-0.4003906,0.2568359-0.6611328,0.34375S22.5849609,27.5263672,22.25,27.5263672
		c-0.3310547,0-0.6191406-0.0322266-0.8623047-0.0957031c-0.2441406-0.0634766-0.4462891-0.1484375-0.6054688-0.2548828
		c-0.1601562-0.1064453-0.2802734-0.2285156-0.359375-0.3671875C20.34375,26.6689453,20.3037109,26.5244141,20.3037109,26.375
		c0-0.2041016,0.0625-0.3759766,0.1875-0.5146484c0.1240234-0.1386719,0.296875-0.2490234,0.5175781-0.3310547
		C20.9013672,25.4697266,20.8154297,25.390625,20.75,25.2910156s-0.0976562-0.2285156-0.0976562-0.3867188
		c0-0.0654297,0.0107422-0.1328125,0.0341797-0.2021484c0.0224609-0.0693359,0.0566406-0.1376953,0.1035156-0.2060547
		s0.1054688-0.1318359,0.1767578-0.1933594c0.0703125-0.0605469,0.1542969-0.1152344,0.2509766-0.1630859
		c-0.2216797-0.1191406-0.3945312-0.2783203-0.5205078-0.4765625c-0.1269531-0.1982422-0.1894531-0.4306641-0.1894531-0.6972656
		c0-0.2148438,0.0429688-0.4101562,0.1298828-0.5839844c0.0859375-0.1738281,0.2060547-0.3232422,0.3613281-0.4462891
		c0.1542969-0.1230469,0.3369141-0.2177734,0.5478516-0.2822266C21.7578125,21.5878906,21.9882812,21.5556641,22.2373047,21.5556641
		z M23.3896484,26.1748047c0-0.0859375-0.0263672-0.1572266-0.0771484-0.2119141s-0.1201172-0.0976562-0.2080078-0.1279297
		s-0.1904297-0.0527344-0.3085938-0.0673828c-0.1171875-0.0146484-0.2421875-0.0214844-0.3740234-0.0214844
		c-0.1308594,0-0.2675781,0-0.4072266,0c-0.140625,0-0.2763672-0.015625-0.40625-0.046875
		c-0.1191406,0.0644531-0.2148438,0.1425781-0.2871094,0.2314453s-0.1083984,0.1914062-0.1083984,0.3076172
		c0,0.0771484,0.0195312,0.1484375,0.0576172,0.2148438s0.0996094,0.1240234,0.1826172,0.171875
		c0.0839844,0.0488281,0.1923828,0.0859375,0.3251953,0.1132812c0.1328125,0.0263672,0.2958984,0.0400391,0.4892578,0.0400391
		c0.1953125,0,0.3632812-0.0146484,0.5058594-0.0458984c0.1416016-0.0302734,0.2578125-0.0722656,0.3505859-0.125
		c0.0917969-0.0537109,0.1591797-0.1171875,0.2011719-0.1914062C23.3681641,26.3417969,23.3896484,26.2617188,23.3896484,26.1748047
		z M22.2373047,23.7060547c0.1308594,0,0.2441406-0.0175781,0.3398438-0.0537109
		c0.0966797-0.0351562,0.1767578-0.0839844,0.2402344-0.1464844c0.0644531-0.0625,0.1123047-0.1376953,0.1445312-0.2255859
		c0.0332031-0.0869141,0.0488281-0.1835938,0.0488281-0.2890625c0-0.2148438-0.0644531-0.3857422-0.1933594-0.5117188
		s-0.3222656-0.1894531-0.5800781-0.1894531s-0.4511719,0.0634766-0.5800781,0.1894531s-0.1933594,0.296875-0.1933594,0.5117188
		c0,0.1025391,0.0166016,0.1972656,0.0488281,0.2851562s0.0810547,0.1640625,0.1445312,0.2275391
		s0.1445312,0.1132812,0.2421875,0.1484375C21.9970703,23.6884766,22.1103516,23.7060547,22.2373047,23.7060547z"/>
	<path class="st2" d="M26.9296875,21.5634766c0.2744141,0,0.5273438,0.0439453,0.7587891,0.1318359
		c0.2304688,0.0878906,0.4296875,0.2158203,0.5966797,0.3847656s0.2978516,0.375,0.3916016,0.6201172
		c0.0927734,0.2451172,0.1396484,0.5253906,0.1396484,0.8398438c0,0.0791016-0.0029297,0.1455078-0.0107422,0.1972656
		c-0.0068359,0.0527344-0.0195312,0.09375-0.0380859,0.1230469c-0.0185547,0.0302734-0.0429688,0.0517578-0.0742188,0.0644531
		s-0.0712891,0.0185547-0.1191406,0.0185547h-2.6943359c0.03125,0.4482422,0.1513672,0.7763672,0.3613281,0.9863281
		s0.4873047,0.3144531,0.8330078,0.3144531c0.1699219,0,0.3164062-0.0195312,0.4394531-0.0595703
		c0.1240234-0.0390625,0.2314453-0.0830078,0.3232422-0.1318359c0.0917969-0.0478516,0.1728516-0.0917969,0.2421875-0.1318359
		c0.0693359-0.0390625,0.1367188-0.0595703,0.2021484-0.0595703c0.0419922,0,0.0791016,0.0087891,0.1103516,0.0253906
		c0.03125,0.0175781,0.0576172,0.0419922,0.0810547,0.0722656l0.3056641,0.3828125
		c-0.1162109,0.1357422-0.2460938,0.25-0.390625,0.3417969c-0.1445312,0.0927734-0.2958984,0.1660156-0.453125,0.2216797
		c-0.1572266,0.0546875-0.3173828,0.09375-0.4804688,0.1162109c-0.1621094,0.0234375-0.3203125,0.0341797-0.4736328,0.0341797
		c-0.3027344,0-0.5849609-0.0498047-0.8457031-0.1503906s-0.4873047-0.2490234-0.6796875-0.4462891
		C25.2617188,25.2617188,25.1103516,25.0185547,25,24.7275391c-0.1103516-0.2900391-0.1660156-0.6269531-0.1660156-1.0087891
		c0-0.2978516,0.0488281-0.5771484,0.1445312-0.8398438c0.0966797-0.2617188,0.234375-0.4902344,0.4150391-0.6845703
		c0.1796875-0.1933594,0.3994141-0.3476562,0.6582031-0.4609375C26.3115234,21.6201172,26.6035156,21.5634766,26.9296875,21.5634766
		z M26.9511719,22.3164062c-0.3066406,0-0.5458984,0.0859375-0.71875,0.2587891s-0.2832031,0.4179688-0.3310547,0.7353516h1.9716797
		c0-0.1357422-0.0185547-0.2646484-0.0546875-0.3847656c-0.0371094-0.1201172-0.09375-0.2255859-0.1708984-0.3164062
		c-0.0761719-0.0908203-0.1728516-0.1621094-0.2880859-0.2148438
		C27.2431641,22.3417969,27.1064453,22.3164062,26.9511719,22.3164062z"/>
	<path class="st2" d="M32.7392578,25.9921875c-0.1357422,0-0.2255859-0.0634766-0.2675781-0.1914062l-0.0849609-0.4208984
		c-0.0908203,0.1025391-0.1855469,0.1943359-0.2851562,0.2763672s-0.2060547,0.1533203-0.3212891,0.2128906
		c-0.1142578,0.0595703-0.2373047,0.1054688-0.3691406,0.1376953c-0.1318359,0.0332031-0.2744141,0.0488281-0.4277344,0.0488281
		c-0.2373047,0-0.4560547-0.0498047-0.6542969-0.1484375c-0.1982422-0.0996094-0.3691406-0.2431641-0.5117188-0.4316406
		c-0.1435547-0.1884766-0.2539062-0.4208984-0.3320312-0.6992188c-0.0771484-0.2773438-0.1162109-0.5947266-0.1162109-0.9521484
		c0-0.3222656,0.0439453-0.6230469,0.1318359-0.9003906s0.2138672-0.5185547,0.3779297-0.7226562
		s0.3613281-0.3632812,0.5908203-0.4785156c0.2294922-0.1142578,0.4873047-0.171875,0.7734375-0.171875
		c0.2431641,0,0.4521484,0.0390625,0.625,0.1171875s0.3271484,0.1816406,0.4628906,0.3125v-2.3037109h1.0498047v6.3154297
		H32.7392578z M31.3408203,25.2226562c0.2177734,0,0.4033203-0.0449219,0.5566406-0.1357422
		s0.2978516-0.2197266,0.4335938-0.3867188v-1.9550781c-0.1191406-0.1445312-0.2490234-0.2460938-0.3886719-0.3056641
		c-0.140625-0.0595703-0.2910156-0.0898438-0.453125-0.0898438c-0.1582031,0-0.3017578,0.0302734-0.4306641,0.0898438
		s-0.2382812,0.1494141-0.3271484,0.2695312c-0.0898438,0.1201172-0.1582031,0.2734375-0.2070312,0.4589844
		c-0.0478516,0.1855469-0.0722656,0.4042969-0.0722656,0.65625c0,0.2558594,0.0205078,0.4716797,0.0625,0.6484375
		c0.0410156,0.1777344,0.0996094,0.3212891,0.1757812,0.4335938c0.0771484,0.1123047,0.1699219,0.1923828,0.2802734,0.2421875
		C31.0820312,25.1982422,31.2050781,25.2226562,31.3408203,25.2226562z"/>
</g>
</svg>
