<?xml version="1.0" encoding="utf-8"?>
<!-- Generator: Adobe Illustrator 22.1.0, SVG Export Plug-In . SVG Version: 6.00 Build 0)  -->
<svg version="1.1" id="Layer_1" xmlns="http://www.w3.org/2000/svg" xmlns:xlink="http://www.w3.org/1999/xlink" x="0px" y="0px"
	 viewBox="0 0 36 36" style="enable-background:new 0 0 36 36;" xml:space="preserve">
<style type="text/css">
	.st0{fill:#009EFF;}
	.st1{display:none;fill:#009EFF;}
	.st2{enable-background:new    ;}
</style>
<g id="keyline">
	<rect class="st0" width="36" height="1"/>
	<rect y="35" class="st0" width="36" height="1"/>
	<rect class="st0" width="1" height="36"/>
	<rect x="35" class="st0" width="1" height="36"/>
</g>
<path class="st1" d="M29.2000008,27.3999996l-4.5-4.5c-0.2000008-0.2000008-0.5-0.2999992-0.7999992-0.2999992h-0.7000008
	c1.2000008-1.6000004,2-3.6000004,2-5.8000011c0-5.1999998-4.2000008-9.3000002-9.3000002-9.3000002
	s-9.3000002,4.1999998-9.3000002,9.3000002s4.1999998,9.2999992,9.3000002,9.2999992c2.1999998,0,4.1999998-0.7000008,5.8000002-2
	v0.7000008c0,0.2999992,0.1000004,0.6000004,0.2999992,0.7999992l4.5,4.5c0.3999996,0.3999996,1.1000004,0.3999996,1.5,0
	l1.2999992-1.2999992C29.7000008,28.5,29.7000008,27.7999992,29.2000008,27.3999996z M15.8999996,22.6000004
	c-3.1999998,0-5.8000002-2.6000004-5.8000002-5.8000011s2.5999994-5.8000002,5.8000002-5.8000002
	s5.8000011,2.5999994,5.8000011,5.8000002C21.6000004,20,19.1000004,22.6000004,15.8999996,22.6000004z"/>
<g class="st2">
	<path class="st0" d="M14.5664062,10.7666016c-0.03125,0.0615234-0.0673828,0.1054688-0.1083984,0.1308594
		c-0.0410156,0.0263672-0.0898438,0.0390625-0.1464844,0.0390625s-0.1210938-0.0224609-0.1914062-0.0664062
		c-0.0712891-0.0439453-0.1542969-0.0927734-0.2509766-0.1464844c-0.0957031-0.0537109-0.2089844-0.1025391-0.3378906-0.1464844
		s-0.28125-0.0664062-0.4570312-0.0664062c-0.1582031,0-0.296875,0.0195312-0.4140625,0.0576172
		s-0.2167969,0.0917969-0.2978516,0.1591797c-0.0800781,0.0683594-0.140625,0.1494141-0.1806641,0.2451172
		c-0.0390625,0.0947266-0.0585938,0.1992188-0.0585938,0.3125c0,0.1435547,0.0400391,0.2646484,0.1210938,0.3603516
		c0.0800781,0.0966797,0.1875,0.1787109,0.3203125,0.2470703c0.1328125,0.0673828,0.2851562,0.1289062,0.4550781,0.1826172
		s0.34375,0.1113281,0.5205078,0.171875c0.1767578,0.0615234,0.3505859,0.1318359,0.5205078,0.2128906
		s0.3212891,0.1826172,0.4550781,0.3056641c0.1328125,0.1230469,0.2402344,0.2744141,0.3203125,0.453125
		c0.0810547,0.1777344,0.1210938,0.3945312,0.1210938,0.6503906c0,0.2773438-0.046875,0.5371094-0.1416016,0.7792969
		c-0.0957031,0.2421875-0.234375,0.453125-0.4169922,0.6337891c-0.1826172,0.1796875-0.40625,0.3212891-0.6689453,0.4248047
		c-0.2636719,0.1035156-0.5654297,0.1552734-0.9052734,0.1552734c-0.1962891,0-0.3886719-0.0195312-0.578125-0.0576172
		c-0.1904297-0.0380859-0.3720703-0.0927734-0.5458984-0.1640625c-0.1748047-0.0703125-0.3378906-0.1552734-0.4892578-0.2548828
		c-0.1513672-0.0986328-0.2871094-0.2089844-0.40625-0.3310547l0.3320312-0.5488281
		c0.03125-0.0390625,0.0683594-0.0722656,0.1123047-0.0996094c0.0439453-0.0263672,0.0927734-0.0400391,0.1464844-0.0400391
		c0.0712891,0,0.1474609,0.0292969,0.2294922,0.0869141s0.1796875,0.1220703,0.2910156,0.1933594
		c0.1123047,0.0712891,0.2441406,0.1357422,0.3955078,0.1933594s0.3339844,0.0869141,0.5458984,0.0869141
		c0.3261719,0,0.578125-0.0771484,0.7568359-0.2314453s0.2675781-0.3759766,0.2675781-0.6650391
		c0-0.1611328-0.0400391-0.2929688-0.1210938-0.3955078c-0.0800781-0.1015625-0.1875-0.1875-0.3203125-0.2568359
		c-0.1337891-0.0693359-0.2851562-0.1279297-0.4550781-0.1767578c-0.1699219-0.0478516-0.3427734-0.1005859-0.5185547-0.1572266
		s-0.3486328-0.1240234-0.5185547-0.2041016c-0.1699219-0.0791016-0.3212891-0.1826172-0.4550781-0.3095703
		c-0.1328125-0.1279297-0.2392578-0.2871094-0.3203125-0.4785156S11.0517578,11.625,11.0517578,11.34375
		c0-0.2236328,0.0449219-0.4414062,0.1337891-0.6542969c0.0888672-0.2119141,0.2197266-0.4003906,0.390625-0.5654297
		c0.171875-0.1640625,0.3818359-0.2958984,0.6318359-0.3945312c0.2490234-0.0996094,0.5332031-0.1494141,0.8535156-0.1494141
		c0.3632812,0,0.6972656,0.0566406,1.0029297,0.1699219c0.3066406,0.1142578,0.5673828,0.2724609,0.7822266,0.4765625
		L14.5664062,10.7666016z"/>
	<path class="st0" d="M17.0478516,10.1630859c0,0.0898438-0.0185547,0.1757812-0.0546875,0.2548828
		c-0.0371094,0.0791016-0.0859375,0.1484375-0.1464844,0.2080078c-0.0615234,0.0595703-0.1328125,0.1074219-0.2148438,0.1425781
		s-0.1699219,0.0527344-0.2636719,0.0527344c-0.0908203,0-0.1767578-0.0175781-0.2568359-0.0527344
		c-0.0810547-0.0351562-0.1513672-0.0830078-0.2109375-0.1425781s-0.1064453-0.1289062-0.1425781-0.2080078
		c-0.0351562-0.0791016-0.0527344-0.1650391-0.0527344-0.2548828c0-0.09375,0.0175781-0.1816406,0.0527344-0.2636719
		c0.0361328-0.0820312,0.0830078-0.1533203,0.1425781-0.2128906s0.1298828-0.1064453,0.2109375-0.1425781
		c0.0800781-0.0351562,0.1660156-0.0527344,0.2568359-0.0527344c0.09375,0,0.1816406,0.0175781,0.2636719,0.0527344
		c0.0820312,0.0361328,0.1533203,0.0830078,0.2148438,0.1425781c0.0605469,0.0595703,0.109375,0.1308594,0.1464844,0.2128906
		C17.0292969,9.9814453,17.0478516,10.0693359,17.0478516,10.1630859z M16.890625,11.4335938v4.3603516h-1.0498047v-4.3603516
		H16.890625z"/>
	<path class="st0" d="M19.5087891,15.8623047c-0.3769531,0-0.6669922-0.1074219-0.8710938-0.3212891
		s-0.3056641-0.5087891-0.3056641-0.8857422v-2.4355469h-0.4423828c-0.0566406,0-0.1054688-0.0185547-0.1464844-0.0556641
		c-0.0410156-0.0361328-0.0615234-0.0917969-0.0615234-0.1650391v-0.4169922l0.7011719-0.1142578l0.2207031-1.1904297
		c0.0117188-0.0566406,0.0380859-0.1005859,0.0791016-0.1318359s0.0927734-0.046875,0.1552734-0.046875h0.5439453v1.3730469
		h1.1474609v0.7480469h-1.1474609v2.3632812c0,0.1357422,0.0341797,0.2421875,0.1015625,0.3183594
		c0.0683594,0.0761719,0.1591797,0.1152344,0.2724609,0.1152344c0.0644531,0,0.1191406-0.0078125,0.1630859-0.0234375
		s0.0820312-0.0322266,0.1152344-0.0488281c0.0322266-0.0175781,0.0615234-0.0332031,0.0869141-0.0488281
		s0.0507812-0.0234375,0.0761719-0.0234375c0.03125,0,0.0566406,0.0078125,0.0771484,0.0234375
		c0.0195312,0.015625,0.0410156,0.0380859,0.0634766,0.0693359l0.3144531,0.5107422
		c-0.1533203,0.1269531-0.3291016,0.2236328-0.5273438,0.2890625
		C19.9267578,15.8291016,19.7216797,15.8623047,19.5087891,15.8623047z"/>
	<path class="st0" d="M23.1679688,11.3652344c0.2753906,0,0.5283203,0.0439453,0.7587891,0.1318359
		c0.2314453,0.0878906,0.4306641,0.2158203,0.5976562,0.3847656s0.296875,0.375,0.390625,0.6201172
		s0.140625,0.5253906,0.140625,0.8398438c0,0.0791016-0.0039062,0.1455078-0.0107422,0.1972656
		c-0.0068359,0.0527344-0.0195312,0.09375-0.0380859,0.1230469c-0.0185547,0.0302734-0.0439453,0.0517578-0.0742188,0.0644531
		c-0.03125,0.0126953-0.0712891,0.0185547-0.1191406,0.0185547h-2.6943359
		c0.0302734,0.4482422,0.1513672,0.7763672,0.3603516,0.9863281c0.2099609,0.2099609,0.4873047,0.3144531,0.8330078,0.3144531
		c0.1708984,0,0.3173828-0.0195312,0.4404297-0.0595703c0.1230469-0.0390625,0.2304688-0.0830078,0.3232422-0.1318359
		c0.0917969-0.0478516,0.1728516-0.0917969,0.2421875-0.1318359c0.0693359-0.0390625,0.1367188-0.0595703,0.2011719-0.0595703
		c0.0429688,0,0.0800781,0.0087891,0.1113281,0.0253906c0.0302734,0.0175781,0.0576172,0.0419922,0.0800781,0.0722656
		l0.3066406,0.3828125c-0.1162109,0.1357422-0.2470703,0.25-0.3916016,0.3417969
		c-0.1445312,0.0927734-0.2949219,0.1660156-0.4521484,0.2216797c-0.1572266,0.0546875-0.3173828,0.09375-0.4804688,0.1162109
		c-0.1630859,0.0234375-0.3212891,0.0341797-0.4736328,0.0341797c-0.3037109,0-0.5849609-0.0498047-0.8457031-0.1503906
		s-0.4873047-0.2490234-0.6806641-0.4462891c-0.1923828-0.1972656-0.34375-0.4404297-0.4541016-0.7314453
		c-0.1103516-0.2900391-0.1660156-0.6269531-0.1660156-1.0087891c0-0.2978516,0.0478516-0.5771484,0.1445312-0.8398438
		c0.0957031-0.2617188,0.234375-0.4902344,0.4140625-0.6845703c0.1796875-0.1933594,0.3994141-0.3476562,0.6591797-0.4609375
		C22.5498047,11.421875,22.8427734,11.3652344,23.1679688,11.3652344z M23.1894531,12.1181641
		c-0.3056641,0-0.5449219,0.0859375-0.7177734,0.2587891s-0.2832031,0.4179688-0.3320312,0.7353516h1.9726562
		c0-0.1357422-0.0185547-0.2646484-0.0556641-0.3847656s-0.09375-0.2255859-0.1699219-0.3164062
		s-0.1728516-0.1621094-0.2890625-0.2148438S23.3457031,12.1181641,23.1894531,12.1181641z"/>
</g>
<g class="st2">
	<path class="st0" d="M8.6015625,22.4833984c-0.0283203,0.0458984-0.0581055,0.0771484-0.0893555,0.0957031
		s-0.0708008,0.0273438-0.1191406,0.0273438c-0.0507812,0-0.1054688-0.0136719-0.1635742-0.0419922
		S8.1040039,22.5039062,8.027832,22.46875c-0.0766602-0.0351562-0.1635742-0.0673828-0.2617188-0.0957031
		c-0.0976562-0.0283203-0.2128906-0.0419922-0.3461914-0.0419922c-0.2070312,0-0.3696289,0.0439453-0.4887695,0.1308594
		c-0.1191406,0.0878906-0.1787109,0.203125-0.1787109,0.3447266c0,0.09375,0.0307617,0.171875,0.0917969,0.2363281
		c0.0605469,0.0634766,0.1416016,0.1191406,0.2421875,0.1669922c0.1005859,0.0488281,0.2143555,0.0917969,0.3417969,0.1298828
		s0.2578125,0.0800781,0.3911133,0.1259766c0.1333008,0.0449219,0.2636719,0.0966797,0.3911133,0.1542969
		c0.1274414,0.0585938,0.2416992,0.1318359,0.3422852,0.2216797c0.1000977,0.0888672,0.1811523,0.1962891,0.2421875,0.3203125
		c0.0605469,0.125,0.0913086,0.2753906,0.0913086,0.4511719c0,0.2089844-0.0385742,0.4023438-0.1147461,0.5800781
		c-0.0766602,0.1767578-0.1884766,0.3300781-0.3359375,0.4589844s-0.3291016,0.2294922-0.5458984,0.3017578
		S7.4243164,26.0625,7.1435547,26.0625c-0.1499023,0-0.296875-0.0136719-0.4399414-0.0410156
		c-0.1430664-0.0263672-0.2802734-0.0644531-0.4121094-0.1123047s-0.253418-0.1044922-0.3657227-0.1699219
		c-0.1118164-0.0654297-0.2099609-0.1357422-0.2949219-0.2128906l0.2421875-0.3994141
		c0.0307617-0.0478516,0.0678711-0.0849609,0.1103516-0.1103516s0.0961914-0.0380859,0.1616211-0.0380859
		c0.0649414,0,0.1264648,0.0185547,0.1845703,0.0546875c0.0581055,0.0371094,0.1254883,0.0771484,0.2021484,0.1191406
		c0.0761719,0.0429688,0.1665039,0.0820312,0.2700195,0.1191406c0.1030273,0.0371094,0.234375,0.0556641,0.3930664,0.0556641
		c0.1245117,0,0.2314453-0.0146484,0.3208008-0.0449219c0.0893555-0.0292969,0.1625977-0.0683594,0.2207031-0.1171875
		c0.0581055-0.0478516,0.1005859-0.1035156,0.1279297-0.1679688c0.0268555-0.0634766,0.0400391-0.1289062,0.0400391-0.1972656
		c0-0.1015625-0.0302734-0.1855469-0.0913086-0.2509766c-0.0610352-0.0644531-0.1416016-0.1210938-0.2421875-0.1699219
		C7.4702148,24.3310547,7.3554688,24.2880859,7.2265625,24.25c-0.1289062-0.0390625-0.2607422-0.0800781-0.3955078-0.1259766
		c-0.1342773-0.0449219-0.2661133-0.0986328-0.3950195-0.1591797s-0.2436523-0.1386719-0.3442383-0.2314453
		c-0.1005859-0.09375-0.1811523-0.2089844-0.2421875-0.3447266s-0.0913086-0.2998047-0.0913086-0.4931641
		c0-0.1777344,0.0351562-0.3476562,0.105957-0.5097656c0.0708008-0.1611328,0.175293-0.3027344,0.3125-0.4228516
		s0.3085938-0.2167969,0.5141602-0.2890625s0.4428711-0.1083984,0.7119141-0.1083984
		c0.300293,0,0.5737305,0.0498047,0.8203125,0.1494141c0.246582,0.0986328,0.4516602,0.2294922,0.6162109,0.390625
		L8.6015625,22.4833984z"/>
	<path class="st0" d="M11.5292969,21.5654297c0.2749023,0,0.527832,0.0439453,0.7587891,0.1318359
		s0.4301758,0.2158203,0.597168,0.3847656s0.2973633,0.375,0.3911133,0.6201172
		c0.0932617,0.2451172,0.1401367,0.5253906,0.1401367,0.8398438c0,0.0791016-0.003418,0.1455078-0.0107422,0.1972656
		c-0.0068359,0.0527344-0.0195312,0.09375-0.0380859,0.1230469c-0.0185547,0.0302734-0.043457,0.0517578-0.0742188,0.0644531
		c-0.03125,0.0126953-0.0712891,0.0185547-0.1191406,0.0185547h-2.6943359
		c0.0307617,0.4482422,0.1513672,0.7763672,0.3608398,0.9863281c0.2099609,0.2099609,0.4873047,0.3144531,0.8330078,0.3144531
		c0.1704102,0,0.3168945-0.0195312,0.4399414-0.0595703c0.1235352-0.0390625,0.230957-0.0830078,0.3232422-0.1318359
		c0.0917969-0.0478516,0.1728516-0.0917969,0.2421875-0.1318359c0.0693359-0.0390625,0.1367188-0.0595703,0.2016602-0.0595703
		c0.0424805,0,0.0795898,0.0087891,0.1108398,0.0253906c0.0307617,0.0175781,0.0576172,0.0419922,0.0805664,0.0722656
		L13.378418,25.34375c-0.1162109,0.1357422-0.246582,0.25-0.3911133,0.3417969
		c-0.1445312,0.0927734-0.2954102,0.1660156-0.4526367,0.2216797c-0.1572266,0.0546875-0.3173828,0.09375-0.4804688,0.1162109
		c-0.1625977,0.0234375-0.3208008,0.0341797-0.4736328,0.0341797c-0.3032227,0-0.5849609-0.0498047-0.8457031-0.1503906
		s-0.4873047-0.2490234-0.6801758-0.4462891s-0.3442383-0.4404297-0.4545898-0.7314453
		c-0.1103516-0.2900391-0.1660156-0.6269531-0.1660156-1.0087891c0-0.2978516,0.0483398-0.5771484,0.1445312-0.8398438
		c0.0961914-0.2617188,0.234375-0.4902344,0.4145508-0.6845703c0.1796875-0.1933594,0.3994141-0.3476562,0.6586914-0.4609375
		S11.2036133,21.5654297,11.5292969,21.5654297z M11.5507812,22.3183594c-0.3061523,0-0.5454102,0.0859375-0.7182617,0.2587891
		s-0.2832031,0.4179688-0.331543,0.7353516h1.972168c0-0.1357422-0.0185547-0.2646484-0.0551758-0.3847656
		c-0.0371094-0.1201172-0.09375-0.2255859-0.1704102-0.3164062c-0.0761719-0.0908203-0.1728516-0.1621094-0.2885742-0.2148438
		C11.8427734,22.34375,11.706543,22.3183594,11.5507812,22.3183594z"/>
	<path class="st0" d="M17.6879883,25.9941406h-0.4716797c-0.0991211,0-0.1772461-0.0146484-0.2338867-0.0449219
		c-0.0566406-0.0292969-0.0991211-0.0898438-0.1274414-0.1806641l-0.09375-0.3095703
		c-0.1103516,0.0986328-0.21875,0.1855469-0.324707,0.2607422c-0.1064453,0.0751953-0.2163086,0.1386719-0.3295898,0.1894531
		s-0.2338867,0.0888672-0.3613281,0.1142578c-0.1274414,0.0263672-0.269043,0.0390625-0.4248047,0.0390625
		c-0.184082,0-0.3544922-0.0253906-0.5102539-0.0751953s-0.2895508-0.1240234-0.4013672-0.2236328
		s-0.1992188-0.2236328-0.2612305-0.3710938c-0.0625-0.1474609-0.09375-0.3193359-0.09375-0.515625
		c0-0.1650391,0.0429688-0.328125,0.1293945-0.4882812c0.0864258-0.1611328,0.2304688-0.3056641,0.4316406-0.4355469
		c0.2011719-0.1289062,0.46875-0.2363281,0.8032227-0.3212891c0.3344727-0.0859375,0.7495117-0.1279297,1.2451172-0.1279297
		v-0.2568359c0-0.2939453-0.0615234-0.5117188-0.1845703-0.6533203c-0.1235352-0.1416016-0.3027344-0.2119141-0.5375977-0.2119141
		c-0.1704102,0-0.3120117,0.0195312-0.425293,0.0595703c-0.1132812,0.0390625-0.2119141,0.0839844-0.2954102,0.1337891
		s-0.1606445,0.09375-0.2314453,0.1337891s-0.1489258,0.0595703-0.2338867,0.0595703
		c-0.0708008,0-0.1318359-0.0185547-0.1826172-0.0556641c-0.0512695-0.0361328-0.0922852-0.0820312-0.1235352-0.1357422
		l-0.190918-0.3359375c0.5014648-0.4589844,1.1064453-0.6884766,1.8144531-0.6884766
		c0.2553711,0,0.4824219,0.0419922,0.6821289,0.1259766c0.2001953,0.0830078,0.3691406,0.1992188,0.5083008,0.3476562
		c0.1386719,0.1494141,0.2441406,0.3271484,0.3164062,0.5341797c0.0722656,0.2060547,0.1083984,0.4326172,0.1083984,0.6796875
		V25.9941406z M15.6479492,25.3398438c0.1074219,0,0.2070312-0.0097656,0.2973633-0.0292969
		c0.0908203-0.0195312,0.1767578-0.0488281,0.2573242-0.0878906s0.1586914-0.0869141,0.2338867-0.1445312
		c0.074707-0.0566406,0.1508789-0.125,0.2270508-0.203125v-0.7294922c-0.3056641,0-0.5615234,0.0195312-0.7670898,0.0576172
		s-0.3706055,0.0878906-0.4951172,0.1474609c-0.1245117,0.0605469-0.2133789,0.1298828-0.265625,0.2099609
		s-0.0786133,0.1669922-0.0786133,0.2607422c0,0.1855469,0.0546875,0.3183594,0.1635742,0.3984375
		C15.3300781,25.2998047,15.472168,25.3398438,15.6479492,25.3398438z"/>
	<path class="st0" d="M18.7207031,25.9941406v-4.3603516h0.6162109c0.1074219,0,0.1826172,0.0195312,0.2246094,0.0595703
		c0.0429688,0.0390625,0.0712891,0.1074219,0.0849609,0.2041016l0.0644531,0.5263672
		c0.1552734-0.2685547,0.3378906-0.4814453,0.5478516-0.6367188c0.2099609-0.15625,0.4453125-0.234375,0.7060547-0.234375
		c0.2148438,0,0.3935547,0.0498047,0.5351562,0.1484375l-0.1357422,0.7871094
		c-0.0087891,0.0507812-0.0273438,0.0869141-0.0556641,0.1083984c-0.0283203,0.0205078-0.0664062,0.03125-0.1142578,0.03125
		c-0.0429688,0-0.1005859-0.0097656-0.1748047-0.0292969c-0.0732422-0.0205078-0.1708984-0.0302734-0.2929688-0.0302734
		c-0.21875,0-0.4052734,0.0605469-0.5615234,0.1806641c-0.1552734,0.1210938-0.2871094,0.296875-0.3945312,0.5292969v2.7158203
		H18.7207031z"/>
	<path class="st0" d="M25.2568359,22.5556641c-0.03125,0.0400391-0.0615234,0.0712891-0.0917969,0.09375
		c-0.0292969,0.0224609-0.0722656,0.0341797-0.1289062,0.0341797c-0.0537109,0-0.1064453-0.0166016-0.1572266-0.0488281
		c-0.0517578-0.0332031-0.1123047-0.0693359-0.1826172-0.1103516c-0.0712891-0.0410156-0.1552734-0.078125-0.2529297-0.1113281
		c-0.0976562-0.0322266-0.2197266-0.0488281-0.3632812-0.0488281c-0.1845703,0-0.3466797,0.0341797-0.4853516,0.1005859
		s-0.2539062,0.1621094-0.3457031,0.2861328c-0.0927734,0.125-0.1611328,0.2763672-0.2060547,0.453125
		c-0.0458984,0.1767578-0.0683594,0.3779297-0.0683594,0.6015625c0,0.2324219,0.0244141,0.4384766,0.0742188,0.6201172
		s0.1210938,0.3339844,0.2148438,0.4570312s0.2070312,0.2167969,0.3398438,0.2802734s0.2832031,0.0957031,0.4501953,0.0957031
		c0.1679688,0,0.3027344-0.0205078,0.40625-0.0615234s0.1904297-0.0859375,0.2617188-0.1357422
		c0.0703125-0.0498047,0.1318359-0.0947266,0.1845703-0.1367188c0.0527344-0.0410156,0.1113281-0.0615234,0.1767578-0.0615234
		c0.0849609,0,0.1484375,0.0332031,0.1904297,0.0976562l0.3017578,0.3828125
		c-0.1162109,0.1357422-0.2421875,0.25-0.3779297,0.3417969c-0.1357422,0.0927734-0.2773438,0.1660156-0.4228516,0.2216797
		c-0.1455078,0.0546875-0.296875,0.09375-0.4521484,0.1162109c-0.15625,0.0234375-0.3105469,0.0341797-0.4638672,0.0341797
		c-0.2685547,0-0.5224609-0.0498047-0.7607422-0.1503906s-0.4453125-0.2470703-0.6220703-0.4404297
		c-0.1777344-0.1923828-0.3173828-0.4277344-0.4208984-0.7070312s-0.1552734-0.5976562-0.1552734-0.9541016
		c0-0.3203125,0.0458984-0.6171875,0.1376953-0.890625c0.0927734-0.2734375,0.2275391-0.5097656,0.40625-0.7099609
		c0.1787109-0.1992188,0.3994141-0.3564453,0.6630859-0.4697266s0.5664062-0.1699219,0.9091797-0.1699219
		c0.3261719,0,0.6113281,0.0527344,0.8564453,0.1572266c0.2451172,0.1054688,0.4658203,0.2548828,0.6611328,0.4511719
		L25.2568359,22.5556641z"/>
	<path class="st0" d="M26.2470703,25.9941406v-6.3154297h1.0498047v2.4267578
		c0.1699219-0.1611328,0.3564453-0.2919922,0.5605469-0.390625c0.2041016-0.0996094,0.4433594-0.1494141,0.71875-0.1494141
		c0.2373047,0,0.4482422,0.0410156,0.6328125,0.1210938c0.1845703,0.0810547,0.3378906,0.1943359,0.4609375,0.3398438
		c0.1230469,0.1464844,0.2167969,0.3203125,0.2802734,0.5234375c0.0644531,0.2021484,0.0957031,0.4257812,0.0957031,0.6689453
		v2.7753906h-1.0498047V23.21875c0-0.2666016-0.0615234-0.4726562-0.1845703-0.6181641s-0.3076172-0.21875-0.5546875-0.21875
		c-0.1806641,0-0.3515625,0.0410156-0.5097656,0.1230469c-0.1591797,0.0820312-0.3085938,0.1943359-0.4501953,0.3359375v3.1533203
		H26.2470703z"/>
</g>
</svg>
