<?xml version="1.0" encoding="utf-8"?>
<!-- Generator: Adobe Illustrator 22.1.0, SVG Export Plug-In . SVG Version: 6.00 Build 0)  -->
<svg version="1.1" id="Layer_1" xmlns="http://www.w3.org/2000/svg" xmlns:xlink="http://www.w3.org/1999/xlink" x="0px" y="0px"
	 viewBox="0 0 36 36" style="enable-background:new 0 0 36 36;" xml:space="preserve">
<style type="text/css">
	.st0{fill:#099EFF;}
	.st1{enable-background:new    ;}
	.st2{fill:#FFFFFF;}
</style>
<rect class="st0" width="36" height="36"/>
<g class="st1">
	<path class="st2" d="M7.6513672,10.7666016c-0.03125,0.0615234-0.0673828,0.1054688-0.1083984,0.1308594
		c-0.0410156,0.0263672-0.0898438,0.0390625-0.1464844,0.0390625s-0.1206055-0.0224609-0.1914062-0.0664062
		s-0.1542969-0.0927734-0.2504883-0.1464844s-0.2089844-0.1025391-0.3378906-0.1464844s-0.28125-0.0664062-0.4570312-0.0664062
		c-0.1586914,0-0.296875,0.0195312-0.4140625,0.0576172c-0.1176758,0.0380859-0.2167969,0.0917969-0.2978516,0.1591797
		c-0.0805664,0.0683594-0.140625,0.1494141-0.1806641,0.2451172c-0.0395508,0.0947266-0.059082,0.1992188-0.059082,0.3125
		c0,0.1435547,0.0400391,0.2646484,0.1210938,0.3603516c0.0805664,0.0966797,0.1875,0.1787109,0.3208008,0.2470703
		c0.1328125,0.0673828,0.284668,0.1289062,0.4545898,0.1826172s0.34375,0.1113281,0.5205078,0.171875
		c0.1772461,0.0615234,0.3505859,0.1318359,0.5209961,0.2128906c0.1699219,0.0810547,0.3212891,0.1826172,0.4545898,0.3056641
		s0.2402344,0.2744141,0.3208008,0.453125c0.0805664,0.1777344,0.1210938,0.3945312,0.1210938,0.6503906
		c0,0.2773438-0.0473633,0.5371094-0.1420898,0.7792969c-0.0952148,0.2421875-0.2338867,0.453125-0.4165039,0.6337891
		c-0.1831055,0.1796875-0.40625,0.3212891-0.6694336,0.4248047c-0.2636719,0.1035156-0.5654297,0.1552734-0.9052734,0.1552734
		c-0.1958008,0-0.3881836-0.0195312-0.578125-0.0576172s-0.3720703-0.0927734-0.5458984-0.1640625
		c-0.1743164-0.0703125-0.3374023-0.1552734-0.4887695-0.2548828c-0.1518555-0.0986328-0.2871094-0.2089844-0.40625-0.3310547
		l0.331543-0.5488281c0.03125-0.0390625,0.0688477-0.0722656,0.112793-0.0996094
		c0.0439453-0.0263672,0.0927734-0.0400391,0.1464844-0.0400391c0.0708008,0,0.1474609,0.0292969,0.2294922,0.0869141
		s0.1791992,0.1220703,0.2910156,0.1933594c0.1123047,0.0712891,0.2436523,0.1357422,0.3955078,0.1933594
		c0.1513672,0.0576172,0.3334961,0.0869141,0.5458984,0.0869141c0.3261719,0,0.578125-0.0771484,0.7568359-0.2314453
		c0.1782227-0.1542969,0.2675781-0.3759766,0.2675781-0.6650391c0-0.1611328-0.0405273-0.2929688-0.1210938-0.3955078
		c-0.0805664-0.1015625-0.1875-0.1875-0.3208008-0.2568359S6.2407227,13.25,6.0703125,13.2011719
		c-0.1699219-0.0478516-0.3427734-0.1005859-0.5180664-0.1572266c-0.1757812-0.0566406-0.3486328-0.1240234-0.5185547-0.2041016
		c-0.1699219-0.0791016-0.3217773-0.1826172-0.4550781-0.3095703c-0.1328125-0.1279297-0.2397461-0.2871094-0.3208008-0.4785156
		C4.1772461,11.8603516,4.1367188,11.625,4.1367188,11.34375c0-0.2236328,0.0449219-0.4414062,0.1337891-0.6542969
		c0.0893555-0.2119141,0.2197266-0.4003906,0.3911133-0.5654297C4.8330078,9.9599609,5.043457,9.828125,5.2929688,9.7294922
		c0.2490234-0.0996094,0.5336914-0.1494141,0.8540039-0.1494141c0.362793,0,0.6972656,0.0566406,1.0029297,0.1699219
		c0.3061523,0.1142578,0.5668945,0.2724609,0.7822266,0.4765625L7.6513672,10.7666016z"/>
	<path class="st2" d="M8.8583984,17.2177734v-5.7841797H9.5c0.0678711,0,0.1259766,0.015625,0.1743164,0.046875
		S9.753418,11.5595703,9.7680664,11.625l0.0849609,0.4033203c0.175293-0.2011719,0.3774414-0.3642578,0.6054688-0.4882812
		c0.2280273-0.125,0.4951172-0.1875,0.8012695-0.1875c0.237793,0,0.4550781,0.0498047,0.6523438,0.1484375
		c0.1967773,0.0996094,0.3666992,0.2431641,0.5097656,0.4316406s0.253418,0.4208984,0.331543,0.6972656
		s0.1171875,0.5927734,0.1171875,0.9501953c0,0.3251953-0.0444336,0.6269531-0.1318359,0.9052734
		c-0.0878906,0.2773438-0.2133789,0.5185547-0.3764648,0.7216797c-0.1625977,0.2041016-0.3598633,0.3642578-0.590332,0.4785156
		c-0.230957,0.1152344-0.4897461,0.171875-0.7758789,0.171875c-0.246582,0-0.4555664-0.0371094-0.6269531-0.1123047
		s-0.3251953-0.1796875-0.4609375-0.3125v1.7851562H8.8583984z M10.8984375,12.1816406
		c-0.2182617,0-0.4047852,0.0458984-0.559082,0.1376953c-0.1542969,0.0927734-0.2983398,0.2216797-0.4311523,0.3886719v1.9550781
		c0.1191406,0.1474609,0.2485352,0.25,0.3886719,0.3085938c0.1401367,0.0576172,0.2910156,0.0869141,0.4526367,0.0869141
		c0.1586914,0,0.3027344-0.0292969,0.4316406-0.0888672s0.237793-0.1503906,0.3271484-0.2724609
		s0.1577148-0.2753906,0.2060547-0.4609375s0.0722656-0.4042969,0.0722656-0.65625
		c0-0.2558594-0.0205078-0.4716797-0.0615234-0.6484375S11.625,12.6103516,11.5488281,12.5
		c-0.0766602-0.1103516-0.1694336-0.1914062-0.2788086-0.2421875
		C11.1611328,12.2070312,11.0371094,12.1816406,10.8984375,12.1816406z"/>
	<path class="st2" d="M15.4667969,11.3652344c0.2749023,0,0.527832,0.0439453,0.7587891,0.1318359
		s0.4301758,0.2158203,0.597168,0.3847656s0.2973633,0.375,0.3911133,0.6201172
		c0.0932617,0.2451172,0.1401367,0.5253906,0.1401367,0.8398438c0,0.0791016-0.003418,0.1455078-0.0107422,0.1972656
		c-0.0068359,0.0527344-0.0195312,0.09375-0.0380859,0.1230469c-0.0185547,0.0302734-0.043457,0.0517578-0.0742188,0.0644531
		c-0.03125,0.0126953-0.0712891,0.0185547-0.1191406,0.0185547h-2.6943359
		c0.0307617,0.4482422,0.1513672,0.7763672,0.3608398,0.9863281c0.2099609,0.2099609,0.4873047,0.3144531,0.8330078,0.3144531
		c0.1704102,0,0.3168945-0.0195312,0.4399414-0.0595703c0.1235352-0.0390625,0.230957-0.0830078,0.3232422-0.1318359
		c0.0917969-0.0478516,0.1728516-0.0917969,0.2421875-0.1318359c0.0693359-0.0390625,0.1367188-0.0595703,0.2016602-0.0595703
		c0.0424805,0,0.0795898,0.0087891,0.1108398,0.0253906c0.0307617,0.0175781,0.0576172,0.0419922,0.0805664,0.0722656
		l0.3061523,0.3828125c-0.1162109,0.1357422-0.246582,0.25-0.3911133,0.3417969
		c-0.1445312,0.0927734-0.2954102,0.1660156-0.4526367,0.2216797c-0.1572266,0.0546875-0.3173828,0.09375-0.4804688,0.1162109
		c-0.1625977,0.0234375-0.3208008,0.0341797-0.4736328,0.0341797c-0.3032227,0-0.5849609-0.0498047-0.8457031-0.1503906
		s-0.4873047-0.2490234-0.6801758-0.4462891s-0.3442383-0.4404297-0.4545898-0.7314453
		c-0.1103516-0.2900391-0.1660156-0.6269531-0.1660156-1.0087891c0-0.2978516,0.0483398-0.5771484,0.1445312-0.8398438
		c0.0961914-0.2617188,0.234375-0.4902344,0.4145508-0.6845703c0.1796875-0.1933594,0.3994141-0.3476562,0.6586914-0.4609375
		S15.1411133,11.3652344,15.4667969,11.3652344z M15.4882812,12.1181641c-0.3061523,0-0.5454102,0.0859375-0.7182617,0.2587891
		s-0.2832031,0.4179688-0.331543,0.7353516h1.972168c0-0.1357422-0.0185547-0.2646484-0.0551758-0.3847656
		c-0.0371094-0.1201172-0.09375-0.2255859-0.1704102-0.3164062c-0.0761719-0.0908203-0.1728516-0.1621094-0.2885742-0.2148438
		C15.7802734,12.1435547,15.644043,12.1181641,15.4882812,12.1181641z"/>
	<path class="st2" d="M21.2734375,12.3554688c-0.03125,0.0400391-0.0625,0.0712891-0.0917969,0.09375
		c-0.0302734,0.0224609-0.0732422,0.0341797-0.1298828,0.0341797c-0.0537109,0-0.1064453-0.0166016-0.1572266-0.0488281
		c-0.0507812-0.0332031-0.1113281-0.0693359-0.1826172-0.1103516s-0.1552734-0.078125-0.2529297-0.1113281
		c-0.0976562-0.0322266-0.21875-0.0488281-0.3632812-0.0488281c-0.1845703,0-0.3457031,0.0341797-0.484375,0.1005859
		s-0.2548828,0.1621094-0.3466797,0.2861328c-0.0927734,0.125-0.1611328,0.2763672-0.2060547,0.453125
		s-0.0683594,0.3779297-0.0683594,0.6015625c0,0.2324219,0.0253906,0.4384766,0.0742188,0.6201172
		c0.0498047,0.1816406,0.1210938,0.3339844,0.2148438,0.4570312s0.2070312,0.2167969,0.3398438,0.2802734
		s0.2832031,0.0957031,0.4511719,0.0957031c0.1669922,0,0.3027344-0.0205078,0.40625-0.0615234
		c0.1025391-0.0410156,0.1894531-0.0859375,0.2607422-0.1357422s0.1318359-0.0947266,0.1845703-0.1367188
		c0.0527344-0.0410156,0.1113281-0.0615234,0.1767578-0.0615234c0.0849609,0,0.1484375,0.0332031,0.1904297,0.0976562
		l0.3027344,0.3828125c-0.1171875,0.1357422-0.2421875,0.25-0.3789062,0.3417969
		c-0.1357422,0.0927734-0.2773438,0.1660156-0.421875,0.2216797c-0.1464844,0.0546875-0.296875,0.09375-0.453125,0.1162109
		c-0.15625,0.0234375-0.3105469,0.0341797-0.4628906,0.0341797c-0.2695312,0-0.5234375-0.0498047-0.7617188-0.1503906
		c-0.237793-0.1005859-0.4453125-0.2470703-0.6220703-0.4404297c-0.1772461-0.1923828-0.3173828-0.4277344-0.4208984-0.7070312
		s-0.1552734-0.5976562-0.1552734-0.9541016c0-0.3203125,0.0463867-0.6171875,0.1381836-0.890625
		c0.0922852-0.2734375,0.2275391-0.5097656,0.4057617-0.7099609c0.1787109-0.1992188,0.3999023-0.3564453,0.6630859-0.4697266
		c0.2636719-0.1132812,0.5673828-0.1699219,0.9091797-0.1699219c0.3261719,0,0.6113281,0.0527344,0.8574219,0.1572266
		c0.2441406,0.1054688,0.4648438,0.2548828,0.6601562,0.4511719L21.2734375,12.3554688z"/>
	<path class="st2" d="M23.5371094,10.1630859c0,0.0898438-0.0175781,0.1757812-0.0546875,0.2548828
		s-0.0859375,0.1484375-0.1464844,0.2080078s-0.1328125,0.1074219-0.2148438,0.1425781s-0.1699219,0.0527344-0.2636719,0.0527344
		c-0.0898438,0-0.1757812-0.0175781-0.2568359-0.0527344s-0.1513672-0.0830078-0.2099609-0.1425781
		c-0.0605469-0.0595703-0.1074219-0.1289062-0.1425781-0.2080078s-0.0527344-0.1650391-0.0527344-0.2548828
		c0-0.09375,0.0175781-0.1816406,0.0527344-0.2636719s0.0820312-0.1533203,0.1425781-0.2128906
		c0.0585938-0.0595703,0.1289062-0.1064453,0.2099609-0.1425781c0.0810547-0.0351562,0.1669922-0.0527344,0.2568359-0.0527344
		c0.09375,0,0.1816406,0.0175781,0.2636719,0.0527344c0.0820312,0.0361328,0.1542969,0.0830078,0.2148438,0.1425781
		s0.109375,0.1308594,0.1464844,0.2128906S23.5371094,10.0693359,23.5371094,10.1630859z M23.3808594,11.4335938v4.3603516
		h-1.0507812v-4.3603516H23.3808594z"/>
	<path class="st2" d="M26.3681641,11.3652344c0.2744141,0,0.5283203,0.0439453,0.7587891,0.1318359
		s0.4296875,0.2158203,0.5976562,0.3847656c0.1660156,0.1689453,0.296875,0.375,0.390625,0.6201172
		s0.140625,0.5253906,0.140625,0.8398438c0,0.0791016-0.0039062,0.1455078-0.0117188,0.1972656
		c-0.0058594,0.0527344-0.0195312,0.09375-0.0371094,0.1230469c-0.0195312,0.0302734-0.0439453,0.0517578-0.0742188,0.0644531
		c-0.03125,0.0126953-0.0722656,0.0185547-0.1191406,0.0185547h-2.6953125
		c0.03125,0.4482422,0.1523438,0.7763672,0.3613281,0.9863281c0.2099609,0.2099609,0.4873047,0.3144531,0.8330078,0.3144531
		c0.1708984,0,0.3173828-0.0195312,0.4404297-0.0595703c0.1230469-0.0390625,0.2304688-0.0830078,0.3222656-0.1318359
		c0.0917969-0.0478516,0.1738281-0.0917969,0.2421875-0.1318359c0.0703125-0.0390625,0.1367188-0.0595703,0.2021484-0.0595703
		c0.0419922,0,0.0791016,0.0087891,0.1103516,0.0253906c0.03125,0.0175781,0.0585938,0.0419922,0.0810547,0.0722656
		l0.3056641,0.3828125c-0.1152344,0.1357422-0.2460938,0.25-0.390625,0.3417969
		c-0.1445312,0.0927734-0.2949219,0.1660156-0.453125,0.2216797c-0.15625,0.0546875-0.3164062,0.09375-0.4804688,0.1162109
		c-0.1621094,0.0234375-0.3203125,0.0341797-0.4726562,0.0341797c-0.3037109,0-0.5859375-0.0498047-0.8457031-0.1503906
		c-0.2617188-0.1005859-0.4882812-0.2490234-0.6806641-0.4462891s-0.3447266-0.4404297-0.4541016-0.7314453
		c-0.1113281-0.2900391-0.1660156-0.6269531-0.1660156-1.0087891c0-0.2978516,0.0478516-0.5771484,0.1445312-0.8398438
		c0.0957031-0.2617188,0.234375-0.4902344,0.4140625-0.6845703c0.1796875-0.1933594,0.3994141-0.3476562,0.6582031-0.4609375
		C25.75,11.421875,26.0429688,11.3652344,26.3681641,11.3652344z M26.3896484,12.1181641
		c-0.3056641,0-0.5458984,0.0859375-0.7177734,0.2587891c-0.1738281,0.1728516-0.2832031,0.4179688-0.3320312,0.7353516H27.3125
		c0-0.1357422-0.0195312-0.2646484-0.0556641-0.3847656c-0.0371094-0.1201172-0.09375-0.2255859-0.1708984-0.3164062
		c-0.0761719-0.0908203-0.171875-0.1621094-0.2880859-0.2148438S26.5449219,12.1181641,26.3896484,12.1181641z"/>
	<path class="st2" d="M31.6972656,12.2832031c-0.0273438,0.0458984-0.0576172,0.0771484-0.0888672,0.0957031
		S31.5371094,12.40625,31.4892578,12.40625c-0.0507812,0-0.1054688-0.0136719-0.1630859-0.0419922
		c-0.0585938-0.0283203-0.1259766-0.0605469-0.2021484-0.0957031c-0.0771484-0.0351562-0.1630859-0.0673828-0.2617188-0.0957031
		c-0.0976562-0.0283203-0.2128906-0.0419922-0.3466797-0.0419922c-0.2070312,0-0.3691406,0.0439453-0.4882812,0.1308594
		c-0.1191406,0.0878906-0.1787109,0.203125-0.1787109,0.3447266c0,0.09375,0.0302734,0.171875,0.0917969,0.2363281
		c0.0605469,0.0634766,0.1416016,0.1191406,0.2421875,0.1669922c0.1005859,0.0488281,0.2138672,0.0917969,0.3417969,0.1298828
		s0.2578125,0.0800781,0.3916016,0.1259766c0.1328125,0.0449219,0.2636719,0.0966797,0.390625,0.1542969
		c0.1269531,0.0585938,0.2421875,0.1318359,0.3417969,0.2216797c0.1005859,0.0888672,0.1816406,0.1962891,0.2421875,0.3203125
		c0.0605469,0.125,0.0917969,0.2753906,0.0917969,0.4511719c0,0.2089844-0.0390625,0.4023438-0.1152344,0.5800781
		c-0.0761719,0.1767578-0.1875,0.3300781-0.3359375,0.4589844c-0.1464844,0.1289062-0.328125,0.2294922-0.5449219,0.3017578
		s-0.4658203,0.1083984-0.7460938,0.1083984c-0.1503906,0-0.296875-0.0136719-0.4404297-0.0410156
		c-0.1435547-0.0263672-0.2802734-0.0644531-0.4121094-0.1123047s-0.2529297-0.1044922-0.3662109-0.1699219
		c-0.1113281-0.0654297-0.2089844-0.1357422-0.2949219-0.2128906l0.2421875-0.3994141
		c0.03125-0.0478516,0.0683594-0.0849609,0.1113281-0.1103516c0.0419922-0.0253906,0.0957031-0.0380859,0.1611328-0.0380859
		s0.1259766,0.0185547,0.1845703,0.0546875c0.0585938,0.0371094,0.125,0.0771484,0.2021484,0.1191406
		c0.0761719,0.0429688,0.1669922,0.0820312,0.2705078,0.1191406c0.1025391,0.0371094,0.234375,0.0556641,0.3925781,0.0556641
		c0.125,0,0.2314453-0.0146484,0.3203125-0.0449219c0.0898438-0.0292969,0.1630859-0.0683594,0.2207031-0.1171875
		c0.0585938-0.0478516,0.1015625-0.1035156,0.1289062-0.1679688C30.9873047,14.7333984,31,14.6679688,31,14.5996094
		c0-0.1015625-0.0292969-0.1855469-0.0908203-0.2509766c-0.0615234-0.0644531-0.1416016-0.1210938-0.2421875-0.1699219
		c-0.1005859-0.0478516-0.2158203-0.0908203-0.3447266-0.1289062c-0.1289062-0.0390625-0.2597656-0.0800781-0.3945312-0.1259766
		c-0.1347656-0.0449219-0.2666016-0.0986328-0.3955078-0.1591797s-0.2431641-0.1386719-0.3447266-0.2314453
		c-0.0996094-0.09375-0.1806641-0.2089844-0.2421875-0.3447266c-0.0605469-0.1357422-0.0908203-0.2998047-0.0908203-0.4931641
		c0-0.1777344,0.0351562-0.3476562,0.1064453-0.5097656c0.0703125-0.1611328,0.1748047-0.3027344,0.3125-0.4228516
		c0.1367188-0.1201172,0.3085938-0.2167969,0.5136719-0.2890625s0.4433594-0.1083984,0.7119141-0.1083984
		c0.2998047,0,0.5732422,0.0498047,0.8203125,0.1494141c0.2470703,0.0986328,0.4521484,0.2294922,0.6162109,0.390625
		L31.6972656,12.2832031z"/>
</g>
<g class="st1">
	<path class="st2" d="M5.7866211,22.4833984c-0.0283203,0.0458984-0.0581055,0.0771484-0.0893555,0.0957031
		s-0.0708008,0.0273438-0.1191406,0.0273438c-0.0507812,0-0.1054688-0.0136719-0.1635742-0.0419922
		S5.2890625,22.5039062,5.2128906,22.46875c-0.0766602-0.0351562-0.1635742-0.0673828-0.2617188-0.0957031
		c-0.0976562-0.0283203-0.2128906-0.0419922-0.3461914-0.0419922c-0.2070312,0-0.3696289,0.0439453-0.4887695,0.1308594
		C3.9970703,22.5498047,3.9375,22.6650391,3.9375,22.8066406c0,0.09375,0.0307617,0.171875,0.0917969,0.2363281
		c0.0605469,0.0634766,0.1416016,0.1191406,0.2421875,0.1669922c0.1005859,0.0488281,0.2143555,0.0917969,0.3417969,0.1298828
		s0.2578125,0.0800781,0.3911133,0.1259766c0.1333008,0.0449219,0.2636719,0.0966797,0.3911133,0.1542969
		c0.1274414,0.0585938,0.2416992,0.1318359,0.3422852,0.2216797c0.1000977,0.0888672,0.1811523,0.1962891,0.2421875,0.3203125
		c0.0605469,0.125,0.0913086,0.2753906,0.0913086,0.4511719c0,0.2089844-0.0385742,0.4023438-0.1147461,0.5800781
		c-0.0766602,0.1767578-0.1884766,0.3300781-0.3359375,0.4589844s-0.3291016,0.2294922-0.5458984,0.3017578
		S4.609375,26.0625,4.3286133,26.0625c-0.1499023,0-0.296875-0.0136719-0.4399414-0.0410156
		c-0.1430664-0.0263672-0.2802734-0.0644531-0.4121094-0.1123047s-0.253418-0.1044922-0.3657227-0.1699219
		c-0.1118164-0.0654297-0.2099609-0.1357422-0.2949219-0.2128906l0.2421875-0.3994141
		c0.0307617-0.0478516,0.0678711-0.0849609,0.1103516-0.1103516s0.0961914-0.0380859,0.1616211-0.0380859
		c0.0649414,0,0.1264648,0.0185547,0.1845703,0.0546875c0.0581055,0.0371094,0.1254883,0.0771484,0.2021484,0.1191406
		c0.0761719,0.0429688,0.1665039,0.0820312,0.2700195,0.1191406c0.1030273,0.0371094,0.234375,0.0556641,0.3930664,0.0556641
		c0.1245117,0,0.2314453-0.0146484,0.3208008-0.0449219c0.0893555-0.0292969,0.1625977-0.0683594,0.2207031-0.1171875
		c0.0581055-0.0478516,0.1005859-0.1035156,0.1279297-0.1679688c0.0268555-0.0634766,0.0400391-0.1289062,0.0400391-0.1972656
		c0-0.1015625-0.0302734-0.1855469-0.0913086-0.2509766c-0.0610352-0.0644531-0.1416016-0.1210938-0.2421875-0.1699219
		C4.6552734,24.3310547,4.5405273,24.2880859,4.4116211,24.25c-0.1289062-0.0390625-0.2607422-0.0800781-0.3955078-0.1259766
		C3.8818359,24.0791016,3.75,24.0253906,3.6210938,23.9648438s-0.2436523-0.1386719-0.3442383-0.2314453
		c-0.1005859-0.09375-0.1811523-0.2089844-0.2421875-0.3447266s-0.0913086-0.2998047-0.0913086-0.4931641
		c0-0.1777344,0.0351562-0.3476562,0.105957-0.5097656c0.0708008-0.1611328,0.175293-0.3027344,0.3125-0.4228516
		s0.3085938-0.2167969,0.5141602-0.2890625s0.4428711-0.1083984,0.7119141-0.1083984
		c0.300293,0,0.5737305,0.0498047,0.8203125,0.1494141c0.246582,0.0986328,0.4516602,0.2294922,0.6162109,0.390625
		L5.7866211,22.4833984z"/>
	<path class="st2" d="M8.7143555,21.5654297c0.2749023,0,0.527832,0.0439453,0.7587891,0.1318359
		s0.4301758,0.2158203,0.597168,0.3847656s0.2973633,0.375,0.3911133,0.6201172
		c0.0932617,0.2451172,0.1401367,0.5253906,0.1401367,0.8398438c0,0.0791016-0.003418,0.1455078-0.0107422,0.1972656
		c-0.0068359,0.0527344-0.0195312,0.09375-0.0380859,0.1230469c-0.0185547,0.0302734-0.043457,0.0517578-0.0742188,0.0644531
		c-0.03125,0.0126953-0.0712891,0.0185547-0.1191406,0.0185547H7.6650391
		c0.0307617,0.4482422,0.1513672,0.7763672,0.3608398,0.9863281c0.2099609,0.2099609,0.4873047,0.3144531,0.8330078,0.3144531
		c0.1704102,0,0.3168945-0.0195312,0.4399414-0.0595703c0.1235352-0.0390625,0.230957-0.0830078,0.3232422-0.1318359
		c0.0917969-0.0478516,0.1728516-0.0917969,0.2421875-0.1318359c0.0693359-0.0390625,0.1367188-0.0595703,0.2016602-0.0595703
		c0.0424805,0,0.0795898,0.0087891,0.1108398,0.0253906c0.0307617,0.0175781,0.0576172,0.0419922,0.0805664,0.0722656
		l0.3061523,0.3828125c-0.1162109,0.1357422-0.246582,0.25-0.3911133,0.3417969
		c-0.1445312,0.0927734-0.2954102,0.1660156-0.4526367,0.2216797c-0.1572266,0.0546875-0.3173828,0.09375-0.4804688,0.1162109
		C9.0766602,26.046875,8.918457,26.0576172,8.765625,26.0576172c-0.3032227,0-0.5849609-0.0498047-0.8457031-0.1503906
		s-0.4873047-0.2490234-0.6801758-0.4462891s-0.3442383-0.4404297-0.4545898-0.7314453
		c-0.1103516-0.2900391-0.1660156-0.6269531-0.1660156-1.0087891c0-0.2978516,0.0483398-0.5771484,0.1445312-0.8398438
		c0.0961914-0.2617188,0.234375-0.4902344,0.4145508-0.6845703c0.1796875-0.1933594,0.3994141-0.3476562,0.6586914-0.4609375
		S8.3886719,21.5654297,8.7143555,21.5654297z M8.7358398,22.3183594c-0.3061523,0-0.5454102,0.0859375-0.7182617,0.2587891
		S7.734375,22.9951172,7.6860352,23.3125h1.972168c0-0.1357422-0.0185547-0.2646484-0.0551758-0.3847656
		c-0.0371094-0.1201172-0.09375-0.2255859-0.1704102-0.3164062c-0.0761719-0.0908203-0.1728516-0.1621094-0.2885742-0.2148438
		C9.027832,22.34375,8.8916016,22.3183594,8.7358398,22.3183594z"/>
	<path class="st2" d="M12.5737305,19.6787109v6.3154297h-1.0498047v-6.3154297H12.5737305z"/>
	<path class="st2" d="M15.5610352,21.5654297c0.2749023,0,0.527832,0.0439453,0.7587891,0.1318359
		s0.4301758,0.2158203,0.597168,0.3847656s0.2973633,0.375,0.3911133,0.6201172
		c0.0932617,0.2451172,0.1401367,0.5253906,0.1401367,0.8398438c0,0.0791016-0.003418,0.1455078-0.0107422,0.1972656
		c-0.0068359,0.0527344-0.0195312,0.09375-0.0380859,0.1230469c-0.0185547,0.0302734-0.043457,0.0517578-0.0742188,0.0644531
		c-0.03125,0.0126953-0.0712891,0.0185547-0.1191406,0.0185547h-2.6943359
		c0.0307617,0.4482422,0.1513672,0.7763672,0.3608398,0.9863281c0.2099609,0.2099609,0.4873047,0.3144531,0.8330078,0.3144531
		c0.1704102,0,0.3168945-0.0195312,0.4399414-0.0595703c0.1235352-0.0390625,0.230957-0.0830078,0.3232422-0.1318359
		c0.0917969-0.0478516,0.1728516-0.0917969,0.2421875-0.1318359c0.0693359-0.0390625,0.1367188-0.0595703,0.2016602-0.0595703
		c0.0424805,0,0.0795898,0.0087891,0.1108398,0.0253906c0.0307617,0.0175781,0.0576172,0.0419922,0.0805664,0.0722656
		l0.3061523,0.3828125c-0.1162109,0.1357422-0.246582,0.25-0.3911133,0.3417969
		c-0.1445312,0.0927734-0.2954102,0.1660156-0.4526367,0.2216797c-0.1572266,0.0546875-0.3173828,0.09375-0.4804688,0.1162109
		c-0.1625977,0.0234375-0.3208008,0.0341797-0.4736328,0.0341797c-0.3032227,0-0.5849609-0.0498047-0.8457031-0.1503906
		s-0.4873047-0.2490234-0.6801758-0.4462891s-0.3442383-0.4404297-0.4545898-0.7314453
		c-0.1103516-0.2900391-0.1660156-0.6269531-0.1660156-1.0087891c0-0.2978516,0.0483398-0.5771484,0.1445312-0.8398438
		c0.0961914-0.2617188,0.234375-0.4902344,0.4145508-0.6845703c0.1796875-0.1933594,0.3994141-0.3476562,0.6586914-0.4609375
		S15.2353516,21.5654297,15.5610352,21.5654297z M15.5825195,22.3183594c-0.3061523,0-0.5454102,0.0859375-0.7182617,0.2587891
		s-0.2832031,0.4179688-0.331543,0.7353516h1.972168c0-0.1357422-0.0185547-0.2646484-0.0551758-0.3847656
		c-0.0371094-0.1201172-0.09375-0.2255859-0.1704102-0.3164062c-0.0761719-0.0908203-0.1728516-0.1621094-0.2885742-0.2148438
		C15.8745117,22.34375,15.7382812,22.3183594,15.5825195,22.3183594z"/>
	<path class="st2" d="M21.3671875,22.5556641c-0.03125,0.0400391-0.0625,0.0712891-0.0917969,0.09375
		c-0.0302734,0.0224609-0.0732422,0.0341797-0.1298828,0.0341797c-0.0537109,0-0.1064453-0.0166016-0.1572266-0.0488281
		c-0.0507812-0.0332031-0.1113281-0.0693359-0.1826172-0.1103516s-0.1552734-0.078125-0.2529297-0.1113281
		c-0.0976562-0.0322266-0.21875-0.0488281-0.3632812-0.0488281c-0.1845703,0-0.3457031,0.0341797-0.484375,0.1005859
		s-0.2548828,0.1621094-0.3466797,0.2861328c-0.0917969,0.125-0.1611328,0.2763672-0.2060547,0.453125
		s-0.0683594,0.3779297-0.0683594,0.6015625c0,0.2324219,0.0253906,0.4384766,0.0751953,0.6201172
		c0.0488281,0.1816406,0.1210938,0.3339844,0.2138672,0.4570312c0.09375,0.1230469,0.2070312,0.2167969,0.3408203,0.2802734
		c0.1328125,0.0634766,0.2832031,0.0957031,0.4501953,0.0957031s0.3027344-0.0205078,0.40625-0.0615234
		c0.1025391-0.0410156,0.1904297-0.0859375,0.2607422-0.1357422c0.0712891-0.0498047,0.1328125-0.0947266,0.1845703-0.1367188
		c0.0527344-0.0410156,0.1113281-0.0615234,0.1767578-0.0615234c0.0849609,0,0.1484375,0.0332031,0.1914062,0.0976562
		l0.3017578,0.3828125c-0.1162109,0.1357422-0.2421875,0.25-0.3779297,0.3417969
		c-0.1367188,0.0927734-0.2773438,0.1660156-0.4228516,0.2216797c-0.1464844,0.0546875-0.296875,0.09375-0.453125,0.1162109
		c-0.15625,0.0234375-0.3105469,0.0341797-0.4628906,0.0341797c-0.2695312,0-0.5234375-0.0498047-0.7607422-0.1503906
		c-0.2387695-0.1005859-0.4462891-0.2470703-0.6230469-0.4404297c-0.1772461-0.1923828-0.3173828-0.4277344-0.4208984-0.7070312
		s-0.1552734-0.5976562-0.1552734-0.9541016c0-0.3203125,0.0463867-0.6171875,0.1381836-0.890625
		c0.0922852-0.2734375,0.2275391-0.5097656,0.4057617-0.7099609c0.1787109-0.1992188,0.3999023-0.3564453,0.6630859-0.4697266
		c0.2636719-0.1132812,0.5673828-0.1699219,0.9101562-0.1699219c0.3251953,0,0.6113281,0.0527344,0.8564453,0.1572266
		c0.2451172,0.1054688,0.4648438,0.2548828,0.6601562,0.4511719L21.3671875,22.5556641z"/>
	<path class="st2" d="M23.7890625,26.0625c-0.3769531,0-0.6669922-0.1074219-0.8710938-0.3212891
		s-0.3056641-0.5087891-0.3056641-0.8857422v-2.4355469h-0.4423828c-0.0566406,0-0.1054688-0.0185547-0.1464844-0.0556641
		c-0.0410156-0.0361328-0.0615234-0.0917969-0.0615234-0.1650391v-0.4169922l0.7011719-0.1142578l0.2207031-1.1904297
		c0.0117188-0.0566406,0.0380859-0.1005859,0.0791016-0.1318359s0.0927734-0.046875,0.1552734-0.046875h0.5439453v1.3730469
		h1.1474609v0.7480469h-1.1474609v2.3632812c0,0.1357422,0.0341797,0.2421875,0.1015625,0.3183594
		c0.0683594,0.0761719,0.1591797,0.1152344,0.2724609,0.1152344c0.0644531,0,0.1191406-0.0078125,0.1630859-0.0234375
		s0.0820312-0.0322266,0.1152344-0.0488281c0.0322266-0.0175781,0.0615234-0.0332031,0.0869141-0.0488281
		s0.0507812-0.0234375,0.0761719-0.0234375c0.03125,0,0.0566406,0.0078125,0.0771484,0.0234375
		c0.0195312,0.015625,0.0410156,0.0380859,0.0634766,0.0693359l0.3144531,0.5107422
		c-0.1533203,0.1269531-0.3291016,0.2236328-0.5273438,0.2890625C24.2070312,26.0292969,24.0019531,26.0625,23.7890625,26.0625z"/>
	<path class="st2" d="M27.5078125,21.5654297c0.3261719,0,0.6210938,0.0527344,0.8867188,0.1572266
		c0.2646484,0.1054688,0.4902344,0.2539062,0.6777344,0.4462891c0.1865234,0.1933594,0.3310547,0.4277344,0.4335938,0.7060547
		c0.1015625,0.2773438,0.1533203,0.5878906,0.1533203,0.9306641c0,0.3457031-0.0517578,0.6572266-0.1533203,0.9345703
		c-0.1025391,0.2783203-0.2470703,0.5146484-0.4335938,0.7099609c-0.1875,0.1953125-0.4130859,0.3457031-0.6777344,0.4501953
		c-0.265625,0.1054688-0.5605469,0.1572266-0.8867188,0.1572266c-0.3251953,0-0.6210938-0.0517578-0.8876953-0.1572266
		c-0.2666016-0.1044922-0.4941406-0.2548828-0.6826172-0.4501953s-0.3339844-0.4316406-0.4375-0.7099609
		c-0.1035156-0.2773438-0.1552734-0.5888672-0.1552734-0.9345703c0-0.3427734,0.0517578-0.6533203,0.1552734-0.9306641
		c0.1035156-0.2783203,0.2490234-0.5126953,0.4375-0.7060547c0.1884766-0.1923828,0.4160156-0.3408203,0.6826172-0.4462891
		C26.8867188,21.6181641,27.1826172,21.5654297,27.5078125,21.5654297z M27.5078125,25.25
		c0.3632812,0,0.6318359-0.1210938,0.8056641-0.3652344c0.1748047-0.2431641,0.2617188-0.6005859,0.2617188-1.0712891
		c0-0.4697266-0.0869141-0.828125-0.2617188-1.0751953c-0.1738281-0.2460938-0.4423828-0.3691406-0.8056641-0.3691406
		c-0.3681641,0-0.6396484,0.1240234-0.8154297,0.3720703c-0.1757812,0.2470703-0.2636719,0.6054688-0.2636719,1.0722656
		c0,0.4677734,0.0878906,0.8242188,0.2636719,1.0693359S27.1396484,25.25,27.5078125,25.25z"/>
	<path class="st2" d="M30.4785156,25.9941406v-4.3603516h0.6162109c0.1074219,0,0.1826172,0.0195312,0.2255859,0.0595703
		c0.0419922,0.0390625,0.0703125,0.1074219,0.0849609,0.2041016l0.0634766,0.5263672
		c0.15625-0.2685547,0.3388672-0.4814453,0.5488281-0.6367188c0.2089844-0.15625,0.4443359-0.234375,0.7050781-0.234375
		c0.2158203,0,0.3935547,0.0498047,0.5351562,0.1484375l-0.1357422,0.7871094
		c-0.0087891,0.0507812-0.0263672,0.0869141-0.0546875,0.1083984c-0.0283203,0.0205078-0.0673828,0.03125-0.1152344,0.03125
		c-0.0419922,0-0.1005859-0.0097656-0.1738281-0.0292969c-0.0742188-0.0205078-0.171875-0.0302734-0.2939453-0.0302734
		c-0.2177734,0-0.4052734,0.0605469-0.5605469,0.1806641c-0.15625,0.1210938-0.2880859,0.296875-0.3955078,0.5292969v2.7158203
		H30.4785156z"/>
</g>
</svg>
