<?xml version="1.0" encoding="utf-8"?>
<!-- Generator: Adobe Illustrator 22.1.0, SVG Export Plug-In . SVG Version: 6.00 Build 0)  -->
<svg version="1.1" id="Layer_1" xmlns="http://www.w3.org/2000/svg" xmlns:xlink="http://www.w3.org/1999/xlink" x="0px" y="0px"
	 viewBox="0 0 36 36" style="enable-background:new 0 0 36 36;" xml:space="preserve">
<style type="text/css">
	.st0{fill:#099EFF;}
	.st1{enable-background:new    ;}
	.st2{fill:#FFFFFF;}
</style>
<rect class="st0" width="36" height="36"/>
<g class="st1">
	<path class="st2" d="M8.4824219,14.1748047h1.0849609c0.1166992,0,0.2114258,0.0292969,0.2851562,0.0859375
		c0.0732422,0.0566406,0.1279297,0.1298828,0.1650391,0.2197266l1.699707,4.4101562
		c0.0566406,0.1425781,0.1108398,0.3007812,0.1625977,0.4716797c0.0517578,0.171875,0.1005859,0.3525391,0.1474609,0.5429688
		c0.0766602-0.3828125,0.171875-0.7216797,0.2851562-1.0146484l1.6948242-4.4101562
		c0.0302734-0.0771484,0.0834961-0.1464844,0.1601562-0.2099609s0.1713867-0.0957031,0.2851562-0.0957031h1.0849609
		l-2.9204102,7.2304688h-1.2148438L8.4824219,14.1748047z"/>
	<path class="st2" d="M20.8525391,14.1748047v1.0703125h-3.2050781V17.25h2.5244141v1.0351562h-2.5244141v2.0449219h3.2050781
		v1.0751953h-4.5600586v-7.2304688H20.8525391z"/>
	<path class="st2" d="M23.4072266,18.8603516v2.5449219H22.0625v-7.2304688h2.3544922
		c0.4833984,0,0.9013672,0.0576172,1.2548828,0.1708984s0.6445312,0.2714844,0.875,0.4746094
		s0.4003906,0.4462891,0.5097656,0.7294922c0.1103516,0.2841797,0.1660156,0.59375,0.1660156,0.9306641
		c0,0.3496094-0.0585938,0.6708984-0.1757812,0.9619141c-0.1171875,0.2919922-0.2910156,0.5429688-0.5253906,0.7529297
		c-0.2324219,0.2099609-0.5244141,0.3730469-0.875,0.4902344c-0.3496094,0.1162109-0.7597656,0.1748047-1.2294922,0.1748047
		H23.4072266z M23.4072266,17.8105469h1.0097656c0.2470703,0,0.4619141-0.03125,0.6455078-0.0927734
		s0.3339844-0.1503906,0.4550781-0.2646484c0.1191406-0.1152344,0.2089844-0.2548828,0.2695312-0.4199219
		s0.0898438-0.3496094,0.0898438-0.5527344c0-0.1933594-0.0292969-0.3681641-0.0898438-0.5253906
		c-0.0605469-0.15625-0.1503906-0.2900391-0.2695312-0.3994141c-0.1210938-0.1103516-0.2714844-0.1943359-0.4550781-0.2529297
		s-0.3984375-0.0878906-0.6455078-0.0878906h-1.0097656V17.8105469z"/>
</g>
</svg>
