<?xml version="1.0" encoding="utf-8"?>
<!-- Generator: Adobe Illustrator 22.1.0, SVG Export Plug-In . SVG Version: 6.00 Build 0)  -->
<svg version="1.1" id="Layer_1" xmlns="http://www.w3.org/2000/svg" xmlns:xlink="http://www.w3.org/1999/xlink" x="0px" y="0px"
	 viewBox="0 0 36 36" style="enable-background:new 0 0 36 36;" xml:space="preserve">
<style type="text/css">
	.st0{fill:#009EFF;}
	.st1{enable-background:new    ;}
	.st2{fill:#FFFFFF;}
</style>
<rect class="st0" width="36" height="36"/>
<g class="st1">
	<path class="st2" d="M2.7255859,20.8935547v-6.1450195h2.1206055c0.4023438,0,0.7460938,0.0380859,1.0307617,0.1152344
		c0.284668,0.0761719,0.5185547,0.1855469,0.7011719,0.3271484s0.3164062,0.3125,0.4013672,0.5136719
		c0.0854492,0.2011719,0.1279297,0.4277344,0.1279297,0.6806641c0,0.1435547-0.0214844,0.2822266-0.0639648,0.4140625
		s-0.1083984,0.2548828-0.1977539,0.3691406c-0.0888672,0.1152344-0.2026367,0.2197266-0.3398438,0.3125
		c-0.1376953,0.09375-0.3012695,0.1728516-0.4907227,0.2382812C6.859375,17.9086914,7.28125,18.3657227,7.28125,19.0869141
		c0,0.2607422-0.0493164,0.5019531-0.1484375,0.7226562c-0.0991211,0.2216797-0.2436523,0.4121094-0.4335938,0.5722656
		s-0.4238281,0.2851562-0.7011719,0.3759766c-0.277832,0.0908203-0.5952148,0.1357422-0.9521484,0.1357422H2.7255859z
		 M3.8686523,17.4086914h0.9140625c0.3876953,0,0.6826172-0.0703125,0.8837891-0.2119141s0.3017578-0.3671875,0.3017578-0.6757812
		c0-0.3203125-0.0908203-0.5488281-0.2719727-0.6845703c-0.1816406-0.1357422-0.4648438-0.2041016-0.8500977-0.2041016H3.8686523
		V17.4086914z M3.8686523,18.199707v1.8012695h1.1601562c0.2128906,0,0.390625-0.0253906,0.5336914-0.0761719
		s0.2578125-0.1191406,0.3442383-0.2041016s0.1484375-0.1845703,0.1870117-0.2978516
		c0.0380859-0.1132812,0.0571289-0.2333984,0.0571289-0.3613281c0-0.1323242-0.0209961-0.2524414-0.0634766-0.3579102
		c-0.0424805-0.1064453-0.109375-0.1972656-0.199707-0.2724609c-0.0908203-0.0751953-0.2070312-0.1328125-0.3486328-0.171875
		c-0.1416016-0.0400391-0.3129883-0.0595703-0.5141602-0.0595703H3.8686523z"/>
	<path class="st2" d="M9.4785156,15.2631836c0,0.0898438-0.0185547,0.1757812-0.0551758,0.2548828
		c-0.0371094,0.0791016-0.0859375,0.1484375-0.1464844,0.2080078c-0.0610352,0.0595703-0.1328125,0.1074219-0.2148438,0.1425781
		s-0.1699219,0.0527344-0.2636719,0.0527344c-0.090332,0-0.1762695-0.0175781-0.2568359-0.0527344
		s-0.1508789-0.0830078-0.2104492-0.1425781s-0.1069336-0.1289062-0.1425781-0.2080078
		c-0.0351562-0.0791016-0.0527344-0.1650391-0.0527344-0.2548828c0-0.09375,0.0175781-0.1816406,0.0527344-0.2636719
		c0.0356445-0.0820312,0.0830078-0.1533203,0.1425781-0.2128906s0.1298828-0.1064453,0.2104492-0.1425781
		c0.0805664-0.0351562,0.1665039-0.0527344,0.2568359-0.0527344c0.09375,0,0.1816406,0.0175781,0.2636719,0.0527344
		c0.0820312,0.0361328,0.1538086,0.0830078,0.2148438,0.1425781c0.0605469,0.0595703,0.109375,0.1308594,0.1464844,0.2128906
		C9.4599609,15.081543,9.4785156,15.1694336,9.4785156,15.2631836z M9.3212891,16.5336914v4.3598633H8.2714844v-4.3598633H9.3212891
		z"/>
	<path class="st2" d="M12.3686523,16.465332c0.3256836,0,0.6210938,0.0527344,0.8862305,0.1572266
		c0.2651367,0.1054688,0.4907227,0.2539062,0.6777344,0.4462891c0.1870117,0.1933594,0.331543,0.4277344,0.4335938,0.7060547
		c0.1020508,0.2773438,0.1533203,0.5878906,0.1533203,0.9306641c0,0.3452148-0.0512695,0.6567383-0.1533203,0.934082
		c-0.1020508,0.2783203-0.246582,0.5146484-0.4335938,0.7099609s-0.4125977,0.3457031-0.6777344,0.4501953
		c-0.2651367,0.1054688-0.5605469,0.1572266-0.8862305,0.1572266s-0.621582-0.0517578-0.8881836-0.1572266
		c-0.2661133-0.1044922-0.4936523-0.2548828-0.6821289-0.4501953s-0.3344727-0.4316406-0.4375-0.7099609
		c-0.1035156-0.2773438-0.1552734-0.5888672-0.1552734-0.934082c0-0.3427734,0.0517578-0.6533203,0.1552734-0.9306641
		c0.1030273-0.2783203,0.2490234-0.5126953,0.4375-0.7060547c0.1884766-0.1923828,0.4160156-0.3408203,0.6821289-0.4462891
		C11.7470703,16.5180664,12.0429688,16.465332,12.3686523,16.465332z M12.3686523,20.1494141
		c0.362793,0,0.6313477-0.1210938,0.8056641-0.3652344c0.1743164-0.2431641,0.2612305-0.6005859,0.2612305-1.0708008
		c0-0.4697266-0.0869141-0.828125-0.2612305-1.0751953C13,17.3920898,12.7314453,17.269043,12.3686523,17.269043
		c-0.3681641,0-0.6401367,0.1240234-0.815918,0.3720703c-0.1757812,0.2470703-0.2636719,0.6054688-0.2636719,1.0722656
		c0,0.4672852,0.0878906,0.8237305,0.2636719,1.0688477S12.0004883,20.1494141,12.3686523,20.1494141z"/>
	<path class="st2" d="M18.6181641,18.6264648c0.0410156,0.0976562,0.081543,0.1962891,0.1210938,0.2958984
		c0.0395508-0.1025391,0.0810547-0.203125,0.1235352-0.3017578c0.0424805-0.0996094,0.0874023-0.1943359,0.1357422-0.2851562
		l1.8188477-3.4042969c0.0224609-0.0419922,0.0458984-0.0761719,0.0703125-0.1015625s0.0507812-0.0439453,0.0810547-0.0556641
		c0.0292969-0.0107422,0.0625-0.0185547,0.0996094-0.0214844c0.0371094-0.0019531,0.0800781-0.0039062,0.1318359-0.0039062H22.0625
		v6.1450195h-1.0068359v-3.9692383c0-0.0732422,0.0019531-0.1542969,0.0068359-0.2421875
		c0.0039062-0.0878906,0.0097656-0.1767578,0.0185547-0.2675781l-1.8574219,3.4848633
		c-0.0419922,0.0791016-0.0976562,0.140625-0.1650391,0.1845703c-0.0683594,0.0439453-0.1479492,0.0654297-0.2382812,0.0654297
		h-0.1577148c-0.090332,0-0.1699219-0.0214844-0.237793-0.0654297s-0.1230469-0.1054688-0.1655273-0.1845703l-1.8828125-3.4975586
		c0.0112305,0.09375,0.019043,0.1845703,0.0234375,0.2744141c0.0039062,0.0888672,0.0063477,0.171875,0.0063477,0.2480469v3.9692383
		h-1.0073242v-6.1450195h0.862793c0.0507812,0,0.0947266,0.0019531,0.1318359,0.0039062
		c0.0366211,0.0029297,0.0698242,0.0107422,0.0996094,0.0214844c0.0297852,0.0117188,0.0576172,0.0302734,0.0830078,0.0556641
		s0.0493164,0.0595703,0.0722656,0.1015625l1.8359375,3.4130859C18.5322266,18.4350586,18.5771484,18.5288086,18.6181641,18.6264648
		z"/>
	<path class="st2" d="M26.6611328,20.8935547h-0.4716797c-0.0996094,0-0.1777344-0.0146484-0.234375-0.0449219
		c-0.0566406-0.0292969-0.0986328-0.0898438-0.1269531-0.1806641l-0.09375-0.3095703
		c-0.1103516,0.0986328-0.21875,0.1855469-0.3242188,0.2607422c-0.1074219,0.0751953-0.2167969,0.1386719-0.3300781,0.1894531
		s-0.234375,0.0888672-0.3613281,0.1142578c-0.1269531,0.0263672-0.2695312,0.0390625-0.4248047,0.0390625
		c-0.1845703,0-0.3544922-0.0253906-0.5107422-0.0751953c-0.1552734-0.0498047-0.2890625-0.1240234-0.4003906-0.2236328
		c-0.1123047-0.0996094-0.1992188-0.2236328-0.2617188-0.3710938s-0.09375-0.3193359-0.09375-0.515625
		c0-0.1650391,0.0429688-0.328125,0.1289062-0.4882812c0.0869141-0.1611328,0.2304688-0.3051758,0.4316406-0.4350586
		c0.2011719-0.1289062,0.46875-0.2363281,0.8037109-0.3212891c0.3349609-0.0859375,0.7490234-0.1279297,1.2451172-0.1279297
		v-0.2568359c0-0.2939453-0.0615234-0.5117188-0.1845703-0.6533203c-0.1240234-0.1416016-0.3027344-0.2119141-0.5380859-0.2119141
		c-0.1699219,0-0.3115234,0.0195312-0.4248047,0.0595703c-0.1132812,0.0390625-0.2119141,0.0839844-0.2958984,0.1337891
		c-0.0830078,0.0498047-0.1601562,0.09375-0.2304688,0.1337891c-0.0712891,0.0400391-0.1494141,0.0595703-0.234375,0.0595703
		c-0.0703125,0-0.1318359-0.0185547-0.1826172-0.0556641c-0.0517578-0.0361328-0.0927734-0.0820312-0.1240234-0.1357422
		l-0.1904297-0.3359375c0.5009766-0.4589844,1.1064453-0.6884766,1.8144531-0.6884766
		c0.2548828,0,0.4824219,0.0419922,0.6826172,0.1259766c0.1992188,0.0830078,0.3691406,0.1992188,0.5078125,0.3476562
		c0.1386719,0.1494141,0.2441406,0.3271484,0.3164062,0.5341797c0.0722656,0.2060547,0.1083984,0.4326172,0.1083984,0.6796875
		V20.8935547z M24.6210938,20.2392578c0.1074219,0,0.2070312-0.0097656,0.296875-0.0292969
		c0.0917969-0.0195312,0.1777344-0.0488281,0.2578125-0.0878906s0.1582031-0.0869141,0.234375-0.1445312
		c0.0742188-0.0566406,0.1503906-0.125,0.2265625-0.203125v-0.7294922c-0.3056641,0-0.5615234,0.0195312-0.7675781,0.0576172
		C24.6640625,19.140625,24.4990234,19.1904297,24.375,19.25c-0.125,0.0605469-0.2138672,0.1298828-0.265625,0.2099609
		c-0.0527344,0.0800781-0.0791016,0.1669922-0.0791016,0.2607422c0,0.1855469,0.0546875,0.3183594,0.1630859,0.3984375
		C24.3027344,20.1992188,24.4453125,20.2392578,24.6210938,20.2392578z"/>
	<path class="st2" d="M27.6933594,20.8935547v-4.3598633h0.6171875c0.1074219,0,0.1816406,0.0195312,0.2246094,0.0595703
		c0.0429688,0.0390625,0.0703125,0.1074219,0.0849609,0.2041016l0.0634766,0.5263672
		c0.15625-0.2685547,0.3388672-0.4814453,0.5488281-0.6367188c0.2089844-0.15625,0.4453125-0.234375,0.7050781-0.234375
		c0.2158203,0,0.3945312,0.0498047,0.5351562,0.1484375l-0.1347656,0.7871094
		c-0.0097656,0.0507812-0.0273438,0.0869141-0.0556641,0.1083984c-0.0283203,0.0205078-0.0673828,0.03125-0.1142578,0.03125
		c-0.0429688,0-0.1015625-0.0097656-0.1748047-0.0292969c-0.0732422-0.0205078-0.1708984-0.0302734-0.2939453-0.0302734
		c-0.2177734,0-0.4042969,0.0605469-0.5605469,0.1806641c-0.15625,0.1210938-0.2871094,0.296875-0.3945312,0.5292969v2.715332
		H27.6933594z"/>
	<path class="st2" d="M32.5976562,20.9619141c-0.3769531,0-0.6660156-0.1074219-0.8710938-0.3212891
		c-0.203125-0.2138672-0.3056641-0.5087891-0.3056641-0.8857422v-2.4350586h-0.4423828
		c-0.0566406,0-0.1054688-0.0185547-0.1464844-0.0556641c-0.0410156-0.0361328-0.0615234-0.0917969-0.0615234-0.1650391v-0.4169922
		l0.7021484-0.1142578l0.2207031-1.1904297c0.0107422-0.0566406,0.0371094-0.1005859,0.078125-0.1318359
		s0.0927734-0.046875,0.1552734-0.046875h0.5439453v1.3730469h1.1474609v0.7480469h-1.1474609v2.362793
		c0,0.1357422,0.0341797,0.2421875,0.1015625,0.3183594c0.0683594,0.0761719,0.1591797,0.1152344,0.2724609,0.1152344
		c0.0654297,0,0.1201172-0.0078125,0.1630859-0.0234375c0.0449219-0.015625,0.0820312-0.0322266,0.1152344-0.0488281
		c0.0332031-0.0175781,0.0615234-0.0332031,0.0878906-0.0488281c0.0253906-0.015625,0.0507812-0.0234375,0.0761719-0.0234375
		c0.03125,0,0.0566406,0.0078125,0.0761719,0.0234375s0.0410156,0.0380859,0.0634766,0.0693359l0.3154297,0.5107422
		c-0.1542969,0.1269531-0.3300781,0.2236328-0.5273438,0.2890625C33.015625,20.9287109,32.8105469,20.9619141,32.5976562,20.9619141
		z"/>
</g>
</svg>
