<?xml version="1.0" encoding="utf-8"?>
<!-- Generator: Adobe Illustrator 22.1.0, SVG Export Plug-In . SVG Version: 6.00 Build 0)  -->
<svg version="1.1" id="Layer_1" xmlns="http://www.w3.org/2000/svg" xmlns:xlink="http://www.w3.org/1999/xlink" x="0px" y="0px"
	 viewBox="0 0 36 36" style="enable-background:new 0 0 36 36;" xml:space="preserve">
<style type="text/css">
	.st0{fill:#009EFF;}
	.st1{enable-background:new    ;}
	.st2{fill:#FFFFFF;}
</style>
<rect class="st0" width="36" height="36"/>
<g class="st1">
	<path class="st2" d="M5.8286133,15.7939453V9.6484375h2.1206055c0.4023438,0,0.7460938,0.0380859,1.0307617,0.1152344
		c0.284668,0.0761719,0.5185547,0.1855469,0.7011719,0.3271484s0.3164062,0.3125,0.4013672,0.5136719
		c0.0854492,0.2011719,0.1279297,0.4277344,0.1279297,0.6806641c0,0.1435547-0.0214844,0.2822266-0.0639648,0.4140625
		s-0.1083984,0.2548828-0.1977539,0.3691406c-0.0888672,0.1152344-0.2026367,0.2197266-0.3398438,0.3125
		c-0.1376953,0.09375-0.3012695,0.1728516-0.4907227,0.2382812c0.8442383,0.1894531,1.2661133,0.6464844,1.2661133,1.3681641
		c0,0.2607422-0.0493164,0.5019531-0.1484375,0.7226562c-0.0991211,0.2216797-0.2436523,0.4121094-0.4335938,0.5722656
		s-0.4238281,0.2851562-0.7011719,0.3759766c-0.277832,0.0908203-0.5952148,0.1357422-0.9521484,0.1357422H5.8286133z
		 M6.9716797,12.3085938h0.9140625c0.3876953,0,0.6826172-0.0703125,0.8837891-0.2119141s0.3017578-0.3671875,0.3017578-0.6757812
		c0-0.3203125-0.0908203-0.5488281-0.2719727-0.6845703c-0.1816406-0.1357422-0.4648438-0.2041016-0.8500977-0.2041016H6.9716797
		V12.3085938z M6.9716797,13.0996094v1.8017578h1.1601562c0.2128906,0,0.390625-0.0253906,0.5336914-0.0761719
		s0.2578125-0.1191406,0.3442383-0.2041016s0.1484375-0.1845703,0.1870117-0.2978516
		c0.0380859-0.1132812,0.0571289-0.2333984,0.0571289-0.3613281c0-0.1328125-0.0209961-0.2529297-0.0634766-0.3583984
		c-0.0424805-0.1064453-0.109375-0.1972656-0.199707-0.2724609c-0.0908203-0.0751953-0.2070312-0.1328125-0.3486328-0.171875
		c-0.1416016-0.0400391-0.3129883-0.0595703-0.5141602-0.0595703H6.9716797z"/>
	<path class="st2" d="M12.5092773,14.8505859h2.4609375v0.9433594h-3.6040039V9.6484375h1.1430664V14.8505859z"/>
	<path class="st2" d="M21.1621094,15.7939453h-0.8837891c-0.0996094,0-0.1806641-0.0244141-0.2441406-0.0742188
		c-0.0644531-0.0498047-0.1103516-0.1113281-0.1386719-0.1845703L19.4365234,14.28125h-2.5454102l-0.4589844,1.2539062
		c-0.0224609,0.0644531-0.0673828,0.1240234-0.1337891,0.1777344c-0.0668945,0.0537109-0.1479492,0.0810547-0.2446289,0.0810547
		h-0.8881836l2.4140625-6.1455078h1.1689453L21.1621094,15.7939453z M17.1845703,13.4736328h1.9589844l-0.7480469-2.0449219
		c-0.0336914-0.0898438-0.0712891-0.1972656-0.1123047-0.3203125c-0.0415039-0.1230469-0.081543-0.2568359-0.1210938-0.4013672
		c-0.0400391,0.1445312-0.0786133,0.2783203-0.1171875,0.4033203c-0.0380859,0.125-0.0756836,0.2333984-0.1123047,0.3271484
		L17.1845703,13.4736328z"/>
	<path class="st2" d="M25.0888672,10.7666016c-0.03125,0.0615234-0.0673828,0.1054688-0.1083984,0.1308594
		c-0.0410156,0.0263672-0.0898438,0.0390625-0.1464844,0.0390625s-0.1201172-0.0224609-0.1914062-0.0664062
		c-0.0703125-0.0439453-0.1542969-0.0927734-0.25-0.1464844c-0.0966797-0.0537109-0.2089844-0.1025391-0.3378906-0.1464844
		s-0.28125-0.0664062-0.4570312-0.0664062c-0.1591797,0-0.296875,0.0195312-0.4140625,0.0576172
		c-0.1181641,0.0380859-0.2167969,0.0917969-0.2978516,0.1591797c-0.0810547,0.0683594-0.140625,0.1494141-0.1806641,0.2451172
		c-0.0400391,0.0947266-0.0595703,0.1992188-0.0595703,0.3125c0,0.1435547,0.0400391,0.2646484,0.1210938,0.3603516
		c0.0810547,0.0966797,0.1875,0.1787109,0.3212891,0.2470703c0.1328125,0.0673828,0.2841797,0.1289062,0.4541016,0.1826172
		s0.34375,0.1113281,0.5205078,0.171875c0.1777344,0.0615234,0.3505859,0.1318359,0.5214844,0.2128906
		c0.1699219,0.0810547,0.3212891,0.1826172,0.4541016,0.3056641c0.1337891,0.1230469,0.2402344,0.2744141,0.3212891,0.453125
		c0.0800781,0.1777344,0.1210938,0.3945312,0.1210938,0.6503906c0,0.2773438-0.0478516,0.5371094-0.1425781,0.7792969
		s-0.2333984,0.453125-0.4160156,0.6337891c-0.1835938,0.1796875-0.40625,0.3212891-0.6699219,0.4248047
		s-0.5654297,0.1552734-0.9052734,0.1552734c-0.1953125,0-0.3876953-0.0195312-0.578125-0.0576172
		c-0.1894531-0.0380859-0.3720703-0.0927734-0.5458984-0.1640625c-0.1738281-0.0703125-0.3369141-0.1552734-0.4882812-0.2548828
		c-0.1523438-0.0986328-0.2871094-0.2089844-0.40625-0.3310547l0.3310547-0.5488281
		c0.03125-0.0390625,0.0693359-0.0722656,0.1132812-0.0996094c0.0439453-0.0263672,0.0927734-0.0400391,0.1464844-0.0400391
		c0.0703125,0,0.1474609,0.0292969,0.2294922,0.0869141s0.1787109,0.1220703,0.2910156,0.1933594
		s0.2431641,0.1357422,0.3955078,0.1933594c0.1513672,0.0576172,0.3330078,0.0869141,0.5458984,0.0869141
		c0.3261719,0,0.578125-0.0771484,0.7568359-0.2314453c0.1777344-0.1542969,0.2675781-0.3759766,0.2675781-0.6650391
		c0-0.1611328-0.0410156-0.2929688-0.1210938-0.3955078c-0.0810547-0.1015625-0.1875-0.1875-0.3212891-0.2568359
		c-0.1328125-0.0693359-0.2841797-0.1279297-0.4550781-0.1767578c-0.1699219-0.0478516-0.3427734-0.1005859-0.5175781-0.1572266
		c-0.1757812-0.0566406-0.3486328-0.1240234-0.5185547-0.2041016c-0.1699219-0.0791016-0.3222656-0.1826172-0.4550781-0.3095703
		c-0.1328125-0.1279297-0.2402344-0.2871094-0.3212891-0.4785156C21.6152344,11.8603516,21.5742188,11.625,21.5742188,11.34375
		c0-0.2236328,0.0449219-0.4414062,0.1337891-0.6542969c0.0898438-0.2119141,0.2197266-0.4003906,0.3916016-0.5654297
		c0.1708984-0.1640625,0.3818359-0.2958984,0.6308594-0.3945312c0.2490234-0.0996094,0.5341797-0.1494141,0.8544922-0.1494141
		c0.3623047,0,0.6972656,0.0566406,1.0029297,0.1699219c0.3056641,0.1142578,0.5664062,0.2724609,0.7822266,0.4765625
		L25.0888672,10.7666016z"/>
	<path class="st2" d="M30.6865234,9.6484375v0.9394531h-1.8486328v5.2060547h-1.1435547v-5.2060547h-1.8574219V9.6484375H30.6865234
		z"/>
</g>
<g class="st1">
	<path class="st2" d="M5.934082,26.0068359c-0.0253906,0.0654297-0.0581055,0.1220703-0.0976562,0.1699219
		s-0.0849609,0.0888672-0.1357422,0.1210938c-0.0512695,0.0322266-0.1049805,0.0576172-0.1616211,0.0742188
		c-0.0566406,0.0175781-0.1118164,0.0253906-0.1655273,0.0253906H4.9311523l2.4819336-6.3486328
		c0.0483398-0.1191406,0.1176758-0.2109375,0.2084961-0.2744141s0.199707-0.0957031,0.3271484-0.0957031h0.4462891
		L5.934082,26.0068359z"/>
	<path class="st2" d="M10.5581055,25.9941406v-6.1455078h2.1206055c0.4023438,0,0.7460938,0.0380859,1.0307617,0.1152344
		c0.284668,0.0761719,0.5185547,0.1855469,0.7011719,0.3271484s0.3164062,0.3125,0.4013672,0.5136719
		c0.0854492,0.2011719,0.1279297,0.4277344,0.1279297,0.6806641c0,0.1435547-0.0214844,0.2822266-0.0639648,0.4140625
		s-0.1083984,0.2548828-0.1977539,0.3691406c-0.0888672,0.1152344-0.2026367,0.2197266-0.3398438,0.3125
		c-0.1376953,0.09375-0.3012695,0.1728516-0.4907227,0.2382812c0.8442383,0.1894531,1.2661133,0.6464844,1.2661133,1.3681641
		c0,0.2607422-0.0493164,0.5019531-0.1484375,0.7226562c-0.0991211,0.2216797-0.2436523,0.4121094-0.4335938,0.5722656
		s-0.4238281,0.2851562-0.7011719,0.3759766c-0.277832,0.0908203-0.5952148,0.1357422-0.9521484,0.1357422H10.5581055z
		 M11.7011719,22.5087891h0.9140625c0.3876953,0,0.6826172-0.0703125,0.8837891-0.2119141s0.3017578-0.3671875,0.3017578-0.6757812
		c0-0.3203125-0.0908203-0.5488281-0.2719727-0.6845703c-0.1816406-0.1357422-0.4648438-0.2041016-0.8500977-0.2041016h-0.9775391
		V22.5087891z M11.7011719,23.2998047v1.8017578h1.1601562c0.2128906,0,0.390625-0.0253906,0.5336914-0.0761719
		s0.2578125-0.1191406,0.3442383-0.2041016s0.1484375-0.1845703,0.1870117-0.2978516
		c0.0380859-0.1132812,0.0571289-0.2333984,0.0571289-0.3613281c0-0.1328125-0.0209961-0.2529297-0.0634766-0.3583984
		c-0.0424805-0.1064453-0.109375-0.1972656-0.199707-0.2724609c-0.0908203-0.0751953-0.2070312-0.1328125-0.3486328-0.171875
		c-0.1416016-0.0400391-0.3129883-0.0595703-0.5141602-0.0595703H11.7011719z"/>
	<path class="st2" d="M17.2392578,25.0507812h2.4609375v0.9433594h-3.6040039v-6.1455078h1.1430664V25.0507812z"/>
	<path class="st2" d="M25.8925781,25.9941406h-0.8847656c-0.0996094,0-0.1806641-0.0244141-0.2441406-0.0742188
		c-0.0644531-0.0498047-0.109375-0.1113281-0.1386719-0.1845703l-0.4589844-1.2539062h-2.5449219l-0.4589844,1.2539062
		c-0.0234375,0.0644531-0.0683594,0.1240234-0.1347656,0.1777344s-0.1474609,0.0810547-0.2441406,0.0810547h-0.8886719
		l2.4140625-6.1455078h1.1699219L25.8925781,25.9941406z M21.9140625,23.6738281h1.9589844L23.125,21.6289062
		c-0.0332031-0.0898438-0.0712891-0.1972656-0.1123047-0.3203125c-0.0419922-0.1230469-0.0810547-0.2568359-0.1210938-0.4013672
		c-0.0400391,0.1445312-0.0791016,0.2783203-0.1171875,0.4033203s-0.0751953,0.2333984-0.1123047,0.3271484L21.9140625,23.6738281z"
		/>
	<path class="st2" d="M30.2314453,19.8486328v0.9394531h-1.8486328v5.2060547h-1.1425781v-5.2060547h-1.8574219v-0.9394531
		H30.2314453z"/>
</g>
</svg>
