<?xml version="1.0" encoding="utf-8"?>
<!-- Generator: Adobe Illustrator 22.1.0, SVG Export Plug-In . SVG Version: 6.00 Build 0)  -->
<svg version="1.1" id="Layer_1" xmlns="http://www.w3.org/2000/svg" xmlns:xlink="http://www.w3.org/1999/xlink" x="0px" y="0px"
	 viewBox="0 0 36 36" style="enable-background:new 0 0 36 36;" xml:space="preserve">
<style type="text/css">
	.st0{fill:#009EFF;}
	.st1{enable-background:new    ;}
</style>
<g id="keyline">
	<rect class="st0" width="36" height="1"/>
	<rect y="35" class="st0" width="36" height="1"/>
	<rect class="st0" width="1" height="36"/>
	<rect x="35" class="st0" width="1" height="36"/>
</g>
<g class="st1">
	<path class="st0" d="M3.4506836,20.8945312v-6.1455078H5.4375c0.3769531,0,0.6992188,0.0380859,0.9658203,0.1147461
		c0.2670898,0.0766602,0.4858398,0.1855469,0.6572266,0.3271484s0.2963867,0.3129883,0.3764648,0.5141602
		c0.0795898,0.2011719,0.1191406,0.4282227,0.1191406,0.6801758c0,0.1445312-0.0200195,0.2827148-0.0595703,0.4145508
		c-0.0400391,0.1318359-0.1015625,0.2548828-0.1850586,0.3696289c-0.0839844,0.1147461-0.1899414,0.21875-0.3188477,0.3125
		c-0.1289062,0.0932617-0.2822266,0.1728516-0.4599609,0.237793c0.7910156,0.1899414,1.1870117,0.6459961,1.1870117,1.3681641
		c0,0.2617188-0.046875,0.5019531-0.1396484,0.7226562s-0.2285156,0.4121094-0.40625,0.5722656
		s-0.3969727,0.2851562-0.6567383,0.375C6.2568359,20.8496094,5.9594727,20.8945312,5.625,20.8945312H3.4506836z
		 M4.5219727,17.409668h0.855957c0.3637695,0,0.6396484-0.0708008,0.828125-0.2124023
		c0.1884766-0.1420898,0.2827148-0.3671875,0.2827148-0.6757812c0-0.3203125-0.0849609-0.5483398-0.2543945-0.6845703
		c-0.1699219-0.1357422-0.4355469-0.2041016-0.796875-0.2041016H4.5219727V17.409668z M4.5219727,18.2001953v1.8017578h1.0869141
		c0.1992188,0,0.3657227-0.0253906,0.5-0.0761719C6.2426758,19.875,6.3500977,19.8066406,6.4311523,19.7216797
		s0.1396484-0.1845703,0.175293-0.2978516S6.6601562,19.1904297,6.6601562,19.0625
		c0-0.1328125-0.0200195-0.2524414-0.0595703-0.3588867c-0.0400391-0.1064453-0.1025391-0.1967773-0.1870117-0.2719727
		c-0.0854492-0.0751953-0.1938477-0.1323242-0.3266602-0.171875c-0.1328125-0.0400391-0.293457-0.0595703-0.4819336-0.0595703
		H4.5219727z"/>
	<path class="st0" d="M8.5839844,20.8945312v-4.3603516h0.5771484c0.1010742,0,0.1713867,0.0195312,0.2109375,0.0595703
		c0.0400391,0.0395508,0.0664062,0.1074219,0.0795898,0.2036133l0.0600586,0.5273438
		c0.1459961-0.2695312,0.3168945-0.4819336,0.5136719-0.6376953c0.1962891-0.1557617,0.4165039-0.2338867,0.6611328-0.2338867
		c0.2016602,0,0.3686523,0.0498047,0.5014648,0.1489258l-0.1274414,0.7861328
		c-0.0078125,0.0512695-0.0249023,0.0874023-0.0517578,0.1083984c-0.0263672,0.0214844-0.0620117,0.0317383-0.1074219,0.0317383
		c-0.0395508,0-0.0942383-0.0097656-0.1630859-0.0292969c-0.0693359-0.0200195-0.1606445-0.0297852-0.2749023-0.0297852
		c-0.2045898,0-0.3798828,0.0600586-0.5258789,0.1801758c-0.1459961,0.1206055-0.269043,0.296875-0.3701172,0.5292969v2.7158203
		H8.5839844z"/>
	<path class="st0" d="M13.581543,16.4658203c0.3051758,0,0.5820312,0.0527344,0.8300781,0.1572266
		c0.2480469,0.1049805,0.4599609,0.2539062,0.6352539,0.4462891c0.175293,0.1928711,0.3105469,0.4282227,0.40625,0.7055664
		c0.0957031,0.277832,0.1430664,0.5878906,0.1430664,0.9306641c0,0.3452148-0.0473633,0.6577148-0.1430664,0.9350586
		s-0.230957,0.5146484-0.40625,0.7099609s-0.387207,0.3457031-0.6352539,0.4501953
		c-0.2480469,0.1054688-0.5249023,0.1582031-0.8300781,0.1582031c-0.3056641,0-0.5830078-0.0527344-0.8325195-0.1582031
		c-0.2495117-0.1044922-0.4624023-0.2548828-0.6391602-0.4501953c-0.1762695-0.1953125-0.3129883-0.4326172-0.4101562-0.7099609
		c-0.0966797-0.2773438-0.1455078-0.5898438-0.1455078-0.9350586c0-0.3427734,0.0488281-0.652832,0.1455078-0.9306641
		c0.097168-0.2773438,0.2338867-0.5126953,0.4101562-0.7055664c0.1767578-0.1923828,0.3896484-0.3413086,0.6391602-0.4462891
		C12.9985352,16.5185547,13.2758789,16.4658203,13.581543,16.4658203z M13.581543,20.1503906
		c0.3398438,0,0.5913086-0.1210938,0.7543945-0.3652344c0.1635742-0.2441406,0.2451172-0.6005859,0.2451172-1.0708008
		s-0.081543-0.8286133-0.2451172-1.0751953c-0.1630859-0.246582-0.4145508-0.3701172-0.7543945-0.3701172
		c-0.3452148,0-0.6000977,0.1240234-0.7646484,0.3720703s-0.2470703,0.6054688-0.2470703,1.0732422
		c0,0.4672852,0.0825195,0.8237305,0.2470703,1.0688477S13.2363281,20.1503906,13.581543,20.1503906z"/>
	<path class="st0" d="M15.8671875,16.5341797h0.7807617c0.0742188,0,0.1367188,0.0185547,0.1870117,0.0551758
		s0.0820312,0.0834961,0.0957031,0.1401367l0.5854492,2.3291016c0.0317383,0.1269531,0.0576172,0.2519531,0.0776367,0.3740234
		c0.0195312,0.1220703,0.0390625,0.2431641,0.0576172,0.3652344c0.0292969-0.1220703,0.0600586-0.2431641,0.0932617-0.3652344
		s0.0683594-0.2470703,0.105957-0.3740234l0.6767578-2.3374023c0.0161133-0.0566406,0.0478516-0.1035156,0.0957031-0.140625
		c0.0478516-0.0366211,0.1035156-0.0551758,0.1669922-0.0551758h0.4345703c0.0712891,0,0.1308594,0.0185547,0.1787109,0.0551758
		c0.0478516,0.0371094,0.0791016,0.0839844,0.0957031,0.140625l0.6689453,2.3803711
		c0.0351562,0.1210938,0.0664062,0.2402344,0.09375,0.3544922s0.0546875,0.2294922,0.0820312,0.3466797
		c0.0175781-0.1220703,0.0390625-0.2441406,0.0605469-0.3652344c0.0234375-0.1230469,0.0517578-0.2480469,0.0859375-0.3789062
		l0.6054688-2.3291016c0.0136719-0.0566406,0.0449219-0.1035156,0.0957031-0.1401367s0.109375-0.0551758,0.1757812-0.0551758
		h0.7441406l-1.2939453,4.3603516h-0.7919922c-0.0859375,0-0.1464844-0.0625-0.1835938-0.1875L19.1054688,18.1875
		c-0.0244141-0.0825195-0.046875-0.1650391-0.0664062-0.2490234c-0.0195312-0.0834961-0.0371094-0.1660156-0.0498047-0.2485352
		c-0.0161133,0.0849609-0.0332031,0.1694336-0.0517578,0.2529297s-0.0395508,0.1679688-0.0634766,0.2529297l-0.7451172,2.5112305
		c-0.0371094,0.125-0.1088867,0.1875-0.2148438,0.1875h-0.7524414L15.8671875,16.5341797z"/>
	<path class="st0" d="M25.0898438,17.3837891c-0.0263672,0.0454102-0.0546875,0.0776367-0.0839844,0.0957031
		c-0.0292969,0.0185547-0.0664062,0.027832-0.1113281,0.027832c-0.046875,0-0.0986328-0.0141602-0.1523438-0.0424805
		c-0.0546875-0.0283203-0.1181641-0.0600586-0.1894531-0.0957031c-0.0722656-0.0351562-0.1542969-0.0673828-0.2451172-0.0957031
		c-0.0917969-0.0283203-0.2001953-0.0424805-0.3251953-0.0424805c-0.1933594,0-0.3457031,0.0439453-0.4570312,0.1318359
		s-0.1679688,0.2026367-0.1679688,0.3442383c0,0.0932617,0.0292969,0.1723633,0.0859375,0.2358398
		C23.5,18.0068359,23.5761719,18.0625,23.6699219,18.1108398c0.0947266,0.0483398,0.2011719,0.0913086,0.3203125,0.1293945
		c0.1201172,0.0385742,0.2421875,0.0800781,0.3671875,0.1254883s0.2460938,0.097168,0.3662109,0.1552734
		s0.2255859,0.1318359,0.3212891,0.2207031c0.09375,0.0893555,0.1689453,0.1962891,0.2265625,0.3208008
		c0.0566406,0.125,0.0859375,0.2753906,0.0859375,0.4511719c0,0.2089844-0.0371094,0.4023438-0.1074219,0.5800781
		c-0.0722656,0.1767578-0.1777344,0.3300781-0.3154297,0.4589844s-0.3085938,0.2285156-0.5117188,0.3007812
		s-0.4365234,0.109375-0.6982422,0.109375c-0.140625,0-0.2792969-0.0136719-0.4121094-0.0410156
		c-0.1347656-0.0273438-0.2636719-0.0644531-0.3867188-0.1123047s-0.2382812-0.1044922-0.3427734-0.1699219
		s-0.1962891-0.1357422-0.2763672-0.2119141l0.2265625-0.4003906c0.0292969-0.0478516,0.0644531-0.0849609,0.1035156-0.1103516
		c0.0400391-0.0253906,0.0898438-0.0380859,0.1513672-0.0380859s0.1191406,0.0185547,0.1728516,0.0546875
		c0.0546875,0.0371094,0.1181641,0.0771484,0.1894531,0.1191406c0.0722656,0.0429688,0.15625,0.0820312,0.2529297,0.1191406
		s0.2197266,0.0546875,0.3681641,0.0546875c0.1171875,0,0.2167969-0.0136719,0.3007812-0.0439453
		s0.1523438-0.0693359,0.2070312-0.1162109c0.0546875-0.0488281,0.0947266-0.1054688,0.1191406-0.1679688
		c0.0253906-0.0644531,0.0390625-0.1308594,0.0390625-0.1982422c0-0.1025391-0.0292969-0.1855469-0.0859375-0.2509766
		C24.2939453,19.3847656,24.21875,19.328125,24.125,19.2792969c-0.0947266-0.0478516-0.203125-0.0917969-0.3232422-0.1289062
		c-0.1201172-0.0390625-0.2441406-0.0800781-0.3701172-0.1259766c-0.1269531-0.0454102-0.25-0.0981445-0.3710938-0.1591797
		c-0.1201172-0.0610352-0.2285156-0.1381836-0.3222656-0.2319336c-0.09375-0.0932617-0.1699219-0.2080078-0.2265625-0.3442383
		c-0.0566406-0.1357422-0.0859375-0.300293-0.0859375-0.4926758c0-0.1787109,0.0332031-0.3486328,0.0996094-0.5102539
		c0.0664062-0.1611328,0.1640625-0.3022461,0.2929688-0.4228516c0.1289062-0.1201172,0.2890625-0.2167969,0.4814453-0.2890625
		s0.4150391-0.1083984,0.6669922-0.1083984c0.28125,0,0.5371094,0.0498047,0.7685547,0.1489258
		s0.4238281,0.2294922,0.5771484,0.3911133L25.0898438,17.3837891z"/>
	<path class="st0" d="M27.8339844,16.4658203c0.2568359,0,0.4941406,0.0439453,0.7099609,0.1318359
		s0.4033203,0.2163086,0.5595703,0.3847656s0.2792969,0.3754883,0.3671875,0.6206055
		c0.0869141,0.2451172,0.1308594,0.5249023,0.1308594,0.8393555c0,0.0791016-0.0039062,0.1450195-0.0097656,0.1977539
		c-0.0068359,0.0522461-0.0195312,0.0932617-0.0361328,0.1230469c-0.0175781,0.0297852-0.0400391,0.0507812-0.0693359,0.0639648
		c-0.0292969,0.0126953-0.0664062,0.019043-0.1113281,0.019043h-2.5253906
		c0.0292969,0.4477539,0.1425781,0.7768555,0.3378906,0.9858398c0.1972656,0.2089844,0.4570312,0.3144531,0.78125,0.3144531
		c0.1591797,0,0.296875-0.0195312,0.4121094-0.0595703s0.2167969-0.0830078,0.3027344-0.1318359
		c0.0859375-0.0478516,0.1621094-0.0917969,0.2265625-0.1308594c0.0654297-0.0410156,0.1289062-0.0605469,0.1894531-0.0605469
		c0.0400391,0,0.0742188,0.0087891,0.1035156,0.0253906c0.0292969,0.0175781,0.0546875,0.0410156,0.0761719,0.0722656
		l0.2861328,0.3828125c-0.1083984,0.1367188-0.2314453,0.25-0.3662109,0.3417969
		c-0.1347656,0.0927734-0.2773438,0.1660156-0.4238281,0.2216797c-0.1474609,0.0556641-0.2978516,0.09375-0.4501953,0.1162109
		c-0.1533203,0.0234375-0.3007812,0.0351562-0.4443359,0.0351562c-0.2832031,0-0.5478516-0.0507812-0.7929688-0.1513672
		c-0.2441406-0.1005859-0.4560547-0.2490234-0.6367188-0.4462891c-0.1796875-0.1972656-0.3222656-0.4414062-0.4257812-0.7304688
		c-0.1035156-0.2910156-0.1552734-0.6269531-0.1552734-1.0102539c0-0.2973633,0.0449219-0.5771484,0.1357422-0.8393555
		c0.0898438-0.2617188,0.21875-0.4897461,0.3876953-0.684082c0.1689453-0.1938477,0.3740234-0.3476562,0.6171875-0.4609375
		S27.5273438,16.4658203,27.8339844,16.4658203z M27.8535156,17.2182617c-0.2871094,0-0.5117188,0.0864258-0.6738281,0.2592773
		s-0.265625,0.4179688-0.3105469,0.7353516h1.8476562c0-0.1362305-0.0166016-0.2641602-0.0507812-0.3847656
		c-0.0351562-0.1206055-0.0878906-0.2260742-0.1601562-0.3164062c-0.0712891-0.0908203-0.1621094-0.1621094-0.2705078-0.2148438
		C28.1269531,17.2446289,27.9990234,17.2182617,27.8535156,17.2182617z"/>
	<path class="st0" d="M30.4023438,20.8945312v-4.3603516h0.5771484c0.1005859,0,0.1708984,0.0195312,0.2109375,0.0595703
		c0.0400391,0.0395508,0.0664062,0.1074219,0.0791016,0.2036133l0.0605469,0.5273438
		c0.1464844-0.2695312,0.3164062-0.4819336,0.5136719-0.6376953c0.1962891-0.1557617,0.4160156-0.2338867,0.6611328-0.2338867
		c0.2021484,0,0.3681641,0.0498047,0.5009766,0.1489258l-0.1269531,0.7861328
		c-0.0078125,0.0512695-0.0253906,0.0874023-0.0517578,0.1083984c-0.0263672,0.0214844-0.0615234,0.0317383-0.1074219,0.0317383
		c-0.0400391,0-0.0947266-0.0097656-0.1630859-0.0292969c-0.0693359-0.0200195-0.1601562-0.0297852-0.2753906-0.0297852
		c-0.2041016,0-0.3789062,0.0600586-0.5253906,0.1801758c-0.1464844,0.1206055-0.2695312,0.296875-0.3701172,0.5292969v2.7158203
		H30.4023438z"/>
</g>
</svg>
