<?xml version="1.0" encoding="utf-8"?>
<!-- Generator: Adobe Illustrator 22.1.0, SVG Export Plug-In . SVG Version: 6.00 Build 0)  -->
<svg version="1.1" id="Layer_1" xmlns="http://www.w3.org/2000/svg" xmlns:xlink="http://www.w3.org/1999/xlink" x="0px" y="0px"
	 viewBox="0 0 36 36" style="enable-background:new 0 0 36 36;" xml:space="preserve">
<style type="text/css">
	.st0{fill:#009EFF;}
	.st1{enable-background:new    ;}
	.st2{fill:#FFFFFF;}
</style>
<rect class="st0" width="36" height="36"/>
<g class="st1">
	<path class="st2" d="M8.0581055,19.4453125c0.0585938,0,0.1088867,0.0234375,0.1513672,0.0722656l0.4223633,0.4882812
		c-0.2338867,0.3085938-0.5209961,0.5458984-0.8623047,0.7099609c-0.3413086,0.1650391-0.7504883,0.2470703-1.2285156,0.2470703
		c-0.4272461,0-0.8115234-0.078125-1.152832-0.234375s-0.6323242-0.3720703-0.8740234-0.6503906
		c-0.2416992-0.2773438-0.4267578-0.609375-0.5556641-0.9941406c-0.1289062-0.3852539-0.1928711-0.8061523-0.1928711-1.262207
		c0-0.4619141,0.0712891-0.8847656,0.2148438-1.2685547s0.3452148-0.7148438,0.6054688-0.9926758
		c0.2602539-0.2773438,0.5712891-0.4936523,0.9335938-0.6479492s0.7626953-0.2314453,1.2006836-0.2314453
		c0.4272461,0,0.8012695,0.0727539,1.1210938,0.21875s0.59375,0.3393555,0.8222656,0.5800781l-0.3583984,0.53125
		c-0.0209961,0.0341797-0.0483398,0.0639648-0.081543,0.0893555s-0.0791016,0.0380859-0.137207,0.0380859
		c-0.0615234,0-0.1235352-0.0253906-0.1875-0.0761719c-0.0634766-0.0512695-0.1445312-0.1064453-0.2426758-0.1660156
		s-0.2226562-0.1147461-0.3725586-0.1655273c-0.1499023-0.0512695-0.340332-0.0766602-0.5712891-0.0766602
		c-0.2709961,0-0.5195312,0.050293-0.746582,0.1508789s-0.4223633,0.2441406-0.5854492,0.4311523
		c-0.1635742,0.1870117-0.2910156,0.4145508-0.3823242,0.6821289c-0.0917969,0.2680664-0.1376953,0.5688477-0.1376953,0.9033203
		c0,0.3457031,0.0458984,0.6533203,0.1376953,0.9223633c0.0913086,0.2695312,0.2158203,0.4960938,0.3720703,0.6796875
		c0.1567383,0.1845703,0.3413086,0.3251953,0.5537109,0.4228516c0.2124023,0.0986328,0.4404297,0.1474609,0.6850586,0.1474609
		c0.1459961,0,0.277832-0.0097656,0.3959961-0.0253906c0.1181641-0.0175781,0.2270508-0.0449219,0.3266602-0.0820312
		c0.0996094-0.0361328,0.1938477-0.0839844,0.2827148-0.1416016s0.1772461-0.1298828,0.2646484-0.2148438
		c0.0268555-0.0253906,0.0546875-0.0458984,0.0839844-0.0615234C7.9916992,19.453125,8.0239258,19.4453125,8.0581055,19.4453125z"/>
	<path class="st2" d="M11.128418,16.4658203c0.3051758,0,0.5820312,0.0527344,0.8300781,0.1572266
		c0.2480469,0.1049805,0.4599609,0.2539062,0.6352539,0.4462891C12.769043,17.262207,12.9042969,17.4975586,13,17.7749023
		c0.0957031,0.277832,0.1430664,0.5878906,0.1430664,0.9306641c0,0.3452148-0.0473633,0.6577148-0.1430664,0.9350586
		s-0.230957,0.5146484-0.40625,0.7099609s-0.387207,0.3457031-0.6352539,0.4501953
		c-0.2480469,0.1054688-0.5249023,0.1582031-0.8300781,0.1582031c-0.3056641,0-0.5830078-0.0527344-0.8325195-0.1582031
		c-0.2495117-0.1044922-0.4624023-0.2548828-0.6391602-0.4501953C9.4804688,20.1552734,9.34375,19.9179688,9.246582,19.640625
		c-0.0966797-0.2773438-0.1455078-0.5898438-0.1455078-0.9350586c0-0.3427734,0.0488281-0.652832,0.1455078-0.9306641
		c0.097168-0.2773438,0.2338867-0.5126953,0.4101562-0.7055664c0.1767578-0.1923828,0.3896484-0.3413086,0.6391602-0.4462891
		C10.5454102,16.5185547,10.8227539,16.4658203,11.128418,16.4658203z M11.128418,20.1503906
		c0.3398438,0,0.5913086-0.1210938,0.7543945-0.3652344c0.1635742-0.2441406,0.2451172-0.6005859,0.2451172-1.0708008
		s-0.081543-0.8286133-0.2451172-1.0751953c-0.1630859-0.246582-0.4145508-0.3701172-0.7543945-0.3701172
		c-0.3452148,0-0.6000977,0.1240234-0.7646484,0.3720703s-0.2470703,0.6054688-0.2470703,1.0732422
		c0,0.4672852,0.0825195,0.8237305,0.2470703,1.0688477S10.7832031,20.1503906,11.128418,20.1503906z"/>
	<path class="st2" d="M13.9121094,20.8945312v-4.3603516h0.6010742c0.1274414,0,0.2109375,0.0634766,0.2509766,0.190918
		l0.0678711,0.3442383c0.0820312-0.090332,0.1689453-0.1723633,0.2607422-0.2460938
		c0.0913086-0.0737305,0.1884766-0.1376953,0.2905273-0.1914062s0.2119141-0.0947266,0.3286133-0.1235352
		c0.1166992-0.027832,0.2441406-0.0424805,0.3823242-0.0424805c0.2231445,0,0.4208984,0.0405273,0.5932617,0.1210938
		c0.1723633,0.0810547,0.3164062,0.1943359,0.4321289,0.340332c0.1152344,0.1459961,0.203125,0.3203125,0.2626953,0.5224609
		c0.0600586,0.2026367,0.0898438,0.4257812,0.0898438,0.6694336v2.7753906h-0.9838867v-2.7753906
		c0-0.2661133-0.0576172-0.472168-0.1733398-0.6181641c-0.1152344-0.1459961-0.2885742-0.21875-0.5195312-0.21875
		c-0.1699219,0-0.3291016,0.0410156-0.4780273,0.1230469c-0.1484375,0.0820312-0.2890625,0.1943359-0.421875,0.3359375v3.1533203
		H13.9121094z"/>
	<path class="st2" d="M20.34375,20.8945312h-0.8925781l-1.6245117-4.3603516h0.8164062
		c0.0717773,0,0.1318359,0.0185547,0.1811523,0.0551758s0.0830078,0.0834961,0.1015625,0.1401367l0.7890625,2.3291016
		c0.0449219,0.1357422,0.0820312,0.2695312,0.1132812,0.3994141c0.0302734,0.1298828,0.0576172,0.2607422,0.0820312,0.3916016
		c0.0234375-0.1308594,0.0507812-0.2617188,0.0810547-0.3916016s0.0693359-0.2636719,0.1171875-0.3994141l0.8085938-2.3291016
		c0.0185547-0.0566406,0.0517578-0.1035156,0.0996094-0.1401367s0.1044922-0.0551758,0.1708984-0.0551758h0.7773438
		L20.34375,20.8945312z"/>
	<path class="st2" d="M24.1035156,16.4658203c0.2568359,0,0.4941406,0.0439453,0.7099609,0.1318359
		s0.4033203,0.2163086,0.5595703,0.3847656s0.2792969,0.3754883,0.3671875,0.6206055
		c0.0869141,0.2451172,0.1308594,0.5249023,0.1308594,0.8393555c0,0.0791016-0.0039062,0.1450195-0.0097656,0.1977539
		c-0.0068359,0.0522461-0.0195312,0.0932617-0.0361328,0.1230469c-0.0175781,0.0297852-0.0400391,0.0507812-0.0693359,0.0639648
		c-0.0292969,0.0126953-0.0664062,0.019043-0.1113281,0.019043h-2.5253906
		c0.0292969,0.4477539,0.1425781,0.7768555,0.3378906,0.9858398c0.1972656,0.2089844,0.4570312,0.3144531,0.78125,0.3144531
		c0.1591797,0,0.296875-0.0195312,0.4121094-0.0595703s0.2167969-0.0830078,0.3027344-0.1318359
		c0.0859375-0.0478516,0.1621094-0.0917969,0.2265625-0.1308594c0.0654297-0.0410156,0.1289062-0.0605469,0.1894531-0.0605469
		c0.0400391,0,0.0742188,0.0087891,0.1035156,0.0253906c0.0292969,0.0175781,0.0546875,0.0410156,0.0761719,0.0722656
		l0.2861328,0.3828125c-0.1083984,0.1367188-0.2314453,0.25-0.3662109,0.3417969
		c-0.1347656,0.0927734-0.2773438,0.1660156-0.4238281,0.2216797c-0.1474609,0.0556641-0.2978516,0.09375-0.4501953,0.1162109
		c-0.1533203,0.0234375-0.3007812,0.0351562-0.4443359,0.0351562c-0.2832031,0-0.5478516-0.0507812-0.7929688-0.1513672
		c-0.2441406-0.1005859-0.4560547-0.2490234-0.6367188-0.4462891c-0.1796875-0.1972656-0.3222656-0.4414062-0.4257812-0.7304688
		c-0.1035156-0.2910156-0.1552734-0.6269531-0.1552734-1.0102539c0-0.2973633,0.0449219-0.5771484,0.1357422-0.8393555
		c0.0898438-0.2617188,0.21875-0.4897461,0.3876953-0.684082c0.1689453-0.1938477,0.3740234-0.3476562,0.6171875-0.4609375
		S23.796875,16.4658203,24.1035156,16.4658203z M24.1230469,17.2182617c-0.2871094,0-0.5117188,0.0864258-0.6738281,0.2592773
		s-0.265625,0.4179688-0.3105469,0.7353516h1.8476562c0-0.1362305-0.0166016-0.2641602-0.0507812-0.3847656
		c-0.0351562-0.1206055-0.0878906-0.2260742-0.1601562-0.3164062c-0.0712891-0.0908203-0.1621094-0.1621094-0.2705078-0.2148438
		C24.3964844,17.2446289,24.2685547,17.2182617,24.1230469,17.2182617z"/>
	<path class="st2" d="M26.671875,20.8945312v-4.3603516h0.5761719c0.1015625,0,0.171875,0.0195312,0.2109375,0.0595703
		c0.0410156,0.0395508,0.0664062,0.1074219,0.0800781,0.2036133l0.0605469,0.5273438
		c0.1455078-0.2695312,0.3164062-0.4819336,0.5136719-0.6376953c0.1953125-0.1557617,0.4160156-0.2338867,0.6601562-0.2338867
		c0.2021484,0,0.3691406,0.0498047,0.5019531,0.1489258l-0.1269531,0.7861328
		c-0.0078125,0.0512695-0.0253906,0.0874023-0.0527344,0.1083984c-0.0253906,0.0214844-0.0615234,0.0317383-0.1074219,0.0317383
		c-0.0390625,0-0.09375-0.0097656-0.1621094-0.0292969c-0.0703125-0.0200195-0.1611328-0.0297852-0.2753906-0.0297852
		c-0.2050781,0-0.3798828,0.0600586-0.5253906,0.1801758c-0.1464844,0.1206055-0.2695312,0.296875-0.3710938,0.5292969v2.7158203
		H26.671875z"/>
	<path class="st2" d="M31.2666016,20.9628906c-0.3525391,0-0.625-0.1074219-0.8164062-0.3212891
		c-0.1904297-0.2138672-0.2861328-0.5087891-0.2861328-0.8857422v-2.4355469H29.75
		c-0.0537109,0-0.0996094-0.0185547-0.1386719-0.0551758c-0.0380859-0.0371094-0.0566406-0.0922852-0.0566406-0.1660156v-0.4165039
		l0.65625-0.1147461l0.2070312-1.1899414c0.0117188-0.0566406,0.0351562-0.1005859,0.0742188-0.1318359
		c0.0380859-0.0307617,0.0869141-0.0463867,0.1445312-0.0463867h0.5097656v1.3725586h1.0761719v0.7480469h-1.0761719v2.3632812
		c0,0.1357422,0.0332031,0.2421875,0.0957031,0.3183594c0.0644531,0.0761719,0.1494141,0.1152344,0.2558594,0.1152344
		c0.0605469,0,0.1113281-0.0078125,0.1523438-0.0234375s0.078125-0.0322266,0.1074219-0.0488281
		c0.03125-0.0175781,0.0585938-0.0332031,0.0820312-0.0488281s0.0478516-0.0234375,0.0722656-0.0234375
		c0.0292969,0,0.0527344,0.0078125,0.0712891,0.0234375s0.0380859,0.0390625,0.0595703,0.0703125l0.2949219,0.5097656
		c-0.1435547,0.1269531-0.3085938,0.2236328-0.4941406,0.2890625
		C31.6582031,20.9296875,31.4658203,20.9628906,31.2666016,20.9628906z"/>
</g>
</svg>
