<?xml version="1.0" encoding="utf-8"?>
<!-- Generator: Adobe Illustrator 22.1.0, SVG Export Plug-In . SVG Version: 6.00 Build 0)  -->
<svg version="1.1" id="Layer_1" xmlns="http://www.w3.org/2000/svg" xmlns:xlink="http://www.w3.org/1999/xlink" x="0px" y="0px"
	 viewBox="0 0 36 36" style="enable-background:new 0 0 36 36;" xml:space="preserve">
<style type="text/css">
	.st0{fill:#099EFF;}
	.st1{enable-background:new    ;}
	.st2{fill:#FFFFFF;}
</style>
<rect class="st0" width="36" height="36"/>
<g class="st1">
	<path class="st2" d="M8.6660156,12.359375c0.0585938,0,0.109375,0.0224609,0.1518555,0.0683594l0.4243164,0.4599609
		c-0.2348633,0.2910156-0.5234375,0.5136719-0.8662109,0.6679688s-0.7539062,0.2324219-1.2338867,0.2324219
		c-0.4296875,0-0.8154297-0.0742188-1.1582031-0.2207031s-0.6352539-0.3505859-0.8779297-0.6113281
		c-0.2426758-0.2617188-0.4287109-0.5742188-0.5581055-0.9365234s-0.1938477-0.7587891-0.1938477-1.1875
		c0-0.4345703,0.0717773-0.8330078,0.2158203-1.1943359s0.3466797-0.6728516,0.6079102-0.9335938
		C5.4394531,8.4423828,5.7519531,8.2392578,6.1157227,8.09375c0.3642578-0.1455078,0.7661133-0.2177734,1.2060547-0.2177734
		c0.4296875,0,0.8046875,0.0683594,1.1259766,0.2060547C8.769043,8.21875,9.0444336,8.4013672,9.2739258,8.6279297l-0.3598633,0.5
		C8.8925781,9.1591797,8.8652344,9.1875,8.8320312,9.2119141C8.7983398,9.2353516,8.7524414,9.2480469,8.6938477,9.2480469
		c-0.0610352,0-0.1240234-0.0244141-0.1879883-0.0722656s-0.1455078-0.1005859-0.2441406-0.15625
		s-0.2231445-0.1074219-0.3735352-0.15625C7.7373047,8.8154297,7.5458984,8.7919922,7.3139648,8.7919922
		c-0.2719727,0-0.5219727,0.046875-0.75,0.1416016s-0.4238281,0.2304688-0.5878906,0.40625S5.684082,9.7294922,5.5917969,9.9814453
		C5.5,10.2333984,5.4541016,10.5166016,5.4541016,10.8320312c0,0.3251953,0.0458984,0.6142578,0.1376953,0.8671875
		c0.0922852,0.2539062,0.2167969,0.4667969,0.3740234,0.640625c0.1572266,0.1728516,0.3427734,0.3056641,0.5561523,0.3974609
		c0.2133789,0.0927734,0.4423828,0.1386719,0.6879883,0.1386719c0.1464844,0,0.2792969-0.0087891,0.3979492-0.0244141
		s0.2280273-0.0410156,0.328125-0.0761719c0.1000977-0.0341797,0.1943359-0.0791016,0.2836914-0.1337891
		s0.1782227-0.1220703,0.2661133-0.2021484c0.0268555-0.0234375,0.0546875-0.0429688,0.0839844-0.0576172
		S8.6313477,12.359375,8.6660156,12.359375z"/>
	<path class="st2" d="M10.9018555,9.6201172v2.6074219c0,0.2509766,0.0581055,0.4443359,0.1738281,0.5820312
		c0.1162109,0.1376953,0.2900391,0.2060547,0.5219727,0.2060547c0.1708984,0,0.3305664-0.0380859,0.4799805-0.1142578
		s0.2905273-0.1806641,0.4243164-0.3134766V9.6201172h0.987793v4.1035156h-0.6040039
		c-0.1279297,0-0.2119141-0.0595703-0.2519531-0.1796875l-0.0678711-0.328125
		c-0.0854492,0.0849609-0.1733398,0.1630859-0.2641602,0.2333984c-0.0908203,0.0712891-0.1875,0.1308594-0.2900391,0.1806641
		c-0.1025391,0.0488281-0.2133789,0.0878906-0.3320312,0.1162109c-0.1186523,0.0273438-0.2460938,0.0419922-0.3818359,0.0419922
		c-0.2241211,0-0.4223633-0.0380859-0.5942383-0.1142578s-0.3164062-0.1835938-0.434082-0.3222656
		c-0.1171875-0.1386719-0.2055664-0.3037109-0.265625-0.4941406s-0.090332-0.4003906-0.090332-0.6298828V9.6201172H10.9018555z"/>
	<path class="st2" d="M16.9819336,10.4199219c-0.0263672,0.0419922-0.0546875,0.0722656-0.0839844,0.0898438
		s-0.0664062,0.0253906-0.1118164,0.0253906c-0.0478516,0-0.0996094-0.0126953-0.1542969-0.0390625
		c-0.0546875-0.0273438-0.1176758-0.0566406-0.1899414-0.0908203c-0.0717773-0.0332031-0.1538086-0.0625-0.2456055-0.0898438
		c-0.0922852-0.0263672-0.2006836-0.0400391-0.3261719-0.0400391c-0.1948242,0-0.3481445,0.0419922-0.4599609,0.1240234
		c-0.1123047,0.0830078-0.1679688,0.1904297-0.1679688,0.3242188c0,0.0878906,0.0283203,0.1621094,0.0859375,0.2216797
		c0.0571289,0.0605469,0.1333008,0.1132812,0.2280273,0.1582031c0.0947266,0.0458984,0.2021484,0.0859375,0.3217773,0.1220703
		c0.1201172,0.0361328,0.2426758,0.0751953,0.3681641,0.1181641s0.2480469,0.0908203,0.3681641,0.1455078
		c0.1196289,0.0546875,0.2270508,0.1240234,0.3217773,0.2080078S17.1069336,11.8818359,17.1640625,12
		C17.2211914,12.1171875,17.25,12.2587891,17.25,12.4238281c0,0.1972656-0.0361328,0.3789062-0.1079102,0.5458984
		c-0.0722656,0.1669922-0.1772461,0.3105469-0.315918,0.4316406c-0.1386719,0.1220703-0.3100586,0.2158203-0.5141602,0.2841797
		s-0.4379883,0.1025391-0.7021484,0.1025391c-0.1411133,0-0.2792969-0.0126953-0.4135742-0.0380859
		c-0.1347656-0.0253906-0.2641602-0.0605469-0.3881836-0.1064453c-0.1240234-0.0449219-0.2387695-0.0986328-0.3442383-0.1601562
		c-0.1049805-0.0615234-0.1977539-0.1279297-0.277832-0.2001953l0.2280273-0.3759766
		c0.0292969-0.0449219,0.0639648-0.0800781,0.1040039-0.1035156c0.0400391-0.0244141,0.0908203-0.0361328,0.1518555-0.0361328
		c0.0615234,0,0.1196289,0.0175781,0.1743164,0.0517578c0.0546875,0.0351562,0.1176758,0.0722656,0.1899414,0.1123047
		c0.0717773,0.0400391,0.1567383,0.0771484,0.2539062,0.1123047c0.097168,0.0341797,0.2207031,0.0517578,0.3701172,0.0517578
		c0.1171875,0,0.2177734-0.0136719,0.3017578-0.0419922s0.1533203-0.0644531,0.2080078-0.1103516
		c0.0546875-0.0449219,0.0947266-0.0976562,0.1201172-0.1582031c0.0253906-0.0595703,0.0380859-0.1210938,0.0380859-0.1855469
		c0-0.0957031-0.0288086-0.1748047-0.0859375-0.2363281c-0.0576172-0.0605469-0.1333008-0.1142578-0.2280273-0.1591797
		c-0.0947266-0.0458984-0.2026367-0.0869141-0.3242188-0.1220703c-0.1210938-0.0361328-0.2451172-0.0761719-0.3720703-0.1181641
		c-0.1264648-0.0429688-0.2504883-0.0927734-0.3720703-0.1503906c-0.1210938-0.0576172-0.2290039-0.1298828-0.3237305-0.2177734
		s-0.1708984-0.1962891-0.2280273-0.3242188c-0.0576172-0.1279297-0.0859375-0.2822266-0.0859375-0.4638672
		c0-0.1679688,0.0332031-0.328125,0.1000977-0.4804688c0.0664062-0.1513672,0.1645508-0.2841797,0.2939453-0.3974609
		s0.2905273-0.2041016,0.4838867-0.2724609c0.1933594-0.0673828,0.4165039-0.1015625,0.6699219-0.1015625
		c0.2827148,0,0.5400391,0.046875,0.7719727,0.1396484c0.2319336,0.09375,0.425293,0.2167969,0.5800781,0.3681641
		L16.9819336,10.4199219z"/>
	<path class="st2" d="M19.3896484,13.7880859c-0.3544922,0-0.6279297-0.1015625-0.8198242-0.3027344
		c-0.1923828-0.2011719-0.2880859-0.4794922-0.2880859-0.8339844V10.359375h-0.4160156
		c-0.0532227,0-0.0996094-0.0166016-0.1381836-0.0517578c-0.0385742-0.0341797-0.0581055-0.0869141-0.0581055-0.15625V9.7597656
		l0.6601562-0.1083984L18.5375977,8.53125c0.0107422-0.0527344,0.0351562-0.0947266,0.0742188-0.1240234
		c0.0385742-0.0292969,0.0874023-0.0439453,0.1459961-0.0439453h0.5117188v1.2919922h1.0800781v0.7041016h-1.0800781v2.2246094
		c0,0.1279297,0.0322266,0.2275391,0.0966797,0.2998047c0.0634766,0.0722656,0.1494141,0.1074219,0.2558594,0.1074219
		c0.0615234,0,0.1123047-0.0068359,0.1542969-0.0214844c0.0410156-0.0146484,0.0771484-0.0302734,0.1074219-0.0458984
		c0.0302734-0.0166016,0.0585938-0.03125,0.0820312-0.0458984c0.0244141-0.0146484,0.0478516-0.0224609,0.0722656-0.0224609
		c0.0292969,0,0.0527344,0.0078125,0.0722656,0.0224609c0.0185547,0.0146484,0.0380859,0.0361328,0.0595703,0.0654297
		l0.2958984,0.4804688c-0.1435547,0.1201172-0.3095703,0.2109375-0.4960938,0.2714844
		C19.7832031,13.7568359,19.5898438,13.7880859,19.3896484,13.7880859z"/>
	<path class="st2" d="M22.8896484,9.5556641c0.3066406,0,0.5849609,0.0498047,0.8339844,0.1484375
		c0.25,0.0986328,0.4628906,0.2382812,0.6386719,0.4199219c0.1757812,0.1806641,0.3115234,0.4023438,0.4082031,0.6640625
		c0.0957031,0.2607422,0.1435547,0.5527344,0.1435547,0.8759766c0,0.3251953-0.0478516,0.6181641-0.1435547,0.8798828
		c-0.0966797,0.2607422-0.2324219,0.4833984-0.4082031,0.6679688c-0.1757812,0.1835938-0.3886719,0.3251953-0.6386719,0.4238281
		c-0.2490234,0.0986328-0.5273438,0.1474609-0.8339844,0.1474609s-0.5849609-0.0488281-0.8359375-0.1474609
		c-0.25-0.0986328-0.4638672-0.2402344-0.6416016-0.4238281C21.234375,13.0273438,21.0976562,12.8046875,21,12.5439453
		c-0.0976562-0.2617188-0.1455078-0.5546875-0.1455078-0.8798828c0-0.3232422,0.0478516-0.6152344,0.1455078-0.8759766
		c0.0976562-0.2617188,0.234375-0.4833984,0.4121094-0.6640625c0.1777344-0.1816406,0.3916016-0.3212891,0.6416016-0.4199219
		C22.3046875,9.6054688,22.5830078,9.5556641,22.8896484,9.5556641z M22.8896484,13.0234375
		c0.3417969,0,0.5947266-0.1142578,0.7587891-0.34375s0.2460938-0.5654297,0.2460938-1.0078125
		s-0.0820312-0.7802734-0.2460938-1.0126953c-0.1640625-0.2314453-0.4169922-0.3476562-0.7587891-0.3476562
		c-0.3466797,0-0.6025391,0.1171875-0.7675781,0.3505859c-0.1650391,0.2324219-0.2480469,0.5693359-0.2480469,1.0097656
		c0,0.4394531,0.0830078,0.7753906,0.2480469,1.0058594S22.5429688,13.0234375,22.8896484,13.0234375z"/>
	<path class="st2" d="M25.6855469,13.7236328V9.6201172h0.6044922c0.1279297,0,0.2119141,0.0595703,0.2519531,0.1796875
		l0.0644531,0.3037109c0.0712891-0.0800781,0.1464844-0.1533203,0.2255859-0.2197266
		c0.078125-0.0664062,0.1621094-0.1240234,0.2519531-0.171875c0.0888672-0.0478516,0.1855469-0.0859375,0.2880859-0.1142578
		s0.2148438-0.0419922,0.3378906-0.0419922c0.2587891,0,0.4716797,0.0703125,0.6376953,0.2099609
		c0.1669922,0.1396484,0.2919922,0.3261719,0.3740234,0.5576172c0.0644531-0.1357422,0.1445312-0.2519531,0.2402344-0.3496094
		s0.2011719-0.1767578,0.3164062-0.2382812c0.1142578-0.0605469,0.2363281-0.1064453,0.3652344-0.1357422
		c0.1298828-0.0292969,0.2597656-0.0439453,0.390625-0.0439453c0.2265625,0,0.4277344,0.0341797,0.6035156,0.1035156
		c0.1757812,0.0703125,0.3242188,0.1708984,0.4443359,0.3046875c0.1201172,0.1328125,0.2109375,0.2958984,0.2744141,0.4873047
		c0.0625,0.1923828,0.09375,0.4121094,0.09375,0.6601562v2.6123047h-0.9882812v-2.6123047
		c0-0.2607422-0.0576172-0.4580078-0.171875-0.5898438c-0.1152344-0.1318359-0.2832031-0.1982422-0.5039062-0.1982422
		c-0.1015625,0-0.1953125,0.0175781-0.2822266,0.0527344c-0.0869141,0.0341797-0.1630859,0.0839844-0.2275391,0.1494141
		c-0.0654297,0.0654297-0.1171875,0.1474609-0.1542969,0.2460938s-0.0556641,0.2119141-0.0556641,0.3398438v2.6123047h-0.9921875
		v-2.6123047c0-0.2744141-0.0556641-0.4746094-0.1660156-0.5996094c-0.1113281-0.125-0.2744141-0.1884766-0.4902344-0.1884766
		c-0.1416016,0-0.2744141,0.0361328-0.3984375,0.1064453s-0.2392578,0.1669922-0.3457031,0.2900391v3.0039062H25.6855469z"/>
</g>
<g transform="translate(213.85888,-65.751186)">
	<path class="st2" d="M-203.8000031,92.0999985v-2.6999969h1.1000061h1.1000061V91v1.6999969h5.6999969h5.6999969V91v-1.6999969
		h1.1000061h1.1000061V92v2.6999969h-0.3000031c-0.1999969,0-3.8000031,0-7.8999939,0h-7.6000061L-203.8000031,92.0999985
		L-203.8000031,92.0999985z M-190.5,84.8000031l-2.6999969,2.8000031c-1.5,1.5-2.6999969,2.8000031-2.6999969,2.8000031
		s-1.1999969-1.3000031-2.6000061-2.8000031l0,0l-2.6000061-2.8000031"/>
</g>
</svg>
