<?xml version="1.0" encoding="utf-8"?>
<!-- Generator: Adobe Illustrator 22.1.0, SVG Export Plug-In . SVG Version: 6.00 Build 0)  -->
<svg version="1.1" id="Layer_1" xmlns="http://www.w3.org/2000/svg" xmlns:xlink="http://www.w3.org/1999/xlink" x="0px" y="0px"
	 viewBox="0 0 36 36" style="enable-background:new 0 0 36 36;" xml:space="preserve">
<style type="text/css">
	.st0{fill:#009EFF;}
	.st1{display:none;}
	.st2{display:inline;fill:#009EFF;}
	.st3{display:inline;opacity:0.8;fill:#009EFF;enable-background:new    ;}
	.st4{display:inline;opacity:0.6;fill:#009EFF;enable-background:new    ;}
	.st5{display:inline;opacity:0.2;fill:#009EFF;enable-background:new    ;}
	.st6{display:inline;opacity:0.4;fill:#009EFF;enable-background:new    ;}
	.st7{font-family:'Lato-Bold';}
	.st8{font-size:10px;}
</style>
<g id="keyline">
	<rect class="st0" width="36" height="1"/>
	<rect y="35" class="st0" width="36" height="1"/>
	<rect class="st0" width="1" height="36"/>
	<rect x="35" class="st0" width="1" height="36"/>
</g>
<g id="ld" class="st1">
	
		<rect x="16.3" y="5.6" transform="matrix(0.7071 -0.7071 0.7071 0.7071 -2.239485e-02 15.1566)" class="st2" width="4" height="4"/>
	<rect x="19.7" y="8.9" transform="matrix(0.7071 -0.7071 0.7071 0.7071 -1.3554 18.5427)" class="st3" width="4" height="4"/>
	<rect x="23" y="12.2" transform="matrix(0.7071 -0.7071 0.7071 0.7071 -2.7176 21.838)" class="st3" width="4" height="4"/>
	<rect x="26.3" y="15.5" transform="matrix(0.7071 -0.7071 0.7071 0.7071 -4.0799 25.1333)" class="st4" width="4" height="4"/>
	<rect x="29.6" y="18.9" transform="matrix(0.7071 -0.7071 0.7071 0.7071 -5.5329 28.458)" class="st5" width="4" height="4"/>
	<rect x="33" y="22.2" transform="matrix(0.7071 -0.7071 0.7071 0.7071 -6.8658 31.844)" class="st5" width="4" height="4"/>
	<rect x="13.1" y="8.8" transform="matrix(0.7071 -0.7071 0.7071 0.7071 -3.2119 13.8417)" class="st2" width="4" height="4"/>
	<rect x="16.4" y="12.1" transform="matrix(0.7071 -0.7071 0.7071 0.7071 -4.5741 17.137)" class="st4" width="4" height="4"/>
	<rect x="19.7" y="15.5" transform="matrix(0.7071 -0.7071 0.7071 0.7071 -6.0271 20.4616)" class="st6" width="4" height="4"/>
	<rect x="23.1" y="18.8" transform="matrix(0.7071 -0.7071 0.7071 0.7071 -7.3601 23.8477)" class="st4" width="4" height="4"/>
	<rect x="26.4" y="22.1" transform="matrix(0.7071 -0.7071 0.7071 0.7071 -8.7223 27.143)" class="st5" width="4" height="4"/>
	<rect x="29.7" y="25.4" transform="matrix(0.7071 -0.7071 0.7071 0.7071 -10.0845 30.4384)" class="st5" width="4" height="4"/>
	<rect x="33" y="28.7" transform="matrix(0.7071 -0.7071 0.7071 0.7071 -11.4468 33.7336)" class="st5" width="4" height="4"/>
	<rect x="9.8" y="12.1" transform="matrix(0.7071 -0.7071 0.7071 0.7071 -6.5214 12.4652)" class="st2" width="4" height="4"/>
	<rect x="13.2" y="15.4" transform="matrix(0.7071 -0.7071 0.7071 0.7071 -7.8543 15.8514)" class="st2" width="4" height="4"/>
	<rect x="16.5" y="18.7" transform="matrix(0.7071 -0.7071 0.7071 0.7071 -9.2166 19.1467)" class="st6" width="4" height="4"/>
	<rect x="19.8" y="22" transform="matrix(0.7071 -0.7071 0.7071 0.7071 -10.5789 22.442)" class="st5" width="4" height="4"/>
	<rect x="23.1" y="25.4" transform="matrix(0.7071 -0.7071 0.7071 0.7071 -12.0318 25.7666)" class="st4" width="4" height="4"/>
	<rect x="26.5" y="28.7" transform="matrix(0.7071 -0.7071 0.7071 0.7071 -13.3648 29.1528)" class="st4" width="4" height="4"/>
	<rect x="29.8" y="32" transform="matrix(0.7071 -0.7071 0.7071 0.7071 -14.727 32.448)" class="st5" width="4" height="4"/>
	<rect x="6.6" y="15.3" transform="matrix(0.7071 -0.7071 0.7071 0.7071 -9.7108 11.1503)" class="st2" width="4" height="4"/>
	<rect x="9.9" y="18.6" transform="matrix(0.7071 -0.7071 0.7071 0.7071 -11.0731 14.4456)" class="st4" width="4" height="4"/>
	<rect x="13.2" y="22" transform="matrix(0.7071 -0.7071 0.7071 0.7071 -12.526 17.7702)" class="st6" width="4" height="4"/>
	<rect x="16.6" y="25.3" transform="matrix(0.7071 -0.7071 0.7071 0.7071 -13.859 21.1564)" class="st5" width="4" height="4"/>
	<rect x="19.9" y="28.6" transform="matrix(0.7071 -0.7071 0.7071 0.7071 -15.2213 24.4517)" class="st5" width="4" height="4"/>
	<rect x="23.2" y="31.9" transform="matrix(0.7071 -0.7071 0.7071 0.7071 -16.5834 27.747)" class="st5" width="4" height="4"/>
	<rect x="3.3" y="18.6" transform="matrix(0.7071 -0.7071 0.7071 0.7071 -13.0204 9.7739)" class="st4" width="4" height="4"/>
	<rect x="6.7" y="21.9" transform="matrix(0.7071 -0.7071 0.7071 0.7071 -14.3533 13.16)" class="st5" width="4" height="4"/>
	<rect x="10" y="25.2" transform="matrix(0.7071 -0.7071 0.7071 0.7071 -15.7156 16.4553)" class="st5" width="4" height="4"/>
	<rect x="13.3" y="28.5" transform="matrix(0.7071 -0.7071 0.7071 0.7071 -17.0778 19.7506)" class="st5" width="4" height="4"/>
	<rect x="16.6" y="31.9" transform="matrix(0.7071 -0.7071 0.7071 0.7071 -18.5308 23.0752)" class="st5" width="4" height="4"/>
	<rect x="0.1" y="21.8" transform="matrix(0.7071 -0.7071 0.7071 0.7071 -16.2097 8.459)" class="st4" width="4" height="4"/>
	<rect x="3.4" y="25.1" transform="matrix(0.7071 -0.7071 0.7071 0.7071 -17.572 11.7543)" class="st4" width="4" height="4"/>
	<rect x="6.7" y="28.5" transform="matrix(0.7071 -0.7071 0.7071 0.7071 -19.025 15.0789)" class="st5" width="4" height="4"/>
	<rect x="10.1" y="31.8" transform="matrix(0.7071 -0.7071 0.7071 0.7071 -20.358 18.465)" class="st6" width="4" height="4"/>
	<rect x="-3.2" y="25" transform="matrix(0.7071 -0.7071 0.7071 0.7071 -19.4374 7.0621)" class="st4" width="4" height="4"/>
	<rect x="0.1" y="28.4" transform="matrix(0.7071 -0.7071 0.7071 0.7071 -20.8905 10.3866)" class="st5" width="4" height="4"/>
	<rect x="3.4" y="31.7" transform="matrix(0.7071 -0.7071 0.7071 0.7071 -22.2526 13.6819)" class="st5" width="4" height="4"/>
	<rect x="-3.1" y="31.6" transform="matrix(0.7071 -0.7071 0.7071 0.7071 -24.0799 9.0718)" class="st5" width="4" height="4"/>
</g>
<text transform="matrix(1 0 0 1 11.6777 21.4054)" class="st0 st7 st8">LD</text>
</svg>
