<?xml version="1.0" encoding="utf-8"?>
<!-- Generator: Adobe Illustrator 22.1.0, SVG Export Plug-In . SVG Version: 6.00 Build 0)  -->
<svg version="1.1" id="Layer_1" xmlns="http://www.w3.org/2000/svg" xmlns:xlink="http://www.w3.org/1999/xlink" x="0px" y="0px"
	 viewBox="0 0 36 36" style="enable-background:new 0 0 36 36;" xml:space="preserve">
<style type="text/css">
	.st0{fill:#009EFF;}
	.st1{display:none;fill:#009EFF;}
	.st2{font-family:'Lato-Bold';}
	.st3{font-size:8.5px;}
</style>
<g id="keyline">
	<rect class="st0" width="36" height="1"/>
	<rect y="35" class="st0" width="36" height="1"/>
	<rect class="st0" width="1" height="36"/>
	<rect x="35" class="st0" width="1" height="36"/>
</g>
<path class="st1" d="M29.2,27.4l-4.5-4.5c-0.2-0.2-0.5-0.3-0.8-0.3h-0.7c1.2-1.6,2-3.6,2-5.8c0-5.2-4.2-9.3-9.3-9.3
	s-9.3,4.2-9.3,9.3s4.2,9.3,9.3,9.3c2.2,0,4.2-0.7,5.8-2v0.7c0,0.3,0.1,0.6,0.3,0.8l4.5,4.5c0.4,0.4,1.1,0.4,1.5,0l1.3-1.3
	C29.7,28.5,29.7,27.8,29.2,27.4z M15.9,22.6c-3.2,0-5.8-2.6-5.8-5.8s2.6-5.8,5.8-5.8s5.8,2.6,5.8,5.8C21.6,20,19.1,22.6,15.9,22.6z"
	/>
<text transform="matrix(1 0 0 1 10.6521 15.7942)"><tspan x="0" y="0" class="st0 st2 st3">Site</tspan><tspan x="-5.2" y="10.2" class="st0 st2 st3">search</tspan></text>
</svg>
