<?xml version="1.0" encoding="utf-8"?>
<!-- Generator: Adobe Illustrator 23.0.1, SVG Export Plug-In . SVG Version: 6.00 Build 0)  -->
<svg version="1.1" id="Layer_1" xmlns="http://www.w3.org/2000/svg" xmlns:xlink="http://www.w3.org/1999/xlink" x="0px" y="0px"
	 viewBox="0 0 20 20" style="enable-background:new 0 0 20 20;" xml:space="preserve">
<path d="M13.4,9h-0.7V6.8C12.7,4.2,10.6,2,8,2S3.2,4.2,3.2,6.8V9H2.5C1.7,9,1,9.7,1,10.5v6C1,17.3,1.7,18,2.5,18h10.9
	c0.8,0,1.5-0.7,1.5-1.5v-6C14.9,9.7,14.2,9,13.4,9z M10.2,9H5.7V6.8c0-1.2,1-2.2,2.2-2.2s2.2,1,2.2,2.2V9z"/>
</svg>
