<?xml version="1.0" encoding="utf-8"?>
<!-- Generator: Adobe Illustrator 23.0.1, SVG Export Plug-In . SVG Version: 6.00 Build 0)  -->
<svg version="1.1" id="Layer_1" xmlns="http://www.w3.org/2000/svg" xmlns:xlink="http://www.w3.org/1999/xlink" x="0px" y="0px"
	 viewBox="0 0 20 40" style="enable-background:new 0 0 20 40;" xml:space="preserve">
<path class="st0" d="M17.5,21.5h-15C1.7,21.5,1,20.8,1,20v0c0-0.8,0.7-1.5,1.5-1.5h15c0.8,0,1.5,0.7,1.5,1.5v0
	C19,20.8,18.3,21.5,17.5,21.5z"/>
<path d="M15.2,12.5H4.8c-0.7,0-1.1-1.2-0.6-1.9l5.2-7.1c0.3-0.4,0.8-0.4,1.1,0l5.2,7.1C16.3,11.3,15.9,12.5,15.2,12.5L15.2,12.5z"/>
<path d="M15.2,27.5H4.8c-0.7,0-1.1,1.2-0.6,1.9l5.2,7.1c0.3,0.4,0.8,0.4,1.1,0l5.2-7.1C16.3,28.7,15.9,27.5,15.2,27.5L15.2,27.5z"/>
</svg>
