<?xml version="1.0" encoding="utf-8"?>
<!-- Generator: Adobe Illustrator 23.0.1, SVG Export Plug-In . SVG Version: 6.00 Build 0)  -->
<svg version="1.1" id="Layer_1" xmlns="http://www.w3.org/2000/svg" xmlns:xlink="http://www.w3.org/1999/xlink" x="0px" y="0px"
	 viewBox="0 0 36 36" style="enable-background:new 0 0 36 36;" xml:space="preserve">
<path d="M3,31.1L8.5,33l2-2.1L6.8,27L3,31.1z M9.9,17.1c-0.6,0.6-0.8,1.4-0.6,2.2l0.7,2.5l-2.8,3l5.3,5.6l2.8-3l2.4,0.8
	c0.8,0.2,1.6,0,2.1-0.6l2-2.4L12.2,15L9.9,17.1L9.9,17.1z M32.1,7.6l-3.5-3.7c-1.1-1.2-2.9-1.3-4.1-0.1l-11,10l9.4,9.9L32.2,12
	C33.3,10.8,33.2,8.8,32.1,7.6L32.1,7.6z"/>
</svg>
