<?xml version="1.0" encoding="utf-8"?>
<!-- Generator: Adobe Illustrator 23.0.1, SVG Export Plug-In . SVG Version: 6.00 Build 0)  -->
<svg version="1.1" id="Layer_1" xmlns="http://www.w3.org/2000/svg" xmlns:xlink="http://www.w3.org/1999/xlink" x="0px" y="0px"
	 viewBox="0 0 28 28" style="enable-background:new 0 0 28 28;" xml:space="preserve">
<path class="st0" d="M20.2,17.6c-0.9,0-1.7,0.3-2.3,0.9l-6.7-3.8c0-0.2,0.1-0.4,0.1-0.6c0-0.2,0-0.4-0.1-0.6l6.7-3.8
	c0.6,0.5,1.4,0.9,2.3,0.9c1.9,0,3.5-1.5,3.5-3.5s-1.5-3.5-3.5-3.5S16.7,5,16.7,7c0,0.2,0,0.4,0.1,0.6l-6.7,3.8
	c-0.6-0.5-1.4-0.9-2.3-0.9c-1.9,0-3.5,1.5-3.5,3.5s1.5,3.5,3.5,3.5c0.9,0,1.7-0.3,2.3-0.9l6.7,3.8c0,0.2-0.1,0.4-0.1,0.6
	c0,1.9,1.5,3.5,3.5,3.5s3.5-1.5,3.5-3.5S22.1,17.6,20.2,17.6z"/>
</svg>
