<?xml version="1.0" encoding="utf-8"?>
<!-- Generator: Adobe Illustrator 23.0.3, SVG Export Plug-In . SVG Version: 6.00 Build 0)  -->
<svg version="1.1" id="user" xmlns="http://www.w3.org/2000/svg" xmlns:xlink="http://www.w3.org/1999/xlink" x="0px" y="0px"
	 viewBox="0 0 32 32" style="enable-background:new 0 0 32 32;" xml:space="preserve">
<path fill="#ff9900" fill-rule="evenodd" clip-rule="evenodd" d="M22,5.2c0,0-0.1,0.1-0.1,0.1l-8.5,8.7c-1,1-1,2.5,0,3.5l1.2,1.2c1,1,2.5,1,3.5,0l8.5-8.7c0,0,0.1-0.1,0.1-0.1
	l2.6,2.7c1,1,1.7,0.6,1.7-0.7V1.8C31,1.4,30.6,1,30.2,1h-9.8c-1.4,0-1.7,0.8-0.7,1.8C19.7,2.8,22,5.2,22,5.2z M6,1C3.2,1,1,3.2,1,6
	v20c0,2.8,2.2,5,5,5h20c2.8,0,5-2.2,5-5V13.1v7.1L26,16v7.5c0,1.4-1.1,2.5-2.5,2.5h-15C7.1,26,6,24.9,6,23.5v-15C6,7.1,7.1,6,8.5,6
	H16l-4.2-5h7.1C18.9,1,6,1,6,1z"/>
</svg>
