<?xml version="1.0" encoding="utf-8"?>
<!-- Generator: Adobe Illustrator 23.0.1, SVG Export Plug-In . SVG Version: 6.00 Build 0)  -->
<svg version="1.1" id="Layer_1" xmlns="http://www.w3.org/2000/svg" xmlns:xlink="http://www.w3.org/1999/xlink" x="0px" y="0px"
	 viewBox="0 0 20 20" style="enable-background:new 0 0 20 20;" xml:space="preserve">
<path class="st0" d="M16.2,11.8v4.5c0,0.4-0.3,0.8-0.8,0.8h-3.6c-0.2,0-0.4-0.2-0.4-0.4v-3.5c0-0.2-0.2-0.4-0.4-0.4H8.9
	c-0.2,0-0.4,0.2-0.4,0.4v3.5c0,0.2-0.2,0.4-0.4,0.4H4.5c-0.4,0-0.8-0.3-0.8-0.8v-4.5c0-0.1,0.1-0.2,0.1-0.3l5.9-4.8
	c0.1-0.1,0.3-0.1,0.5,0l5.9,4.8C16.2,11.5,16.2,11.7,16.2,11.8L16.2,11.8z M11,3.3c-0.6-0.5-1.4-0.5-1.9,0L1.1,9.9
	C1,10,1,10.2,1.1,10.4l0.8,1c0.1,0.2,0.4,0.2,0.5,0.1l7.4-6.1c0.1-0.1,0.3-0.1,0.5,0l7.4,6.1c0.2,0.1,0.4,0.1,0.5-0.1l0.8-1
	C19,10.2,19,10,18.9,9.9"/>
</svg>
